<?xml version="1.0" encoding="UTF-8"?>
<svg version="1.1" xmlns="http://www.w3.org/2000/svg" width="128" height="128">
<path d="M0 0 C2.56720609 1.86745656 4.72121096 3.77300162 7 6 C9.97201102 4.60101283 12.57016987 2.95669648 15.25 1.0625 C24.60550836 -5.11908792 32.93049166 -5.9832198 44 -5 C53.50149129 -2.79296069 61.18842409 3.01388125 66.75 10.91796875 C71.57978691 18.96258257 73.26900364 28.2463196 71.5390625 37.453125 C68.11888256 50.24862172 59.78184249 58.77690445 50.6015625 67.7890625 C49.39856733 68.98458137 48.19646404 70.18099831 46.99520874 71.37826538 C43.85750134 74.5008259 40.7079652 77.61117627 37.55566406 80.71899414 C34.33054573 83.90292166 31.11696408 87.09844853 27.90234375 90.29296875 C21.61269296 96.53994229 15.31046312 102.77405586 9 109 C5.19621266 107.42252567 2.76924721 105.02899824 -0.13232422 102.14233398 C-0.63045624 101.6493129 -1.12858826 101.15629181 -1.64181519 100.64833069 C-3.28463756 99.0193882 -4.91994403 97.38314108 -6.5546875 95.74609375 C-7.70023088 94.6044405 -8.8459965 93.46301021 -9.99197388 92.3217926 C-12.39439511 89.92683186 -14.79290598 87.52803433 -17.18896484 85.12670898 C-20.24228911 82.06761533 -23.30676799 79.01998179 -26.37458611 75.9754324 C-28.74607298 73.61877167 -31.11049607 71.25511902 -33.47302628 68.8894825 C-34.59887095 67.76414741 -35.7270474 66.64113967 -36.85769272 65.52062798 C-47.16807654 55.29130143 -55.57681347 45.78418859 -56.4375 30.625 C-56.00228509 20.5062533 -52.25795958 11.07222439 -45 4 C-42.14887894 1.66679841 -39.22910462 -0.2324901 -36 -2 C-35.40960938 -2.3403125 -34.81921875 -2.680625 -34.2109375 -3.03125 C-23.57203029 -8.09293272 -9.75137791 -5.72652997 0 0 Z " fill="#5C6174" transform="translate(56,12)"/>
</svg>
