<?xml version="1.0" encoding="UTF-8"?>
<svg version="1.1" xmlns="http://www.w3.org/2000/svg" width="128" height="128">
<path d="M0 0 C4.17074586 1.63786818 6.96319939 4.68904437 10.05371094 7.81079102 C10.64926285 8.40444458 11.24481476 8.99809814 11.8584137 9.60974121 C13.82198483 11.56961296 15.77827261 13.53658227 17.734375 15.50390625 C19.09592842 16.86665172 20.45785165 18.2290278 21.82012939 19.59104919 C24.67111921 22.44360227 27.51871925 25.2994822 30.36376953 28.15795898 C34.01968631 31.83090564 37.68219197 35.49719454 41.34701157 39.16125584 C44.15759296 41.9721084 46.96556635 44.78555378 49.77265167 47.59989738 C51.12292329 48.95336122 52.47381031 50.30621138 53.82530975 51.65844917 C55.70736579 53.54266064 57.58609929 55.43011984 59.46386719 57.31860352 C60.02797806 57.8822612 60.59208893 58.44591888 61.17329407 59.0266571 C65 62.88552342 65 62.88552342 65 64 C58.73 64 52.46 64 46 64 C46 85.12 46 106.24 46 128 C35.11 128 24.22 128 13 128 C13 115.46 13 102.92 13 90 C5.08 90 -2.84 90 -11 90 C-11 102.54 -11 115.08 -11 128 C-21.89 128 -32.78 128 -44 128 C-44 106.88 -44 85.76 -44 64 C-50.27 64 -56.54 64 -63 64 C-59.12027396 59.47365296 -55.2969902 55.15386462 -51.08642578 50.97290039 C-50.5295961 50.41592468 -49.97276642 49.85894897 -49.39906311 49.28509521 C-47.58351 47.47023101 -45.76445606 45.65892089 -43.9453125 43.84765625 C-42.67571469 42.57992626 -41.40633952 41.31197327 -40.13717651 40.04380798 C-36.81532426 36.72575224 -33.49047867 33.41071211 -30.16497803 30.09631348 C-26.76440491 26.70601645 -23.36670263 23.31284494 -19.96875 19.91992188 C-13.31528981 13.27714838 -6.65866041 6.63756054 0 0 Z " fill="#5D6174" transform="translate(63,0)"/>
</svg>
