<?xml version="1.0" encoding="UTF-8"?>
<svg version="1.1" xmlns="http://www.w3.org/2000/svg" width="128" height="128">
<path d="M0 0 C5.42627353 5.42627353 1 15.32609038 1 23 C-41.24 23 -83.48 23 -127 23 C-127 15.74 -127 8.48 -127 1 C-85.51814502 -20.46867933 -41.73949515 -21.68022321 0 0 Z " fill="#5C6174" transform="translate(127,105)"/>
<path d="M0 0 C8.43378895 5.02903712 13.3687046 11.85132766 16.109375 21.2578125 C16.54183803 26.02181076 16.47960514 30.78852508 16.484375 35.5703125 C16.50886719 36.85099609 16.53335938 38.13167969 16.55859375 39.45117188 C16.59270708 50.49820441 14.38195151 57.48600265 6.82421875 65.5390625 C0.06033316 72.31835558 -6.31192495 74.39534532 -15.828125 74.6953125 C-25.38571975 74.4483994 -32.19532201 71.6799626 -39.13671875 65.1171875 C-47.52179619 56.22788491 -48.25364898 47.97185278 -48.265625 36.0078125 C-48.29011719 34.73550781 -48.31460938 33.46320312 -48.33984375 32.15234375 C-48.37151102 21.92381428 -46.74024988 13.44087045 -39.59375 5.7890625 C-28.99673947 -3.73852495 -12.95346121 -6.21592266 0 0 Z " fill="#5C6174" transform="translate(79.890625,2.7421875)"/>
</svg>
