<?xml version="1.0" encoding="UTF-8"?>
<svg version="1.1" xmlns="http://www.w3.org/2000/svg" width="128" height="128">
<path d="M0 0 C1.0209375 0.02900391 1.0209375 0.02900391 2.0625 0.05859375 C3.0834375 0.06052734 3.0834375 0.06052734 4.125 0.0625 C6.72155884 0.64358474 7.47518637 1.35157008 9.0625 3.49609375 C9.40307617 6.4987793 9.40307617 6.4987793 9.35546875 10.1328125 C9.34580078 11.43154297 9.33613281 12.73027344 9.32617188 14.06835938 C9.30110585 15.44011014 9.27571101 16.81185493 9.25 18.18359375 C9.2349502 19.56704299 9.2212623 20.95050776 9.20898438 22.33398438 C9.17357223 25.72174582 9.12418054 29.10872514 9.0625 32.49609375 C11.0425 32.49609375 13.0225 32.49609375 15.0625 32.49609375 C15.04678955 31.63330811 15.0310791 30.77052246 15.01489258 29.8815918 C14.96374045 26.67800108 14.9261384 23.4746186 14.89770508 20.27075195 C14.88262603 18.88461456 14.8621595 17.49852481 14.83618164 16.11254883 C14.79976284 14.11951229 14.78436982 12.12612652 14.76953125 10.1328125 C14.7538208 8.93358154 14.73811035 7.73435059 14.72192383 6.4987793 C15.0625 3.49609375 15.0625 3.49609375 16.36206055 1.60473633 C19.23043851 -0.26537197 21.75551515 0.14177394 25.0625 0.49609375 C26.76293945 1.60473633 26.76293945 1.60473633 28.0625 3.49609375 C28.40307617 6.4987793 28.40307617 6.4987793 28.35546875 10.1328125 C28.3409668 12.0809082 28.3409668 12.0809082 28.32617188 14.06835938 C28.30110585 15.44011014 28.27571101 16.81185493 28.25 18.18359375 C28.2349502 19.56704299 28.2212623 20.95050776 28.20898438 22.33398438 C28.17357223 25.72174582 28.12418054 29.10872514 28.0625 32.49609375 C30.0425 32.49609375 32.0225 32.49609375 34.0625 32.49609375 C34.04678955 31.63330811 34.0310791 30.77052246 34.01489258 29.8815918 C33.96374045 26.67800108 33.9261384 23.4746186 33.89770508 20.27075195 C33.88262603 18.88461456 33.8621595 17.49852481 33.83618164 16.11254883 C33.79976284 14.11951229 33.78436982 12.12612652 33.76953125 10.1328125 C33.7538208 8.93358154 33.73811035 7.73435059 33.72192383 6.4987793 C34.0625 3.49609375 34.0625 3.49609375 35.36206055 1.60473633 C38.23043851 -0.26537197 40.75551515 0.14177394 44.0625 0.49609375 C45.7559967 1.69338989 45.7559967 1.69338989 47.0625 3.49609375 C47.45018005 5.8732605 47.45018005 5.8732605 47.46655273 8.71435547 C47.47923691 9.77911102 47.49192108 10.84386658 47.50498962 11.94088745 C47.50205399 13.0909024 47.49911835 14.24091736 47.49609375 15.42578125 C47.5013356 16.60826447 47.50657745 17.79074768 47.51197815 19.00906372 C47.51840655 21.51238214 47.51705086 24.01573074 47.50854492 26.51904297 C47.50004861 30.34918126 47.52876579 34.17782217 47.56054688 38.0078125 C47.56215927 40.43880164 47.56158063 42.86979341 47.55859375 45.30078125 C47.57544472 47.01973099 47.57544472 47.01973099 47.59263611 48.77340698 C47.52310315 56.71225711 47.52310315 56.71225711 45.21899414 60.63330078 C41.65220214 63.71431776 39.74004471 64.748934 35.0625 64.49609375 C35.06916183 65.14453751 35.07582367 65.79298126 35.08268738 66.46107483 C35.14919141 73.22587107 35.19436326 79.99057402 35.22729492 86.75561523 C35.24235705 89.27844008 35.26281077 91.80123885 35.28881836 94.32397461 C35.32531383 97.95563199 35.3422526 101.58694233 35.35546875 105.21875 C35.37095261 106.3419313 35.38643646 107.46511261 35.40238953 108.62232971 C35.40395706 115.95916664 34.84535551 121.1044886 30.0625 126.93359375 C25.45936505 129.33105987 21.13898075 129.36698561 16.0625 128.49609375 C12.13466825 126.53217787 9.67247294 123.55360636 8.0625 119.49609375 C7.82199097 116.92706299 7.82199097 116.92706299 7.83544922 113.99316406 C7.83560028 112.89232483 7.83575134 111.7914856 7.83590698 110.6572876 C7.84622955 109.47487488 7.85655212 108.29246216 7.8671875 107.07421875 C7.8700174 105.85909607 7.87284729 104.64397339 7.87576294 103.39202881 C7.88696046 99.5099504 7.91206466 95.62810246 7.9375 91.74609375 C7.94753034 89.11458666 7.95665609 86.48307596 7.96484375 83.8515625 C7.98689843 77.39966091 8.02037196 70.9478938 8.0625 64.49609375 C6.94343262 64.35800293 5.82436523 64.21991211 4.67138672 64.07763672 C1.0625 63.49609375 1.0625 63.49609375 -0.6796875 62.19140625 C-3.81074997 57.85110585 -5.05700718 54.93000267 -5.09863281 49.62915039 C-5.10824036 48.64125015 -5.1178479 47.65334991 -5.12774658 46.63551331 C-5.13199646 45.56985641 -5.13624634 44.50419952 -5.140625 43.40625 C-5.14632507 42.31017929 -5.15202515 41.21410858 -5.15789795 40.08482361 C-5.1673471 37.76562465 -5.17388159 35.44641227 -5.17773438 33.12719727 C-5.1874521 29.57609753 -5.21848184 26.02557355 -5.25 22.47460938 C-5.25652887 20.22265969 -5.2617798 17.97070587 -5.265625 15.71875 C-5.2779718 14.65511734 -5.2903186 13.59148468 -5.30303955 12.49562073 C-5.30003845 11.50456833 -5.29703735 10.51351593 -5.29394531 9.49243164 C-5.29759094 8.62211807 -5.30123657 7.7518045 -5.30499268 6.8551178 C-4.77718666 3.46700376 -3.45177378 0.88382111 0 0 Z " fill="#5C6174" transform="translate(16.9375,-0.49609375)"/>
<path d="M0 0 C1.16337891 0.00322266 2.32675781 0.00644531 3.52539062 0.00976562 C4.74033203 0.01814453 5.95527344 0.02652344 7.20703125 0.03515625 C8.43357422 0.03966797 9.66011719 0.04417969 10.92382812 0.04882812 C13.95577793 0.0606256 16.98763031 0.07708704 20.01953125 0.09765625 C20.08968845 15.23162732 20.14255227 30.36559087 20.17496777 45.49968815 C20.19042056 52.52710985 20.21147953 59.55443036 20.24584961 66.58178711 C20.27900455 73.3639414 20.29638639 80.14599051 20.30416298 86.92822075 C20.30970476 89.51537162 20.32052645 92.10251676 20.33672142 94.68962288 C20.3585074 98.31412295 20.3614976 101.93818909 20.36010742 105.56274414 C20.37089325 106.63161362 20.38167908 107.70048309 20.39279175 108.80174255 C20.36339458 115.8878595 19.63896132 120.90522585 15.01953125 126.53515625 C10.4163963 128.93262237 6.096012 128.96854811 1.01953125 128.09765625 C-2.87995909 126.14791108 -5.4767997 123.17404243 -6.98046875 119.09765625 C-7.14881915 116.3787067 -7.2134145 113.7666167 -7.17578125 111.05078125 C-7.17295135 110.27957947 -7.17012146 109.50837769 -7.16720581 108.71380615 C-7.15603888 106.25826293 -7.13094104 103.80308865 -7.10546875 101.34765625 C-7.09543443 99.67969278 -7.08630936 98.01172357 -7.078125 96.34375 C-7.056111 92.26157728 -7.02160542 88.17967925 -6.98046875 84.09765625 C-11.27046875 84.09765625 -15.56046875 84.09765625 -19.98046875 84.09765625 C-20.0484161 75.36973228 -20.10338338 66.6419858 -20.13590527 57.91385651 C-20.1515191 53.86043928 -20.17267836 49.80721339 -20.20678711 45.75390625 C-20.23953436 41.83760209 -20.25735393 37.92148124 -20.26510048 34.00505066 C-20.27061656 32.51561093 -20.28138782 31.02618052 -20.29765892 29.53681946 C-20.47931339 12.21020953 -20.47931339 12.21020953 -15.04296875 5.8203125 C-14.02203125 4.99853516 -14.02203125 4.99853516 -12.98046875 4.16015625 C-12.29984375 3.59425781 -11.61921875 3.02835937 -10.91796875 2.4453125 C-7.32434295 -0.05428609 -4.24780392 -0.02072099 0 0 Z " fill="#5D6274" transform="translate(95.98046875,-0.09765625)"/>
</svg>
