<?xml version="1.0" encoding="UTF-8"?>
<svg version="1.1" xmlns="http://www.w3.org/2000/svg" width="128" height="128">
<path d="M0 0 C3.77125953 -0.08074862 7.54079993 -0.1403818 11.3125 -0.1875 C12.38435547 -0.21263672 13.45621094 -0.23777344 14.56054688 -0.26367188 C15.58857422 -0.27333984 16.61660156 -0.28300781 17.67578125 -0.29296875 C19.0975769 -0.31653442 19.0975769 -0.31653442 20.5480957 -0.34057617 C23 0 23 0 26 3 C26 5.97 26 8.94 26 12 C59.66 12 93.32 12 128 12 C127.33443217 16.65897479 126.78125875 20.15588765 125.34179688 24.46044922 C124.83622253 25.98640213 124.83622253 25.98640213 124.32043457 27.54318237 C123.95687866 28.61947906 123.59332275 29.69577576 123.21875 30.8046875 C122.84520386 31.92440948 122.47165771 33.04413147 122.08679199 34.19778442 C121.29947657 36.55370763 120.50925636 38.90866185 119.71630859 41.26269531 C118.49792194 44.88117163 117.28927066 48.50279123 116.08203125 52.125 C115.31567214 54.41425272 114.54876439 56.70332186 113.78125 58.9921875 C113.41769409 60.08062958 113.05413818 61.16907166 112.67956543 62.29049683 C112.34251587 63.2888858 112.00546631 64.28727478 111.65820312 65.31591797 C111.36143677 66.19859344 111.06467041 67.08126892 110.75891113 67.99069214 C110 70 110 70 109 71 C106.33331271 71.11449159 103.69146398 71.16484097 101.02368164 71.17358398 C100.18794113 71.180271 99.35220062 71.18695801 98.49113464 71.19384766 C96.6702885 71.20793147 94.84942436 71.21981481 93.0285511 71.22979546 C90.15043225 71.246149 87.27244707 71.26938359 84.39439392 71.29469299 C76.20936696 71.36562984 68.0242854 71.42566237 59.83911133 71.47680664 C54.838805 71.50853402 49.83865153 71.54979376 44.83846855 71.59700203 C42.92825499 71.61306042 41.01800616 71.62536414 39.10774422 71.63390923 C36.44024187 71.64601381 33.77310127 71.67014248 31.10571289 71.69702148 C29.91261002 71.6979052 29.91261002 71.6979052 28.69540405 71.69880676 C24.38351363 71.59793264 24.38351363 71.59793264 21 74 C21.16417032 77.56592619 21.16417032 77.56592619 22 81 C25.15859615 82.57929807 28.55948074 82.1799634 32.02978516 82.20532227 C33.27380348 82.22017166 33.27380348 82.22017166 34.54295349 82.23532104 C37.29162719 82.26697664 40.04031818 82.29170949 42.7890625 82.31640625 C44.69192969 82.33697227 46.59479227 82.35796865 48.49765015 82.37937927 C53.51176225 82.43463627 58.52591582 82.48402953 63.5401001 82.53222656 C68.65437522 82.58241512 73.76858994 82.63811498 78.8828125 82.69335938 C88.92182343 82.80098531 98.96088675 82.90242042 109 83 C109 87.29 109 91.58 109 96 C97.40373097 96.11601952 85.80760078 96.20477937 74.21086884 96.25906086 C68.82559154 96.28511774 63.4407123 96.32044473 58.05566406 96.37719727 C52.85553594 96.43165591 47.65578991 96.46144993 42.45539856 96.47438622 C40.47469572 96.4836012 38.49401301 96.50159614 36.51347351 96.52865028 C33.73183549 96.56512487 30.95176183 96.56993769 28.16992188 96.56762695 C27.35711761 96.58560333 26.54431335 96.60357971 25.70687866 96.62210083 C19.71597934 96.56850338 15.62296812 94.82727948 11 91 C6.20551183 84.8532203 5.19720548 79.62089449 6 72 C7.76093059 66.18389782 10.88063338 62.318108 16 59 C19.3 58.01 22.6 57.02 26 56 C21.38 42.14 16.76 28.28 12 14 C8.04 13.67 4.08 13.34 0 13 C0 8.71 0 4.42 0 0 Z " fill="#5C6174" transform="translate(0,0)"/>
<path d="M0 0 C3.95522111 2.08955078 6.62738482 4.22290572 9 8 C9.90955744 12.96569198 9.50377381 16.99245239 7.25 21.5 C4.55891188 24.49009791 2.62679122 25.76913524 -1.3671875 26.3359375 C-7.08522757 26.42500354 -10.56237048 25.99386657 -15 22 C-17.71403708 17.56141853 -17.90706332 13.05474605 -17 8 C-13.06947079 1.10607495 -7.90355325 -1.09272611 0 0 Z " fill="#5C6173" transform="translate(100,102)"/>
<path d="M0 0 C3.95522111 2.08955078 6.62738482 4.22290572 9 8 C9.90955744 12.96569198 9.50377381 16.99245239 7.25 21.5 C4.55891188 24.49009791 2.62679122 25.76913524 -1.3671875 26.3359375 C-7.08522757 26.42500354 -10.56237048 25.99386657 -15 22 C-17.71403708 17.56141853 -17.90706332 13.05474605 -17 8 C-13.06947079 1.10607495 -7.90355325 -1.09272611 0 0 Z " fill="#5C6173" transform="translate(36,102)"/>
</svg>
