<?xml version="1.0" encoding="UTF-8"?>
<svg version="1.1" xmlns="http://www.w3.org/2000/svg" width="180" height="180">
<path d="M0 0 C1.06927734 -0.020625 2.13855469 -0.04125 3.24023438 -0.0625 C17.17898904 -0.12987767 31.18637766 3.38889491 41.5 13.25 C47.35471927 19.73766189 48.26884228 24.48013601 48.23828125 33.12890625 C47.94063109 36.2175099 47.11082781 38.40904883 45.9375 41.25 C46.2675 41.91 46.5975 42.57 46.9375 43.25 C48.96293556 43.50719817 50.99100224 43.75842122 53.02734375 43.90625 C54.9375 44.25 54.9375 44.25 56.9375 46.25 C57.17207519 51.17607903 56.90991132 55.80814874 54.125 59.9375 C51.9375 61.25 51.9375 61.25 47.9375 61.25 C49.04685941 64.85541809 50.36666986 68.26449701 51.9375 71.6875 C53.6695188 75.49279038 54.84635057 79.22114058 55.9375 83.25 C56.2675 83.58 56.5975 83.91 56.9375 84.25 C57.297888 88.07011276 57.47798663 90.40684085 55.375 93.6875 C52.11879203 95.7748128 49.72754984 95.5415423 45.9375 95.25 C45.68742187 95.82878906 45.43734375 96.40757812 45.1796875 97.00390625 C40.12821283 106.13786203 30.13525978 109.92731865 20.734375 112.9609375 C3.63234042 117.46490844 -16.15437185 115.78751708 -32.0625 108.25 C-36.64962128 105.40465521 -40.40898847 102.27488397 -43.625 97.9375 C-46.92503701 94.29899765 -49.30757926 94.18539424 -54.0625 93.25 C-56.0625 91.25 -56.0625 91.25 -56.25 87.6875 C-56.0625 84.25 -56.0625 84.25 -55.0625 83.25 C-54.52762518 80.74193151 -54.09844544 78.22192079 -53.66015625 75.6953125 C-53.0625 73.25 -53.0625 73.25 -51.0625 70.25 C-50.48079298 68.20998579 -50.05800082 66.16592803 -49.625 64.08984375 C-49.0625 62.25 -49.0625 62.25 -47.0625 60.25 C-48.17625 59.96125 -49.29 59.6725 -50.4375 59.375 C-54.0625 58.25 -54.0625 58.25 -56.0625 56.25 C-56.60618932 50.26941748 -56.60618932 50.26941748 -55.0625 47.375 C-51.8670594 45.57756466 -48.69776893 45.54797286 -45.0625 45.25 C-45.52754907 42.38219738 -45.99116704 39.54255544 -46.6796875 36.71875 C-48.18794569 30.08986213 -48.39031314 25.30461654 -45.0625 19.25 C-37.7461897 8.52204096 -27.10286194 3.55615715 -14.73364258 0.71508789 C-9.85679592 -0.13404774 -4.93834838 0.02322562 0 0 Z " fill="#FCCD6F" transform="translate(91.0625,32.75)"/>
<path d="M0 0 C1.03769531 -0.01160156 2.07539062 -0.02320313 3.14453125 -0.03515625 C16.92543589 0.01632907 30.88363335 3.6427381 41.0625 13.375 C46.90220632 19.84602592 47.83748977 24.62980268 47.8984375 33.25390625 C47.45450696 36.73136214 46.50962973 38.53561862 44.5 41.375 C44.08621094 41.97183594 43.67242187 42.56867188 43.24609375 43.18359375 C36.18693061 51.97067144 25.29996301 56.90642841 14.3671875 58.96484375 C-4.87090408 61.0052474 -22.27528976 59.98962221 -38.3046875 48.3359375 C-43.40582207 44.15152856 -46.86445186 40.47585074 -48.30078125 33.92578125 C-48.85173955 26.87135438 -47.07912217 20.79764468 -42.5 15.375 C-30.92557254 3.42547535 -16.23575703 -0.18151778 0 0 Z " fill="#FA956C" transform="translate(91.5,32.625)"/>
<path d="M0 0 C0.66 0.99 1.32 1.98 2 3 C1.505 3.7425 1.505 3.7425 1 4.5 C-0.40949758 8.02374395 -0.70632366 11.29915831 0 15 C2.64362269 18.68504982 5.34619336 20.65486809 9.78125 21.75390625 C12.7138239 22.07917413 15.55376277 21.88176978 18.5 21.75 C22.90930104 21.67920847 25.58198791 21.73168275 29 24.625 C30.56640625 26.265625 30.56640625 26.265625 32 28 C32.50402344 28.57234375 33.00804687 29.1446875 33.52734375 29.734375 C34.72246519 31.124821 35.86723546 32.55829967 37 34 C37.61875 33.319375 37.61875 33.319375 38.25 32.625 C40.12630048 30.88272099 41.59361289 29.87504986 44 29 C47.05865675 29.37074627 48.35168306 30.23445537 51 32 C53.62071402 31.65516921 56.02733617 30.99199917 58.5625 30.25 C61 30 61 30 62.875 31.5 C65.08035866 33.39767766 65.08035866 33.39767766 68.75 32.6875 C69.8225 32.460625 70.895 32.23375 72 32 C72.33 30.68 72.66 29.36 73 28 C73.79664062 28.11859375 74.59328125 28.2371875 75.4140625 28.359375 C82.18872921 29.32553236 82.18872921 29.32553236 88.4375 27.0625 C89.283125 26.381875 90.12875 25.70125 91 25 C93.875 24.75 93.875 24.75 96 25 C95.06282541 30.17139712 92.0121928 32.81506344 88 36 C71.12090919 46.45822629 51.10225866 47.85110731 32 44 C21.75627221 41.29430828 12.87434404 37.36876993 6.4375 28.6875 C3.13746299 25.04899765 0.75492074 24.93539424 -4 24 C-6 22 -6 22 -6.1875 18.4375 C-6 15 -6 15 -5 14 C-4.50369351 11.52297943 -4.10045208 9.03641868 -3.6953125 6.54296875 C-2.93897003 3.77679488 -1.84735943 2.16534753 0 0 Z " fill="#F79268" transform="translate(41,102)"/>
<path d="M0 0 C0.66 0 1.32 0 2 0 C2.495 0.99 2.495 0.99 3 2 C5.02543556 2.25719817 7.05350224 2.50842122 9.08984375 2.65625 C11 3 11 3 13 5 C13.2333696 9.90076166 12.95176838 14.5383557 10.25 18.6875 C7.50020081 20.29154953 6.13384015 20.54842203 3 20 C1.64664105 19.02727325 0.31337396 18.0260734 -1 17 C-3.64934822 16.28566879 -3.64934822 16.28566879 -6 16 C-5.95875 16.94875 -5.9175 17.8975 -5.875 18.875 C-6 22 -6 22 -8 24 C-13.14912794 24.59873581 -16.45967044 23.17935819 -21 21 C-20.95875 21.94875 -20.9175 22.8975 -20.875 23.875 C-21 27 -21 27 -23 29 C-25.8125 29.4375 -25.8125 29.4375 -29 29 C-31.875 26.5 -31.875 26.5 -34 24 C-34.86625 24.4640625 -34.86625 24.4640625 -35.75 24.9375 C-39.65137615 26.77981651 -39.65137615 26.77981651 -42 27 C-42.556875 26.505 -43.11375 26.01 -43.6875 25.5 C-46.87817028 23.43037603 -48.89873714 24.12535292 -52.5546875 24.65625 C-56.37098542 25.19272638 -60.17308829 25.60260164 -64 25 C-64.928125 24.01 -64.928125 24.01 -65.875 23 C-67.82337557 20.74001015 -67.82337557 20.74001015 -70.5390625 20.83984375 C-72.47570722 20.90371726 -74.4115586 21.00636775 -76.34375 21.15234375 C-79 21 -79 21 -80.90234375 19.50390625 C-83.96193001 17.31034813 -86.36151495 17.81319949 -90.0625 18 C-96.51544683 18.32501726 -96.51544683 18.32501726 -98.91015625 16.71875 C-100.7421697 13.82955317 -100.35456897 11.30931039 -100 8 C-99 6.125 -99 6.125 -97 5 C-94.31824378 4.46576454 -91.73630552 4.22428734 -89 4 C-88.67 3.01 -88.34 2.02 -88 1 C-87.5153125 1.37511719 -87.030625 1.75023438 -86.53125 2.13671875 C-73.38023625 12.17701194 -61.55184971 17.17680971 -44.875 17.1875 C-43.89273438 17.19974609 -42.91046875 17.21199219 -41.8984375 17.22460938 C-32.17754464 17.24379535 -23.37479383 16.20649598 -14.6875 11.6875 C-12.99173828 10.82705078 -12.99173828 10.82705078 -11.26171875 9.94921875 C-6.69380941 7.21941425 -2.99065239 4.48597858 0 0 Z " fill="#09BE65" transform="translate(135,74)"/>
<path d="M0 0 C0.2475 0.53625 0.495 1.0725 0.75 1.625 C6.08660702 11.76455335 13.22933509 17.29141941 24 21 C43.85460928 26.28610471 64.06188526 25.58026234 82.43359375 15.70703125 C87.82981287 12.11776526 92.21483929 7.34723809 94 1 C94.33 1 94.66 1 95 1 C95.55839416 10.49270073 95.55839416 10.49270073 92 15 C91.60941406 15.54269531 91.21882813 16.08539063 90.81640625 16.64453125 C83.93136288 25.59703807 72.77843162 30.53548233 61.8671875 32.58984375 C42.62909592 34.6302474 25.22471024 33.61462221 9.1953125 21.9609375 C3.92301259 17.63612337 0.89204759 14.01247179 -0.79296875 7.359375 C-1.02546966 4.70974199 -0.64253798 2.57015193 0 0 Z " fill="#FA6B38" transform="translate(44,59)"/>
<path d="M0 0 C2 1.0625 2 1.0625 4 3 C4.5 6.4375 4.5 6.4375 4 10 C2.3359375 12.22265625 2.3359375 12.22265625 0 14 C-2.8046875 14.25 -2.8046875 14.25 -5.875 14 C-11.35582774 13.78076689 -13.52512806 14.77392953 -18 18 C-21.5625 17.8125 -21.5625 17.8125 -25 17 C-25.969375 16.814375 -26.93875 16.62875 -27.9375 16.4375 C-28.9584375 16.2209375 -28.9584375 16.2209375 -30 16 C-30.33 17.65 -30.66 19.3 -31 21 C-34.25 21.6875 -34.25 21.6875 -38 22 C-39.36161311 21.03886134 -40.69855198 20.04115841 -42 19 C-44.48823926 19.18068911 -44.48823926 19.18068911 -47 20 C-49.5625 20.75 -49.5625 20.75 -52 21 C-52.639375 20.505 -53.27875 20.01 -53.9375 19.5 C-56.01699122 17.63925543 -56.01699122 17.63925543 -59.25 18.3125 C-60.61125 18.6528125 -60.61125 18.6528125 -62 19 C-56.95774207 12.45869241 -50.66953096 6.49014693 -43.0078125 3.125 C-40.04211149 2.94036492 -38.13783296 4.06333032 -35.5 5.375 C-29.44421935 8.35298004 -24.87805746 9.20043628 -18.125 9.25 C-17.43019531 9.270625 -16.73539063 9.29125 -16.01953125 9.3125 C-11.2148953 9.34869311 -8.14519826 8.35100797 -4 6 C-3.34 6 -2.68 6 -2 6 C-1.34 4.02 -0.68 2.04 0 0 Z " fill="#0DA257" transform="translate(144,114)"/>
<path d="M0 0 C0.59683594 0.5053125 1.19367187 1.010625 1.80859375 1.53125 C5.23622551 3.82855756 8.36315385 3.02651131 12.34375 2.71484375 C15 3 15 3 16.94140625 4.984375 C18.89216053 7.29387008 18.89216053 7.29387008 22.05859375 7.42578125 C23.17363281 7.38839844 24.28867188 7.35101563 25.4375 7.3125 C26.54996094 7.28800781 27.66242188 7.26351562 28.80859375 7.23828125 C31.62701501 7.02784833 34.24966174 6.63232076 37 6 C32.16361132 13.69425472 22.42677672 16.72636024 14 19 C7.76999661 20.29301957 -1.58127983 22.01376668 -7.28125 18.65625 C-9.73658295 16.29020188 -10.29732976 14.32171388 -11 11 C-10.92584513 6.69901747 -10.69270857 4.75043429 -7.75 1.5625 C-4.73501359 -0.15056046 -3.39251415 -0.6089128 0 0 Z " fill="#871402" transform="translate(52,91)"/>
<path d="M0 0 C3.36303824 -0.38434723 4.83740565 -0.0939434 7.8125 1.625 C10 4 10 4 10.5625 6.6875 C9.80771067 11.13237051 8.25439591 15.09183191 6 19 C-0.73503652 22.36751826 -12.14466286 20.29936808 -19 18.25 C-23.89541158 16.54300717 -28.45811741 14.4935826 -33 12 C-32.34 10.68 -31.68 9.36 -31 8 C-29.68 8 -28.36 8 -27 8 C-26.38125 8.66 -25.7625 9.32 -25.125 10 C-23.08931956 12.3350339 -23.08931956 12.3350339 -19.75 12.25 C-18.8425 12.1675 -17.935 12.085 -17 12 C-16.34 9.69 -15.68 7.38 -15 5 C-10.25 5.875 -10.25 5.875 -8 7 C-6.00039988 7.039992 -3.99952758 7.04346799 -2 7 C-1.34 4.69 -0.68 2.38 0 0 Z " fill="#881504" transform="translate(129,90)"/>
<path d="M0 0 C0.66 0 1.32 0 2 0 C3.45147903 2.90295805 3.37239025 4.77261779 3 8 C1.3448839 10.86666109 -0.58002022 13.48533484 -3.7890625 14.6484375 C-12.94036279 16.10359126 -20.74539231 15.17388741 -29 11 C-29 10.34 -29 9.68 -29 9 C-21.14340919 6.23540585 -13.91922404 4.52862496 -5.58203125 4.17578125 C-3.01398007 4.16758588 -3.01398007 4.16758588 -1 3 C-0.67 2.01 -0.34 1.02 0 0 Z " fill="#0FA45A" transform="translate(136,105)"/>
<path d="M0 0 C0.8971875 0.76183594 0.8971875 0.76183594 1.8125 1.5390625 C4.62522515 3.41756108 6.11525837 3.13043991 9.4375 2.8125 C14.48940396 2.63014518 14.48940396 2.63014518 16.828125 4.32421875 C18.1875 6 18.1875 6 20 9 C13.12516845 11.1874464 6.62612572 12.29939403 -0.5625 12.3125 C-1.25279297 12.31765625 -1.94308594 12.3228125 -2.65429688 12.328125 C-6.30835378 12.27752481 -7.88149939 12.0790004 -11 10 C-10.74028905 6.19090609 -10.41701925 4.44018699 -7.75 1.625 C-4.73032492 -0.15935345 -3.42795214 -0.61527346 0 0 Z " fill="#DB1B01" transform="translate(52,91)"/>
<path d="M0 0 C3.36303824 -0.38434723 4.83740565 -0.0939434 7.8125 1.625 C10 4 10 4 10.3125 7.25 C10.209375 8.1575 10.10625 9.065 10 10 C5.45166026 12.63178742 2.17702639 13.38661735 -3.0625 13.3125 C-4.24972656 13.30863281 -5.43695313 13.30476563 -6.66015625 13.30078125 C-9.85604527 13.01296434 -12.11988582 12.36655701 -15 11 C-15 9.02 -15 7.04 -15 5 C-10.25 5.875 -10.25 5.875 -8 7 C-6.00039988 7.039992 -3.99952758 7.04346799 -2 7 C-1.34 4.69 -0.68 2.38 0 0 Z " fill="#DA1C02" transform="translate(129,90)"/>
<path d="M0 0 C0.515625 0.309375 1.03125 0.61875 1.5625 0.9375 C4.04400585 2.20363267 4.04400585 2.20363267 7.1875 2.0625 C12.94516619 3.47831956 16.32951729 7.46391593 20 12 C20 12.66 20 13.32 20 14 C7.10511658 14.68874748 7.10511658 14.68874748 3.25 12.125 C0.05562712 9.10809228 0.05562712 9.10809228 -0.09765625 6.0546875 C-0.06510417 4.03645833 -0.03255208 2.01822917 0 0 Z " fill="#0BA459" transform="translate(43,108)"/>
<path d="M0 0 C3.35407832 2.71520626 4.6551394 5.96541819 6 10 C5.78713661 14.18631341 5.12891674 17.40336592 3 21 C-4.13875832 26.13990599 -12.52848764 26.06771258 -21 25 C-26.34761955 23.66153148 -31.10686458 21.49145886 -36 19 C-36 18.34 -36 17.68 -36 17 C-32.73759777 18.06028073 -29.66986285 19.15606484 -26.5625 20.625 C-19.60550884 23.26246667 -10.50967017 23.4531266 -3.66015625 20.6171875 C-0.50048061 18.69632742 0.66704503 17.45000111 2 14 C1.74810196 9.38186924 0.58385934 5.32921554 -1 1 C-0.67 0.67 -0.34 0.34 0 0 Z " fill="#F07747" transform="translate(139,99)"/>
<path d="M0 0 C0.66 0 1.32 0 2 0 C4.59150115 5.07934226 5.79326789 8.30373729 4 14 C0.6154222 17.92004832 -2.98709378 19.82539847 -8.15234375 20.2734375 C-17.23328361 20.51709533 -23.77935294 19.28637091 -32 15 C-32 14.34 -32 13.68 -32 13 C-28 14.33333333 -24 15.66666667 -20 17 C-17.87749355 17.12040604 -15.75088413 17.17533819 -13.625 17.1875 C-11.94277344 17.20876953 -11.94277344 17.20876953 -10.2265625 17.23046875 C-6.09428721 16.93530623 -3.19075041 16.14969005 -0.1875 13.25 C2.08263 8.94870105 1.07495867 4.56857433 0 0 Z " fill="#F1F2EC" transform="translate(137,102)"/>
<path d="M0 0 C1.3125 2.0625 1.3125 2.0625 2 4 C-3.15582235 6.17087257 -7.31416003 7.85824 -13 7 C-15.63016161 4.8272578 -17.47336894 3.05326212 -19 0 C-16.77156512 -0.19600577 -14.54220107 -0.38146569 -12.3125 -0.5625 C-10.45044922 -0.71912109 -10.45044922 -0.71912109 -8.55078125 -0.87890625 C-5.41873426 -0.98571973 -2.98219509 -0.92097201 0 0 Z " fill="#14A056" transform="translate(69,126)"/>
<path d="M0 0 C0.66 0.99 1.32 1.98 2 3 C1.505 3.7425 1.505 3.7425 1 4.5 C-0.40949758 8.02374395 -0.70632366 11.29915831 0 15 C2.6285227 18.66400134 5.323912 20.67476856 9.75390625 21.73046875 C14.81038717 22.33724646 19.91838915 22.13754736 25 22 C21.93153489 25.06846511 18.35882818 24.36849869 14.25 24.375 C13.45078125 24.39949219 12.6515625 24.42398438 11.828125 24.44921875 C6.38819852 24.47606049 3.31700049 23.59971425 -1 20 C-3.86996534 16.55604159 -4.51626835 13.56218539 -4.37109375 9.0703125 C-3.73268968 5.50868978 -1.99319921 2.98979882 0 0 Z " fill="#F76E3D" transform="translate(41,102)"/>
<path d="M0 0 C0.33 0 0.66 0 1 0 C1.02578125 0.74765625 1.0515625 1.4953125 1.078125 2.265625 C1.28989423 8.34327341 1.28989423 8.34327341 3.9375 13.625 C7.77763425 16.1850895 11.11772671 16.30886193 15.625 16.5625 C16.33140625 16.60568359 17.0378125 16.64886719 17.765625 16.69335938 C19.51018537 16.79944751 21.25506697 16.90022889 23 17 C22.67 17.66 22.34 18.32 22 19 C15.02680114 20.65613473 8.3681064 20.39544263 2 17 C-0.57601389 14.80096375 -1.78321183 13.41334625 -2.30078125 10.0390625 C-2.43492006 6.24081613 -2.12564405 3.18846607 0 0 Z " fill="#F4F5F0" transform="translate(42,105)"/>
<path d="M0 0 C2 1 2 1 3.3125 3.3125 C5.17518219 6.27899385 7.18861522 7.94844894 10 10 C9 11 9 11 6.1875 11.25 C3 11 3 11 0.625 9.9375 C-1 8 -1 8 -1.3125 4.375 C-1 1 -1 1 0 0 Z " fill="#0BA156" transform="translate(36,116)"/>
<path d="M0 0 C3.35407832 2.71520626 4.6551394 5.96541819 6 10 C5.6875 13.9375 5.6875 13.9375 5 17 C4.01 17 3.02 17 2 17 C2.0928125 15.5459375 2.0928125 15.5459375 2.1875 14.0625 C2.21625881 9.38440054 0.64771207 5.32524418 -1 1 C-0.67 0.67 -0.34 0.34 0 0 Z " fill="#FE6C3B" transform="translate(139,99)"/>
<path d="M0 0 C4.95 0 9.9 0 15 0 C14.67 0.66 14.34 1.32 14 2 C11.6015625 2.44921875 11.6015625 2.44921875 8.625 2.6875 C7.64789063 2.77386719 6.67078125 2.86023438 5.6640625 2.94921875 C3 3 3 3 0 2 C0 1.34 0 0.68 0 0 Z " fill="#E7EBE0" transform="translate(50,122)"/>
</svg>
