<?xml version="1.0" encoding="UTF-8"?>
<svg version="1.1" xmlns="http://www.w3.org/2000/svg" width="180" height="180">
<path d="M0 0 C3.49131919 0.38279234 4.4253813 1.48306862 6.80371094 4.02197266 C7.55910156 4.80701172 8.31449219 5.59205078 9.09277344 6.40087891 C9.86878906 7.23232422 10.64480469 8.06376953 11.44433594 8.92041016 C15.8923192 13.64733474 20.07219442 18.08486849 25.58496094 21.56884766 C29.03415944 23.76183796 31.24282992 25.32442012 32.69433594 29.29541016 C32.98272324 32.08032671 33.1150959 34.58434814 33.06933594 37.35791016 C33.0809375 38.06496094 33.09253906 38.77201172 33.10449219 39.50048828 C33.07430712 44.85833719 33.07430712 44.85833719 31.25170898 46.95483398 C28.86819396 50.53701904 28.80598689 54.24070184 28.37792969 58.45947266 C28.27593765 59.36555267 28.17394562 60.27163269 28.06886292 61.20516968 C27.74474079 64.10909108 27.43800833 67.01454702 27.13183594 69.92041016 C26.9227009 71.82157884 26.7124253 73.72262242 26.50097656 75.62353516 C26.29308348 77.50632439 26.08540016 79.3891368 25.87792969 81.27197266 C25.77556 82.1996344 25.67319031 83.12729614 25.56771851 84.08306885 C25.0804042 88.55174155 24.62312215 93.01886677 24.23779297 97.49755859 C24.16214615 98.31292084 24.08649933 99.12828308 24.00856018 99.96835327 C23.869296 101.47984016 23.7430004 102.99260815 23.63291931 104.50650024 C23.03908863 110.71901781 20.75202073 114.57269731 16.00683594 118.54541016 C7.84204189 122.85888626 -0.29359373 122.86569514 -9.30566406 121.29541016 C-14.7069999 119.56903383 -18.14903514 117.09348611 -21.30566406 112.29541016 C-22.74011521 109.42650787 -22.73639524 106.55736722 -23.02441406 103.38916016 C-23.19781906 101.24097083 -23.19781906 101.24097083 -24.30566406 99.29541016 C-24.30751709 100.12153809 -24.30937012 100.94766602 -24.3112793 101.79882812 C-24.65854718 124.66729851 -24.65854718 124.66729851 -29.03564453 130.66650391 C-33.9782177 134.98559533 -40.29173943 138.27762319 -46.95019531 138.30712891 C-50.31774815 136.86070074 -52.86874982 134.59786241 -55.61816406 132.23291016 C-64.06945519 125.27382496 -73.4199938 120.36867672 -83.71972656 116.70166016 C-87.30566406 115.29541016 -87.30566406 115.29541016 -88.30566406 113.29541016 C-88.50947329 111.68525668 -88.66114684 110.0683578 -88.78637695 108.45019531 C-88.86638443 107.44219879 -88.94639191 106.43420227 -89.02882385 105.3956604 C-89.11115768 104.30296844 -89.19349152 103.21027649 -89.27832031 102.08447266 C-89.36568954 100.96479095 -89.45305878 99.84510925 -89.54307556 98.6914978 C-89.72737491 96.31938582 -89.9096552 93.94711626 -90.09008789 91.57470703 C-90.36650676 87.94218937 -90.6490087 84.31018535 -90.93261719 80.67822266 C-91.11070988 78.37616702 -91.28845573 76.07408451 -91.46582031 73.77197266 C-91.55017838 72.68332916 -91.63453644 71.59468567 -91.72145081 70.47305298 C-91.79830612 69.45875214 -91.87516144 68.44445129 -91.9543457 67.39941406 C-92.05641075 66.06277206 -92.05641075 66.06277206 -92.16053772 64.6991272 C-92.28921301 62.56788766 -92.30566406 60.4305306 -92.30566406 58.29541016 C-88.23423549 55.29541016 -88.23423549 55.29541016 -85.30566406 55.29541016 C-85.88316406 54.21001953 -86.46066406 53.12462891 -87.05566406 52.00634766 C-87.80630333 50.56136706 -88.55626791 49.11603584 -89.30566406 47.67041016 C-89.68722656 46.95755859 -90.06878906 46.24470703 -90.46191406 45.51025391 C-92.61776889 41.31403647 -94.003274 38.13507912 -93.30566406 33.29541016 C-91.30566406 31.29541016 -91.30566406 31.29541016 -88.90722656 30.81884766 C-86.30566406 31.29541016 -86.30566406 31.29541016 -84.39160156 33.70947266 C-83.5446875 35.29888672 -83.5446875 35.29888672 -82.68066406 36.92041016 C-82.11089844 37.96455078 -81.54113281 39.00869141 -80.95410156 40.08447266 C-79.38314194 43.14449354 -77.83283046 46.2133107 -76.30566406 49.29541016 C-76.35207031 48.60833984 -76.39847656 47.92126953 -76.44628906 47.21337891 C-76.50042969 45.86179687 -76.50042969 45.86179687 -76.55566406 44.48291016 C-76.62527344 43.14292969 -76.62527344 43.14292969 -76.69628906 41.77587891 C-76.30566406 39.29541016 -76.30566406 39.29541016 -74.54003906 37.40869141 C-72.30566406 36.29541016 -72.30566406 36.29541016 -70.05566406 36.60791016 C-69.47816406 36.83478516 -68.90066406 37.06166016 -68.30566406 37.29541016 C-67.88994141 38.79394531 -67.88994141 38.79394531 -67.46582031 40.32275391 C-67.10010857 41.62618806 -66.73421368 42.92957085 -66.36816406 44.23291016 C-66.18576172 44.89226562 -66.00335938 45.55162109 -65.81542969 46.23095703 C-65.07970305 49.53362188 -65.07970305 49.53362188 -63.30566406 52.29541016 C-62.81646484 50.3946875 -62.81646484 50.3946875 -62.31738281 48.45556641 C-61.87613831 46.75630565 -61.43472289 45.05708926 -60.99316406 43.35791016 C-60.6731543 42.11170898 -60.6731543 42.11170898 -60.34667969 40.84033203 C-59.68923822 38.3185043 -59.00379815 35.80626034 -58.30566406 33.29541016 C-57.96075928 32.00739502 -57.96075928 32.00739502 -57.60888672 30.69335938 C-57.25189697 29.47350342 -57.25189697 29.47350342 -56.88769531 28.22900391 C-56.67991455 27.49609131 -56.47213379 26.76317871 -56.25805664 26.00805664 C-55.30566406 24.29541016 -55.30566406 24.29541016 -53.34741211 23.4597168 C-51.30566406 23.29541016 -51.30566406 23.29541016 -49.05566406 24.73291016 C-48.47816406 25.24853516 -47.90066406 25.76416016 -47.30566406 26.29541016 C-47.9791953 33.32059677 -49.60870462 39.96985056 -51.36816406 46.79541016 C-51.7906543 48.45830078 -51.7906543 48.45830078 -52.22167969 50.15478516 C-52.91204802 52.86945386 -53.60680782 55.58291654 -54.30566406 58.29541016 C-52.03504279 53.87811911 -50.32697208 49.25992746 -48.60449219 44.60791016 C-47.21833971 41.02022139 -46.59019388 39.4850967 -43.30566406 37.29541016 C-38.76512352 37.8359507 -38.76512352 37.8359507 -37.30566406 39.29541016 C-37.59801674 41.63423154 -37.9316562 43.96825015 -38.30566406 46.29541016 C-38.30566406 46.62541016 -38.30566406 46.95541016 -38.30566406 47.29541016 C-34.62272585 43.04586607 -33.03746374 40.40205135 -32.74316406 34.73291016 C-32.47240823 29.78484723 -31.78530594 27.04271679 -28.30566406 23.29541016 C-20.93028305 17.35081899 -12.66691962 15.07770654 -3.30566406 15.29541016 C-3.31726563 14.29638672 -3.32886719 13.29736328 -3.34082031 12.26806641 C-3.34984375 10.97771484 -3.35886719 9.68736328 -3.36816406 8.35791016 C-3.37976563 7.07013672 -3.39136719 5.78236328 -3.40332031 4.45556641 C-3.27861394 0.42006807 -3.27861394 0.42006807 0 0 Z M3.69433594 13.29541016 C3.69433594 13.95541016 3.69433594 14.61541016 3.69433594 15.29541016 C4.35433594 14.96541016 5.01433594 14.63541016 5.69433594 14.29541016 C5.03433594 13.96541016 4.37433594 13.63541016 3.69433594 13.29541016 Z M-29.30566406 50.29541016 C-30.16947696 51.74805054 -31.02146861 53.20772645 -31.86816406 54.67041016 C-32.34382813 55.48251953 -32.81949219 56.29462891 -33.30957031 57.13134766 C-33.63828125 57.84548828 -33.96699219 58.55962891 -34.30566406 59.29541016 C-33.97566406 59.95541016 -33.64566406 60.61541016 -33.30566406 61.29541016 C-29.23929207 57.92704932 -29.23929207 57.92704932 -27.99316406 52.98291016 C-28.09628906 52.09603516 -28.19941406 51.20916016 -28.30566406 50.29541016 C-28.63566406 50.29541016 -28.96566406 50.29541016 -29.30566406 50.29541016 Z M-41.30566406 51.29541016 C-40.30566406 53.29541016 -40.30566406 53.29541016 -40.30566406 53.29541016 Z M-27.30566406 67.29541016 C-28.66394377 68.9418098 -29.99820657 70.60836823 -31.30566406 72.29541016 C-28.83066406 72.79041016 -28.83066406 72.79041016 -26.30566406 73.29541016 C-26.30566406 71.31541016 -26.30566406 69.33541016 -26.30566406 67.29541016 C-26.63566406 67.29541016 -26.96566406 67.29541016 -27.30566406 67.29541016 Z " fill="#FE6936" transform="translate(120.3056640625,20.70458984375)"/>
<path d="M0 0 C3.49131919 0.38279234 4.4253813 1.48306862 6.80371094 4.02197266 C7.55910156 4.80701172 8.31449219 5.59205078 9.09277344 6.40087891 C9.86878906 7.23232422 10.64480469 8.06376953 11.44433594 8.92041016 C15.8923192 13.64733474 20.07219442 18.08486849 25.58496094 21.56884766 C29.03415944 23.76183796 31.24282992 25.32442012 32.69433594 29.29541016 C32.98272324 32.08032671 33.1150959 34.58434814 33.06933594 37.35791016 C33.0809375 38.06496094 33.09253906 38.77201172 33.10449219 39.50048828 C33.07430712 44.85833719 33.07430712 44.85833719 31.25170898 46.95483398 C28.86819396 50.53701904 28.80598689 54.24070184 28.37792969 58.45947266 C28.22494164 59.81859268 28.22494164 59.81859268 28.06886292 61.20516968 C27.74474079 64.10909108 27.43800833 67.01454702 27.13183594 69.92041016 C26.9227009 71.82157884 26.7124253 73.72262242 26.50097656 75.62353516 C26.29308348 77.50632439 26.08540016 79.3891368 25.87792969 81.27197266 C25.77556 82.1996344 25.67319031 83.12729614 25.56771851 84.08306885 C25.0804042 88.55174155 24.62312215 93.01886677 24.23779297 97.49755859 C24.16214615 98.31292084 24.08649933 99.12828308 24.00856018 99.96835327 C23.869296 101.47984016 23.7430004 102.99260815 23.63291931 104.50650024 C23.03908863 110.71901781 20.75202073 114.57269731 16.00683594 118.54541016 C7.84204189 122.85888626 -0.29359373 122.86569514 -9.30566406 121.29541016 C-14.7069999 119.56903383 -18.14903514 117.09348611 -21.30566406 112.29541016 C-26.71740264 101.471933 -24.4120387 84.75084763 -22.30566406 73.29541016 C-23.62566406 73.29541016 -24.94566406 73.29541016 -26.30566406 73.29541016 C-26.66087642 67.96722483 -26.66087642 67.96722483 -26.30566406 65.29541016 C-25.01210579 63.92345441 -23.68267705 62.58358359 -22.30566406 61.29541016 C-22.44591605 58.58835503 -22.44591605 58.58835503 -23.30566406 56.29541016 C-24.95566406 55.96541016 -26.60566406 55.63541016 -28.30566406 55.29541016 C-28.55566406 48.67041016 -28.55566406 48.67041016 -26.30566406 45.29541016 C-26.61784046 42.64908729 -26.61784046 42.64908729 -27.30566406 40.29541016 C-28.62566406 40.29541016 -29.94566406 40.29541016 -31.30566406 40.29541016 C-31.63566406 40.29541016 -31.96566406 40.29541016 -32.30566406 40.29541016 C-32.9215272 30.68110222 -32.9215272 30.68110222 -30.80566406 25.92041016 C-25.18045559 20.01394126 -18.30864803 16.78012664 -10.30566406 15.29541016 C-7.97277364 15.2499487 -5.63836668 15.24116126 -3.30566406 15.29541016 C-3.31726563 14.29638672 -3.32886719 13.29736328 -3.34082031 12.26806641 C-3.34984375 10.97771484 -3.35886719 9.68736328 -3.36816406 8.35791016 C-3.37976563 7.07013672 -3.39136719 5.78236328 -3.40332031 4.45556641 C-3.27861394 0.42006807 -3.27861394 0.42006807 0 0 Z M3.69433594 13.29541016 C3.69433594 13.95541016 3.69433594 14.61541016 3.69433594 15.29541016 C4.35433594 14.96541016 5.01433594 14.63541016 5.69433594 14.29541016 C5.03433594 13.96541016 4.37433594 13.63541016 3.69433594 13.29541016 Z " fill="#276DF0" transform="translate(120.3056640625,20.70458984375)"/>
<path d="M0 0 C3.49131919 0.38279234 4.4253813 1.48306862 6.80371094 4.02197266 C7.55910156 4.80701172 8.31449219 5.59205078 9.09277344 6.40087891 C9.86878906 7.23232422 10.64480469 8.06376953 11.44433594 8.92041016 C15.8923192 13.64733474 20.07219442 18.08486849 25.58496094 21.56884766 C29.03539143 23.76176446 31.23083028 25.32978192 32.69433594 29.29541016 C33.0350834 32.06682284 33.20453436 34.53163632 33.19433594 37.29541016 C33.22269531 37.99408203 33.25105469 38.69275391 33.28027344 39.41259766 C33.29499774 43.31453783 32.87372896 45.07429075 30.39355469 48.13134766 C17.98428647 58.08031234 5.29591147 59.76449758 -10.30566406 58.29541016 C-17.34167071 56.831543 -22.73808152 53.74947619 -28.30566406 49.29541016 C-27.95503906 48.73853516 -27.60441406 48.18166016 -27.24316406 47.60791016 C-26.08720413 44.75654232 -26.49598968 43.21023793 -27.30566406 40.29541016 C-28.62566406 40.29541016 -29.94566406 40.29541016 -31.30566406 40.29541016 C-31.63566406 40.29541016 -31.96566406 40.29541016 -32.30566406 40.29541016 C-32.9215272 30.68110222 -32.9215272 30.68110222 -30.80566406 25.92041016 C-25.18045559 20.01394126 -18.30864803 16.78012664 -10.30566406 15.29541016 C-7.97277364 15.2499487 -5.63836668 15.24116126 -3.30566406 15.29541016 C-3.31726563 14.29638672 -3.32886719 13.29736328 -3.34082031 12.26806641 C-3.34984375 10.97771484 -3.35886719 9.68736328 -3.36816406 8.35791016 C-3.37976563 7.07013672 -3.39136719 5.78236328 -3.40332031 4.45556641 C-3.27861394 0.42006807 -3.27861394 0.42006807 0 0 Z M3.69433594 13.29541016 C3.69433594 13.95541016 3.69433594 14.61541016 3.69433594 15.29541016 C4.35433594 14.96541016 5.01433594 14.63541016 5.69433594 14.29541016 C5.03433594 13.96541016 4.37433594 13.63541016 3.69433594 13.29541016 Z " fill="#D3E1FB" transform="translate(120.3056640625,20.70458984375)"/>
<path d="M0 0 C4.55555556 1.55555556 4.55555556 1.55555556 6 3 C5.47331935 10.02240863 3.6909362 16.69780665 1.9375 23.5 C1.65583984 24.60859375 1.37417969 25.7171875 1.08398438 26.859375 C0.39361604 29.5740437 -0.30114375 32.28750638 -1 35 C1.27062127 30.58270895 2.97869198 25.9645173 4.70117188 21.3125 C6.08732435 17.72481123 6.71547018 16.18968654 10 14 C14.54054054 14.54054054 14.54054054 14.54054054 16 16 C15.70764733 18.33882138 15.37400786 20.67284 15 23 C15 23.33 15 23.66 15 24 C15.30292969 23.51789063 15.60585937 23.03578125 15.91796875 22.5390625 C18.51034045 18.63056363 20.24588665 16.22248629 25 15 C26.5625 16.1875 26.5625 16.1875 28 18 C27.60458195 22.5473076 25.51001717 26.32752143 23.4375 30.3125 C23.10814453 30.95767578 22.77878906 31.60285156 22.43945312 32.26757812 C21.63175745 33.84785228 20.81662387 35.42432105 20 37 C20.76957031 36.18402344 21.53914063 35.36804688 22.33203125 34.52734375 C25 32 25 32 27.6875 31.5625 C30 32 30 32 32 34 C31.93845306 39.04684932 28.7911426 41.75969167 25.4375 45.125 C20.57894269 50.12091439 16.70184972 55.05476988 13.109375 61.05078125 C11 63 11 63 7.265625 63.46484375 C2.86016416 63.19394958 -0.93891076 61.90448135 -5 60.25 C-5.69843018 59.97486572 -6.39686035 59.69973145 -7.11645508 59.41625977 C-21.96606276 53.4906368 -21.96606276 53.4906368 -26 48 C-27.97882217 42.84208647 -30 37.56557354 -30 32 C-30.66 32 -31.32 32 -32 32 C-33.34855894 29.46543163 -34.67875217 26.92375848 -36 24.375 C-36.3815625 23.66214844 -36.763125 22.94929688 -37.15625 22.21484375 C-39.31210483 18.01862632 -40.69760994 14.83966896 -40 10 C-38 8 -38 8 -35.6015625 7.5234375 C-33 8 -33 8 -31.0859375 10.4140625 C-30.52132812 11.47367188 -29.95671875 12.53328125 -29.375 13.625 C-28.52035156 15.19121094 -28.52035156 15.19121094 -27.6484375 16.7890625 C-26.07747787 19.84908338 -24.5271664 22.91790054 -23 26 C-23.04640625 25.31292969 -23.0928125 24.62585938 -23.140625 23.91796875 C-23.19476563 22.56638672 -23.19476563 22.56638672 -23.25 21.1875 C-23.29640625 20.29417969 -23.3428125 19.40085937 -23.390625 18.48046875 C-23 16 -23 16 -21.234375 14.11328125 C-19 13 -19 13 -16.75 13.3125 C-16.1725 13.539375 -15.595 13.76625 -15 14 C-14.58427734 15.49853516 -14.58427734 15.49853516 -14.16015625 17.02734375 C-13.79444451 18.33077791 -13.42854962 19.63416069 -13.0625 20.9375 C-12.88009766 21.59685547 -12.69769531 22.25621094 -12.50976562 22.93554688 C-11.77403899 26.23821173 -11.77403899 26.23821173 -10 29 C-9.67386719 27.73285156 -9.34773438 26.46570313 -9.01171875 25.16015625 C-8.57047424 23.46089549 -8.12905883 21.76167911 -7.6875 20.0625 C-7.47416016 19.23169922 -7.26082031 18.40089844 -7.04101562 17.54492188 C-3.77391148 5.01289553 -3.77391148 5.01289553 -2 1 C-1.34 0.67 -0.68 0.34 0 0 Z M12 28 C13 30 13 30 13 30 Z " fill="#FDBE42" transform="translate(67,44)"/>
<path d="M0 0 C0.88171875 0.15082031 1.7634375 0.30164063 2.671875 0.45703125 C4.00992188 0.66392578 4.00992188 0.66392578 5.375 0.875 C6.05046875 1.00519531 6.7259375 1.13539062 7.421875 1.26953125 C7.2865639 2.93732864 7.15114945 4.60511769 7.01531982 6.27287292 C6.89400215 7.76324551 6.77312385 9.25365391 6.65264893 10.74409485 C6.31818376 14.8575968 5.9703262 18.96931796 5.59814453 23.07958984 C4.6594866 33.29214263 4.6594866 33.29214263 4.375 43.5390625 C4.30661642 54.37889667 4.30661642 54.37889667 0.70410156 57.99267578 C-3.91740819 61.53711168 -10.5391002 66.26953125 -16.578125 66.26953125 C-16.67589461 56.80896322 -16.49811687 47.35343184 -16.16308594 37.89916992 C-16.1064013 36.10301634 -16.0641041 34.30635159 -16.03613281 32.50952148 C-15.73906684 14.396749 -15.73906684 14.396749 -8.66601562 7.24438477 C-7.97701172 6.59268311 -7.28800781 5.94098145 -6.578125 5.26953125 C-5.94068359 4.35679443 -5.30324219 3.44405762 -4.64648438 2.50366211 C-2.578125 0.26953125 -2.578125 0.26953125 0 0 Z " fill="#983F22" transform="translate(90.578125,92.73046875)"/>
<path d="M0 0 C4.04176427 0.52004642 5.64889319 2.48056526 8.3125 5.4375 C12.23133602 9.53064997 14.58663704 10.80906015 20 12 C22.51395067 14.27066512 22.93130182 15.59639822 23.5 18.9375 C22.8112412 23.15614764 21.33125148 24.36275925 18 27 C7.53540444 33.52395288 -5.63580513 33.39546247 -17.4375 30.875 C-22.62758273 29.39013676 -26.767877 27.44416913 -30 23 C-31.1875 19.4375 -31.1875 19.4375 -31 16 C-28.11039342 10.59769205 -22.69791255 8.12830009 -17.015625 6.39453125 C-14.87332807 5.97520569 -12.93047056 5.90115882 -10.75 5.9375 C-8.89375 5.9684375 -8.89375 5.9684375 -7 6 C-7 8.31 -7 10.62 -7 13 C-7.99 13.33 -8.98 13.66 -10 14 C-9.62095792 17.29075996 -9.62095792 17.29075996 -8 20 C-2.82264323 20.37052339 -2.82264323 20.37052339 2 19 C1.62095792 15.70924004 1.62095792 15.70924004 0 13 C-0.07258946 10.81360547 -0.08373783 8.62499611 -0.0625 6.4375 C-0.05347656 5.23996094 -0.04445313 4.04242188 -0.03515625 2.80859375 C-0.02355469 1.88175781 -0.01195313 0.95492187 0 0 Z " fill="#D4E2FB" transform="translate(124,36)"/>
<path d="M0 0 C3.5699425 0.403665 4.60347849 1.63499875 7.06518555 4.20874023 C7.8521582 5.01633789 8.63913086 5.82393555 9.44995117 6.65600586 C10.66134766 7.93701172 10.66134766 7.93701172 11.8972168 9.24389648 C13.51379302 10.92152358 15.13219182 12.59739692 16.75268555 14.27124023 C17.46448975 15.02010498 18.17629395 15.76896973 18.90966797 16.54052734 C20.59985559 18.37943273 20.59985559 18.37943273 22.7097168 19.30639648 C22.8347168 21.68139648 22.8347168 21.68139648 22.7097168 24.30639648 C22.0497168 24.96639648 21.3897168 25.62639648 20.7097168 26.30639648 C16.99080106 26.2614355 15.6544306 25.25857132 12.81518555 22.80249023 C11.83209927 21.79301238 10.85961822 20.77311349 9.8972168 19.74389648 C9.39512695 19.22375977 8.89303711 18.70362305 8.37573242 18.16772461 C7.14442552 16.88951078 5.92577609 15.59912502 4.7097168 14.30639648 C4.65587159 16.59780935 4.61699593 18.88957837 4.5847168 21.18139648 C4.54991211 23.0956543 4.54991211 23.0956543 4.5144043 25.04858398 C4.35330156 28.39232986 4.35330156 28.39232986 6.7097168 30.30639648 C6.4597168 32.86889648 6.4597168 32.86889648 5.7097168 35.30639648 C2.5278952 36.89730728 -0.82664524 36.70224082 -4.2902832 36.30639648 C-6.3527832 35.05639648 -6.3527832 35.05639648 -7.2902832 33.30639648 C-7.1027832 31.18139648 -7.1027832 31.18139648 -6.2902832 29.30639648 C-5.6302832 28.97639648 -4.9702832 28.64639648 -4.2902832 28.30639648 C-4.26522705 27.49372314 -4.2401709 26.6810498 -4.21435547 25.84375 C-4.09879202 22.18528896 -3.97588736 18.5271112 -3.8527832 14.86889648 C-3.8134668 13.58950195 -3.77415039 12.31010742 -3.73364258 10.99194336 C-3.69174805 9.77700195 -3.64985352 8.56206055 -3.60668945 7.31030273 C-3.57003174 6.18438721 -3.53337402 5.05847168 -3.49560547 3.8984375 C-3.22093285 0.43089977 -3.22093285 0.43089977 0 0 Z " fill="#A0BFF8" transform="translate(120.290283203125,20.693603515625)"/>
<path d="M0 0 C4.48279397 1.12069849 5.31401637 2.10881036 8.3125 5.4375 C12.23133602 9.53064997 14.58663704 10.80906015 20 12 C22.51395067 14.27066512 22.93130182 15.59639822 23.5 18.9375 C22.8112412 23.15614764 21.33125148 24.36275925 18 27 C7.53540444 33.52395288 -5.63580513 33.39546247 -17.4375 30.875 C-22.62758273 29.39013676 -26.767877 27.44416913 -30 23 C-31.1875 19.4375 -31.1875 19.4375 -31 16 C-28.11039342 10.59769205 -22.69791255 8.12830009 -17.015625 6.39453125 C-14.87332807 5.97520569 -12.93047056 5.90115882 -10.75 5.9375 C-8.89375 5.9684375 -8.89375 5.9684375 -7 6 C-7 6.99 -7 7.98 -7 9 C-8.30324219 9.25523438 -8.30324219 9.25523438 -9.6328125 9.515625 C-18.62878292 11.11937646 -18.62878292 11.11937646 -26 16 C-26.50125283 19.66857722 -26.50125283 19.66857722 -26 23 C-24.9171875 23.433125 -24.9171875 23.433125 -23.8125 23.875 C-22.05226294 24.57909482 -20.30040277 25.30495264 -18.5625 26.0625 C-7.11211451 30.25166542 5.2122872 28.49652412 16.0625 23.625 C18.23656581 22.10271989 18.23656581 22.10271989 18.8125 19.3125 C18.9053125 18.1678125 18.9053125 18.1678125 19 17 C13.43734279 11.9588419 7.37695053 9.92211882 0 9 C0 6.03 0 3.06 0 0 Z " fill="#FBFCFE" transform="translate(124,36)"/>
<path d="M0 0 C1.44632812 0.74056641 1.44632812 0.74056641 2.921875 1.49609375 C4.19780852 2.14344237 5.47385621 2.79056599 6.75 3.4375 C7.38421875 3.76298828 8.0184375 4.08847656 8.671875 4.42382812 C19.29269199 9.78955338 33.5364265 9.90361975 44.8125 6.25 C49.11783803 4.54007851 53.09414246 2.48554571 57 0 C57.375 2.6875 57.375 2.6875 57 6 C50.89332651 12.74948123 41.57865254 15.59870542 32.6875 16.23828125 C24.10072532 16.41110828 15.78670889 16.06820569 8 12 C6.30859375 9.40625 6.30859375 9.40625 5 7 C2.40877257 6.11341534 2.40877257 6.11341534 0 6 C0 4.02 0 2.04 0 0 Z " fill="#123066" transform="translate(92,70)"/>
<path d="M0 0 C0.33 0 0.66 0 1 0 C1.6086543 7.18212078 1.6086543 7.18212078 -1 10.6875 C-13.76768585 20.52925785 -26.08089075 22.49898728 -42 21 C-49.03600665 19.53613284 -54.43241746 16.45406603 -60 12 C-59.34 10.68 -58.68 9.36 -58 8 C-57.27554688 8.34933594 -56.55109375 8.69867188 -55.8046875 9.05859375 C-54.83789062 9.51363281 -53.87109375 9.96867187 -52.875 10.4375 C-51.92367187 10.88996094 -50.97234375 11.34242187 -49.9921875 11.80859375 C-40.09133342 15.75083983 -24.0196704 16.13832841 -14.0625 12.25 C-11.89700853 11.17955871 -11.89700853 11.17955871 -10 10 C-8.88625 9.38125 -7.7725 8.7625 -6.625 8.125 C-3.67599236 5.7377081 -1.97415131 3.21713548 0 0 Z " fill="#9EBDF5" transform="translate(152,58)"/>
<path d="M0 0 C0.67413211 1.91405367 1.3390332 3.83136026 2 5.75 C2.37125 6.81734375 2.7425 7.8846875 3.125 8.984375 C4 12 4 12 4 16 C0.11602311 14.44997253 -2.02979619 11.99523379 -4.75 8.875 C-5.54921875 7.96492188 -6.3484375 7.05484375 -7.171875 6.1171875 C-8.07679687 5.06917969 -8.07679687 5.06917969 -9 4 C-4.5 0 -4.5 0 0 0 Z " fill="#600F02" transform="translate(37,76)"/>
<path d="M0 0 C4.44767487 1.11191872 5.53270641 2.2055878 8.625 5.4375 C9.40101563 6.24058594 10.17703125 7.04367188 10.9765625 7.87109375 C11.64429688 8.57363281 12.31203125 9.27617188 13 10 C13.66 10.66 14.32 11.32 15 12 C14.41992188 11.86722656 13.83984375 11.73445313 13.2421875 11.59765625 C8.84229018 10.60295999 4.46105842 9.68631668 0 9 C0 6.03 0 3.06 0 0 Z " fill="#FCFDFE" transform="translate(124,36)"/>
<path d="M0 0 C1.0725 0.33 2.145 0.66 3.25 1 C3.58 1.66 3.91 2.32 4.25 3 C2.1282637 4.33878572 0.00294812 5.67115476 -2.125 7 C-2.72828125 7.3815625 -3.3315625 7.763125 -3.953125 8.15625 C-8.5234375 11 -8.5234375 11 -10.75 11 C-8.91316885 5.32252189 -6.51650634 0 0 0 Z " fill="#5D0D01" transform="translate(91.75,93)"/>
<path d="M0 0 C0.66 0.33 1.32 0.66 2 1 C2.65215667 3.68042373 3.17812749 6.28421443 3.625 9 C3.82283081 10.15616821 3.82283081 10.15616821 4.0246582 11.33569336 C4.88642534 16.62160696 5.29244475 21.63851294 5 27 C4.67 27 4.34 27 4 27 C3.81824219 26.03320312 3.63648438 25.06640625 3.44921875 24.0703125 C2.01149727 16.57313977 0.4083573 9.259233 -2 2 C-1.34 1.34 -0.68 0.68 0 0 Z " fill="#6D2008" transform="translate(45,69)"/>
<path d="M0 0 C2.37948772 0.17625835 3.70225849 0.69719773 5.37890625 2.40234375 C6.62115486 3.90649092 7.81376056 5.45129851 9 7 C6.03 6.67 3.06 6.34 0 6 C0 4.02 0 2.04 0 0 Z " fill="#D5E2FC" transform="translate(124,36)"/>
<path d="M0 0 C0.99 0.33 1.98 0.66 3 1 C1.515 7.435 1.515 7.435 0 14 C-0.33 14 -0.66 14 -1 14 C-0.67 9.38 -0.34 4.76 0 0 Z " fill="#772A0C" transform="translate(64,82)"/>
<path d="M0 0 C0 2.31 0 4.62 0 7 C-1.32 6.34 -2.64 5.68 -4 5 C-3.625 3.0625 -3.625 3.0625 -3 1 C-1 0 -1 0 0 0 Z " fill="#254071" transform="translate(117,49)"/>
<path d="M0 0 C0.99 0 1.98 0 3 0 C2.67 1.32 2.34 2.64 2 4 C0.68 4.33 -0.64 4.66 -2 5 C-1.125 1.125 -1.125 1.125 0 0 Z " fill="#173365" transform="translate(140,42)"/>
<path d="M0 0 C1.485 0.99 1.485 0.99 3 2 C2.67 3.65 2.34 5.3 2 7 C1.34 7 0.68 7 0 7 C0 4.69 0 2.38 0 0 Z " fill="#183366" transform="translate(124,49)"/>
</svg>
