<?xml version="1.0" encoding="UTF-8"?>
<svg version="1.1" xmlns="http://www.w3.org/2000/svg" width="180" height="180">
<path d="M0 0 C1.45892001 8.65437017 2.45520982 17.24034738 3 26 C3.66 26 4.32 26 5 26 C5 31.61 5 37.22 5 43 C5.66 42.67 6.32 42.34 7 42 C14.08958838 41.4188862 14.08958838 41.4188862 17.9375 43.875 C20.60446101 46.62277801 20.95824498 47.446746 21.25 51.3125 C20.96929778 55.45285773 19.95127947 58.04872053 17 61 C14.75 61.375 14.75 61.375 12 61 C10.35 59.35 8.7 57.7 7 56 C7.495 65.405 7.495 65.405 8 75 C9.98 75.99 9.98 75.99 12 77 C14.40355927 80.6053389 14.75085268 83.79361025 14 88 C13.48566406 88.54011719 12.97132812 89.08023438 12.44140625 89.63671875 C9.75129627 94.04733267 11.35970321 99.59676381 11.9375 104.55859375 C12.32217858 109.00892699 12.55711738 112.0014942 9.70703125 115.625 C7 118 7 118 4.0625 118.125 C1 117 1 117 -2 114.9375 C-5.42477586 112.72566559 -7.02911749 112.82351633 -11 113 C-14 111 -14 111 -14.40234375 109.046875 C-14.83021356 106.80028874 -14.83021356 106.80028874 -17.06640625 105.515625 C-17.89011719 105.09796875 -18.71382813 104.6803125 -19.5625 104.25 C-20.38878906 103.82203125 -21.21507813 103.3940625 -22.06640625 102.953125 C-22.70449219 102.63859375 -23.34257813 102.3240625 -24 102 C-23.77183594 102.78503906 -23.54367188 103.57007813 -23.30859375 104.37890625 C-20.25596759 115.5353651 -20.25596759 115.5353651 -22 121 C-23.6875 123 -23.6875 123 -26 124 C-29.125 123.9375 -29.125 123.9375 -32 123 C-34.48155318 120.18005321 -34.28467973 116.86152783 -34.203125 113.21875 C-33.91947544 110.12042405 -33.22853628 107.18062046 -32.4375 104.17578125 C-31.91199436 101.5623291 -31.63536833 99.66268829 -32 97 C-34.20592361 94.96261685 -34.20592361 94.96261685 -37.24609375 93.3203125 C-37.80040573 92.99052399 -38.35471771 92.66073547 -38.92582703 92.32095337 C-40.75362753 91.23865668 -42.59529306 90.18255336 -44.4375 89.125 C-45.7034739 88.37859616 -46.9682758 87.63020113 -48.23193359 86.87988281 C-52.14190578 84.56453831 -56.06908453 82.27955905 -60 80 C-63.60898223 77.9062482 -67.21669656 75.81073519 -70.81274414 73.69482422 C-72.98479134 72.41948494 -75.16478667 71.15756615 -77.35327148 69.91064453 C-78.82195679 69.04995361 -78.82195679 69.04995361 -80.3203125 68.171875 C-81.17898926 67.6778418 -82.03766602 67.18380859 -82.92236328 66.67480469 C-85.45621068 64.6322438 -86.21959115 63.14317856 -87 60 C-86.01819304 57.19612797 -85.01830558 54.89788645 -83.625 52.3125 C-83.25286377 51.60134033 -82.88072754 50.89018066 -82.49731445 50.1574707 C-79.28571616 44.19288033 -75.60364512 38.98315709 -71 34 C-70.17757812 33.09765625 -69.35515625 32.1953125 -68.5078125 31.265625 C-50.93905881 12.83116461 -25.81002848 0 0 0 Z " fill="#FDCD6E" transform="translate(113,28)"/>
<path d="M0 0 C0.33808686 2.06172613 0.67027361 4.1244203 1 6.1875 C1.185625 7.33605469 1.37125 8.48460937 1.5625 9.66796875 C1.93489477 12.50415393 2.08596021 15.14719564 2 18 C1.44054687 18.08636719 0.88109375 18.17273438 0.3046875 18.26171875 C-6.33286983 19.42489198 -12.34346444 21.50038708 -18.60546875 23.9765625 C-22.23913098 25.07209703 -25.2266175 25.18219636 -29 25 C-28.505 25.7734375 -28.505 25.7734375 -28 26.5625 C-26.38329646 30.50321489 -26.40199812 34.29799466 -27.8125 38.3125 C-29 40 -29 40 -32 42 C-35.04358279 42.48204074 -37.9549599 42.47269576 -41 42 C-43.5625 40 -43.5625 40 -45 38 C-48.45195767 39.4258086 -50.1014256 41.09746334 -52.25 44.125 C-52.77078125 44.84945312 -53.2915625 45.57390625 -53.828125 46.3203125 C-54.40820312 47.15175781 -54.40820312 47.15175781 -55 48 C-54.39414062 48.28875 -53.78828125 48.5775 -53.1640625 48.875 C-49.64989952 50.70185729 -46.78957079 53.21042921 -44 56 C-46.54283234 56.10871967 -49.08095088 56.18762401 -51.625 56.25 C-52.33785156 56.28351563 -53.05070312 56.31703125 -53.78515625 56.3515625 C-60.54066315 56.47551675 -64.0149618 53.89873219 -68.875 49.25 C-69.57625 48.5075 -70.2775 47.765 -71 47 C-71.2475 47.66 -71.495 48.32 -71.75 49 C-73.31817045 52.76360907 -75.14505046 56.3711424 -77 60 C-76.29367432 60.26337158 -75.58734863 60.52674316 -74.85961914 60.7980957 C-71.82847379 62.07209285 -69.08865144 63.57859621 -66.24609375 65.23046875 C-64.5919043 66.18856445 -64.5919043 66.18856445 -62.90429688 67.16601562 C-61.74865636 67.83977247 -60.59305752 68.51360082 -59.4375 69.1875 C-58.32052734 69.83525391 -57.20355469 70.48300781 -56.05273438 71.15039062 C-54.38500977 72.1181543 -54.38500977 72.1181543 -52.68359375 73.10546875 C-51.02046143 74.06138916 -51.02046143 74.06138916 -49.32373047 75.03662109 C-47.08423538 76.35952542 -44.87449869 77.7339792 -42.69580078 79.15478516 C-41.65278809 79.82171387 -40.60977539 80.48864258 -39.53515625 81.17578125 C-38.61226807 81.78977783 -37.68937988 82.40377441 -36.73852539 83.03637695 C-33.9184141 84.37581569 -33.9184141 84.37581569 -30.9230957 82.68115234 C-29.95847412 82.12637207 -28.99385254 81.5715918 -28 81 C-25.75830078 80.7512207 -25.75830078 80.7512207 -23.6953125 80.92578125 C-22.94765625 80.98056641 -22.2 81.03535156 -21.4296875 81.09179688 C-20.66914062 81.16462891 -19.90859375 81.23746094 -19.125 81.3125 C-18.34125 81.37373047 -17.5575 81.43496094 -16.75 81.49804688 C-14.83206031 81.65007868 -12.91579014 81.82292808 -11 82 C-11.99 82.66 -12.98 83.32 -14 84 C-14.55816406 84.474375 -15.11632812 84.94875 -15.69140625 85.4375 C-20.84969937 89.74505167 -25.36596535 91.21152867 -32 92 C-31.67 93.65 -31.34 95.3 -31 97 C-39.40605469 92.53524958 -47.57060873 87.71495948 -55.6875 82.75 C-56.60252792 82.19090439 -56.60252792 82.19090439 -57.53604126 81.62051392 C-59.99405287 80.11846503 -62.45184675 78.61607176 -64.90788269 77.11079407 C-68.37356635 74.98781941 -71.85173135 72.88791979 -75.34375 70.80859375 C-76.79180681 69.93512812 -78.23973741 69.06145321 -79.6875 68.1875 C-80.33356201 67.81012695 -80.97962402 67.43275391 -81.64526367 67.04394531 C-85.80067312 64.50630848 -85.80067312 64.50630848 -86.74902344 62.09741211 C-87.18288571 58.47162343 -85.19288668 55.50889643 -83.5625 52.375 C-83.19487549 51.65932861 -82.82725098 50.94365723 -82.44848633 50.20629883 C-79.27082925 44.19621999 -75.62131459 39.00228317 -71 34 C-70.17757812 33.09765625 -69.35515625 32.1953125 -68.5078125 31.265625 C-50.93905881 12.83116461 -25.81002848 0 0 0 Z " fill="#C1502A" transform="translate(113,28)"/>
<path d="M0 0 C0.495 4.455 0.495 4.455 1 9 C-0.36125 9.226875 -1.7225 9.45375 -3.125 9.6875 C-8.87787431 10.80861491 -14.16584 12.82557787 -19.60546875 14.9765625 C-23.23913098 16.07209703 -26.2266175 16.18219636 -30 16 C-29.505 16.7734375 -29.505 16.7734375 -29 17.5625 C-27.38329646 21.50321489 -27.40199812 25.29799466 -28.8125 29.3125 C-30 31 -30 31 -33 33 C-36.04358279 33.48204074 -38.9549599 33.47269576 -42 33 C-44.5625 31 -44.5625 31 -46 29 C-49.45195767 30.4258086 -51.1014256 32.09746334 -53.25 35.125 C-53.77078125 35.84945312 -54.2915625 36.57390625 -54.828125 37.3203125 C-55.40820312 38.15175781 -55.40820312 38.15175781 -56 39 C-55.39414062 39.28875 -54.78828125 39.5775 -54.1640625 39.875 C-50.64989952 41.70185729 -47.78957079 44.21042921 -45 47 C-47.54283234 47.10871967 -50.08095088 47.18762401 -52.625 47.25 C-53.33785156 47.28351563 -54.05070312 47.31703125 -54.78515625 47.3515625 C-60.00552301 47.44734905 -62.86687797 46.45237252 -67 43 C-68.94067802 40.77950328 -70.37801343 38.48068535 -72 36 C-71.01 36 -70.02 36 -69 36 C-68.78859375 35.46761719 -68.5771875 34.93523437 -68.359375 34.38671875 C-58.96850669 17.89872871 -37.79227347 7.01203814 -20.2265625 1.90234375 C-13.3740553 0.30441637 -7.02299779 -0.31922717 0 0 Z " fill="#F99168" transform="translate(114,37)"/>
<path d="M0 0 C7.02249612 3.38835202 13.75311347 7.11533543 20.4375 11.125 C21.38109375 11.68251953 22.3246875 12.24003906 23.296875 12.81445312 C28.04717152 15.62202463 32.76583821 18.46799387 37.44140625 21.3984375 C38.29484619 21.92163574 39.14828613 22.44483398 40.02758789 22.98388672 C41.64180973 23.97374725 43.24463607 24.9825061 44.83374023 26.01220703 C46.88621413 27.25586803 48.70317433 28.30263262 51 29 C54.05078837 27.80821928 54.05078837 27.80821928 57 26 C59.9891267 25.75078777 62.8946638 26.02709492 65.875 26.3125 C66.65875 26.37373047 67.4425 26.43496094 68.25 26.49804688 C70.16793969 26.65007868 72.08420986 26.82292808 74 27 C73.01 27.66 72.02 28.32 71 29 C70.16275391 29.7115625 70.16275391 29.7115625 69.30859375 30.4375 C64.15030063 34.74505167 59.63403465 36.21152867 53 37 C53.495 39.475 53.495 39.475 54 42 C45.59394531 37.53524958 37.42939127 32.71495948 29.3125 27.75 C28.70248138 27.37726959 28.09246277 27.00453918 27.46395874 26.62051392 C25.00594713 25.11846503 22.54815325 23.61607176 20.09211731 22.11079407 C16.62643365 19.98781941 13.14826865 17.88791979 9.65625 15.80859375 C8.20819319 14.93512812 6.76026259 14.06145321 5.3125 13.1875 C4.66643799 12.81012695 4.02037598 12.43275391 3.35473633 12.04394531 C1.00959031 10.61180511 -0.72740662 9.52116512 -2.01953125 7.05078125 C-1.9941406 4.38476248 -1.02683062 2.43844036 0 0 Z " fill="#BC8B2C" transform="translate(28,83)"/>
<path d="M0 0 C3.32308137 2.31842886 5.31171504 4.59082668 7.6875 7.875 C7.6875 8.535 7.6875 9.195 7.6875 9.875 C7.0275 9.875 6.3675 9.875 5.6875 9.875 C5.171875 8.946875 4.65625 8.01875 4.125 7.0625 C1.80246148 3.40536844 -0.9220768 2.4065018 -5.0078125 1.28125 C-9.98365621 0.40415212 -13.28281256 1.29215806 -17.625 3.75 C-20.46713043 5.77259819 -20.46713043 5.77259819 -22.3125 8.875 C-22.55305468 10.93209596 -22.55305468 10.93209596 -22.4375 13.0625 C-22.39625 14.320625 -22.355 15.57875 -22.3125 16.875 C-21.6525 16.875 -20.9925 16.875 -20.3125 16.875 C-19.9825 14.565 -19.6525 12.255 -19.3125 9.875 C-16.3125 10.875 -16.3125 10.875 -15.3125 12.875 C-14.90832448 15.83895382 -14.74867829 17.96404926 -16.359375 20.56640625 C-19.0819904 23.88959858 -20.7898746 25.66736926 -25.0625 26.25 C-29.5878858 25.7278401 -31.0796103 24.03270622 -34.3125 20.875 C-35.73912219 18.02175563 -35.62283868 16.04045451 -35.3125 12.875 C-32.69665224 7.88110881 -28.92542256 6.71791389 -23.890625 4.921875 C-21.37936757 3.90215229 -19.49867407 2.70686579 -17.3125 1.125 C-11.78871291 -2.4978887 -6.08189094 -2.06554787 0 0 Z " fill="#B62F15" transform="translate(101.3125,79.125)"/>
<path d="M0 0 C2.87083319 2.136434 3.68338928 3.46040277 4.3984375 6.9375 C4.72899148 11.09303569 4.32278682 12.60076367 1.625 15.9375 C-2.15401664 18.90672736 -4.17380821 19.55686828 -9 19 C-13.31473644 16.6029242 -13.31473644 16.6029242 -15 14 C-15.97004456 9.45107891 -15.77339255 5.5467851 -13.6875 1.375 C-9.25700758 -0.89176356 -4.85456675 -0.83242192 0 0 Z " fill="#AC1501" transform="translate(123,103)"/>
<path d="M0 0 C3.3 0 6.6 0 10 0 C9.67 0.99 9.34 1.98 9 3 C8.57909316 7.84042869 9.37552891 11.7846354 10.5625 16.5 C11.76563167 21.48440265 12.60127301 25.08942944 11 30 C9.3125 32 9.3125 32 7 33 C3.875 32.9375 3.875 32.9375 1 32 C-1.48497748 29.17616195 -1.28416738 25.85003223 -1.203125 22.203125 C-0.92218529 19.15600965 -0.17550228 16.27944547 0.55078125 13.3125 C1.38166654 9.03524705 1.98933349 3.97866698 0 0 Z " fill="#FCCE6F" transform="translate(80,119)"/>
<path d="M0 0 C5.57894737 3.15789474 5.57894737 3.15789474 7 6 C7.4200542 13.56097561 7.4200542 13.56097561 5 17 C0.96966428 19.68689048 -2.26655998 19.78752505 -7 19 C-10.0432531 17.0125694 -11.62073803 15.67958873 -12.4375 12.0625 C-12.67021319 8.22273235 -12.23162678 6.36288196 -10.125 3.0625 C-6.76664891 -0.19707606 -4.63575359 -0.44574554 0 0 Z " fill="#AD1703" transform="translate(79,51)"/>
<path d="M0 0 C3.03978021 0.68164768 4.80055419 2.23591662 6.93359375 4.43359375 C8.46574263 7.49789151 8.16297923 10.05015795 7.93359375 13.43359375 C6.77719569 15.74638986 5.75949547 17.60769203 3.93359375 19.43359375 C0.49944645 19.93277803 -0.82210223 19.59729528 -3.7421875 17.640625 C-4.61230469 16.85042969 -5.48242188 16.06023437 -6.37890625 15.24609375 C-7.26191406 14.46878906 -8.14492187 13.69148438 -9.0546875 12.890625 C-11.06640625 10.43359375 -11.06640625 10.43359375 -11.484375 7.80859375 C-10.39106397 1.5961348 -5.69308132 -0.35514496 0 0 Z " fill="#AB1400" transform="translate(126.06640625,69.56640625)"/>
<path d="M0 0 C2 3 2 3 1.75 4.9375 C1 7 1 7 -0.125 8.8125 C-1.48402727 12.21006817 -0.91973251 14.50501645 0 18 C2.65620875 21.59369419 4.20461137 22.80464139 8.5625 23.875 C11.39998292 23.9781812 13.3621378 23.94963039 16 23 C18 26 18 26 17.8125 28.125 C17.544375 28.74375 17.27625 29.3625 17 30 C12.06558151 31.64480616 7.73589501 31.5902043 2.875 29.9375 C-2.5718043 26.26682754 -5.95818574 22.49341007 -7.5 16 C-8.16689778 11.52225778 -7.85136351 8.20764434 -6 4 C-2.71794872 0 -2.71794872 0 0 0 Z " fill="#FCDDA6" transform="translate(135,31)"/>
<path d="M0 0 C3.85853832 0.26920035 5.68095686 0.73289412 8.6875 3.25 C13.42628158 8.88530783 14.6071674 12.66869372 14.41796875 19.984375 C13.62643259 25.69527141 10.96036306 29.34916795 6.625 33 C3.30496967 34.26477346 0.52139465 34.20714086 -3 34 C-3 32.02 -3 30.04 -3 28 C-1.906875 27.7525 -0.81375 27.505 0.3125 27.25 C4.14083964 25.95225775 5.23659632 25.52680737 7 22 C8.19513706 18.15848803 8.06101306 16.21175121 6.9375 12.3125 C4.71863144 8.51895052 3.04943221 7.5297855 -1 6 C-0.67 4.02 -0.34 2.04 0 0 Z " fill="#FDDEA8" transform="translate(44,107)"/>
<path d="M0 0 C-0.28705289 5.88458421 -2.80407035 9.14179151 -7 13 C-9.375 14.3125 -9.375 14.3125 -12 15 C-12.65484375 15.18175781 -13.3096875 15.36351563 -13.984375 15.55078125 C-17.05361826 16.37410015 -19.81204994 17 -23 17 C-10.14814815 0 -10.14814815 0 0 0 Z " fill="#0FA357" transform="translate(118,54)"/>
<path d="M0 0 C11.35954658 -0.67150029 16.58240759 1.5611974 25 9 C25.66 9.66 26.32 10.32 27 11 C24.45716766 11.10871967 21.91904912 11.18762401 19.375 11.25 C18.66214844 11.28351563 17.94929688 11.31703125 17.21484375 11.3515625 C11.99447699 11.44734905 9.13312203 10.45237252 5 7 C3.05932198 4.77950328 1.62198657 2.48068535 0 0 Z " fill="#139C54" transform="translate(42,73)"/>
<path d="M0 0 C0.80179688 0.05220703 1.60359375 0.10441406 2.4296875 0.15820312 C4.41179103 0.28798371 6.39344499 0.42459735 8.375 0.5625 C7.385 1.2225 6.395 1.8825 5.375 2.5625 C3.31155395 4.10293398 1.26335389 5.66243158 -0.78515625 7.22265625 C-4.49723313 9.92593092 -7.18604938 9.66649046 -11.75 9.625 C-13.03132813 9.61597656 -14.31265625 9.60695313 -15.6328125 9.59765625 C-17.11394531 9.58025391 -17.11394531 9.58025391 -18.625 9.5625 C-14.84079942 1.02985541 -8.71196129 -0.61521155 0 0 Z " fill="#10A457" transform="translate(93.625,109.4375)"/>
<path d="M0 0 C4.14298667 0.59834725 7.18194377 2.00664285 10.8125 4.0625 C11.78832031 4.61035156 12.76414062 5.15820312 13.76953125 5.72265625 C14.50558594 6.14417969 15.24164063 6.56570312 16 7 C12.70683321 12.7325496 12.70683321 12.7325496 9.6875 13.875 C6.16817512 14.03868953 4.61167881 12.97296349 1.6875 11.0625 C0.80449219 10.49660156 -0.07851562 9.93070313 -0.98828125 9.34765625 C-1.65214844 8.90292969 -2.31601563 8.45820313 -3 8 C-2.01 5.36 -1.02 2.72 0 0 Z " fill="#BC8B2C" transform="translate(109,132)"/>
<path d="M0 0 C2.66577204 2.34067789 3.62344605 3.86940579 4.5625 7.25 C3.2425 7.58 1.9225 7.91 0.5625 8.25 C0.315 7.63125 0.0675 7.0125 -0.1875 6.375 C-1.72572496 3.76001756 -2.56100424 3.18291754 -5.4375 2.25 C-10.60611518 1.77142452 -14.23097119 2.09510339 -18.4375 5.25 C-19.43877982 7.5751477 -20.11360931 9.82711262 -20.69921875 12.2890625 C-21.06466797 13.25972656 -21.06466797 13.25972656 -21.4375 14.25 C-22.4275 14.58 -23.4175 14.91 -24.4375 15.25 C-24.78173104 10.86105418 -25.04585951 7.39067408 -22.9375 3.4375 C-15.62558169 -2.96042852 -8.84279448 -4.50178628 0 0 Z " fill="#FCF5F0" transform="translate(102.4375,81.75)"/>
<path d="M0 0 C3.34998521 1.11666174 3.79340222 1.74694925 5.6875 4.5625 C6.34298828 5.52349609 6.34298828 5.52349609 7.01171875 6.50390625 C7.33785156 6.99761719 7.66398437 7.49132812 8 8 C7.38125 8.9075 6.7625 9.815 6.125 10.75 C3.88153032 14.04498848 3.88153032 14.04498848 2 18 C-0.64 16.35 -3.28 14.7 -6 13 C-5.51675181 7.84535266 -2.81389239 4.18449681 0 0 Z " fill="#F69167" transform="translate(42,75)"/>
<path d="M0 0 C4.25491665 0.47276852 6.22542845 2.92547477 9 6 C10.4783226 8.95664519 10.06032783 11.74229737 10 15 C8.35296694 14.18993474 6.70740494 13.3768779 5.0625 12.5625 C4.14597656 12.11003906 3.22945313 11.65757812 2.28515625 11.19140625 C0 10 0 10 -1 9 C-1.23728814 2.47457627 -1.23728814 2.47457627 0 0 Z " fill="#BF8E2F" transform="translate(89,120)"/>
<path d="M0 0 C3.85853832 0.26920035 5.68095686 0.73289412 8.6875 3.25 C13.42628158 8.88530783 14.6071674 12.66869372 14.41796875 19.984375 C13.62643259 25.69527141 10.96036306 29.34916795 6.625 33 C3.30496967 34.26477346 0.52139465 34.20714086 -3 34 C-3 33.34 -3 32.68 -3 32 C-1.783125 31.773125 -0.56625 31.54625 0.6875 31.3125 C4.97079303 30.24927123 7.2004317 28.47825152 10 25 C11.80523746 19.58428762 11.84175886 13.47266665 10 8.0625 C7.12369217 5.09630755 3.77009413 3.60296164 0 2 C0 1.34 0 0.68 0 0 Z " fill="#C45730" transform="translate(44,107)"/>
<path d="M0 0 C-1.16001609 2.32003218 -2.32788042 4.53432365 -3.6875 6.75 C-5.35346881 10.87525609 -5.1806422 13.75843358 -4 18 C-2.53888984 20.79897943 -2.53888984 20.79897943 -1 23 C-1 23.66 -1 24.32 -1 25 C-0.21625 25.309375 0.5675 25.61875 1.375 25.9375 C4 27 4 27 6 28 C10.55547083 28.25785684 13.8780636 27.99851462 18 26 C17.6875 27.9375 17.6875 27.9375 17 30 C12.06558151 31.64480616 7.73589501 31.5902043 2.875 29.9375 C-2.5718043 26.26682754 -5.95818574 22.49341007 -7.5 16 C-8.16689778 11.52225778 -7.85136351 8.20764434 -6 4 C-2.71794872 0 -2.71794872 0 0 0 Z " fill="#C3552E" transform="translate(135,31)"/>
<path d="M0 0 C0.66 0.33 1.32 0.66 2 1 C-1.89113459 6.64842118 -5.3991964 8.36058473 -12 10 C-8.29909479 6.0747975 -4.45040344 3.05419844 0 0 Z " fill="#1A7944" transform="translate(107,62)"/>
<path d="M0 0 C-2.94723051 1.96482034 -5.11977826 2.7561217 -8.5 3.6875 C-9.4590625 3.95949219 -10.418125 4.23148437 -11.40625 4.51171875 C-14 5 -14 5 -17 4 C-5.47835991 -0.59225513 -5.47835991 -0.59225513 0 0 Z " fill="#1E7542" transform="translate(102,110)"/>
</svg>
