<?xml version="1.0" encoding="UTF-8"?>
<svg version="1.1" xmlns="http://www.w3.org/2000/svg" width="180" height="180">
<path d="M0 0 C0.9384375 -0.01933594 1.876875 -0.03867188 2.84375 -0.05859375 C6.39170454 0.60403894 7.36218838 1.52820491 9.5 4.4375 C9.75307689 7.43287269 9.77851659 10.04220365 9.609375 13.015625 C9.55869426 14.75256952 9.50925777 16.48955071 9.4609375 18.2265625 C9.36270947 20.93901771 9.25190191 23.64950347 9.11621094 26.36035156 C8.51910861 39.10637056 9.9298514 47.64960215 16.50932312 58.62670898 C19.51745478 64.12506864 20.91271222 69.73919779 21.6875 75.9375 C21.84605469 77.1646875 22.00460938 78.391875 22.16796875 79.65625 C22.33232422 81.03296875 22.33232422 81.03296875 22.5 82.4375 C24.38996505 76.64848941 25.10002478 71.05442739 25.625 65 C25.75455078 63.64551758 25.75455078 63.64551758 25.88671875 62.26367188 C26.26593993 58.10728738 26.5235082 54.07497639 26.3671875 49.90234375 C26.41101563 48.75894531 26.45484375 47.61554687 26.5 46.4375 C29.49738941 44.43924039 30.13347508 44.16199602 33.5 44.1875 C34.180625 44.18234375 34.86125 44.1771875 35.5625 44.171875 C37.5 44.4375 37.5 44.4375 40.5 46.4375 C41.05249023 49.4909668 41.05249023 49.4909668 41.30859375 53.38671875 C41.41723306 54.8066471 41.52595987 56.22656877 41.63476562 57.64648438 C41.78861229 59.87982918 41.93675246 62.11344669 42.08129883 64.34741211 C42.22601874 66.50765073 42.39160413 68.66560409 42.55859375 70.82421875 C42.64423584 72.11545654 42.72987793 73.40669434 42.81811523 74.73706055 C43.82411134 80.19638135 46.43140007 83.83460011 49.5 88.4375 C49.77415466 90.66281128 49.77415466 90.66281128 49.80639648 93.28857422 C49.82238388 94.27324677 49.83837128 95.25791931 49.85484314 96.27243042 C49.86020584 97.33495026 49.86556854 98.39747009 49.87109375 99.4921875 C49.88012222 100.58588654 49.8891507 101.67958557 49.89845276 102.806427 C49.91296797 105.12141171 49.92184514 107.43643757 49.92553711 109.75146484 C49.93743128 113.29204502 49.98660531 116.83088163 50.03710938 120.37109375 C50.04657364 122.61978315 50.05380866 124.86848327 50.05859375 127.1171875 C50.07812607 128.17565887 50.09765839 129.23413025 50.11778259 130.32467651 C50.07266385 137.68131201 50.07266385 137.68131201 47.13305664 141.56298828 C41.33864883 145.68811236 35.43010866 146.16121388 28.5 145.4375 C24.60353411 144.37614922 20.91462736 142.79114911 18.5 139.4375 C18.1394247 138.1112744 17.8028041 136.77809635 17.5 135.4375 C16.96890625 135.71464844 16.4378125 135.99179688 15.890625 136.27734375 C15.18421875 136.63957031 14.4778125 137.00179687 13.75 137.375 C12.70585937 137.91447266 12.70585937 137.91447266 11.640625 138.46484375 C4.10534319 141.8887218 -4.06660654 141.22395071 -11.6875 138.4375 C-13.29887241 137.7884437 -14.90600302 137.12812925 -16.5 136.4375 C-16.438125 137.324375 -16.37625 138.21125 -16.3125 139.125 C-16.5366492 143.08496928 -16.88811322 144.44151223 -19.5 147.4375 C-28.57034516 153.1164639 -37.63597534 154.67953326 -48.125 152.6875 C-54.41010907 151.14056266 -59.06108263 147.9426276 -62.5 142.4375 C-63.12252761 139.00495705 -63.1958548 135.60752108 -63.25 132.125 C-63.27964844 131.19365234 -63.30929688 130.26230469 -63.33984375 129.30273438 C-63.41025904 127.01423735 -63.46309214 124.72674191 -63.5 122.4375 C-65.48 122.9325 -65.48 122.9325 -67.5 123.4375 C-71.04334535 117.97484259 -71.34677455 112.75067472 -70.5 106.4375 C-68.26843608 101.89172165 -65.44500224 99.49487674 -61.5 96.4375 C-60.943125 95.6125 -60.38625 94.7875 -59.8125 93.9375 C-55.32941725 89.09092406 -49.86409296 87.52007451 -43.3828125 87.05078125 C-41.90149653 86.99811586 -40.41957488 86.96040612 -38.9375 86.9375 C-38.24180908 86.91905029 -37.54611816 86.90060059 -36.8293457 86.8815918 C-31.04931364 86.95000657 -26.60229991 88.82116517 -21.5 91.4375 C-21.51571045 90.88400879 -21.5314209 90.33051758 -21.54760742 89.76025391 C-21.94014459 73.84345144 -19.98262636 63.54602343 -12.2421875 49.66015625 C-9.42098414 44.44156259 -9.42234861 40.28976652 -9.54296875 34.5 C-9.56535045 32.70053177 -9.58680656 30.90105183 -9.60742188 29.1015625 C-9.64458114 26.26367754 -9.68773147 23.42638565 -9.74682617 20.58886719 C-9.80119767 17.85082277 -9.83037554 15.11344834 -9.85546875 12.375 C-9.87925095 11.52494385 -9.90303314 10.6748877 -9.92753601 9.79907227 C-9.95371111 3.93405796 -9.95371111 3.93405796 -7.64379883 1.40600586 C-4.97140035 0.19869408 -2.93034774 0.0040252 0 0 Z " fill="#5A0A00" transform="translate(100.5,13.5625)"/>
<path d="M0 0 C3.30079283 2.79948898 5.62709037 5.57755562 6.35087585 9.88311768 C6.49194339 12.50184267 6.50873069 15.0924948 6.4765625 17.71484375 C6.47801773 18.67112167 6.47947296 19.6273996 6.48097229 20.61265564 C6.47931748 22.62729958 6.4678032 24.64195671 6.44702148 26.65649414 C6.41802949 29.73573579 6.42642911 32.81325819 6.43945312 35.89257812 C6.43321624 37.85417501 6.42482568 39.81576648 6.4140625 41.77734375 C6.41699814 42.69516129 6.41993378 43.61297882 6.42295837 44.55860901 C6.35166777 49.39875694 6.16887286 52.77444684 2.98046875 56.6796875 C-5.0508027 62.15366942 -13.78006315 63.65068577 -23.3203125 62.37109375 C-29.42911705 61.21093423 -33.56770018 58.98251226 -38.140625 54.6875 C-40.85433206 50.34331198 -40.69134194 46.39618172 -40.76953125 41.3671875 C-40.81400391 39.97016602 -40.81400391 39.97016602 -40.859375 38.54492188 C-40.92979029 36.25642485 -40.98262339 33.96892941 -41.01953125 31.6796875 C-42.99953125 32.1746875 -42.99953125 32.1746875 -45.01953125 32.6796875 C-48.5628766 27.21703009 -48.8663058 21.99286222 -48.01953125 15.6796875 C-45.78796733 11.13390915 -42.96453349 8.73706424 -39.01953125 5.6796875 C-38.46265625 4.8546875 -37.90578125 4.0296875 -37.33203125 3.1796875 C-28.50918388 -6.35852587 -10.73700309 -5.81508486 0 0 Z " fill="#FEBFAA" transform="translate(78.01953125,104.3203125)"/>
<path d="M0 0 C0.680625 -0.00515625 1.36125 -0.0103125 2.0625 -0.015625 C4 0.25 4 0.25 7 2.25 C7.55249023 5.3034668 7.55249023 5.3034668 7.80859375 9.19921875 C7.91723306 10.6191471 8.02595987 12.03906877 8.13476562 13.45898438 C8.28861229 15.69232918 8.43675246 17.92594669 8.58129883 20.15991211 C8.72601874 22.32015073 8.89160413 24.47810409 9.05859375 26.63671875 C9.14423584 27.92795654 9.22987793 29.21919434 9.31811523 30.54956055 C10.32411134 36.00888135 12.93140007 39.64710011 16 44.25 C16.27415466 46.47531128 16.27415466 46.47531128 16.30639648 49.10107422 C16.32238388 50.08574677 16.33837128 51.07041931 16.35484314 52.08493042 C16.36288719 53.67871017 16.36288719 53.67871017 16.37109375 55.3046875 C16.38463646 56.94523605 16.38463646 56.94523605 16.39845276 58.618927 C16.41296797 60.93391171 16.42184514 63.24893757 16.42553711 65.56396484 C16.43743128 69.10454502 16.48660531 72.64338163 16.53710938 76.18359375 C16.54657364 78.43228315 16.55380866 80.68098327 16.55859375 82.9296875 C16.57812607 83.98815887 16.59765839 85.04663025 16.61778259 86.13717651 C16.57266385 93.49381201 16.57266385 93.49381201 13.63305664 97.37548828 C7.83864883 101.50061236 1.93010866 101.97371388 -5 101.25 C-8.97716786 100.16666696 -12.41973405 98.53898372 -15 95.25 C-15.39440918 93.00018311 -15.39440918 93.00018311 -15.41992188 90.33886719 C-15.43583374 89.34062927 -15.45174561 88.34239136 -15.46813965 87.31390381 C-15.46834106 86.2357843 -15.46854248 85.15766479 -15.46875 84.046875 C-15.48017029 82.3801474 -15.48017029 82.3801474 -15.49182129 80.67974854 C-15.5026352 78.32607267 -15.50547019 75.97234876 -15.50097656 73.61865234 C-15.50000742 70.02749738 -15.54155129 66.43850083 -15.5859375 62.84765625 C-15.59114687 60.55990028 -15.59383265 58.2721369 -15.59375 55.984375 C-15.61014526 54.91435242 -15.62654053 53.84432983 -15.64343262 52.74188232 C-15.58855538 46.78057505 -15.02983903 43.37147815 -11.165802 38.78713989 C-9.31057874 36.34098035 -9.14182086 33.94474137 -8.85546875 30.94140625 C-8.67661133 29.20213867 -8.67661133 29.20213867 -8.49414062 27.42773438 C-8.39294922 26.23470703 -8.29175781 25.04167969 -8.1875 23.8125 C-8.06697266 22.62333984 -7.94644531 21.43417969 -7.82226562 20.20898438 C-7.34410644 15.28804329 -6.93140565 10.47145908 -7.11328125 5.52734375 C-7.07589844 4.44582031 -7.03851563 3.36429688 -7 2.25 C-4.00261059 0.25174039 -3.36652492 -0.02550398 0 0 Z " fill="#6E7D82" transform="translate(134,57.75)"/>
<path d="M0 0 C0.680625 -0.00515625 1.36125 -0.0103125 2.0625 -0.015625 C4 0.25 4 0.25 7 2.25 C7.55249023 5.3034668 7.55249023 5.3034668 7.80859375 9.19921875 C7.91723306 10.6191471 8.02595987 12.03906877 8.13476562 13.45898438 C8.28861229 15.69232918 8.43675246 17.92594669 8.58129883 20.15991211 C8.72601874 22.32015073 8.89160413 24.47810409 9.05859375 26.63671875 C9.14423584 27.92795654 9.22987793 29.21919434 9.31811523 30.54956055 C10.32411134 36.00888135 12.93140007 39.64710011 16 44.25 C16.76768116 48.9364257 16.40885085 52.44690011 14.25 56.6875 C11.11770216 60.25483921 9.29651815 61.12415287 4.5390625 61.5859375 C3.24742187 61.59882812 1.95578125 61.61171875 0.625 61.625 C-0.66148437 61.65335938 -1.94796875 61.68171875 -3.2734375 61.7109375 C-7.58051071 61.17819679 -9.66504436 59.97502275 -13 57.25 C-15.08344127 54.12483809 -15.34215176 53.11201549 -15.4375 49.5 C-15.47746094 48.68015625 -15.51742187 47.8603125 -15.55859375 47.015625 C-15 44.25 -15 44.25 -12.5859375 41.26171875 C-8.66722848 36.12647402 -8.71691195 30.05416575 -8.1875 23.8125 C-8.06697266 22.62333984 -7.94644531 21.43417969 -7.82226562 20.20898438 C-7.34410644 15.28804329 -6.93140565 10.47145908 -7.11328125 5.52734375 C-7.07589844 4.44582031 -7.03851563 3.36429688 -7 2.25 C-4.00261059 0.25174039 -3.36652492 -0.02550398 0 0 Z " fill="#93A4A9" transform="translate(134,57.75)"/>
<path d="M0 0 C0.50144531 0.2165625 1.00289063 0.433125 1.51953125 0.65625 C10.56278254 3.98391998 19.48272811 3.20106912 29 3 C29 14.55 29 26.1 29 38 C25.74621583 39.08459472 23.23599945 39.20183823 19.8125 39.25 C18.18248047 39.28867188 18.18248047 39.28867188 16.51953125 39.328125 C12.20588132 38.92596452 8.99298606 37.65828929 5 36 C4.97421875 34.77023438 4.9484375 33.54046875 4.921875 32.2734375 C4.86556994 30.64059068 4.80822315 29.00777955 4.75 27.375 C4.73582031 26.56675781 4.72164063 25.75851563 4.70703125 24.92578125 C4.48059984 19.35556851 3.2465556 16.63793658 0 12 C-0.390625 8.7890625 -0.390625 8.7890625 -0.25 5.625 C-0.21390625 4.56539063 -0.1778125 3.50578125 -0.140625 2.4140625 C-0.07101563 1.21910156 -0.07101563 1.21910156 0 0 Z " fill="#BF4E28" transform="translate(79,94)"/>
<path d="M0 0 C2.86680593 2.2415355 4.48467683 4.11827818 5.8984375 7.484375 C5.97632679 11.92406474 5.39079706 13.8552489 2.6484375 17.359375 C-0.2415099 19.59251617 -1.48895746 20.39836059 -5.1015625 20.484375 C-6.74104752 19.99252949 -8.37974376 19.49715828 -10.0078125 18.96875 C-15.90770136 17.60385034 -22.24751595 18.16351612 -28.1015625 19.484375 C-27.3384375 18.741875 -26.5753125 17.999375 -25.7890625 17.234375 C-23.65478817 15.05046638 -21.88927482 12.9378922 -20.1015625 10.484375 C-22.18675466 10.7405041 -24.269713 11.01486235 -26.3515625 11.296875 C-27.51171875 11.44769531 -28.671875 11.59851563 -29.8671875 11.75390625 C-33.12257461 12.48912049 -34.59323376 13.38451264 -37.1015625 15.484375 C-37.7615625 15.484375 -38.4215625 15.484375 -39.1015625 15.484375 C-42.07702454 21.22276608 -43.44940929 26.07153506 -44.1015625 32.484375 C-46.96092746 29.87365047 -47.96337901 27.92737308 -48.33984375 23.99609375 C-48.49905172 17.93781147 -48.3434188 14.18481036 -44.1015625 9.484375 C-42.45516285 8.12609529 -40.78860443 6.79183249 -39.1015625 5.484375 C-38.5446875 4.659375 -37.9878125 3.834375 -37.4140625 2.984375 C-28.74169947 -6.3911526 -10.43222288 -6.33766441 0 0 Z " fill="#A0BEF7" transform="translate(78.1015625,104.515625)"/>
<path d="M0 0 C3.02349342 4.53524014 2.40786466 8.97484558 2.4375 14.3125 C2.47037109 15.34568359 2.50324219 16.37886719 2.53710938 17.44335938 C2.5973198 25.97681871 2.5973198 25.97681871 -0.3046875 29.61328125 C-7.41309427 35.90782696 -13.02477219 35 -23 35 C-23 23.78 -23 12.56 -23 1 C-18.05 0.67 -13.1 0.34 -8 0 C-4.67212881 -1.1092904 -3.3006216 -1.01557588 0 0 Z " fill="#F9926A" transform="translate(78,127)"/>
<path d="M0 0 C0.9384375 -0.01933594 1.876875 -0.03867188 2.84375 -0.05859375 C6.33330421 0.59313182 7.33676121 1.64330471 9.5 4.4375 C9.94165039 7.59790039 9.94165039 7.59790039 9.84765625 11.28515625 C9.83165878 11.93826279 9.81566132 12.59136932 9.79917908 13.26426697 C9.75946088 14.64046185 9.70923846 16.01638881 9.64916992 17.3918457 C9.56263488 19.49671909 9.52440918 21.59877888 9.49023438 23.70507812 C9.44561564 25.04437085 9.39818475 26.38357346 9.34765625 27.72265625 C9.30648682 28.93832275 9.26531738 30.15398926 9.22290039 31.40649414 C8.5 34.4375 8.5 34.4375 6.09399414 36.33447266 C3.45325365 37.45737765 1.72339277 37.81362389 -1.125 37.75 C-2.25808594 37.74419922 -2.25808594 37.74419922 -3.4140625 37.73828125 C-5.5 37.4375 -5.5 37.4375 -8.5 35.4375 C-9.21885412 30.91873557 -9.25397755 26.34959336 -9.37329102 21.77954102 C-9.43719636 19.5107798 -9.53839167 17.2457409 -9.64257812 14.97851562 C-9.68977404 13.53913527 -9.73476919 12.09968071 -9.77734375 10.66015625 C-9.82109131 9.34797119 -9.86483887 8.03578613 -9.90991211 6.68383789 C-9.5 3.4375 -9.5 3.4375 -7.64868164 1.51318359 C-4.96537652 0.16985416 -2.99511494 0.00411417 0 0 Z " fill="#BC4C27" transform="translate(100.5,13.5625)"/>
<path d="M0 0 C1.46484375 1.26953125 2.9296875 2.5390625 4.39453125 3.80859375 C9.24404836 7.40738382 16.29570493 6.51482808 22 6 C25.65440672 4.71272151 28.2541748 2.7458252 31 0 C31.13548815 2.73083902 31.23429855 5.45491807 31.3125 8.1875 C31.35439453 8.95642578 31.39628906 9.72535156 31.43945312 10.51757812 C31.53200203 14.83035695 31.42294869 16.46604484 28.6484375 19.96875 C22.96528528 24.32750981 16.94594813 24.725368 10 24 C6.01161551 22.91361169 2.61604686 21.27066024 0 18 C-0.34057617 16.00708008 -0.34057617 16.00708008 -0.29296875 13.76953125 C-0.28330078 12.96708984 -0.27363281 12.16464844 -0.26367188 11.33789062 C-0.23853516 10.50451172 -0.21339844 9.67113281 -0.1875 8.8125 C-0.17396484 7.96751953 -0.16042969 7.12253906 -0.14648438 6.25195312 C-0.11115799 4.16769616 -0.05735139 2.08376723 0 0 Z " fill="#FDCE6F" transform="translate(119,135)"/>
<path d="M0 0 C1.051875 0.61875 2.10375 1.2375 3.1875 1.875 C5.37732547 3.14835928 7.18953252 4.05866483 9.625 4.8125 C13.50957909 6.75478954 15.55971502 8.97920442 17 13 C17.60909128 18.64516872 17.28636821 24.34263685 17 30 C14.62374823 30.10883596 12.25256024 30.18766696 9.875 30.25 C9.20984375 30.28351563 8.5446875 30.31703125 7.859375 30.3515625 C2.71824448 30.45236898 -0.06679432 29.24460291 -4 26 C-6.83351308 21.74973037 -6.7762457 17.99232531 -6 13 C-4.9013149 10.97652241 -3.65859401 9.36428129 -2.1796875 7.60546875 C-0.43802614 5.23519452 -0.21064021 2.8787495 0 0 Z " fill="#FDCD6F" transform="translate(125,89)"/>
<path d="M0 0 C0.33 0 0.66 0 1 0 C1.07428762 5.46261638 1.12866714 10.92493716 1.16479492 16.38793945 C1.17985946 18.24541345 1.20031509 20.10285201 1.22631836 21.96020508 C1.26280459 24.63371539 1.2797497 27.30675444 1.29296875 29.98046875 C1.30845261 30.80773972 1.32393646 31.63501068 1.33988953 32.48735046 C1.34124644 37.16081531 1.03281091 40.20237346 -2 44 C-10.03127145 49.47398192 -18.7605319 50.97099827 -28.30078125 49.69140625 C-34.41043183 48.53108606 -38.50259641 46.26912173 -43.13671875 42.05859375 C-45.943418 37.45137045 -45.58233036 33.1647254 -45.5 27.875 C-45.51546875 26.87339844 -45.5309375 25.87179688 -45.546875 24.83984375 C-45.54171875 23.87949219 -45.5365625 22.91914063 -45.53125 21.9296875 C-45.52673828 21.05554199 -45.52222656 20.18139648 -45.51757812 19.28076172 C-45 17 -45 17 -42.96679688 15.19189453 C-41.99323242 14.60190674 -41.99323242 14.60190674 -41 14 C-40.9906543 14.64026123 -40.98130859 15.28052246 -40.97167969 15.94018555 C-40.91781153 18.85672375 -40.83419801 21.77168625 -40.75 24.6875 C-40.73582031 25.69490234 -40.72164062 26.70230469 -40.70703125 27.74023438 C-40.5184605 33.70115904 -40.5184605 33.70115904 -38.171875 39.09375 C-32.54656516 44.0310723 -26.18732319 44.5471472 -18.9765625 44.35546875 C-13.78759494 43.7357889 -8.99068204 42.18088041 -5.40551758 38.25317383 C-3.69263143 35.50725995 -3.63932991 33.89966589 -3.671875 30.68359375 C-3.67960937 29.16668945 -3.67960937 29.16668945 -3.6875 27.61914062 C-3.708125 26.56919922 -3.72875 25.51925781 -3.75 24.4375 C-3.75773437 22.85678711 -3.75773437 22.85678711 -3.765625 21.24414062 C-3.76625191 15.52925359 -3.76625191 15.52925359 -5 10 C-5.99 9.67 -6.98 9.34 -8 9 C-7.236875 8.443125 -6.47375 7.88625 -5.6875 7.3125 C-3.03568819 5.03070844 -1.68044905 3.02480829 0 0 Z " fill="#D4DEF6" transform="translate(83,117)"/>
<path d="M0 0 C2.34549674 3.51824511 2.57991403 4.85775694 2 9 C-2.17531164 14.28054119 -6.95404649 16.87325658 -13.5625 17.75 C-17.175654 18.13643358 -19.21614667 17.75677067 -23 17 C-23 11.72 -23 6.44 -23 1 C-15.6875 0.5625 -15.6875 0.5625 -13.3972168 0.43188477 C-1.12324736 -0.34561457 -1.12324736 -0.34561457 0 0 Z " fill="#FE6938" transform="translate(78,127)"/>
<path d="M0 0 C1.63671875 1.078125 1.63671875 1.078125 4.01171875 3.140625 C4.01171875 3.470625 4.01171875 3.800625 4.01171875 4.140625 C3.191875 4.25019531 2.37203125 4.35976562 1.52734375 4.47265625 C0.4496875 4.63121094 -0.62796875 4.78976563 -1.73828125 4.953125 C-2.805625 5.10394531 -3.87296875 5.25476563 -4.97265625 5.41015625 C-8.06942528 6.16028035 -9.56689977 7.15007491 -11.98828125 9.140625 C-12.64828125 9.140625 -13.30828125 9.140625 -13.98828125 9.140625 C-16.96374329 14.87901608 -18.33612804 19.72778506 -18.98828125 26.140625 C-21.84764621 23.52990047 -22.85009776 21.58362308 -23.2265625 17.65234375 C-23.38555501 11.6022602 -23.22217884 7.84495566 -18.98828125 3.140625 C-13.90722556 -1.32454516 -6.34588411 -2.74281828 0 0 Z " fill="#09A359" transform="translate(52.98828125,110.859375)"/>
<path d="M0 0 C-1.4388102 3.387199 -3.22119499 5.3594104 -6 7.75 C-6.70125 8.36359375 -7.4025 8.9771875 -8.125 9.609375 C-10 11 -10 11 -12 11 C-12 11.66 -12 12.32 -12 13 C-12.66 13 -13.32 13 -14 13 C-14.33 13.99 -14.66 14.98 -15 16 C-16.55859375 17.60546875 -16.55859375 17.60546875 -18.4375 19.1875 C-19.05496094 19.71730469 -19.67242187 20.24710938 -20.30859375 20.79296875 C-22 22 -22 22 -24 22 C-24.36706527 14.90340477 -23.46346044 10.86294051 -18.6875 5.3125 C-12.58847357 0.06450052 -7.76801636 -0.4144989 0 0 Z " fill="#FECC68" transform="translate(58,115)"/>
<path d="M0 0 C0.92232422 0.63228516 0.92232422 0.63228516 1.86328125 1.27734375 C3.07564453 2.09912109 3.07564453 2.09912109 4.3125 2.9375 C5.11300781 3.48277344 5.91351563 4.02804688 6.73828125 4.58984375 C9.0258143 6.13837326 9.0258143 6.13837326 12 7 C12 12.94 12 18.88 12 25 C3.71881028 22.63394579 3.71881028 22.63394579 0.88916016 18.82324219 C-0.79896428 15.36170642 -0.52002539 11.89238401 -0.3125 8.125 C-0.28994141 7.34125 -0.26738281 6.5575 -0.24414062 5.75 C-0.18568018 3.8324974 -0.09601283 1.9159894 0 0 Z " fill="#FCD1C0" transform="translate(42,136)"/>
<path d="M0 0 C1.80535527 2.7080329 3.40900541 5.44729089 5 8.28125 C5.93733574 9.8922958 6.96610269 11.44915404 8 13 C8.77142949 17.70930792 8.38777675 21.2244465 6.25 25.5 C3.9155366 28.09384822 3.24421309 28.40022951 0 29 C-0.01417969 27.92621094 -0.02835938 26.85242188 -0.04296875 25.74609375 C-0.28185613 14.92351457 -0.28185613 14.92351457 -6 6 C-6 5.34 -6 4.68 -6 4 C-4.7934375 3.566875 -4.7934375 3.566875 -3.5625 3.125 C-0.8673532 2.26737432 -0.8673532 2.26737432 0 0 Z " fill="#BF8F31" transform="translate(142,89)"/>
<path d="M0 0 C0.33 0 0.66 0 1 0 C1.14553599 3.89543877 1.23415059 7.79017651 1.3125 11.6875 C1.3753418 13.34168945 1.3753418 13.34168945 1.43945312 15.02929688 C1.57762968 24.1765846 1.57762968 24.1765846 -1.33203125 27.26953125 C-4 29 -4 29 -7 29 C-7.14500644 25.39625537 -7.23396763 21.79325758 -7.3125 18.1875 C-7.35439453 17.16333984 -7.39628906 16.13917969 -7.43945312 15.08398438 C-7.48501551 12.30467878 -7.48476088 9.73807117 -7 7 C-4.5625 4.9375 -4.5625 4.9375 -2 4 C-0.67206394 1.93299345 -0.67206394 1.93299345 0 0 Z " fill="#586468" transform="translate(149,111)"/>
<path d="M0 0 C0.0093457 0.64026123 0.01869141 1.28052246 0.02832031 1.94018555 C0.08218847 4.85672375 0.16580199 7.77168625 0.25 10.6875 C0.26417969 11.69490234 0.27835938 12.70230469 0.29296875 13.74023438 C0.48826809 19.68805215 0.48826809 19.68805215 2.78125 25.09375 C4.9542698 26.96071068 6.53732413 27.95348598 9.25 28.8125 C10.4875 29.204375 11.725 29.59625 13 30 C13 31.65 13 33.3 13 35 C6.39134164 34.47130733 2.71220742 32.45578054 -2.1484375 28.0546875 C-4.94122567 23.44717622 -4.54367567 19.15638338 -4.4375 13.875 C-4.44458984 12.87339844 -4.45167969 11.87179688 -4.45898438 10.83984375 C-4.39483589 3.48744034 -4.39483589 3.48744034 -2.53540039 1.19189453 C-1 0 -1 0 0 0 Z " fill="#D3E2FC" transform="translate(42,131)"/>
<path d="M0 0 C2.6875 2 2.6875 2 4 4 C2.63016497 7.16115776 2.0109362 7.9927092 -1 10 C-5.65764427 10.6687102 -9.68692842 10.85502336 -13.6875 8.25 C-15 6 -15 6 -14.9375 3.875 C-12.14772943 -1.70454114 -5.28752806 -0.68072966 0 0 Z " fill="#744B39" transform="translate(106,14)"/>
<path d="M0 0 C0.33 0 0.66 0 1 0 C1.13548815 2.73083902 1.23429855 5.45491807 1.3125 8.1875 C1.3753418 9.34088867 1.3753418 9.34088867 1.43945312 10.51757812 C1.53052589 14.76156909 1.39744398 16.47559475 -1.25 19.96875 C-4.93329244 22.68936373 -7.54733618 23.16984234 -12 24 C-11.34773437 23.31035156 -10.69546875 22.62070313 -10.0234375 21.91015625 C-7.60618308 18.43360308 -7.5959514 16.61565651 -7.625 12.4375 C-7.36835068 6.45351847 -7.36835068 6.45351847 -5.6484375 4.3359375 C-4 3.3125 -4 3.3125 -1 2 C-0.67 1.34 -0.34 0.68 0 0 Z " fill="#C29233" transform="translate(149,135)"/>
<path d="M0 0 C0.680625 -0.00515625 1.36125 -0.0103125 2.0625 -0.015625 C4 0.25 4 0.25 7 2.25 C7.40843923 4.96203652 7.13336867 7.4937142 7 10.25 C2.31099779 12.74103242 -0.94157084 12.17737868 -6 11.25 C-7.89128342 9.35871658 -7.2366852 6.67932274 -7.328125 4.16015625 C-7.16570312 3.21462891 -7.16570312 3.21462891 -7 2.25 C-4.00261059 0.25174039 -3.36652492 -0.02550398 0 0 Z " fill="#6D7C84" transform="translate(134,57.75)"/>
<path d="M0 0 C0.27648714 2.4162572 0.52178337 4.82911377 0.75 7.25 C0.83121094 7.93191406 0.91242188 8.61382812 0.99609375 9.31640625 C1.30073893 12.80290107 1.26112753 14.61654246 -0.734375 17.546875 C-1.85585937 18.26617187 -1.85585937 18.26617187 -3 19 C-4.32 18.67 -5.64 18.34 -7 18 C-7.33 12.72 -7.66 7.44 -8 2 C-2 0 -2 0 0 0 Z " fill="#5D696B" transform="translate(142,74)"/>
<path d="M0 0 C-3.62253357 3.62253357 -7.3590429 3.16314264 -12.25 3.1875 C-14.17585938 3.20876953 -14.17585938 3.20876953 -16.140625 3.23046875 C-20.14828876 2.9911447 -23.210452 2.24191146 -27 1 C-26 -1 -26 -1 -23.625 -2.125 C-15.26577218 -4.14274465 -7.88897956 -3.27246559 0 0 Z " fill="#D29294" transform="translate(75,125)"/>
<path d="M0 0 C0.55816406 0.48726562 1.11632812 0.97453125 1.69140625 1.4765625 C5.54007474 4.01629297 9.54080277 3.56190207 14 3 C17.03465702 1.68772566 17.03465702 1.68772566 19 0 C19.3125 2.25 19.3125 2.25 19 5 C16.78904288 7.72684711 15.075439 8.84363569 11.58203125 9.3515625 C4.97750227 9.5661853 4.97750227 9.5661853 1.70703125 7.671875 C0 6 0 6 -0.25 2.8125 C-0.1675 1.884375 -0.085 0.95625 0 0 Z " fill="#AE8573" transform="translate(91,20)"/>
<path d="M0 0 C0.125 2.875 0.125 2.875 0 6 C-2 8 -2 8 -4.05859375 8.265625 C-4.84363281 8.26046875 -5.62867188 8.2553125 -6.4375 8.25 C-7.61119141 8.25773437 -7.61119141 8.25773437 -8.80859375 8.265625 C-11 8 -11 8 -14 6 C-13.67 4.35 -13.34 2.7 -13 1 C-10.02148438 1.04882812 -10.02148438 1.04882812 -7.04296875 1.09765625 C-4.54365249 0.97818607 -2.50594088 0 0 0 Z " fill="#BE9035" transform="translate(141,68)"/>
<path d="M0 0 C0.43570313 0.40992188 0.87140625 0.81984375 1.3203125 1.2421875 C5.04362634 4.61090002 8.00785965 6.78240479 13 8 C13 9.65 13 11.3 13 13 C7.64363181 12.57149054 3.95780609 11.76474238 0 8 C-0.51722338 5.15254915 -0.29248853 2.92488533 0 0 Z " fill="#E9F0FC" transform="translate(42,153)"/>
<path d="M0 0 C0 0.66 0 1.32 0 2 C-2.64 2 -5.28 2 -8 2 C-8.33 2.66 -8.66 3.32 -9 4 C-9 3.34 -9 2.68 -9 2 C-10.11375 2.66 -11.2275 3.32 -12.375 4 C-15.75 6 -15.75 6 -18 6 C-19.92869599 9.98597172 -20.39557376 13.66053849 -20.75390625 18.01171875 C-21 20 -21 20 -22 22 C-22.66 22 -23.32 22 -24 22 C-24.36706527 14.90340477 -23.46346044 10.86294051 -18.6875 5.3125 C-12.58847357 0.06450052 -7.76801636 -0.4144989 0 0 Z " fill="#EEBF4B" transform="translate(58,115)"/>
<path d="M0 0 C0.33 0.99 0.66 1.98 1 3 C2.60407328 3.02708567 4.2082785 3.04643483 5.8125 3.0625 C7.15248047 3.07990234 7.15248047 3.07990234 8.51953125 3.09765625 C11.13413791 3.11009967 11.13413791 3.11009967 14 2 C14 3.32 14 4.64 14 6 C9.31099779 8.49103242 6.05842916 7.92737868 1 7 C0 6 0 6 -0.0625 2.9375 C-0.041875 1.968125 -0.02125 0.99875 0 0 Z " fill="#9FB8C0" transform="translate(127,62)"/>
<path d="M0 0 C1.65 0 3.3 0 5 0 C5.33 2.31 5.66 4.62 6 7 C1.25 6.125 1.25 6.125 -1 5 C-0.67 3.35 -0.34 1.7 0 0 Z " fill="#F5CB73" transform="translate(128,69)"/>
<path d="M0 0 C-1.23789629 3.71368887 -2.85224877 4.77354181 -6 7 C-6.66 7 -7.32 7 -8 7 C-8 5.02 -8 3.04 -8 1 C-5.29120665 -0.35439668 -2.99066732 -0.06501451 0 0 Z " fill="#FDEBCB" transform="translate(44,128)"/>
<path d="M0 0 C2.31 0 4.62 0 7 0 C4.35039045 3.63094642 1.98175544 5.89851796 -2 8 C-1.34 5.36 -0.68 2.72 0 0 Z " fill="#FCECCD" transform="translate(50,117)"/>
<path d="M0 0 C-0.33 1.98 -0.66 3.96 -1 6 C-2.32 5.34 -3.64 4.68 -5 4 C-5 3.01 -5 2.02 -5 1 C-3 0 -3 0 0 0 Z " fill="#FEEECF" transform="translate(48,118)"/>
<path d="M0 0 C1.32 0.66 2.64 1.32 4 2 C4 2.66 4 3.32 4 4 C2.02 4.33 0.04 4.66 -2 5 C-1.125 1.125 -1.125 1.125 0 0 Z " fill="#FEF0D3" transform="translate(40,122)"/>
</svg>
