<?xml version="1.0" encoding="UTF-8"?>
<svg version="1.1" xmlns="http://www.w3.org/2000/svg" width="180" height="180">
<path d="M0 0 C1.13199353 0.9080162 2.25532363 1.82683826 3.375 2.75 C4.00148438 3.26046875 4.62796875 3.7709375 5.2734375 4.296875 C7.08312318 6.08199481 8.00117455 7.67949644 9 10 C10.175625 9.9175 11.35125 9.835 12.5625 9.75 C18.63936806 9.76071758 22.69681711 12.81811828 27.125 16.625 C29.80295962 18.83722751 31.79535665 19.8238851 35 21 C34.69964844 21.73863281 34.39929688 22.47726563 34.08984375 23.23828125 C31.18184429 30.99623234 29.65315693 38.03364773 32.78515625 45.99609375 C33.06230469 46.57488281 33.33945313 47.15367188 33.625 47.75 C35.32960721 51.77907158 35.23716346 53.82457333 34 58 C33.16764832 58.74123108 32.33529663 59.48246216 31.47772217 60.24615479 C28.26977269 63.81160552 28.36956619 65.69205794 28.35644531 70.43652344 C28.3431292 71.53248589 28.3431292 71.53248589 28.32954407 72.65058899 C28.30593327 75.05398505 28.31703347 77.45591032 28.328125 79.859375 C28.31754481 81.53136785 28.30463313 83.20334743 28.28948975 84.87530518 C28.25530724 89.26770829 28.24990687 93.65966705 28.25140381 98.05218506 C28.24817493 104.25738946 28.20556808 110.46247079 28.16766357 116.6675415 C28.14759531 119.97175929 28.13831347 123.27574086 28.13751221 126.58001709 C28.13369367 128.08036302 28.12984986 129.58070889 28.12597656 131.08105469 C28.12551331 132.39612 28.12505005 133.7111853 28.12457275 135.06610107 C28 138 28 138 27 139 C21.76277451 138.62230965 18.19029191 137.32020414 13.69921875 134.65625 C13.13676956 134.32709595 12.57432037 133.99794189 11.99482727 133.65881348 C10.21916528 132.61653915 8.45335423 131.55878833 6.6875 130.5 C5.48435565 129.78929412 4.28058428 129.07964857 3.07617188 128.37109375 C0.88182097 127.07766034 -1.30965642 125.77933088 -3.49731445 124.47460938 C-4.97285815 123.60520308 -6.46817846 122.76591077 -8 122 C-8.495 123.98 -8.495 123.98 -9 126 C-11.9787769 127.27661867 -13.18989409 126.93906549 -16.34765625 125.92578125 C-17.59109905 125.40006582 -18.82932109 124.86186008 -20.0625 124.3125 C-20.68705078 124.05533203 -21.31160156 123.79816406 -21.95507812 123.53320312 C-25.60271579 121.94879701 -28.11718923 120.56964124 -30 117 C-29.57446809 111.57446809 -29.57446809 111.57446809 -28 110 C-28.83249268 109.52578613 -29.66498535 109.05157227 -30.52270508 108.56298828 C-33.61512884 106.80106568 -36.70673406 105.03771113 -39.7980957 103.27392578 C-41.13543824 102.51116563 -42.47300159 101.7487925 -43.81079102 100.98681641 C-45.73512204 99.89066944 -47.65865121 98.79312707 -49.58203125 97.6953125 C-50.17901321 97.3556546 -50.77599518 97.0159967 -51.3910675 96.66604614 C-53.98893265 95.18165182 -56.50877862 93.66081425 -59 92 C-59.23926165 89.23596372 -59.29665074 86.68210056 -59.23046875 83.921875 C-59.22836851 82.26953246 -59.22776527 80.61718746 -59.22851562 78.96484375 C-59.21404921 76.35941737 -59.18761951 73.75580943 -59.1340332 71.15087891 C-58.53700733 61.38786736 -58.53700733 61.38786736 -61.72900391 52.59570312 C-63.76439602 51.0888331 -65.71629882 50.0727943 -68 49 C-70.86819352 46.56738215 -71.86186421 44.54340182 -72.203125 40.73046875 C-72.32730654 33.99362016 -71.41044037 29.95473336 -67.0625 24.625 C-62.24234356 22.06736597 -57.3473812 22.69297333 -52 23 C-51.690625 21.6696875 -51.690625 21.6696875 -51.375 20.3125 C-49.45702755 15.69193001 -46.52170013 13.26085006 -42 11 C-36.0180005 10.24294197 -31.89368701 11.06820079 -26.82421875 14.3203125 C-24.95014238 15.24484733 -24.95014238 15.24484733 -22.875 14.2109375 C-20.96193435 13.04299535 -20.96193435 13.04299535 -19.3125 11.5 C-16.87024828 9.91583672 -15.57387256 9.72421384 -12.75 9.3125 C-6.87938698 8.21236854 -3.75238992 4.39653315 0 0 Z " fill="#FDBE43" transform="translate(109,20)"/>
<path d="M0 0 C3.80962064 1.424206 7.24403968 3.17908883 10.76953125 5.203125 C11.89367432 5.84677002 13.01781738 6.49041504 14.17602539 7.15356445 C15.38825806 7.85224712 16.60041442 8.55106219 17.8125 9.25 C19.06947331 9.97178428 20.32655481 10.69338016 21.58374023 11.41479492 C29.59453442 16.0166182 37.58349191 20.65579143 45.5625 25.3125 C46.53461426 25.87888184 47.50672852 26.44526367 48.50830078 27.02880859 C53.20069271 29.76623541 57.8802032 32.52225248 62.5390625 35.31640625 C63.40974365 35.83356201 64.2804248 36.35071777 65.17749023 36.88354492 C66.79955957 37.84738322 68.41666385 38.81964921 70.02758789 39.80200195 C70.74422607 40.22570068 71.46086426 40.64939941 72.19921875 41.0859375 C72.81627686 41.4576709 73.43333496 41.8294043 74.0690918 42.21240234 C76.4688801 43.19125138 78.43315109 43.13572418 81 43 C81.02465622 47.25414623 81.04283899 51.50825498 81.05493164 55.76245117 C81.05997101 57.21070073 81.06680253 58.65894517 81.07543945 60.10717773 C81.08752247 62.18474588 81.09323211 64.26224697 81.09765625 66.33984375 C81.10289307 67.59144287 81.10812988 68.84304199 81.11352539 70.13256836 C81 73 81 73 80 74 C74.76277451 73.62230965 71.19029191 72.32020414 66.69921875 69.65625 C66.13676956 69.32709595 65.57432037 68.99794189 64.99482727 68.65881348 C63.21916528 67.61653915 61.45335423 66.55878833 59.6875 65.5 C58.48435565 64.78929412 57.28058428 64.07964857 56.07617188 63.37109375 C53.88182097 62.07766034 51.69034358 60.77933088 49.50268555 59.47460938 C48.02714185 58.60520308 46.53182154 57.76591077 45 57 C44.67 58.32 44.34 59.64 44 61 C41.0212231 62.27661867 39.81010591 61.93906549 36.65234375 60.92578125 C35.40890095 60.40006582 34.17067891 59.86186008 32.9375 59.3125 C32.31294922 59.05533203 31.68839844 58.79816406 31.04492188 58.53320312 C27.39935737 56.94969752 24.87418911 55.57354714 23 52 C23.3125 48.75 23.3125 48.75 24 46 C26.97 46 29.94 46 33 46 C32.37189827 43.02982306 32.37189827 43.02982306 31 40 C29.35719224 39.27653274 27.68221324 38.62640309 26 38 C23.02139359 36.47019544 20.10798975 34.82500004 17.1875 33.1875 C16.41857422 32.76146484 15.64964844 32.33542969 14.85742188 31.89648438 C13.31762079 31.03757423 11.78665536 30.16262416 10.26513672 29.27172852 C8.02553891 27.96521687 8.02553891 27.96521687 5.66064453 26.97631836 C3.31704886 25.84658373 1.73724293 24.94456471 0 23 C-0.97453848 19.02142856 -0.75825148 15.25247756 -0.5 11.1875 C-0.46390625 10.11306641 -0.4278125 9.03863281 -0.390625 7.93164062 C-0.29649065 5.28411207 -0.16518356 2.64388994 0 0 Z " fill="#7457BD" transform="translate(56,85)"/>
<path d="M0 0 C1.13199353 0.9080162 2.25532363 1.82683826 3.375 2.75 C4.00148438 3.26046875 4.62796875 3.7709375 5.2734375 4.296875 C7.08312318 6.08199481 8.00117455 7.67949644 9 10 C10.175625 9.9175 11.35125 9.835 12.5625 9.75 C18.63936806 9.76071758 22.69681711 12.81811828 27.125 16.625 C29.80295962 18.83722751 31.79535665 19.8238851 35 21 C34.43120907 22.75478052 33.84429344 24.50369158 33.25 26.25 C32.92515625 27.22453125 32.6003125 28.1990625 32.265625 29.203125 C31 32 31 32 28.859375 33.8984375 C26.65047609 35.96667598 26.65047609 35.96667598 26.75 39.4609375 C26.91633535 42.06512535 27.0830007 44.66929214 27.25 47.2734375 C26.90205551 52.45998502 24.78811534 55.42862591 20.9375 58.8125 C16.50408634 61.52975354 12.0345207 61.46335412 7 61 C3.02235041 59.51994434 1.55225577 57.36557064 -0.6875 53.9375 C-2.48068874 51.39367411 -3.42522636 50.19784215 -6.39453125 49.17578125 C-8.12627995 48.89278184 -9.86230359 48.63476724 -11.6015625 48.40234375 C-15.79456833 47.69895678 -18.58992952 45.73174281 -21.25 42.46484375 C-24.23607135 37.91315859 -24.59712123 34.37409109 -24 29 C-22.14231853 23.73656918 -19.43208258 21.16577327 -15 18 C-13.97132812 17.82791016 -13.97132812 17.82791016 -12.921875 17.65234375 C-10.79148008 17.18042489 -10.79148008 17.18042489 -9.98046875 14.9609375 C-9.71878906 14.10757813 -9.45710938 13.25421875 -9.1875 12.375 C-7.23770803 6.92497908 -4.36686391 3.70447444 0 0 Z " fill="#7257BD" transform="translate(109,20)"/>
<path d="M0 0 C-0.226875 0.969375 -0.45375 1.93875 -0.6875 2.9375 C-1.28595695 7.01192608 -0.19620456 9.88068807 1.25 13.6640625 C2.03199177 16.09964102 2.23962225 18.20320607 2.375 20.75 C2.68427326 24.10532315 2.96689251 24.95485342 5.0625 27.8125 C7.96725565 29.97561591 10.74736149 31.45943242 14.02734375 32.94921875 C16.05165453 34.02751499 17.37747941 35.20766356 19 36.8125 C22.18743955 39.13667467 22.59322945 39.30250015 26.25 38.875 C29.78889619 38.20233302 29.78889619 38.20233302 32 37 C34.98404535 36.76198161 37.96692704 36.61771028 40.95703125 36.4765625 C44.38254594 35.94008908 46.2676711 35.12251847 49 33 C50.42701818 30.7763302 50.42701818 30.7763302 51.3125 28.3125 C51.63863281 27.50425781 51.96476562 26.69601563 52.30078125 25.86328125 C52.53152344 25.24839844 52.76226562 24.63351563 53 24 C53.33 24 53.66 24 54 24 C54 36.21 54 48.42 54 61 C52.02 61.99 52.02 61.99 50 63 C47.51171875 62.01220703 47.51171875 62.01220703 44.6875 60.2578125 C43.62619873 59.61175049 42.56489746 58.96568848 41.47143555 58.30004883 C40.90693695 57.94633209 40.34243835 57.59261536 39.76083374 57.22817993 C37.36299935 55.72591273 34.94447325 54.25856821 32.52653503 52.78895569 C31.2614673 52.01968283 29.99749527 51.24860546 28.73457336 50.47581482 C22.70755449 46.79425749 16.58882271 43.28544668 10.44302368 39.80691528 C1.0398171 34.48047484 -8.34419597 29.11829065 -17.6875 23.6875 C-19.08705933 22.88759644 -19.08705933 22.88759644 -20.51489258 22.0715332 C-21.35947021 21.57741943 -22.20404785 21.08330566 -23.07421875 20.57421875 C-23.81244873 20.14713623 -24.55067871 19.72005371 -25.3112793 19.2800293 C-27 18 -27 18 -28 15 C-26.85546875 12.7734375 -26.85546875 12.7734375 -25.1875 10.375 C-24.64480469 9.57835938 -24.10210937 8.78171875 -23.54296875 7.9609375 C-22 6 -22 6 -20 5 C-18.56433053 4.87307441 -17.12628212 4.77213424 -15.6875 4.6875 C-11.35868865 4.26297027 -9.17113102 3.07503614 -6 0 C-3.50907189 -1.24546405 -2.58919267 -0.7767578 0 0 Z " fill="#BD8C2D" transform="translate(83,60)"/>
<path d="M0 0 C0.05607422 1.06927734 0.05607422 1.06927734 0.11328125 2.16015625 C0.50465906 8.66527428 0.50465906 8.66527428 2.625 14.75 C4.37277015 18.88109308 4.35114915 20.72136101 3 25 C1.36963518 27.11138629 -0.38815754 29.01670158 -2.23046875 30.9453125 C-4.43406359 33.50401203 -5.65396555 36.11548979 -6.8828125 39.23828125 C-8.50853989 41.80192829 -10.27274835 42.70977047 -13 44 C-15.9375 44.44140625 -15.9375 44.44140625 -19 44.5625 C-23.17004147 44.7380247 -26.16127565 45.4016014 -30 47 C-35.71312943 47 -38.21639481 45.28827444 -42.16796875 41.55078125 C-44.62305602 39.47259437 -47.2538833 38.29336901 -50.203125 37.0546875 C-52.57480332 35.66261544 -53.6119322 34.38128933 -55 32 C-55.66015625 28.94140625 -55.66015625 28.94140625 -56.0625 25.5625 C-56.5770863 21.33309072 -57.41420176 17.93463747 -59 14 C-58.78401728 7.73650108 -58.78401728 7.73650108 -55.9375 5.0625 C-55.298125 4.711875 -54.65875 4.36125 -54 4 C-53.70867187 4.54269531 -53.41734375 5.08539063 -53.1171875 5.64453125 C-50.387678 10.40829783 -48.4118496 13.19605013 -43 15 C-41.700625 15.04125 -40.40125 15.0825 -39.0625 15.125 C-36.07848516 15.37033965 -35.19859044 15.79496444 -33.07421875 17.98828125 C-31.88567781 19.58403108 -30.73817643 21.21144681 -29.640625 22.87109375 C-27.38962957 25.79202829 -25.47944821 26.79287725 -21.8515625 27.30078125 C-16.82966854 27.32721227 -13.24999029 26.96510951 -9 24 C-5.14632474 19.30463754 -4.59705088 16.31515561 -4.9375 10.3125 C-5.31115068 3.44412106 -5.31115068 3.44412106 -3.62890625 1.04296875 C-2 0 -2 0 0 0 Z " fill="#C2B5DF" transform="translate(140,53)"/>
<path d="M0 0 C1.13199353 0.9080162 2.25532363 1.82683826 3.375 2.75 C4.00148438 3.26046875 4.62796875 3.7709375 5.2734375 4.296875 C7.08312318 6.08199481 8.00117455 7.67949644 9 10 C10.175625 9.9175 11.35125 9.835 12.5625 9.75 C18.63936806 9.76071758 22.69681711 12.81811828 27.125 16.625 C29.80295962 18.83722751 31.79535665 19.8238851 35 21 C32.89540514 28.06896273 31.27566049 32.86376922 25 37 C23.50260417 35.73046875 22.00520833 34.4609375 20.5078125 33.19140625 C16.91304851 30.35098393 13.34972963 30.56055701 8.91015625 30.56640625 C4.24451086 31.2615561 1.32602207 33.79786987 -2 37 C-2.96671756 35.94512267 -3.92298745 34.88066719 -4.875 33.8125 C-5.40867187 33.22082031 -5.94234375 32.62914062 -6.4921875 32.01953125 C-10.83254403 26.20615216 -10.58874394 19.96996853 -10 13 C-8.20712966 7.41046306 -4.21792419 3.90591336 0 0 Z " fill="#06A257" transform="translate(109,20)"/>
<path d="M0 0 C6.53233053 -0.53325147 10.6658077 1.26906009 15.59765625 5.30859375 C16.10167969 5.74300781 16.60570312 6.17742188 17.125 6.625 C19.80295962 8.83722751 21.79535665 9.8238851 25 11 C22.89540514 18.06896273 21.27566049 22.86376922 15 27 C12.75390625 25.09570312 12.75390625 25.09570312 10.5078125 23.19140625 C7.51945237 20.83013724 5.36593702 20.86497068 1.625 20.875 C0.66851562 20.87242188 -0.28796875 20.86984375 -1.2734375 20.8671875 C-3.68140854 20.98448122 -5.69990068 21.31324049 -8 22 C-7.04621983 17.99412331 -5.99445856 15.82502476 -2.875 13.25 C-0.6790183 11.2565603 -0.05683565 10.37852542 0.390625 7.3984375 C0.37658524 4.90638027 0.2643731 2.47727388 0 0 Z " fill="#09BF67" transform="translate(119,30)"/>
<path d="M0 0 C0.14695312 1.08667969 0.14695312 1.08667969 0.296875 2.1953125 C1.41167785 9.40308955 2.78377093 13.78377093 8 19 C7.7578125 21.8203125 7.7578125 21.8203125 7.125 25.125 C6.92132813 26.22070312 6.71765625 27.31640625 6.5078125 28.4453125 C6.34023437 29.28835937 6.17265625 30.13140625 6 31 C1.07395065 31.35046991 -2.82934417 31.54197029 -7.375 29.4375 C-11.58927508 25.52424457 -14.17930752 21.8085724 -14.4375 15.9375 C-13.81884876 10.36963886 -12.23486586 6.88453304 -8.0625 3.1875 C-5.26681689 1.19058349 -3.41992322 0 0 0 Z " fill="#473772" transform="translate(99,37)"/>
<path d="M0 0 C0.391875 0.556875 0.78375 1.11375 1.1875 1.6875 C5.63998452 7.36825611 9.2229642 9.81756474 16 12 C15.195625 12.94875 14.39125 13.8975 13.5625 14.875 C10.38933821 19.31922944 9.80529525 23.61021853 10 29 C10.79123713 32.47518686 10.79123713 32.47518686 12 35 C7.133091 34.54726428 4.5580675 33.35474936 1 30 C-0.80010254 26.39979492 -0.86517789 22.2204957 -1.40234375 18.26171875 C-1.88157861 15.03773299 -1.88157861 15.03773299 -3.078125 12.30859375 C-4.42894382 8.92582289 -3.83916629 6.48576768 -3 3 C-1.4375 1.0625 -1.4375 1.0625 0 0 Z " fill="#FCFCFD" transform="translate(85,57)"/>
<path d="M0 0 C0.03738281 0.71285156 0.07476562 1.42570312 0.11328125 2.16015625 C0.50465906 8.66527428 0.50465906 8.66527428 2.625 14.75 C4.37277015 18.88109308 4.35114915 20.72136101 3 25 C-1.98968354 32.28259295 -1.98968354 32.28259295 -5.9921875 33.7109375 C-12.59347433 34.66131732 -17.18983326 34.18989547 -23 31 C-24.69921875 28.890625 -24.69921875 28.890625 -26 27 C-25.27554688 27.03480469 -24.55109375 27.06960937 -23.8046875 27.10546875 C-15.9466821 27.36556212 -15.9466821 27.36556212 -9 24 C-5.15420034 19.29725585 -4.59686888 16.31836443 -4.9375 10.3125 C-5.31115068 3.44412106 -5.31115068 3.44412106 -3.62890625 1.04296875 C-2 0 -2 0 0 0 Z " fill="#BFB3E1" transform="translate(140,53)"/>
<path d="M0 0 C0.43570313 0.37511719 0.87140625 0.75023438 1.3203125 1.13671875 C2.56424804 2.20564171 3.81048353 3.27189202 5.05859375 4.3359375 C6.26798192 5.37255594 7.46994819 6.41797745 8.66015625 7.4765625 C14.14623224 12.27512513 17.95774875 12.22356353 25 12 C25.99 11.67 26.98 11.34 28 11 C27.54595948 15.88093556 26.4999702 18.53491322 23 22 C17.29566535 23.18656057 11.72692132 22.7877185 6.4375 20.375 C2.59031738 16.62646309 -0.76584638 12.53985174 -1.1328125 6.9921875 C-1.11111111 1.11111111 -1.11111111 1.11111111 0 0 Z " fill="#FBFAFC" transform="translate(107,74)"/>
<path d="M0 0 C7.49329546 0.17103099 12.94712274 4.17367333 19.1875 8 C21.32417733 9.29603831 23.46339772 10.58789587 25.60546875 11.875 C26.54543701 12.44992188 27.48540527 13.02484375 28.45385742 13.6171875 C30.69763597 14.8357858 32.50697147 15.54319489 35 16 C35.042721 17.66611905 35.04063832 19.33382885 35 21 C34.505 21.495 34.505 21.495 34 22 C28.76277451 21.62230965 25.19029191 20.32020414 20.69921875 17.65625 C19.85554497 17.16251892 19.85554497 17.16251892 18.99482727 16.65881348 C17.21916528 15.61653915 15.45335423 14.55878833 13.6875 13.5 C12.48435565 12.78929412 11.28058428 12.07964857 10.07617188 11.37109375 C7.88182097 10.07766034 5.69034358 8.77933088 3.50268555 7.47460938 C2.02714185 6.60520308 0.53182154 5.76591077 -1 5 C-0.67 3.35 -0.34 1.7 0 0 Z " fill="#FCBE44" transform="translate(102,137)"/>
<path d="M0 0 C3.76488042 1.72154788 6.15063897 3.99234114 9 7 C7.4404735 10.82792868 5.16368164 13.36359864 2 16 C-1.30521583 15.69713162 -2.98495776 14.40189968 -5.25 12.0625 C-5.77078125 11.53785156 -6.2915625 11.01320313 -6.828125 10.47265625 C-8 9 -8 9 -8 7 C-6.25 5.2734375 -6.25 5.2734375 -4 3.375 C-3.2575 2.74335937 -2.515 2.11171875 -1.75 1.4609375 C-1.1725 0.97882812 -0.595 0.49671875 0 0 Z " fill="#6C51B7" transform="translate(121,53)"/>
<path d="M0 0 C8.03501094 -0.63019694 8.03501094 -0.63019694 12.0625 2 C12.701875 2.66 13.34125 3.32 14 4 C13.67 5.65 13.34 7.3 13 9 C9.231995 9.98685845 7.41783561 10.1687413 3.75 8.6875 C1 7 1 7 -1 5 C-0.625 2.375 -0.625 2.375 0 0 Z " fill="#7356BF" transform="translate(63,130)"/>
<path d="M0 0 C6.14713824 -0.5018072 9.06560333 0.58387923 14 4 C14.99 5.32 15.98 6.64 17 8 C12.05 8.33 7.1 8.66 2 9 C1.34 6.03 0.68 3.06 0 0 Z " fill="#F8BF43" transform="translate(119,30)"/>
<path d="M0 0 C2.32387328 2.85202629 4.22218869 5.37021389 5 9 C3.25 12.0625 3.25 12.0625 1 15 C0.30980115 16.32130533 -0.36246947 17.65249228 -1 19 C-3.26001293 13.36912032 -4.69864431 9.06658682 -3 3 C-1.4375 1.0625 -1.4375 1.0625 0 0 Z " fill="#C0B2D9" transform="translate(85,57)"/>
<path d="M0 0 C2.97 0 5.94 0 9 0 C7.515 1.98 7.515 1.98 6 4 C4.125 3.6875 4.125 3.6875 2 3 C1.34 2.01 0.68 1.02 0 0 Z " fill="#24216D" transform="translate(117,65)"/>
<path d="M0 0 C1.32 0.99 2.64 1.98 4 3 C2.25 6.875 2.25 6.875 0 8 C0 5.36 0 2.72 0 0 Z " fill="#16175E" transform="translate(126,57)"/>
<path d="M0 0 C3.875 1.75 3.875 1.75 5 4 C2.36 4 -0.28 4 -3 4 C-2.01 2.68 -1.02 1.36 0 0 Z " fill="#171860" transform="translate(121,53)"/>
<path d="M0 0 C0 2.31 0 4.62 0 7 C-2 5.625 -2 5.625 -4 4 C-4 3.34 -4 2.68 -4 2 C-1 0 -1 0 0 0 Z " fill="#12155B" transform="translate(117,58)"/>
</svg>
