<?xml version="1.0" encoding="UTF-8"?>
<svg version="1.1" xmlns="http://www.w3.org/2000/svg" width="128" height="128">
<path d="M0 0 C29.7 0 59.4 0 90 0 C90 13.50167244 90 13.50167244 89.55688477 19.66113281 C89.50972321 20.33278473 89.46256165 21.00443665 89.41397095 21.69644165 C89.26058517 23.86565488 89.10116618 26.03437273 88.94140625 28.203125 C88.83138813 29.736204 88.7216887 31.26930591 88.61228943 32.8024292 C88.38373822 35.99283272 88.15235623 39.18301316 87.91870117 42.37304688 C87.62067932 46.44308635 87.32832031 50.51350762 87.03788853 54.584095 C86.81225283 57.74135712 86.58438857 60.89845518 86.35578728 64.05550385 C86.24725182 65.55604182 86.13921597 67.05661603 86.03170967 68.55722809 C85.88077848 70.6571291 85.72703117 72.7568058 85.57250977 74.85644531 C85.44260399 76.64082001 85.44260399 76.64082001 85.31007385 78.46124268 C84.97218598 82.31743107 84.48013391 86.15892872 84 90 C58.26 90 32.52 90 6 90 C2.44018955 47.28227459 2.44018955 47.28227459 1.49194336 33.99902344 C1.3058829 31.40784672 1.11285958 28.81723535 0.91992188 26.2265625 C0.79646202 24.51565475 0.67339816 22.80471837 0.55078125 21.09375 C0.49457108 20.34992065 0.4383609 19.60609131 0.38044739 18.83972168 C-0.05977928 12.51524182 0 6.39234756 0 0 Z M33 14 C33 34.79 33 55.58 33 77 C34.65 77 36.3 77 38 77 C38 56.21 38 35.42 38 14 C36.35 14 34.7 14 33 14 Z M52 14 C52 34.79 52 55.58 52 77 C53.65 77 55.3 77 57 77 C57 56.21 57 35.42 57 14 C55.35 14 53.7 14 52 14 Z " fill="#EC5359" transform="translate(19,38)"/>
<path d="M0 0 C3.52808316 2.0404992 5.3946921 5.20292982 7.7421875 8.484375 C12.12234279 12.98804877 19.349618 12.10128104 25.1875 12.1875 C29.46752361 12.20494462 33.72054758 12.13023104 38 12 C38 16.62 38 21.24 38 26 C3.68 26 -30.64 26 -66 26 C-66 21.38 -66 16.76 -66 12 C-64.17855469 12.05542969 -62.35710938 12.11085938 -60.48046875 12.16796875 C-48.39399785 12.94343562 -48.39399785 12.94343562 -37.09277344 9.87304688 C-35.49471395 8.29936049 -35.49471395 8.29936049 -33.5625 5.4375 C-26.33044981 -4.15911617 -10.7098926 -2.49938535 0 0 Z " fill="#EC5358" transform="translate(78,0)"/>
</svg>
