<?xml version="1.0" encoding="UTF-8"?>
<svg version="1.1" xmlns="http://www.w3.org/2000/svg" width="128" height="128">
<path d="M0 0 C10.2264036 7.50049138 16.41264592 17.01498983 19.421875 29.35546875 C20.75473508 41.2358658 18.45439691 50.67059751 13.421875 61.35546875 C13.06754395 62.11891602 12.71321289 62.88236328 12.34814453 63.66894531 C6.91304059 75.16243426 0.34838964 85.86211271 -6.703125 96.41796875 C-7.07626831 96.97674713 -7.44941162 97.53552551 -7.8338623 98.11123657 C-13.16405207 106.05803565 -18.77368087 113.75221148 -24.578125 121.35546875 C-27.94281427 119.95033894 -29.54408356 118.43575685 -31.609375 115.453125 C-32.16641113 114.65543701 -32.72344727 113.85774902 -33.29736328 113.03588867 C-33.88501465 112.1719751 -34.47266602 111.30806152 -35.078125 110.41796875 C-35.6954248 109.51989502 -36.31272461 108.62182129 -36.94873047 107.6965332 C-38.84059307 104.92621914 -40.71338421 102.1440993 -42.578125 99.35546875 C-43.11598633 98.55270508 -43.65384766 97.74994141 -44.20800781 96.92285156 C-50.33946456 87.69249178 -55.89488113 78.21234222 -61.078125 68.41796875 C-61.57070801 67.4952417 -62.06329102 66.57251465 -62.57080078 65.62182617 C-69.728159 51.79292006 -73.57503148 38.33639186 -69.015625 22.98046875 C-63.87075655 9.67601946 -54.8996731 1.61746226 -42.3125 -4.48046875 C-29.02612518 -10.13666832 -11.84422943 -7.55518271 0 0 Z M-35.578125 30.35546875 C-37.8133061 33.33571022 -38.12950448 36.55404868 -38.01171875 40.25390625 C-37.17218878 44.32297943 -34.92437578 46.98577687 -31.578125 49.35546875 C-27.33752654 50.8061998 -23.92794462 50.8953966 -19.765625 49.23046875 C-15.74123502 45.78099163 -13.76665086 43.84010991 -13.078125 38.41796875 C-13.29391389 34.19010502 -14.86232932 31.61442356 -17.578125 28.35546875 C-23.44985506 24.44098204 -30.80934586 24.99059221 -35.578125 30.35546875 Z " fill="#5C6174" transform="translate(89.578125,6.64453125)"/>
</svg>
