<?xml version="1.0" encoding="UTF-8"?>
<svg version="1.1" xmlns="http://www.w3.org/2000/svg" width="52" height="52">
<path d="M0 0 C3.10508423 -0.49955614 5.25843959 -0.4410161 7.99511719 1.18652344 C10.18650862 2.84977008 12.28625023 4.58464305 14.375 6.375 C15.11105469 6.97828125 15.84710938 7.5815625 16.60546875 8.203125 C20.52900828 11.47880735 20.52900828 11.47880735 22 13 C22 13.66 22 14.32 22 15 C23.32 15.33 24.64 15.66 26 16 C26 18.64 26 21.28 26 24 C25.071875 24.12375 25.071875 24.12375 24.125 24.25 C23.42375 24.4975 22.7225 24.745 22 25 C21.76539062 25.556875 21.53078125 26.11375 21.2890625 26.6875 C19.3296055 30.20264711 16.38058981 32.28563075 13.25 34.75 C12.6415625 35.25660156 12.033125 35.76320312 11.40625 36.28515625 C8.26713614 38.77364181 6.63085781 39.94005424 2.546875 40.328125 C1.70640625 40.21984375 0.8659375 40.1115625 0 40 C-0.4375 36.875 -0.4375 36.875 0 33 C2.02128132 30.55430265 4.3022797 28.66623901 7 27 C7.66 27 8.32 27 9 27 C9.33 26.01 9.66 25.02 10 24 C12.0625 22.3125 12.0625 22.3125 14 21 C12.63016497 17.83884224 12.0109362 17.0072908 9 15 C9 14.34 9 13.68 9 13 C6.525 12.01 6.525 12.01 4 11 C4 10.34 4 9.68 4 9 C2.68 8.34 1.36 7.68 0 7 C0 4.69 0 2.38 0 0 Z " fill="#000000" transform="translate(13,6)"/>
</svg>
