<?xml version="1.0" encoding="UTF-8"?>
<svg version="1.1" xmlns="http://www.w3.org/2000/svg" width="128" height="128">
<path d="M0 0 C2.11359905 1.55579104 4.17300782 3.13185568 6.17578125 4.828125 C8.19953703 6.36032293 8.19953703 6.36032293 12 6 C13.85628319 4.83938699 13.85628319 4.83938699 15.625 3.25 C24.4206419 -3.57308986 32.96078086 -5.18500092 44 -4 C52.76937489 -2.26905149 59.2405272 2.23391664 65 9 C70.42424144 17.32963973 72.12570052 26.91417188 70.375 36.6875 C67.39163681 46.96382739 60.75903306 53.8020192 53.30078125 61.125 C52.25816255 62.16268511 51.21636213 63.20119297 50.17533875 64.24047852 C48.00691153 66.40131565 45.83223829 68.55557021 43.65209961 70.70458984 C40.85578692 73.46105764 38.07059806 76.22843276 35.28931904 79.00006104 C32.62999918 81.64942935 29.96574647 84.29381212 27.30078125 86.9375 C26.53950141 87.69368622 26.53950141 87.69368622 25.76284218 88.46514893 C24.33199156 89.88445186 22.89717133 91.29974953 21.4621582 92.71484375 C20.6467305 93.52042725 19.8313028 94.32601074 18.99116516 95.15600586 C16.12813305 97.80742551 14.2049543 98.26285113 10.375 98.5 C9.14910156 98.60828125 9.14910156 98.60828125 7.8984375 98.71875 C-2.7039336 96.08959059 -13.32310434 80.97867369 -20.84594727 73.50415039 C-22.73881871 71.62464116 -24.63870648 69.75268612 -26.54516602 67.88696289 C-29.31719736 65.16989897 -32.07223112 62.43656506 -34.82421875 59.69921875 C-35.67014084 58.87596603 -36.51606293 58.05271332 -37.38761902 57.20451355 C-46.41388524 48.14587442 -50.3125 39.59785917 -50.3125 26.85302734 C-50.10997245 17.30891634 -46.71542645 10.83731952 -40.22265625 3.98046875 C-29.68295642 -5.41079278 -12.11082599 -7.97719077 0 0 Z M-35.875 12.875 C-40.69966235 18.87560511 -41.23993735 24.08497234 -41.55859375 31.609375 C-39.88296158 41.78034508 -33.12602957 48.62675577 -26.0625 55.63671875 C-25.09447853 56.61066236 -24.12712393 57.58526918 -23.16040039 58.5605011 C-21.14796066 60.58473113 -19.1266639 62.59954937 -17.09863281 64.6081543 C-14.50050391 67.18322288 -11.92830927 69.78260227 -9.36225891 72.38959026 C-7.37743215 74.39995062 -5.37877471 76.39608794 -3.3757019 78.38825417 C-1.95757694 79.80417305 -0.55204291 81.23266629 0.85327148 82.66130066 C1.71766846 83.51001236 2.58206543 84.35872406 3.47265625 85.2331543 C4.22812744 85.98686813 4.98359863 86.74058197 5.76196289 87.51713562 C7.89976272 89.23237397 7.89976272 89.23237397 10.49900818 88.98703003 C13.55139832 87.78238765 15.21758022 86.29024028 17.54321289 83.97436523 C18.41083755 83.11934921 19.27846222 82.26433319 20.17237854 81.38340759 C21.09647018 80.45121902 22.02056183 79.51903046 22.97265625 78.55859375 C23.94183525 77.59211199 24.91160714 76.62622445 25.88194275 75.66090393 C27.91330038 73.63543884 29.93726192 71.60293029 31.95629883 69.56518555 C34.5305705 66.96821611 37.12226094 64.38950016 39.71987247 61.81590176 C41.72702798 59.8232892 43.72444963 57.82113632 45.71917534 55.81608772 C47.12959119 54.40174394 48.54799923 52.99538452 49.96656799 51.58921814 C56.22226119 45.24228341 61.29526959 39.22542044 62.03515625 30.00390625 C61.89863044 22.22193517 58.68238564 15.62277707 53.1875 10.25 C45.87001198 5.08471434 39.91453092 3.97369524 31 5 C24.50007697 6.73177345 20.06849019 11.46066638 15.39453125 16.07421875 C12.785954 18.17214466 11.34271087 18.94564698 8 19 C6.296875 17.77734375 6.296875 17.77734375 4.75 15.9375 C-0.18518333 10.53693754 -6.33449019 5.38932435 -13.85546875 4.76171875 C-23.57146299 4.54530153 -29.17765552 5.71103726 -35.875 12.875 Z " fill="#5C6174" transform="translate(54,17)"/>
</svg>
