<?xml version="1.0" encoding="UTF-8"?>
<svg version="1.1" xmlns="http://www.w3.org/2000/svg" width="128" height="128">
<path d="M0 0 C2.11359905 1.55579104 4.17300782 3.13185568 6.17578125 4.828125 C8.19953703 6.36032293 8.19953703 6.36032293 12 6 C13.85628319 4.83938699 13.85628319 4.83938699 15.625 3.25 C24.4206419 -3.57308986 32.96078086 -5.18500092 44 -4 C52.76937489 -2.26905149 59.2405272 2.23391664 65 9 C70.42424144 17.32963973 72.12570052 26.91417188 70.375 36.6875 C67.39163681 46.96382739 60.75903306 53.8020192 53.30078125 61.125 C52.25816255 62.16268511 51.21636213 63.20119297 50.17533875 64.24047852 C48.00691153 66.40131565 45.83223829 68.55557021 43.65209961 70.70458984 C40.85578692 73.46105764 38.07059806 76.22843276 35.28931904 79.00006104 C32.62999918 81.64942935 29.96574647 84.29381212 27.30078125 86.9375 C26.53950141 87.69368622 26.53950141 87.69368622 25.76284218 88.46514893 C24.33199156 89.88445186 22.89717133 91.29974953 21.4621582 92.71484375 C20.6467305 93.52042725 19.8313028 94.32601074 18.99116516 95.15600586 C16.12813305 97.80742551 14.2049543 98.26285113 10.375 98.5 C9.14910156 98.60828125 9.14910156 98.60828125 7.8984375 98.71875 C-2.7039336 96.08959059 -13.32310434 80.97867369 -20.84594727 73.50415039 C-22.73881871 71.62464116 -24.63870648 69.75268612 -26.54516602 67.88696289 C-29.31719736 65.16989897 -32.07223112 62.43656506 -34.82421875 59.69921875 C-35.67014084 58.87596603 -36.51606293 58.05271332 -37.38761902 57.20451355 C-46.41388524 48.14587442 -50.3125 39.59785917 -50.3125 26.85302734 C-50.10997245 17.30891634 -46.71542645 10.83731952 -40.22265625 3.98046875 C-29.68295642 -5.41079278 -12.11082599 -7.97719077 0 0 Z " fill="#5C6174" transform="translate(54,17)"/>
</svg>
