<?xml version="1.0" encoding="UTF-8"?>
<!DOCTYPE svg PUBLIC "-//W3C//DTD SVG 1.1//EN" "http://www.w3.org/Graphics/SVG/1.1/DTD/svg11.dtd">
<svg xmlns="http://www.w3.org/2000/svg" version="1.1" width="64px" height="64px" style="shape-rendering:geometricPrecision; text-rendering:geometricPrecision; image-rendering:optimizeQuality; fill-rule:evenodd; clip-rule:evenodd" xmlns:xlink="http://www.w3.org/1999/xlink">
<g><path style="opacity:0.943" fill="#e7e7e7" d="M 3.5,-0.5 C 22.1667,-0.5 40.8333,-0.5 59.5,-0.5C 61.1667,0.5 62.5,1.83333 63.5,3.5C 63.5,22.1667 63.5,40.8333 63.5,59.5C 62.5,61.1667 61.1667,62.5 59.5,63.5C 40.8333,63.5 22.1667,63.5 3.5,63.5C 1.83333,62.5 0.5,61.1667 -0.5,59.5C -0.5,40.8333 -0.5,22.1667 -0.5,3.5C 0.5,1.83333 1.83333,0.5 3.5,-0.5 Z M 6.5,0.5 C 23.17,0.3334 39.8367,0.500067 56.5,1C 59.3333,1.83333 61.1667,3.66667 62,6.5C 62.6667,23.1667 62.6667,39.8333 62,56.5C 61.1667,59.3333 59.3333,61.1667 56.5,62C 39.8333,62.6667 23.1667,62.6667 6.5,62C 3.66667,61.1667 1.83333,59.3333 1,56.5C 0.333333,39.8333 0.333333,23.1667 1,6.5C 2.02088,3.64986 3.85422,1.64986 6.5,0.5 Z M 28.5,20.5 C 34.4877,20.664 35.821,23.164 32.5,28C 26.4034,28.1475 25.0701,25.6475 28.5,20.5 Z"/></g>
<g><path style="opacity:0.124" fill="#000000" d="M 26.5,9.5 C 37.6561,8.56135 43.9894,13.5613 45.5,24.5C 43.3635,35.1076 38.3635,44.1076 30.5,51.5C 23.1474,43.7937 18.1474,34.7937 15.5,24.5C 16.5114,17.4496 20.1781,12.4496 26.5,9.5 Z M 28.5,20.5 C 25.0701,25.6475 26.4034,28.1475 32.5,28C 35.821,23.164 34.4877,20.664 28.5,20.5 Z"/></g>
</svg>
