<?xml version="1.0" encoding="UTF-8"?>
<!DOCTYPE svg PUBLIC "-//W3C//DTD SVG 1.1//EN" "http://www.w3.org/Graphics/SVG/1.1/DTD/svg11.dtd">
<svg xmlns="http://www.w3.org/2000/svg" version="1.1" width="398px" height="119px" style="shape-rendering:geometricPrecision; text-rendering:geometricPrecision; image-rendering:optimizeQuality; fill-rule:evenodd; clip-rule:evenodd" xmlns:xlink="http://www.w3.org/1999/xlink">
<g><path style="opacity:0.867" fill="#5c6274" d="M 302.5,24.5 C 304.582,24.6243 306.082,25.6243 307,27.5C 307.5,34.4921 307.666,41.4921 307.5,48.5C 308.5,48.5 309.5,48.5 310.5,48.5C 310.334,41.1591 310.5,33.8258 311,26.5C 313,23.8333 315,23.8333 317,26.5C 317.5,33.8258 317.666,41.1591 317.5,48.5C 318.5,48.5 319.5,48.5 320.5,48.5C 320.747,42.8216 320.747,37.155 320.5,31.5C 320.569,28.352 321.903,26.0187 324.5,24.5C 325.748,25.0402 326.915,25.7069 328,26.5C 328.913,35.5764 328.58,44.5764 327,53.5C 325.333,56.5 323,58.8333 320,60.5C 319.833,61.3333 319.667,62.1667 319.5,63C 321.063,72.4505 321.563,81.9505 321,91.5C 316.966,97.1027 312.632,97.436 308,92.5C 306.964,90.1299 306.464,87.6299 306.5,85C 307.107,77.9941 307.773,70.9941 308.5,64C 308.167,62.5 307.833,61 307.5,59.5C 303.323,57.502 300.823,54.1687 300,49.5C 299.333,42.1667 299.333,34.8333 300,27.5C 300.698,26.3094 301.531,25.3094 302.5,24.5 Z"/></g>
<g><path style="opacity:0.923" fill="#5c6274" d="M 5.5,25.5 C 21.5,25.5 37.5,25.5 53.5,25.5C 53.5,30.5 53.5,35.5 53.5,40.5C 42.1667,40.5 30.8333,40.5 19.5,40.5C 19.5,44.5 19.5,48.5 19.5,52.5C 26.1667,52.5 32.8333,52.5 39.5,52.5C 39.5,57.5 39.5,62.5 39.5,67.5C 32.8333,67.5 26.1667,67.5 19.5,67.5C 19.5,76.1667 19.5,84.8333 19.5,93.5C 14.8333,93.5 10.1667,93.5 5.5,93.5C 5.5,70.8333 5.5,48.1667 5.5,25.5 Z"/></g>
<g><path style="opacity:0.93" fill="#5c6274" d="M 87.5,25.5 C 113.205,23.0477 127.872,34.5477 131.5,60C 130.404,76.7493 122.071,88.0827 106.5,94C 79.8714,98.0463 64.5381,86.7129 60.5,60C 61.9242,42.4251 70.9242,30.9251 87.5,25.5 Z M 90.5,39.5 C 105.819,38.1474 114.819,44.9807 117.5,60C 115.696,72.471 108.529,79.6377 96,81.5C 78.0268,77.5527 72.0268,66.8861 78,49.5C 81.1908,44.8366 85.3575,41.5032 90.5,39.5 Z"/></g>
<g><path style="opacity:0.933" fill="#5c6274" d="M 168.5,25.5 C 198.654,23.4892 213.154,37.4892 212,67.5C 205.804,87.3548 192.304,96.5214 171.5,95C 150.06,88.8857 140.56,74.719 143,52.5C 146.586,38.7505 155.086,29.7505 168.5,25.5 Z M 172.5,39.5 C 187.742,38.4123 196.409,45.4123 198.5,60.5C 195.583,76.2539 186.25,82.7539 170.5,80C 157.012,72.869 153.512,62.369 160,48.5C 163.299,44.1179 167.466,41.1179 172.5,39.5 Z"/></g>
<g><path style="opacity:0.939" fill="#5c6274" d="M 227.5,25.5 C 235.507,25.3336 243.507,25.5003 251.5,26C 270.528,29.3625 280.861,40.6959 282.5,60C 280.978,76.7443 272.311,87.7443 256.5,93C 246.839,93.4998 237.172,93.6665 227.5,93.5C 227.5,70.8333 227.5,48.1667 227.5,25.5 Z M 241.5,40.5 C 256.691,38.5442 265.358,45.0442 267.5,60C 265.404,74.9011 256.737,81.4011 241.5,79.5C 241.5,66.5 241.5,53.5 241.5,40.5 Z"/></g>
<g><path style="opacity:0.928" fill="#5c6274" d="M 347.5,25.5 C 363.167,25.5 378.833,25.5 394.5,25.5C 394.5,30.5 394.5,35.5 394.5,40.5C 383.5,40.5 372.5,40.5 361.5,40.5C 361.5,44.5 361.5,48.5 361.5,52.5C 368.833,52.5 376.167,52.5 383.5,52.5C 383.5,57.5 383.5,62.5 383.5,67.5C 376.167,67.5 368.833,67.5 361.5,67.5C 361.5,71.5 361.5,75.5 361.5,79.5C 372.5,79.5 383.5,79.5 394.5,79.5C 394.5,84.1667 394.5,88.8333 394.5,93.5C 378.833,93.5 363.167,93.5 347.5,93.5C 347.5,70.8333 347.5,48.1667 347.5,25.5 Z"/></g>
</svg>
