<?xml version="1.0" encoding="UTF-8"?>
<!DOCTYPE svg PUBLIC "-//W3C//DTD SVG 1.1//EN" "http://www.w3.org/Graphics/SVG/1.1/DTD/svg11.dtd">
<svg xmlns="http://www.w3.org/2000/svg" version="1.1" width="128px" height="128px" style="shape-rendering:geometricPrecision; text-rendering:geometricPrecision; image-rendering:optimizeQuality; fill-rule:evenodd; clip-rule:evenodd" xmlns:xlink="http://www.w3.org/1999/xlink">
<g><path style="opacity:0.983" fill="#5c6174" d="M 54.5,-0.5 C 60.5,-0.5 66.5,-0.5 72.5,-0.5C 96.0192,8.16583 106.019,25.1658 102.5,50.5C 111.343,48.339 117.509,51.339 121,59.5C 121.667,79.1667 121.667,98.8333 121,118.5C 119.732,122.595 117.232,125.595 113.5,127.5C 80.1667,127.5 46.8333,127.5 13.5,127.5C 9.76804,125.595 7.26804,122.595 6,118.5C 5.33333,98.8333 5.33333,79.1667 6,59.5C 9.64791,51.6572 15.8146,48.6572 24.5,50.5C 20.9808,25.1658 30.9808,8.16583 54.5,-0.5 Z M 58.5,19.5 C 71.0879,17.9297 78.9213,23.2631 82,35.5C 82.4993,40.4889 82.6659,45.4889 82.5,50.5C 69.8333,50.5 57.1667,50.5 44.5,50.5C 42.3508,39.2335 45.3508,29.7335 53.5,22C 55.3146,21.2432 56.9812,20.4098 58.5,19.5 Z M 59.5,70.5 C 66.6625,69.3311 71.8292,71.9978 75,78.5C 76.5459,84.2158 75.0459,88.8824 70.5,92.5C 69.5059,97.456 69.1725,102.456 69.5,107.5C 65.5,107.5 61.5,107.5 57.5,107.5C 57.8275,102.456 57.4941,97.456 56.5,92.5C 51.4429,88.0773 50.2762,82.7439 53,76.5C 55.0627,74.2659 57.2294,72.2659 59.5,70.5 Z"/></g>
</svg>
