<?xml version="1.0" standalone="no"?>
<!DOCTYPE svg PUBLIC "-//W3C//DTD SVG 20010904//EN"
 "http://www.w3.org/TR/2001/REC-SVG-20010904/DTD/svg10.dtd">
<svg version="1.0" xmlns="http://www.w3.org/2000/svg"
 width="128.000000pt" height="128.000000pt" viewBox="0 0 128.000000 128.000000"
 preserveAspectRatio="xMidYMid meet">

<g transform="translate(0.000000,128.000000) scale(0.100000,-0.100000)"
fill="#000000" stroke="none">
<path d="M520 1265 c-187 -34 -360 -166 -447 -341 -64 -129 -83 -245 -61 -379
46 -280 254 -487 534 -533 84 -14 104 -14 188 0 280 46 488 254 534 534 14 84
14 104 0 188 -45 272 -250 484 -514 531 -96 17 -137 17 -234 0z m271 -135
c115 -35 211 -109 280 -214 107 -163 107 -389 0 -552 -101 -154 -248 -234
-431 -234 -185 0 -340 87 -439 245 -99 157 -96 382 7 541 67 103 165 178 280
215 80 25 220 25 303 -1z"/>
<path d="M320 640 l0 -60 320 0 320 0 0 60 0 60 -320 0 -320 0 0 -60z"/>
</g>
</svg>
