<?xml version="1.0" standalone="no"?>
<!DOCTYPE svg PUBLIC "-//W3C//DTD SVG 20010904//EN"
 "http://www.w3.org/TR/2001/REC-SVG-20010904/DTD/svg10.dtd">
<svg version="1.0" xmlns="http://www.w3.org/2000/svg"
 width="128.000000pt" height="128.000000pt" viewBox="0 0 128.000000 128.000000"
 preserveAspectRatio="xMidYMid meet">

<g transform="translate(0.000000,128.000000) scale(0.100000,-0.100000)"
fill="#000000" stroke="none">
<path d="M225 1273 c-36 -10 -68 -37 -81 -70 -11 -26 -14 -138 -14 -563 0
-578 0 -577 56 -615 28 -19 49 -20 454 -20 405 0 426 1 454 20 55 37 56 46 56
520 0 422 -1 436 -20 455 -19 19 -33 20 -255 20 l-235 0 0 -257 0 -257 -65 64
-65 64 -65 -64 -65 -64 0 257 0 257 -36 0 c-64 0 -100 36 -88 86 13 50 40 54
419 54 l345 0 0 38 c0 21 -6 47 -14 58 -14 18 -31 19 -388 21 -205 0 -382 -1
-393 -4z"/>
</g>
</svg>
