<?xml version="1.0" standalone="no"?>
<!DOCTYPE svg PUBLIC "-//W3C//DTD SVG 20010904//EN"
 "http://www.w3.org/TR/2001/REC-SVG-20010904/DTD/svg10.dtd">
<svg version="1.0" xmlns="http://www.w3.org/2000/svg"
 width="403.000000pt" height="441.000000pt" viewBox="0 0 403.000000 441.000000"
 preserveAspectRatio="xMidYMid meet">

<g transform="translate(0.000000,441.000000) scale(0.100000,-0.100000)"
fill="#000000" stroke="none">
<path d="M2052 4093 c59 -2 158 -2 220 0 62 1 14 3 -107 3 -121 0 -172 -2
-113 -3z"/>
<path d="M2038 4071 c-7 -2 -15 -8 -18 -12 -3 -4 -64 -10 -135 -14 -252 -11
-451 -26 -552 -42 -107 -16 -139 -13 -129 12 8 23 -30 0 -44 -25 -12 -23 -13
-90 -1 -109 6 -10 1 -33 -16 -70 -14 -31 -43 -99 -65 -151 l-39 -95 -6 -339
c-4 -235 -3 -337 4 -333 6 4 14 22 17 41 8 42 41 86 66 86 27 0 50 -38 49 -80
-1 -45 -30 -132 -46 -138 -23 -7 -16 81 8 112 21 27 19 61 -3 54 -23 -8 -50
-56 -69 -124 -14 -50 -21 -113 -24 -224 l-5 -155 20 104 c23 118 54 184 88
189 31 5 45 -38 37 -107 -4 -30 -9 -60 -12 -68 -3 -7 -1 -13 5 -13 6 0 35 36
66 79 62 89 100 121 144 121 59 0 84 -55 58 -124 -30 -78 -86 -102 -86 -36 0
29 29 70 50 70 13 0 13 27 -1 36 -16 10 -84 -62 -117 -125 -65 -122 -91 -271
-49 -279 28 -6 61 31 150 163 95 142 156 217 210 256 52 38 103 52 131 37 12
-7 52 -11 93 -9 l73 3 -125 -198 c-117 -184 -138 -224 -116 -224 14 0 78 55
127 109 25 28 55 51 65 51 16 0 18 -3 9 -19 -19 -37 -175 -194 -219 -223 -68
-43 -121 -35 -121 19 0 22 -2 22 -46 -12 -47 -36 -90 -45 -112 -23 -7 7 -12
33 -12 60 l0 47 -47 -50 c-26 -28 -61 -58 -77 -66 -29 -15 -31 -14 -53 11 -19
23 -23 39 -23 94 0 37 7 94 15 125 18 70 18 74 3 59 -7 -7 -32 -74 -58 -149
-28 -86 -50 -137 -58 -135 -9 1 -12 -25 -12 -103 0 -58 3 -105 6 -105 3 0 22
13 42 29 82 66 238 102 344 81 96 -18 236 -97 303 -171 l30 -32 -35 20 c-69
40 -166 61 -261 55 -15 -1 -42 -16 -59 -32 l-33 -31 -29 36 c-60 71 -151 94
-233 56 -80 -36 -73 30 -75 -786 -2 -401 0 -737 4 -745 3 -8 21 -25 39 -38 28
-19 50 -23 133 -26 434 -17 569 -26 534 -37 -14 -4 110 -7 275 -8 221 0 321 4
380 14 92 17 329 20 305 5 -8 -5 -29 -10 -46 -10 -28 0 -31 -3 -26 -25 4 -21
-1 -27 -29 -40 -42 -18 -22 -18 56 -1 79 17 157 52 186 82 12 13 30 24 38 24
22 0 82 37 103 63 16 20 18 76 17 777 0 415 -2 751 -4 745 -2 -5 -6 -22 -9
-37 -9 -40 -24 -34 -28 10 l-4 37 -13 -33 c-15 -37 -46 -59 -57 -40 -4 7 -10
28 -13 47 l-6 34 -27 -40 c-76 -115 -134 -26 -93 142 19 81 19 94 -3 88 -10
-2 -31 -30 -46 -60 -81 -166 -223 -266 -286 -203 -41 41 -9 188 67 300 58 86
182 206 221 215 68 14 91 -50 57 -161 -8 -27 -15 -53 -15 -57 0 -14 41 14 47
31 2 9 13 40 23 67 10 28 37 102 60 165 23 63 56 151 72 195 68 181 68 181 68
511 l1 303 -45 110 c-25 61 -54 128 -65 149 -13 25 -16 43 -10 53 5 8 9 36 9
62 0 39 -5 52 -26 72 -27 25 -51 34 -39 14 5 -7 -7 -9 -36 -5 -24 3 -123 10
-219 16 -96 6 -209 18 -250 25 -83 16 -271 33 -292 26z m-480 -90 c18 -11 -54
-23 -87 -14 -23 6 -23 7 -5 14 26 10 76 11 92 0z m975 -8 c-13 -2 -35 -2 -50
0 -16 2 -5 4 22 4 28 0 40 -2 28 -4z m-550 -131 c9 -8 17 -28 17 -43 0 -51
-56 -81 -110 -59 -54 22 -52 91 3 115 35 15 62 11 90 -13z m-473 -12 c0 -11
-5 -22 -10 -25 -8 -5 -7 -11 1 -21 17 -21 -14 -50 -63 -58 -44 -8 -45 -4 -23
72 13 43 19 51 43 54 38 5 52 -1 52 -22z m140 11 c16 -32 12 -57 -16 -85 -29
-28 -81 -35 -102 -14 -35 35 16 118 74 118 23 0 37 -6 44 -19z m138 7 c17 -17
15 -34 -5 -53 -13 -14 -14 -21 -5 -36 15 -24 15 -29 0 -29 -7 0 -22 12 -33 27
-24 29 -45 25 -45 -8 0 -12 -5 -19 -11 -17 -12 4 -13 7 -4 76 l6 52 43 0 c23
0 47 -5 54 -12z m343 2 c20 -11 26 -54 8 -65 -7 -5 -5 -15 6 -31 15 -23 15
-24 -9 -24 -15 0 -30 8 -36 20 -14 26 -26 25 -33 -1 -4 -13 -12 -20 -24 -17
-15 3 -19 15 -21 66 l-3 62 46 0 c26 0 55 -5 66 -10z m79 -17 c0 -16 3 -45 6
-65 6 -33 4 -38 -13 -38 -22 0 -33 32 -33 96 0 27 4 34 20 34 15 0 20 -7 20
-27z m131 16 c28 -14 13 -31 -21 -24 -34 7 -54 -18 -39 -47 10 -19 59 -25 59
-8 0 6 -7 10 -15 10 -8 0 -15 5 -15 10 0 6 13 10 29 10 22 0 30 -5 33 -24 7
-33 -8 -46 -54 -46 -70 0 -104 64 -61 113 18 19 55 22 84 6z m79 -19 c4 -14
10 -42 14 -62 6 -33 4 -38 -12 -38 -15 0 -22 12 -31 57 -14 73 -14 75 6 71 9
-2 20 -14 23 -28z m-1040 -51 c0 -33 -4 -59 -10 -59 -5 0 -10 7 -10 15 0 23
-39 18 -61 -7 -33 -40 -20 -3 21 61 22 34 45 59 50 56 6 -3 10 -33 10 -66z
m1118 46 c11 -14 23 -25 26 -25 4 0 4 11 0 25 -5 19 -2 25 9 25 14 0 47 -84
47 -119 0 -20 -24 -11 -58 22 l-35 32 7 -27 c5 -23 3 -28 -13 -28 -14 0 -21 9
-25 30 -3 17 -9 44 -12 60 -5 25 -2 30 14 30 12 0 29 -11 40 -25z m-1198 -1
c0 -10 -5 -14 -15 -10 -22 8 -31 -22 -11 -37 13 -10 14 -16 3 -37 -12 -24 -58
-36 -57 -15 1 6 10 9 20 7 21 -3 28 22 10 33 -16 10 -12 33 10 55 24 24 40 26
40 4z m1374 -44 c39 -61 42 -88 8 -57 -20 19 -52 23 -52 7 0 -5 -10 -10 -21
-10 -17 0 -20 4 -15 23 3 12 6 39 6 60 0 57 28 48 74 -23z m55 1 c8 -29 18
-41 34 -43 12 -2 23 -10 25 -19 2 -12 -5 -14 -32 -11 -32 4 -35 7 -50 61 -19
70 -20 77 -3 62 8 -6 19 -29 26 -50z m-1194 -121 c20 -17 19 -30 -2 -30 -10 0
-31 -7 -47 -15 -35 -19 -95 -19 -120 0 -19 15 -14 35 10 35 8 0 14 4 14 9 0
21 120 22 145 1z m1090 -31 c11 -11 -68 -12 -116 -2 l-34 7 30 7 c35 7 106 0
120 -12z m61 -614 c27 -11 46 -12 77 -5 79 17 126 -10 181 -105 24 -41 26 -49
16 -80 -6 -19 -15 -35 -19 -35 -4 0 -20 20 -36 45 -43 70 -110 127 -143 123
-25 -3 -27 -7 -33 -58 -10 -98 -48 -181 -110 -248 -83 -88 -175 -69 -154 31
13 59 67 145 131 209 35 35 69 65 74 66 16 6 12 22 -5 22 -25 0 -107 -45 -161
-88 -234 -190 -427 -458 -478 -664 -29 -118 3 -178 94 -178 58 0 115 35 185
111 104 114 154 287 83 289 -4 0 -23 -14 -43 -31 -35 -31 -62 -73 -74 -115 -3
-12 -43 -46 -88 -77 l-82 -56 6 32 c11 60 69 172 112 214 51 50 115 83 163 83
71 0 93 -67 60 -177 -55 -179 -232 -344 -386 -360 -68 -7 -132 20 -172 73 -27
35 -29 43 -28 133 0 82 4 106 29 164 112 271 456 607 700 683 53 17 59 17 101
-1z m-612 -283 c-41 -70 -46 -73 -107 -70 l-57 3 31 48 31 47 60 0 59 0 -17
-28z m-244 -1975 c0 -7 -5 -18 -11 -24 -8 -8 -7 -17 3 -32 9 -16 10 -26 2 -39
-12 -19 -54 -29 -54 -13 0 6 6 11 14 11 24 0 29 20 11 40 -11 12 -13 20 -6 25
16 9 13 25 -5 25 -8 0 -12 5 -9 10 9 15 55 12 55 -3z m60 4 c0 -5 -7 -11 -15
-15 -20 -7 -19 -26 1 -26 12 0 14 -9 12 -37 -2 -31 -7 -39 -25 -41 -26 -4 -31
13 -8 22 8 3 15 12 15 21 0 8 -7 15 -15 15 -10 0 -15 11 -15 35 0 31 3 35 25
35 14 0 25 -4 25 -9z m68 -3 c13 -13 16 -75 6 -102 -8 -22 -41 -20 -54 3 -30
58 9 138 48 99z m192 -53 c0 -37 -4 -65 -10 -65 -6 0 -10 28 -10 65 0 37 4 65
10 65 6 0 10 -28 10 -65z m-42 -23 c2 -25 -1 -42 -7 -42 -6 0 -11 17 -11 37 0
20 -3 33 -7 29 -4 -4 -7 -19 -8 -33 0 -44 -25 -40 -27 4 l-1 38 -4 -37 c-6
-53 -23 -47 -23 7 l0 46 43 -3 c42 -3 42 -3 45 -46z m-388 -143 c0 -10 -4 -19
-10 -19 -5 0 -10 12 -10 26 0 14 4 23 10 19 6 -3 10 -15 10 -26z m50 5 c0 -26
-28 -41 -36 -19 -9 21 1 42 20 42 10 0 16 -9 16 -23z m40 16 c8 -5 19 -5 25 0
6 5 11 -1 12 -19 2 -25 0 -27 -33 -23 -28 3 -34 8 -34 28 0 26 7 29 30 14z
m101 -21 c7 -24 7 -24 8 -1 1 26 20 30 22 5 1 -17 2 -17 6 0 3 10 14 17 29 17
20 0 24 -5 23 -27 -2 -24 -2 -25 -6 -5 -2 12 -8 22 -13 22 -5 0 -7 -7 -4 -15
5 -11 -1 -15 -22 -16 -16 0 -44 -2 -61 -3 -28 -3 -33 -1 -33 18 0 13 3 25 6
28 12 13 39 0 45 -23z m111 -4 c3 -14 1 -25 -3 -25 -5 0 -9 11 -9 25 0 14 2
25 4 25 2 0 6 -11 8 -25z m78 1 c0 -15 -7 -21 -25 -22 -20 -2 -25 3 -25 21 0
17 6 23 25 23 19 0 25 -6 25 -22z m76 16 c6 -4 13 -14 16 -23 4 -11 0 -15 -15
-14 -14 1 -23 9 -25 23 -3 23 5 27 24 14z m54 -12 c0 -11 -4 -20 -10 -20 -5 0
-10 9 -10 20 0 11 5 20 10 20 6 0 10 -9 10 -20z"/>
<path d="M1895 3810 c-9 -28 6 -43 36 -38 18 2 24 9 24 28 0 34 -50 42 -60 10z"/>
<path d="M1445 3819 c-4 -6 -4 -13 -1 -16 8 -8 36 5 36 17 0 13 -27 13 -35 -1z"/>
<path d="M1430 3764 c0 -10 7 -14 22 -12 32 5 35 28 4 28 -17 0 -26 -5 -26
-16z"/>
<path d="M1567 3822 c-38 -42 -7 -87 40 -57 18 12 23 24 21 43 -4 33 -37 41
-61 14z"/>
<path d="M1710 3819 c0 -16 5 -20 27 -17 17 2 29 10 31 21 3 13 -3 17 -27 17
-25 0 -31 -4 -31 -21z"/>
<path d="M2070 3815 c0 -8 9 -15 20 -15 11 0 20 7 20 15 0 8 -9 15 -20 15 -11
0 -20 -7 -20 -15z"/>
<path d="M1341 3796 c-8 -9 -11 -19 -7 -23 9 -9 29 13 24 27 -2 8 -8 7 -17 -4z"/>
<path d="M2630 3780 c0 -5 5 -10 11 -10 5 0 7 5 4 10 -3 6 -8 10 -11 10 -2 0
-4 -4 -4 -10z"/>
<path d="M2657 2908 c-46 -37 -123 -135 -142 -182 -50 -119 28 -124 115 -8 44
60 73 136 68 186 l-3 34 -38 -30z"/>
<path d="M1933 705 c0 -27 2 -38 4 -22 2 15 2 37 0 50 -2 12 -4 0 -4 -28z"/>
<path d="M1742 540 c0 -14 2 -19 5 -12 2 6 2 18 0 25 -3 6 -5 1 -5 -13z"/>
<path d="M1870 539 c0 -11 4 -18 10 -14 5 3 7 12 3 20 -7 21 -13 19 -13 -6z"/>
<path d="M2060 540 c0 -5 5 -10 11 -10 5 0 7 5 4 10 -3 6 -8 10 -11 10 -2 0
-4 -4 -4 -10z"/>
<path d="M2987 2793 c-9 -50 -35 -157 -58 -239 -22 -82 -42 -158 -45 -169 l-5
-20 16 20 c23 27 54 98 76 170 10 33 18 53 18 44 2 -50 -79 -250 -113 -278
-18 -15 -30 -54 -51 -159 -14 -71 -12 -102 6 -102 15 0 51 80 85 190 53 170
75 230 85 230 13 0 10 221 -3 237 -6 8 -6 30 2 65 7 29 10 64 9 77 -2 13 -12
-17 -22 -66z"/>
<path d="M1675 2702 c-61 -38 -202 -251 -221 -334 -5 -25 -3 -28 19 -28 30 0
59 37 176 228 91 149 96 176 26 134z"/>
<path d="M1113 2673 c-11 -28 -13 -47 -7 -72 19 -72 44 -34 44 65 0 54 -16 57
-37 7z"/>
<path d="M1072 2513 c-18 -117 -21 -158 -13 -171 10 -16 23 13 50 110 15 57
16 70 5 79 -8 6 -14 17 -14 25 0 7 -4 15 -9 18 -5 4 -14 -24 -19 -61z"/>
<path d="M2685 2425 c-35 -34 -34 -93 0 -125 l25 -23 15 36 c16 40 22 107 11
125 -11 18 -24 15 -51 -13z"/>
<path d="M2967 2289 c-36 -171 -42 -219 -29 -219 5 0 15 13 20 29 17 48 44
235 40 281 -2 35 -8 19 -31 -91z"/>
<path d="M2578 2257 c-61 -103 -73 -180 -29 -195 17 -6 90 74 120 130 l25 46
-35 40 c-19 22 -36 41 -39 41 -3 0 -22 -27 -42 -62z"/>
<path d="M2993 2120 c0 -30 2 -43 4 -27 2 15 2 39 0 55 -2 15 -4 2 -4 -28z"/>
<path d="M1189 416 c16 -19 64 -46 81 -46 5 0 10 9 10 19 0 20 -8 24 -70 37
-32 6 -33 5 -21 -10z"/>
<path d="M1605 384 c-42 -12 -34 -21 21 -27 76 -8 95 -27 29 -28 l-50 -1 45
-8 c133 -22 675 -22 639 0 -8 6 -6 9 7 12 13 3 4 9 -26 17 -25 7 -50 17 -57
23 -12 10 -574 21 -608 12z"/>
</g>
</svg>
