<?xml version="1.0" standalone="no"?>
<!DOCTYPE svg PUBLIC "-//W3C//DTD SVG 20010904//EN"
 "http://www.w3.org/TR/2001/REC-SVG-20010904/DTD/svg10.dtd">
<svg version="1.0" xmlns="http://www.w3.org/2000/svg"
 width="579.000000pt" height="387.000000pt" viewBox="0 0 579.000000 387.000000"
 preserveAspectRatio="xMidYMid meet">

<g transform="translate(0.000000,387.000000) scale(0.100000,-0.100000)"
fill="#000000" stroke="none">
<path d="M12 3858 c-9 -9 -12 -134 -12 -501 l0 -488 22 7 c24 7 48 28 48 41 0
4 33 8 73 7 73 -1 126 12 207 48 25 11 72 23 105 26 48 4 69 12 103 38 24 18
69 40 100 49 31 10 82 29 112 43 49 24 66 27 165 27 61 0 115 3 121 7 7 5 23
8 35 7 13 0 53 4 88 11 75 13 142 5 172 -21 12 -10 18 -19 13 -19 -5 0 -3 -4
4 -9 10 -6 7 -10 -13 -15 -14 -4 -30 -4 -36 -1 -5 4 -9 3 -8 -2 8 -43 -66 -69
-221 -77 -25 -2 -54 -3 -66 -4 -13 -1 -27 -17 -43 -48 -26 -54 -17 -77 21 -52
43 28 75 30 91 7 19 -26 12 -54 -19 -74 -25 -16 -24 -35 4 -68 12 -14 13 -22
4 -42 -16 -34 -40 -42 -57 -19 -12 16 -17 17 -35 6 -17 -10 -29 -10 -68 3 -26
9 -58 24 -72 35 -23 17 -23 20 -8 37 19 21 31 74 20 89 -14 21 -50 33 -84 28
-55 -9 -77 -32 -82 -86 -5 -50 -52 -122 -87 -133 -25 -8 -82 3 -162 31 -127
45 -264 42 -255 -5 3 -12 16 -16 53 -16 l50 0 15 -45 c8 -25 31 -66 50 -92
l35 -47 95 6 c52 3 109 12 127 20 29 14 32 19 35 66 3 49 5 52 31 55 16 2 42
-1 58 -7 24 -8 36 -7 53 4 16 11 39 13 89 8 81 -7 104 -25 68 -54 -27 -22 -80
-25 -147 -8 -43 11 -45 10 -83 -22 -22 -19 -40 -40 -40 -46 -1 -18 51 -51 57
-35 2 6 17 12 34 12 33 0 35 -23 2 -28 -10 -2 -28 -7 -39 -12 -11 -5 -53 -18
-92 -29 -85 -23 -167 -65 -194 -99 -30 -38 -50 -120 -43 -172 7 -46 49 -125
72 -134 7 -3 24 6 37 21 22 27 25 27 60 14 35 -12 38 -12 64 13 24 23 33 26
70 20 43 -7 68 -33 57 -60 -4 -9 3 -18 17 -24 12 -5 18 -9 14 -9 -15 -2 34
-61 62 -75 25 -13 28 -13 39 5 7 10 12 39 12 64 0 33 5 47 19 55 11 5 29 26
41 45 13 21 32 37 48 41 31 6 107 39 125 54 36 30 117 83 154 101 23 11 45 24
49 30 12 19 11 69 -2 69 -13 0 -26 25 -17 34 4 3 15 6 25 6 23 0 23 3 -4 45
-21 32 -27 35 -73 35 -27 0 -82 -11 -122 -24 -132 -45 -183 -46 -183 -1 0 12
7 25 15 29 8 3 31 30 50 61 20 30 39 56 43 56 4 1 24 3 45 4 23 1 47 11 62 25
20 19 32 22 66 17 23 -3 46 -12 51 -21 24 -43 37 -47 81 -24 33 17 60 22 127
22 47 1 91 5 98 9 7 5 24 6 37 3 21 -5 24 -3 23 24 -1 40 18 60 57 60 42 0
136 20 153 33 6 5 12 17 12 27 0 20 23 32 45 24 17 -7 21 -34 5 -34 -6 0 -13
-8 -17 -17 -3 -10 -12 -25 -20 -35 -10 -11 -11 -18 -4 -23 6 -3 14 2 18 12 14
36 53 68 115 93 20 9 26 18 25 38 -2 29 -4 29 90 16 33 -5 48 -1 75 18 18 12
37 29 41 36 4 6 14 12 21 12 7 0 23 9 36 20 19 16 20 20 6 20 -47 0 -23 63 34
88 22 10 55 39 79 70 23 28 47 52 53 52 6 0 27 16 46 36 19 20 51 43 71 51 19
8 49 25 65 38 17 12 51 25 75 29 24 4 56 15 70 24 38 26 79 42 106 42 36 0 75
20 120 60 23 20 68 49 100 65 33 15 73 38 88 51 23 19 40 24 88 24 l60 0 -21
-27 -22 -28 21 -3 c24 -4 51 19 51 42 0 23 33 36 66 27 25 -7 29 -13 27 -40
-1 -21 7 -40 21 -56 21 -23 22 -23 86 -9 35 9 77 25 93 36 16 11 50 28 75 37
39 14 48 22 50 44 2 19 -4 34 -20 48 -13 11 -18 18 -12 15 7 -3 14 1 18 9 7
20 56 20 56 0 0 -8 5 -15 10 -15 7 0 7 -7 0 -20 -6 -11 -8 -25 -5 -31 4 -5 1
-16 -5 -24 -19 -23 -5 -47 25 -39 19 5 25 2 25 -9 0 -9 -4 -19 -10 -22 -5 -3
-10 -14 -10 -24 0 -25 -64 -57 -156 -80 -43 -10 -90 -23 -104 -28 -25 -10
-109 -9 -167 2 -17 3 -64 -2 -103 -11 l-72 -16 -25 24 c-22 20 -34 23 -103 23
-84 -1 -120 -18 -120 -56 0 -19 46 -39 94 -39 28 0 29 -1 14 -16 -12 -12 -46
-19 -115 -25 -246 -22 -269 -70 -38 -83 61 -4 133 -9 162 -12 48 -6 51 -5 47
14 -8 27 13 38 35 18 18 -17 31 -12 31 10 0 8 -6 11 -15 8 -9 -4 -15 0 -15 9
0 9 10 15 25 16 14 1 37 1 51 2 14 1 31 -7 38 -17 12 -16 17 -17 55 -4 39 12
67 39 113 102 11 16 19 20 27 12 8 -7 6 -16 -6 -30 -38 -42 -83 -103 -83 -112
0 -5 -18 -34 -40 -66 -22 -31 -40 -63 -40 -71 0 -8 -10 -21 -21 -29 -20 -14
-20 -16 -5 -31 20 -20 20 -20 1 -39 -18 -18 -9 -46 14 -46 9 0 27 7 40 16 19
14 27 14 46 4 26 -14 66 -5 59 14 -3 8 -16 11 -35 8 -20 -3 -34 1 -40 9 -8 12
-11 12 -20 -1 -9 -13 -10 -13 -6 0 6 22 69 29 110 12 32 -12 35 -16 27 -38
-10 -24 2 -39 26 -33 5 1 22 -3 38 -10 20 -8 59 -10 115 -6 121 8 151 15 191
41 19 13 40 24 46 24 7 0 14 6 17 14 3 8 18 14 34 14 15 0 41 7 57 15 16 9 33
14 38 11 12 -7 10 13 -3 34 -9 15 -8 31 6 72 11 33 14 55 8 57 -6 2 -8 15 -5
28 3 19 14 28 46 37 50 15 87 18 80 7 -3 -5 0 -9 5 -9 6 0 11 -6 11 -12 -1
-16 -47 -51 -58 -44 -15 9 -28 -9 -46 -59 -24 -72 -26 -84 -14 -91 6 -4 8 -3
5 3 -4 6 -1 16 7 22 12 10 14 6 12 -21 -3 -43 18 -67 34 -38 16 29 69 54 120
56 42 2 43 1 24 -15 -20 -16 -24 -23 -24 -41 0 -5 -11 -10 -25 -10 -18 0 -25
-5 -25 -20 0 -11 7 -20 15 -20 8 0 15 -4 15 -10 0 -5 -7 -10 -16 -10 -8 0 -13
-4 -10 -8 3 -5 -6 -15 -20 -22 -22 -12 -24 -18 -18 -57 6 -42 2 -49 -28 -44
-5 0 -8 -3 -8 -9 0 -13 -49 -9 -59 5 -16 19 -28 102 -19 119 12 21 1 56 -17
56 -8 0 -21 -14 -30 -30 -16 -31 -41 -38 -75 -20 -15 8 -20 6 -25 -11 -4 -12
-12 -18 -21 -15 -8 3 -14 1 -14 -5 0 -5 10 -13 22 -18 15 -5 18 -10 9 -15 -9
-6 -7 -14 9 -31 20 -22 20 -22 2 -45 l-19 -24 -7 22 c-4 12 -4 27 0 33 4 8 3
9 -4 5 -17 -10 -15 -42 3 -60 14 -14 14 -17 -5 -28 -26 -16 -26 -32 0 -25 30
8 25 -21 -5 -33 -14 -5 -25 -15 -25 -21 0 -6 -7 -9 -14 -6 -10 4 -13 1 -10 -7
3 -7 -2 -16 -11 -20 -9 -3 -14 -10 -10 -15 3 -5 0 -13 -6 -16 -7 -5 -9 3 -6
23 4 26 2 29 -16 24 -15 -4 -18 -2 -12 8 5 8 3 11 -6 8 -8 -3 -13 -10 -12 -16
2 -6 -6 -16 -17 -22 -18 -10 -19 -9 -8 15 6 14 15 25 20 25 4 0 8 9 8 21 0 11
-4 17 -10 14 -6 -3 -11 -1 -11 4 -1 6 -2 16 -3 23 0 6 -7 13 -15 16 -10 3 -12
0 -8 -12 4 -9 2 -16 -3 -16 -6 0 -10 5 -10 11 0 5 -5 7 -11 3 -6 -3 -14 -2
-18 3 -3 6 -16 13 -27 17 -25 8 -58 -19 -50 -40 4 -11 2 -11 -13 -2 -23 14
-51 4 -51 -18 0 -14 3 -14 15 -4 9 7 18 10 22 7 3 -4 -5 -15 -18 -26 -13 -11
-20 -20 -16 -21 4 0 3 -9 -3 -21 -9 -16 -8 -26 5 -45 15 -24 15 -24 -18 -24
-35 0 -87 -32 -87 -53 0 -9 2 -9 8 -1 4 6 18 15 32 18 23 7 23 6 -5 -13 -16
-12 -36 -19 -42 -16 -7 2 -12 -1 -10 -7 2 -11 -74 -61 -82 -53 -2 2 -12 0 -22
-5 -12 -7 -19 -6 -22 3 -3 9 -9 9 -26 -1 -15 -8 -21 -9 -21 -1 0 7 -11 9 -32
5 -82 -16 -78 -16 -78 15 0 16 6 29 13 30 6 0 1 5 -13 11 -14 6 -28 10 -32 10
-4 -1 -5 4 -2 12 3 7 -2 16 -12 20 -23 9 -49 -30 -45 -66 1 -17 -2 -28 -9 -28
-7 0 -10 -7 -6 -15 3 -8 -2 -21 -10 -30 -9 -8 -12 -15 -8 -15 3 0 1 -6 -5 -14
-6 -7 -14 -37 -17 -66 -8 -73 -19 -82 -109 -81 -42 0 -80 3 -85 6 -6 4 -10 -1
-10 -9 0 -10 -9 -16 -22 -16 -13 0 -30 -5 -38 -11 -12 -9 -11 -10 7 -6 31 7
37 -6 14 -34 -18 -22 -18 -22 -56 -5 -71 34 -97 38 -132 19 -28 -15 -35 -15
-57 -3 -15 7 -26 20 -26 28 0 16 -56 72 -72 72 -6 0 -8 -6 -5 -14 7 -16 -19
-30 -36 -19 -7 4 -6 -1 2 -10 7 -9 33 -26 56 -38 37 -19 42 -24 32 -40 -19
-31 -133 -40 -183 -14 -28 15 -29 14 -38 -14 -6 -23 -16 -31 -43 -36 -51 -9
-82 -26 -88 -47 -4 -10 -12 -18 -19 -18 -7 0 -25 -13 -41 -30 -16 -16 -37 -30
-47 -30 -46 0 -147 -100 -149 -148 0 -10 -16 -37 -35 -62 -19 -25 -42 -56 -51
-70 -23 -37 -81 -71 -111 -67 -20 3 -28 11 -33 33 -4 16 -10 38 -14 49 -4 13
1 28 14 41 11 12 17 25 14 28 -4 3 1 14 9 23 26 31 28 61 4 67 -42 11 -58 7
-51 -14 8 -27 -25 -28 -42 -1 -18 29 -66 42 -94 25 -13 -7 -31 -16 -39 -19 -8
-4 -27 -13 -42 -21 -55 -30 -154 -10 -178 36 -14 26 -34 25 -52 -2 -13 -20
-18 -21 -40 -11 -14 6 -32 25 -39 42 -8 17 -17 31 -21 31 -8 0 -13 -38 -10
-73 1 -11 -6 -21 -18 -24 -11 -3 -20 -13 -20 -23 0 -10 -7 -31 -15 -46 -16
-32 -19 -57 -7 -68 4 -4 7 -18 7 -29 0 -16 5 -21 20 -19 14 2 16 0 7 -6 -17
-11 -5 -40 19 -47 14 -5 18 -12 14 -25 -3 -10 -1 -27 6 -38 10 -16 9 -23 -9
-43 -31 -33 -29 -51 6 -43 15 4 29 11 30 16 6 14 42 9 42 -6 0 -8 19 -21 42
-28 l42 -14 -32 -15 c-40 -18 -40 -29 1 -73 34 -36 62 -85 53 -94 -3 -2 -16 2
-29 11 -13 8 -39 17 -57 19 -18 2 -36 10 -40 18 -9 18 -24 54 -39 95 -11 28
-27 41 -104 89 -29 18 -107 162 -107 198 0 21 -34 58 -54 58 -7 0 -33 -15 -58
-34 -67 -51 -177 -244 -178 -311 0 -11 -17 -56 -39 -100 -60 -125 -61 -129
-49 -167 26 -78 25 -78 67 -78 22 0 43 -4 46 -10 12 -20 45 -10 51 15 3 14 12
25 20 25 7 0 17 7 21 15 12 21 73 9 73 -14 0 -17 -73 -98 -104 -116 -13 -7
-16 -17 -11 -37 7 -26 8 -25 85 53 76 76 79 81 82 131 2 39 7 53 18 53 11 0
14 -9 12 -33 l-2 -33 28 15 c16 8 66 19 113 25 46 6 101 14 122 17 52 9 103
-3 128 -29 18 -19 30 -22 99 -22 49 0 84 5 92 13 7 7 8 12 2 12 -18 0 -76 58
-69 69 10 17 45 13 52 -5 3 -9 37 -47 76 -86 50 -50 66 -72 57 -78 -17 -11
-44 7 -64 42 -20 33 -34 35 -67 9 -14 -10 -35 -21 -49 -23 -37 -5 -34 -23 7
-49 65 -40 274 -64 373 -43 l45 10 -60 22 c-33 12 -65 25 -71 29 -15 11 -162
205 -210 278 -47 72 -55 90 -48 110 7 18 74 21 92 3 9 -9 17 -9 36 2 30 16 56
0 56 -33 0 -19 1 -19 18 -4 29 27 88 22 117 -9 14 -15 25 -33 25 -40 0 -7 20
-25 43 -39 45 -25 87 -33 87 -15 0 26 18 5 38 -42 12 -29 37 -65 55 -80 102
-85 92 -80 139 -67 24 7 53 21 65 32 14 12 28 17 42 12 18 -5 21 -2 22 22 1
25 2 26 7 6 9 -28 38 -63 53 -63 7 0 8 7 4 18 -16 38 -16 57 0 30 40 -69 52
-1 13 75 -20 40 -45 45 -41 9 2 -15 -2 -19 -16 -15 -16 4 -20 17 -23 72 -3 57
-10 78 -51 150 -26 46 -47 91 -47 100 1 26 27 53 71 72 50 23 65 23 103 4 39
-20 45 -19 57 13 8 20 7 32 -2 47 l-12 20 24 -20 c13 -11 29 -25 36 -32 8 -7
20 -9 29 -6 10 4 34 -13 69 -50 38 -41 55 -52 59 -42 3 8 11 15 19 15 9 0 17
-25 25 -77 7 -42 16 -81 21 -87 5 -6 16 -36 25 -67 8 -31 24 -67 34 -80 37
-48 71 -125 82 -183 7 -40 18 -69 35 -86 14 -14 25 -33 25 -40 0 -17 34 -108
61 -163 21 -43 25 -77 9 -77 -6 0 -24 16 -41 35 -17 19 -39 35 -49 35 -29 0
-50 -11 -50 -27 0 -8 -4 -12 -9 -8 -5 3 -12 1 -16 -5 -12 -20 -24 -10 -16 13
l9 24 -89 -4 c-59 -2 -89 1 -89 8 0 6 7 8 18 4 12 -4 14 -3 6 5 -10 10 -110
29 -169 32 -11 1 -27 7 -35 14 -8 7 -68 17 -134 23 -72 7 -127 17 -139 26 -12
8 -31 15 -43 15 -13 0 -37 12 -55 27 -17 15 -39 29 -48 31 -46 9 -146 20 -150
16 -2 -2 6 -15 19 -29 13 -14 19 -25 14 -25 -5 -1 2 -10 16 -21 23 -19 23 -22
7 -33 -9 -7 -15 -15 -12 -17 2 -3 -10 -5 -28 -5 -32 -1 -157 -51 -157 -64 0
-3 -20 -28 -45 -54 -25 -27 -42 -52 -39 -57 3 -5 1 -9 -5 -9 -19 0 -36 -54
-33 -102 3 -48 16 -64 25 -30 4 15 5 15 6 0 0 -9 6 -29 13 -45 6 -15 12 -37
13 -48 1 -11 6 -29 10 -40 8 -18 7 -18 -8 -6 -9 7 -14 17 -11 22 3 5 0 9 -6 9
-12 0 -5 -36 12 -57 5 -7 7 -17 4 -22 -7 -10 24 -31 45 -31 10 0 10 3 1 12
-25 25 -10 28 19 4 17 -14 34 -26 37 -26 10 1 62 86 62 102 0 8 5 19 12 26 8
8 8 15 -1 26 -20 23 -3 39 34 32 18 -4 35 -3 37 2 1 5 14 13 28 17 23 7 24 7
6 -11 -12 -11 -15 -19 -7 -22 15 -5 14 -24 -4 -58 -8 -16 -15 -38 -15 -49 0
-11 -4 -27 -9 -35 -13 -19 -3 -34 14 -20 9 7 57 9 152 4 191 -9 185 -9 308 -1
314 18 301 16 369 63 33 24 76 50 93 58 25 11 32 21 30 38 -1 15 3 22 12 20 7
-1 19 2 26 8 10 8 20 8 37 -1 19 -9 21 -9 11 2 -15 15 -17 59 -4 59 5 0 12 -9
16 -19 3 -11 12 -22 20 -25 17 -6 20 -36 4 -36 -5 0 -7 -4 -4 -10 4 -6 17 -4
36 6 35 17 34 18 44 -14 6 -22 5 -22 -52 -17 -56 6 -59 5 -86 -27 -92 -110
-97 -118 -77 -118 6 0 15 10 20 23 7 18 9 15 9 -20 1 -26 -4 -43 -10 -43 -8 0
-8 -4 -2 -12 6 -7 13 -26 17 -41 5 -22 18 -33 56 -49 53 -22 62 -38 76 -125
l7 -43 612 0 613 0 32 40 c17 22 30 48 29 57 -1 10 1 35 5 56 6 25 3 52 -7 85
-9 27 -19 67 -23 89 -5 35 -11 42 -38 50 -19 5 -44 26 -66 55 -18 26 -38 44
-42 41 -5 -2 -4 -11 3 -19 7 -9 8 -14 1 -14 -6 0 -21 13 -34 29 -13 16 -37 36
-55 45 -70 35 -300 77 -407 74 -45 -1 -60 2 -68 15 -11 21 -41 22 -58 2 -8
-10 -9 -19 -3 -28 15 -18 22 -67 10 -67 -6 0 -3 -8 6 -18 13 -14 14 -21 5 -30
-16 -16 -38 -15 -39 1 -1 15 -17 -32 -18 -55 -1 -10 6 -18 14 -18 8 0 19 -9
26 -21 9 -17 7 -25 -10 -43 -18 -19 -19 -24 -6 -48 7 -15 15 -44 16 -65 2 -21
6 -42 10 -48 4 -5 10 -28 13 -50 8 -45 -6 -66 -53 -80 -18 -6 -29 -1 -47 20
-31 36 -41 75 -40 153 1 34 -2 62 -6 62 -14 0 -8 20 13 49 18 25 19 32 8 52
-7 13 -12 27 -11 31 1 5 -4 8 -11 8 -14 0 -39 49 -31 62 3 5 0 15 -6 23 -7 8
-9 15 -5 15 4 0 2 7 -5 15 -7 8 -10 22 -6 30 11 29 -36 40 -93 21 -60 -19 -61
-20 -61 -2 0 8 12 24 28 35 l27 20 -26 1 c-14 0 -40 11 -57 24 -31 22 -34 23
-90 10 -75 -18 -81 -18 -75 5 3 10 -1 29 -7 41 -11 20 -10 22 5 16 16 -6 207
-9 250 -3 15 1 19 -3 18 -18 -6 -48 39 -58 129 -31 42 12 55 21 51 32 -3 8 1
14 11 14 11 0 15 8 14 27 -3 41 -25 53 -65 37 -18 -8 -43 -14 -57 -14 -18 0
-27 -8 -34 -27 -7 -22 -9 -12 -9 47 1 49 -5 85 -15 105 -8 17 -18 45 -22 63
-3 19 -18 57 -32 85 -15 29 -30 73 -35 99 -4 26 -19 64 -34 85 -14 21 -30 55
-36 76 -5 21 -19 47 -29 57 -11 11 -33 56 -50 100 -17 44 -36 83 -42 86 -15 9
-32 -23 -39 -71 -6 -45 -2 -54 -38 100 -12 50 -30 102 -41 117 -11 15 -20 29
-20 32 0 10 86 -8 102 -22 16 -13 18 -12 30 14 19 44 45 66 89 71 30 4 39 10
39 24 0 13 7 19 24 19 13 0 29 7 36 15 7 8 18 15 24 14 27 -3 36 2 36 21 0 11
2 20 5 20 3 0 15 -9 27 -20 12 -11 27 -20 34 -20 6 0 15 -7 18 -16 3 -9 13
-14 21 -10 8 3 17 1 20 -4 8 -13 42 -13 50 0 3 5 1 19 -5 30 -8 16 -8 24 4 35
8 8 19 15 25 15 16 0 51 -42 44 -53 -4 -6 0 -8 10 -4 10 3 17 2 17 -4 0 -16
60 -99 71 -99 13 0 5 42 -21 118 -10 28 -15 52 -10 52 5 0 12 -5 15 -10 3 -5
11 -10 16 -10 6 0 7 5 4 10 -6 10 13 15 48 12 10 -1 16 2 13 7 -9 13 4 42 16
35 5 -3 5 -11 0 -17 -14 -20 -8 -52 9 -52 9 0 23 -6 31 -12 10 -9 18 -9 25 -2
7 7 12 6 16 -5 4 -9 2 -16 -3 -16 -22 0 5 -104 31 -121 23 -14 49 -11 43 6 -4
8 -12 15 -19 15 -14 0 -29 29 -20 38 3 3 5 0 5 -6 0 -7 5 -12 12 -12 7 0 6 6
-4 18 -9 9 -13 23 -11 30 3 6 0 12 -5 12 -5 0 -12 11 -14 25 -5 21 -2 25 13
20 14 -5 19 -1 19 11 0 13 9 8 35 -20 19 -21 35 -44 35 -50 0 -6 4 -4 9 3 6 9
6 22 1 31 -10 20 -7 54 9 93 6 16 11 32 11 37 0 5 13 18 30 30 17 12 30 19 30
16 0 -3 22 3 48 13 61 24 108 30 105 13 -2 -6 2 -12 7 -12 6 0 10 -9 10 -19 0
-11 7 -26 15 -35 8 -8 16 -27 17 -43 1 -15 5 -32 9 -38 4 -5 18 -41 32 -80 42
-117 66 -166 113 -231 54 -77 62 -82 58 -41 -7 61 -96 372 -129 452 -22 50
-28 105 -15 125 9 13 11 13 20 0 9 -13 13 -11 30 10 11 14 20 19 20 13 0 -7 4
-13 8 -13 5 0 7 12 5 27 -3 20 2 32 17 41 25 15 40 8 41 -21 0 -20 1 -21 8 -3
7 18 8 18 14 2 4 -10 7 -30 7 -44 0 -30 61 -280 80 -327 7 -16 18 -52 25 -80
8 -27 16 -59 20 -70 3 -11 -1 -8 -10 8 -8 15 -17 27 -19 27 -2 0 5 -30 15 -67
10 -38 26 -104 35 -148 9 -44 21 -88 26 -98 5 -10 11 -46 14 -80 l4 -62 -20
30 c-11 17 -20 38 -20 48 0 10 -5 15 -10 12 -6 -3 -13 1 -16 10 -4 9 -14 15
-23 13 -9 -1 -21 1 -28 5 -7 4 -26 -7 -48 -27 -32 -31 -34 -35 -19 -44 11 -6
27 -7 42 -1 20 8 27 6 38 -10 9 -12 21 -17 33 -14 10 3 22 0 25 -5 9 -15 -4
-42 -21 -42 -19 0 -39 -21 -38 -40 1 -8 7 -37 14 -63 14 -48 50 -85 71 -72 5
3 10 0 10 -8 0 -8 14 -17 31 -21 20 -4 28 -10 23 -17 -5 -8 -3 -9 7 -3 20 12
69 14 69 2 0 -7 4 -7 13 0 19 16 87 26 87 13 0 -6 -11 -16 -25 -21 -14 -5 -25
-14 -25 -20 0 -17 -71 -43 -83 -31 -7 7 -5 12 6 17 18 7 23 34 7 34 -6 0 -27
-7 -47 -15 -27 -12 -34 -18 -25 -27 7 -7 8 -17 2 -28 -10 -19 -5 -120 7 -129
11 -9 43 -79 43 -96 0 -9 -6 -12 -15 -9 -8 4 -15 2 -15 -4 0 -6 -3 -18 -7 -28
-5 -13 -3 -16 8 -12 10 4 15 -1 16 -15 3 -28 20 -43 19 -16 -1 12 5 24 11 26
7 3 13 -2 13 -11 0 -9 8 -16 19 -16 11 0 21 -6 23 -12 4 -10 9 -8 21 3 9 9 13
19 10 23 -4 3 -3 6 1 6 3 0 20 -15 36 -34 19 -21 48 -39 75 -47 45 -13 60 -29
28 -29 -10 0 -27 -8 -38 -16 -20 -16 -20 -16 1 -10 18 6 20 3 16 -25 -2 -17
-13 -36 -23 -42 -11 -7 -19 -18 -19 -25 0 -7 -7 -20 -15 -28 -20 -21 -8 -44
24 -44 14 0 62 7 106 14 44 8 92 12 106 9 21 -4 30 0 38 16 9 15 18 20 34 16
16 -4 29 1 41 14 23 25 58 27 77 5 11 -14 10 -18 -5 -30 -10 -7 -23 -15 -28
-16 -5 -2 -13 -19 -17 -38 -6 -33 -10 -35 -49 -38 -32 -2 -42 0 -43 12 -3 29
-4 34 -11 41 -4 4 -10 -6 -13 -21 -12 -55 -13 -56 -35 -44 -16 9 -18 8 -14 -5
4 -9 0 -15 -9 -15 -10 0 -13 8 -9 25 5 28 -21 46 -40 27 -8 -8 -17 -8 -30 -1
-12 6 -24 6 -36 0 -16 -9 -16 -10 1 -16 11 -5 17 -18 17 -36 0 -39 -25 -38
-45 1 -17 34 -34 36 -115 19 -63 -13 -70 -42 -15 -65 21 -8 32 -19 29 -27 -7
-19 23 -85 41 -89 10 -2 12 -7 5 -18 -7 -11 -12 -12 -21 -3 -6 6 -18 9 -25 6
-9 -3 -14 1 -14 11 0 15 -53 46 -80 46 -13 0 -13 -57 0 -65 6 -3 10 -22 10
-41 l0 -34 205 0 c195 0 205 1 215 20 6 12 10 31 8 43 -2 17 6 26 40 43 60 30
112 92 105 126 -3 14 0 29 6 32 6 4 11 20 11 36 0 19 10 39 28 55 24 23 34 26
80 22 l52 -4 -22 24 c-12 12 -19 26 -16 29 10 9 43 -17 61 -47 9 -16 29 -35
44 -41 l28 -12 -35 -4 c-19 -2 -39 -7 -43 -11 -13 -13 55 -22 89 -12 19 5 51
5 83 -2 42 -8 57 -17 81 -47 17 -21 30 -40 30 -43 0 -12 -34 -16 -46 -6 -11 9
-19 8 -34 -6 -22 -20 -27 -14 -32 39 -4 38 -18 42 -53 14 -21 -16 -40 -21 -74
-20 l-46 2 54 -25 c29 -14 57 -25 61 -25 13 0 83 -71 76 -77 -4 -4 -20 1 -37
11 -33 19 -49 15 -30 -8 13 -16 75 -40 66 -26 -8 14 15 24 28 11 8 -8 6 -15
-7 -24 -17 -12 -17 -14 -2 -20 25 -10 19 -23 -11 -25 -100 -6 -249 3 -287 18
-24 9 -36 -2 -36 -31 0 -14 423 -12 438 3 8 8 12 60 12 170 0 149 -1 158 -21
168 -23 13 -20 36 5 32 15 -3 16 61 16 809 l0 811 -27 -8 c-16 -4 -55 -9 -88
-11 -33 -1 -89 -5 -125 -8 -60 -6 -67 -4 -93 20 -33 31 -26 49 15 41 43 -8
148 5 148 19 0 6 -22 22 -49 34 -42 20 -51 21 -70 10 -11 -8 -21 -19 -21 -25
0 -15 -32 -28 -39 -16 -3 5 -23 15 -44 21 -31 11 -44 10 -81 -4 -43 -16 -86
-14 -86 6 0 5 5 9 10 9 6 0 10 14 10 30 0 29 2 30 46 30 32 0 44 4 41 13 -4
11 -19 12 -67 6 -8 -2 -24 1 -36 4 -16 6 -23 1 -33 -20 -8 -16 -17 -36 -22
-45 -13 -25 -11 -38 4 -32 21 7 97 -48 97 -71 -1 -89 -79 -111 -124 -34 -20
34 -38 30 -34 -9 3 -24 -2 -28 -47 -40 -27 -7 -65 -11 -84 -8 l-33 5 4 -56 c4
-40 10 -60 24 -70 31 -22 84 -66 124 -100 20 -18 40 -30 43 -27 3 4 18 4 32 0
21 -5 25 -12 25 -41 0 -24 5 -35 18 -40 44 -13 46 -122 2 -155 -17 -13 -21
-23 -16 -43 11 -45 -17 -36 -76 26 -44 45 -62 57 -75 52 -39 -16 -93 -16 -109
0 -9 8 -20 13 -25 9 -15 -9 -22 25 -7 39 14 14 52 21 106 19 28 -1 31 2 21 14
-6 8 -20 14 -30 14 -11 0 -19 7 -19 15 0 8 5 15 11 15 7 0 17 8 24 17 11 14
10 20 -4 30 -20 16 -48 16 -53 1 -3 -8 -11 -9 -24 -3 -18 8 -18 9 4 12 36 7
22 68 -30 126 -9 11 -19 30 -23 44 -3 14 -15 34 -25 46 -17 17 -23 19 -45 9
-27 -13 -75 -6 -75 9 0 25 130 179 151 179 8 0 6 -6 -5 -19 -22 -25 -7 -34 33
-20 20 7 30 16 27 25 -6 15 11 23 36 16 22 -5 31 -31 17 -48 -9 -11 -8 -14 5
-14 9 0 16 5 16 11 0 6 17 9 43 7 38 -3 42 -1 45 21 2 13 -2 27 -9 31 -19 12
7 93 47 142 18 23 31 44 29 48 -2 3 19 16 46 29 27 14 49 31 49 39 0 22 -20
52 -34 52 -18 0 -28 52 -13 63 7 4 28 4 47 1 19 -4 64 -8 100 -9 41 -2 99 -14
155 -32 53 -18 122 -33 168 -36 l77 -5 0 375 0 375 -21 -23 c-13 -16 -22 -20
-25 -12 -3 7 -11 10 -19 7 -7 -3 -19 4 -25 16 -6 11 -14 18 -19 16 -11 -7 -43
33 -36 44 4 6 0 10 -8 10 -8 0 -26 9 -39 20 -14 10 -28 16 -32 13 -3 -3 -6 -1
-6 6 0 7 -4 9 -10 6 -5 -3 -10 -1 -10 5 0 8 -10 9 -29 5 -25 -5 -29 -3 -34 22
-3 15 -4 57 -2 92 l4 63 -32 -6 c-71 -14 -72 -14 -71 24 0 19 2 43 5 54 2 11
-4 23 -16 30 -11 6 -30 19 -43 28 -13 9 -30 14 -38 11 -18 -7 -18 15 0 59 30
71 139 146 301 207 81 31 125 51 125 56 0 3 -1279 5 -2843 5 -2198 0 -2846 -3
-2855 -12z m4378 -18 c0 -21 -33 -29 -45 -10 -9 15 4 30 26 30 12 0 19 -7 19
-20z m-720 -39 c8 -16 6 -23 -12 -35 -30 -21 -61 -20 -89 3 l-24 20 35 15 c48
21 77 20 90 -3z m780 5 c0 -22 -24 -38 -38 -24 -20 20 -14 38 13 38 15 0 25
-6 25 -14z m-320 -40 c14 -26 14 -28 -13 -50 -15 -12 -57 -37 -93 -56 -49 -25
-70 -31 -82 -24 -30 19 -36 39 -21 70 12 24 22 30 56 34 23 3 53 15 66 26 46
41 65 40 87 0z m104 -2 c22 -9 20 -31 -5 -44 -22 -12 -49 -7 -49 9 0 9 27 41
35 41 2 0 10 -3 19 -6z m409 -13 c18 -7 26 -19 31 -50 7 -43 21 -51 54 -30 21
13 113 -10 120 -31 3 -9 -1 -11 -12 -7 -18 7 -23 -17 -6 -28 13 -8 13 -42 -1
-51 -6 -3 -22 6 -35 21 -23 26 -25 27 -42 12 -26 -23 -41 -21 -54 8 -6 14 -17
25 -25 25 -7 0 -13 11 -13 23 0 13 -9 32 -21 43 -27 24 -42 52 -34 64 8 12 8
12 38 1z m-716 -7 c-3 -3 -12 -4 -19 -1 -8 3 -5 6 6 6 11 1 17 -2 13 -5z m613
-24 c-19 -13 -30 -13 -30 0 0 6 10 10 23 10 18 0 19 -2 7 -10z m-160 -10 c0
-5 -4 -10 -10 -10 -5 0 -10 5 -10 10 0 6 5 10 10 10 6 0 10 -4 10 -10z m18
-97 c-20 -24 -30 -53 -18 -53 15 0 12 -20 -4 -26 -8 -3 -25 4 -37 15 l-23 21
35 30 c39 33 73 42 47 13z m382 -48 c10 -12 10 -15 -4 -15 -9 0 -16 7 -16 15
0 8 2 15 4 15 2 0 9 -7 16 -15z m-310 -40 c-12 -15 -30 -12 -30 6 0 5 10 9 21
9 18 0 19 -2 9 -15z m453 -15 c19 -23 22 -40 7 -40 -5 0 -10 6 -10 14 0 8 -7
16 -15 20 -8 3 -15 10 -15 16 0 16 14 12 33 -10z m147 -1 c0 -5 -7 -9 -15 -9
-8 0 -15 7 -15 15 0 9 6 12 15 9 8 -4 15 -10 15 -15z m-100 1 c0 -5 -2 -10 -4
-10 -3 0 -8 5 -11 10 -3 6 -1 10 4 10 6 0 11 -4 11 -10z m-384 -49 c-4 -6 -19
-11 -34 -11 l-27 0 25 20 c25 19 49 13 36 -9z m77 4 c-4 -15 -36 -12 -41 3 -3
9 3 13 19 10 13 -1 23 -7 22 -13z m197 -11 c0 -8 -4 -12 -10 -9 -5 3 -10 13
-10 21 0 8 5 12 10 9 6 -3 10 -13 10 -21z m-428 0 c-6 -3 -10 -10 -6 -15 3 -5
2 -9 -3 -10 -37 -3 -136 -31 -156 -43 -12 -7 -37 -16 -55 -20 -51 -9 -36 14
28 46 30 15 54 31 53 36 -1 5 33 10 75 10 42 1 71 -2 64 -4z m178 -19 c0 -8
-6 -15 -14 -15 -17 0 -28 14 -19 24 12 12 33 6 33 -9z m432 -8 c-24 -11 -38
-5 -28 11 3 6 16 8 28 4 l22 -5 -22 -10z m88 -1 c0 -11 -19 -15 -25 -6 -3 5 1
10 9 10 9 0 16 -2 16 -4z m-460 -31 c0 -8 -4 -15 -10 -15 -5 0 -10 7 -10 15 0
8 5 15 10 15 6 0 10 -7 10 -15z m530 -5 c22 -11 40 -22 40 -25 0 -6 -73 25
-84 36 -16 15 2 10 44 -11z m-210 -5 c0 -2 -17 -13 -37 -24 -28 -15 -33 -20
-17 -21 11 0 25 5 31 11 16 16 73 2 66 -17 -3 -8 -14 -14 -25 -14 -11 0 -16
-5 -13 -11 4 -5 -1 -19 -10 -29 -16 -18 -16 -20 -1 -26 9 -3 14 -10 11 -14 -3
-5 -1 -11 4 -14 5 -3 7 -16 3 -28 -3 -14 -2 -19 7 -14 6 4 8 12 5 18 -4 6 -1
9 7 6 8 -3 14 -15 14 -28 0 -13 6 -25 13 -27 8 -3 10 2 6 14 -4 14 -4 15 4 4
5 -7 9 -21 8 -29 -4 -21 -26 -28 -26 -8 0 10 -9 16 -25 16 -41 0 -65 20 -55
46 5 12 6 25 3 28 -13 13 -43 5 -53 -13 -6 -12 -26 -22 -50 -26 -38 -6 -40 -8
-37 -39 2 -18 13 -43 25 -56 28 -30 28 -38 -1 -49 -33 -13 -105 -23 -89 -13 7
5 14 22 15 38 1 16 5 31 8 34 4 3 9 15 13 28 6 18 4 22 -13 22 -12 0 -21 5
-21 10 0 6 9 10 20 10 15 0 22 8 26 29 5 24 18 35 75 62 38 18 69 36 69 39 0
3 -9 11 -20 18 -18 11 -24 9 -45 -15 -13 -16 -25 -31 -25 -34 0 -4 -9 -9 -20
-12 -30 -8 -25 15 18 67 27 34 44 46 64 46 15 0 30 5 33 10 6 10 35 14 35 5z
m-740 -158 c-8 -7 -20 -21 -26 -32 -17 -30 -40 -30 -39 -1 2 38 49 74 70 54 7
-6 5 -13 -5 -21z m830 13 c0 -5 -7 -10 -16 -10 -8 0 -12 5 -9 10 3 6 10 10 16
10 5 0 9 -4 9 -10z m-720 -39 c0 -5 -7 -14 -15 -21 -12 -10 -15 -10 -15 2 0 8
3 18 7 21 9 10 23 9 23 -2z m365 -41 c3 -5 1 -10 -4 -10 -6 0 -11 5 -11 10 0
6 2 10 4 10 3 0 8 -4 11 -10z m-235 -92 c0 -4 -4 -8 -10 -8 -5 0 -10 4 -10 9
0 5 -3 18 -6 28 -5 16 -4 16 10 -1 9 -11 16 -23 16 -28z m-2840 7 c31 -37 -23
-61 -68 -29 -18 13 -21 19 -11 30 15 18 63 18 79 -1z m3067 -30 c-4 -8 -11
-15 -17 -15 -6 0 -6 7 2 20 14 22 24 19 15 -5z m-1089 -3 c2 -7 -6 -12 -17
-12 -21 0 -27 11 -14 24 9 9 26 2 31 -12z m42 4 c0 -11 -19 -15 -25 -6 -3 5 1
10 9 10 9 0 16 -2 16 -4z m-1447 -36 c-6 -23 -14 -25 -31 -8 -18 18 -14 28 12
28 19 0 23 -4 19 -20z m-843 -24 c0 -32 -14 -40 -40 -24 -34 22 -23 45 23 47
12 1 17 -7 17 -23z m4070 14 c0 -5 -4 -10 -10 -10 -5 0 -10 5 -10 10 0 6 5 10
10 10 6 0 10 -4 10 -10z m-3403 -54 c-4 -9 -13 -13 -22 -10 -11 5 -17 -2 -21
-25 -8 -36 -41 -61 -50 -37 -10 26 0 61 19 64 11 2 28 13 39 24 22 22 45 11
35 -16z m-492 -107 c7 -21 -10 -67 -30 -81 -5 -4 -20 -8 -32 -8 -16 0 -23 8
-28 31 -6 27 -3 35 21 55 36 29 61 30 69 3z m2221 -185 c-4 -9 -9 -15 -11 -12
-3 3 -3 13 1 22 4 9 9 15 11 12 3 -3 3 -13 -1 -22z m900 -149 c15 -14 32 -25
39 -25 6 0 22 -12 36 -26 25 -27 89 -64 110 -64 6 0 20 -9 30 -21 20 -23 74
-24 97 -1 16 15 37 15 63 2 16 -9 19 -22 19 -75 0 -59 -3 -68 -33 -102 -18
-21 -41 -50 -50 -65 -23 -37 -35 -35 -43 7 -7 37 -77 125 -99 125 -24 0 -110
48 -135 75 -14 15 -42 36 -62 46 -33 17 -38 24 -39 57 0 20 -2 46 -4 57 -8 40
33 46 71 10z m-1516 -106 c0 -5 -4 -9 -10 -9 -5 0 -10 7 -10 16 0 8 5 12 10 9
6 -3 10 -10 10 -16z m-50 -29 c0 -5 -7 -10 -16 -10 -8 0 -12 5 -9 10 3 6 10
10 16 10 5 0 9 -4 9 -10z m-2343 -86 c2 -7 -10 -22 -27 -34 -29 -21 -33 -21
-48 -7 -14 15 -14 18 3 37 20 22 65 24 72 4z m3784 -140 c13 -69 4 -65 -13 6
-8 33 -10 56 -5 51 5 -5 13 -31 18 -57z m69 -57 c0 -10 8 -35 18 -56 13 -26
16 -45 10 -60 -5 -15 -4 -20 3 -15 7 4 10 2 8 -5 -10 -28 -24 -7 -45 64 -12
43 -25 93 -29 114 l-6 36 20 -30 c12 -16 21 -38 21 -48z m105 -197 c22 -43 45
-181 26 -151 -15 23 -20 -3 -5 -29 12 -23 13 -23 15 -5 0 11 5 5 9 -15 5 -21
5 -37 -1 -41 -12 -7 2 -54 38 -123 13 -23 13 -30 2 -36 -19 -13 -29 -3 -29 29
0 16 -7 34 -15 41 -8 7 -12 16 -9 22 3 5 1 15 -5 22 -6 6 -17 38 -25 69 -15
56 -35 101 -36 82 -1 -5 -8 10 -15 35 -15 46 -12 80 7 80 6 0 8 13 3 36 -9 49
11 41 40 -16z m-51 24 c9 -24 0 -29 -18 -11 -8 8 -12 17 -9 21 11 10 21 7 27
-10z m-2654 -259 c0 -8 -9 -15 -20 -15 -25 0 -26 17 -2 23 9 3 18 5 20 6 1 0
2 -6 2 -14z m2735 -156 c8 -24 -3 -39 -14 -20 -5 7 -12 12 -17 11 -5 0 -10 5
-12 12 -4 22 36 19 43 -3z m91 -30 c3 -6 2 -15 -4 -21 -6 -6 -11 -2 -15 11 -5
22 7 29 19 10z m859 -21 c17 -10 38 -18 48 -18 20 0 23 -20 5 -38 -15 -15
-100 -16 -115 -1 -8 8 -25 8 -59 1 -54 -12 -64 -9 -64 17 0 24 20 41 50 41 14
0 33 7 43 14 20 16 48 11 92 -16z m-859 -94 c-6 -16 -8 -16 -16 -4 -6 8 -10
24 -10 35 0 18 1 18 16 3 10 -10 14 -23 10 -34z m-248 1 c-3 -3 -9 2 -12 12
-6 14 -5 15 5 6 7 -7 10 -15 7 -18z m267 -46 c4 -12 2 -26 -4 -32 -7 -7 -12
-5 -16 6 -3 9 -7 24 -10 32 -2 8 2 15 10 15 7 0 17 -9 20 -21z m-3865 -59 c-6
-11 -19 -20 -30 -20 -10 0 -20 -5 -22 -11 -4 -13 -134 -23 -142 -11 -3 5 -24
6 -46 2 -32 -6 -40 -4 -40 7 0 9 6 13 14 10 7 -3 18 -1 23 4 5 5 43 12 84 15
41 2 92 9 114 13 22 5 44 9 48 10 4 0 3 -8 -3 -19z m3700 -35 c0 -3 -11 2 -25
11 -14 9 -22 21 -19 26 6 9 44 -23 44 -37z m-3415 25 c4 -6 14 -9 23 -6 24 7
60 -43 41 -55 -26 -16 -57 -9 -78 17 -12 15 -21 33 -21 40 0 16 26 19 35 4z
m4261 0 c6 -6 24 -13 40 -16 36 -6 47 -17 42 -40 -2 -15 -11 -18 -36 -16 -36
4 -41 -7 -13 -32 13 -12 27 -15 40 -11 30 9 37 -19 12 -44 -16 -16 -26 -19
-45 -11 -13 5 -27 14 -31 19 -3 6 -15 11 -26 11 -10 0 -19 5 -19 10 0 6 4 10
10 10 5 0 14 9 20 20 9 16 8 20 -5 20 -8 0 -20 -11 -25 -24 -18 -48 -130 -44
-130 4 0 23 37 28 60 8 12 -11 12 -10 1 5 -7 9 -22 17 -33 17 -21 0 -35 27
-21 41 11 11 96 36 129 38 11 0 25 -4 30 -9z m-644 -35 c6 -30 -7 -33 -22 -6
-13 26 -13 31 4 31 7 0 16 -11 18 -25z m-4226 -74 c-10 -16 -36 -13 -36 3 0
17 21 27 34 16 4 -5 5 -13 2 -19z m4160 -7 c-3 -9 2 -18 12 -21 9 -4 23 -15
31 -25 7 -11 23 -23 35 -28 13 -5 22 -18 24 -34 1 -14 -1 -26 -5 -26 -13 0
-41 32 -37 43 2 7 -10 19 -27 27 -17 8 -30 19 -29 23 0 4 -6 14 -14 23 -16 15
-11 48 6 38 5 -3 7 -12 4 -20z m-46 -74 c0 -5 -4 -10 -10 -10 -5 0 -10 5 -10
10 0 6 5 10 10 10 6 0 10 -4 10 -10z m58 -28 c2 -7 -3 -12 -12 -12 -9 0 -16 7
-16 16 0 17 22 14 28 -4z m273 -43 c10 -13 19 -27 19 -31 0 -17 -28 -7 -51 18
-13 14 -33 30 -44 34 -14 6 -9 8 19 5 27 -2 45 -10 57 -26z m64 -59 c10 -11
24 -20 32 -20 7 0 13 -4 13 -10 0 -5 -7 -10 -15 -10 -8 0 -15 4 -15 8 0 5 -11
15 -25 22 -14 7 -25 17 -25 22 0 14 16 9 35 -12z m-3245 0 c0 -5 -7 -10 -15
-10 -8 0 -15 5 -15 10 0 6 7 10 15 10 8 0 15 -4 15 -10z m3028 -35 c15 -2 30
-4 35 -4 14 -2 7 -21 -8 -21 -8 0 -15 -4 -15 -10 0 -5 -7 -7 -15 -4 -8 4 -15
2 -15 -4 0 -6 4 -12 9 -14 13 -5 24 -48 12 -48 -6 0 -11 8 -11 18 0 10 -13 31
-30 45 -35 32 -41 62 -10 52 11 -4 32 -8 48 -10z m-2988 -15 c0 -5 -4 -10 -10
-10 -5 0 -10 5 -10 10 0 6 5 10 10 10 6 0 10 -4 10 -10z m30 0 c0 -5 -4 -10
-10 -10 -5 0 -10 5 -10 10 0 6 5 10 10 10 6 0 10 -4 10 -10z m-66 -26 c8 -22
7 -34 -3 -34 -5 0 -11 11 -13 25 -6 28 6 34 16 9z m3381 -5 c9 -13 7 -15 -27
-23 -21 -5 -28 -3 -28 8 0 23 43 35 55 15z m-140 -17 c-3 -3 -11 0 -18 7 -9
10 -8 11 6 5 10 -3 15 -9 12 -12z m-127 -45 c7 -6 18 -20 24 -31 10 -18 9 -19
-4 -9 -17 15 -29 7 -21 -13 11 -29 86 -94 102 -89 11 3 24 -8 41 -35 14 -22
32 -42 40 -44 8 -2 27 -7 43 -10 25 -6 39 -26 17 -26 -5 0 -10 5 -10 12 0 6
-6 4 -13 -6 -13 -17 -15 -17 -46 2 -27 16 -39 18 -74 10 -23 -5 -55 -7 -70 -4
-17 4 -26 2 -22 -4 4 -6 -1 -13 -9 -16 -9 -3 -16 -15 -16 -25 0 -23 -18 -25
-27 -3 -4 11 8 28 36 53 29 26 41 44 41 64 0 15 -4 27 -10 27 -5 0 -9 3 -8 8
4 13 -23 52 -36 52 -9 0 -12 8 -9 24 3 14 -1 38 -10 54 -14 28 -13 29 7 24 12
-3 27 -9 34 -15z m-2208 -17 c0 -5 -5 -10 -11 -10 -5 0 -7 5 -4 10 3 6 8 10
11 10 2 0 4 -4 4 -10z m-60 -45 c-7 -9 -15 -13 -17 -11 -7 7 7 26 19 26 6 0 6
-6 -2 -15z m2220 -28 c0 -5 -7 -4 -15 3 -8 7 -15 20 -15 29 1 13 3 13 15 -3 8
-11 15 -24 15 -29z m-2120 14 c0 -12 -20 -25 -27 -18 -7 7 6 27 18 27 5 0 9
-4 9 -9z m60 -42 c0 -14 -16 -11 -29 5 -10 12 -8 13 8 9 12 -3 21 -9 21 -14z
m-76 -58 c-10 -23 -21 -41 -26 -41 -11 0 -10 18 2 25 6 4 8 10 5 15 -6 9 26
53 33 45 2 -2 -4 -22 -14 -44z m116 35 c0 -3 -4 -8 -10 -11 -5 -3 -10 -1 -10
4 0 6 5 11 10 11 6 0 10 -2 10 -4z m-1377 -27 c-8 -8 -13 -7 -18 2 -5 8 -4 10
3 5 7 -4 12 -2 12 5 0 7 3 9 7 6 4 -4 2 -12 -4 -18z m1413 -34 c7 -22 14 -41
14 -42 0 -2 -7 -3 -15 -3 -15 0 -64 47 -65 63 0 4 7 7 16 7 10 0 14 -6 10 -15
-3 -8 -1 -15 5 -15 7 0 9 10 5 26 -11 42 14 24 30 -21z m-119 0 c9 -27 8 -37
-3 -46 -11 -9 -14 -7 -13 12 0 13 -2 34 -6 47 -4 12 -3 22 2 22 5 0 14 -16 20
-35z m2103 5 c0 -5 -4 -10 -10 -10 -5 0 -10 5 -10 10 0 6 5 10 10 10 6 0 10
-4 10 -10z m40 6 c0 -3 -4 -8 -10 -11 -5 -3 -10 -1 -10 4 0 6 5 11 10 11 6 0
10 -2 10 -4z m-1940 -37 c0 -5 -4 -9 -10 -9 -5 0 -10 7 -10 16 0 8 5 12 10 9
6 -3 10 -10 10 -16z m-27 -13 c4 -10 1 -13 -9 -9 -7 3 -14 9 -14 14 0 14 17
10 23 -5z m2257 -6 c0 -5 -5 -10 -11 -10 -5 0 -7 5 -4 10 3 6 8 10 11 10 2 0
4 -4 4 -10z m110 -19 c3 -4 20 -13 38 -21 l34 -13 -33 -14 c-33 -14 -54 -9
-29 7 12 8 12 10 -4 10 -21 0 -56 27 -56 42 0 10 41 0 50 -11z m-200 -43 c0
-5 -4 -8 -10 -8 -5 0 -10 10 -10 23 0 18 2 19 10 7 5 -8 10 -18 10 -22z m64
23 c3 -5 0 -13 -7 -19 -15 -13 -42 1 -33 17 9 13 33 15 40 2z m71 -22 c4 -6 5
-12 2 -15 -7 -7 -37 7 -37 17 0 13 27 11 35 -2z m-3225 -9 c-20 -13 -53 -13
-45 0 3 6 18 10 33 10 21 0 24 -2 12 -10z m1938 -8 c2 -7 -2 -10 -12 -6 -9 3
-16 11 -16 16 0 13 23 5 28 -10z m-2023 -16 c-32 -26 -75 -40 -75 -24 0 9 76
47 95 48 6 0 -3 -11 -20 -24z m2920 13 c4 -6 5 -12 2 -15 -7 -7 -37 7 -37 17
0 13 27 11 35 -2z m375 -21 c0 -5 -12 -5 -27 -2 -34 8 -37 10 -29 23 8 12 56
-6 56 -21z m-2310 -21 c0 -5 -7 -6 -16 -3 -9 3 -18 6 -20 6 -2 0 -4 7 -4 15 0
13 3 13 20 3 11 -7 20 -17 20 -21z m2544 -1 c-7 -17 -34 -22 -34 -6 0 6 7 10
15 10 8 0 15 5 15 12 0 6 2 9 5 6 3 -3 3 -13 -1 -22z m-3654 0 c0 -11 -19 -15
-25 -6 -3 5 1 10 9 10 9 0 16 -2 16 -4z m3746 -35 c-3 -5 -15 -7 -26 -4 -28 7
-25 13 6 13 14 0 23 -4 20 -9z m-872 -117 c20 -8 21 -24 2 -24 -8 0 -16 7 -20
15 -6 17 -4 18 18 9z m216 -43 c0 -31 -14 -49 -25 -31 -11 18 -42 11 -48 -11
-7 -26 -31 -20 -35 9 -3 18 3 23 37 28 22 3 42 13 45 20 10 25 26 15 26 -15z
m-140 -12 c0 -15 -4 -19 -16 -15 -9 3 -18 6 -20 6 -2 0 -4 7 -4 15 0 8 9 15
20 15 14 0 20 -7 20 -21z m24 -45 c12 -31 6 -44 -20 -44 -21 0 -25 -4 -21 -20
6 -23 -4 -33 -25 -25 -23 9 -15 51 15 79 32 30 43 32 51 10z m-1836 -86 c16
-16 -3 -48 -29 -48 -25 0 -35 25 -19 45 15 18 32 19 48 3z"/>
<path d="M5511 3521 c-8 -5 -11 -16 -7 -26 5 -14 9 -15 21 -5 16 13 21 40 8
40 -5 0 -14 -4 -22 -9z"/>
<path d="M5613 3375 c-3 -9 -3 -19 1 -22 8 -9 37 18 30 28 -8 14 -24 11 -31
-6z"/>
<path d="M2977 3136 c-4 -9 -18 -16 -32 -16 -16 0 -25 -6 -25 -15 0 -20 59
-20 106 0 44 18 40 39 -8 43 -25 2 -37 -2 -41 -12z"/>
<path d="M2375 3109 c-3 -9 -5 -20 -4 -25 4 -22 -2 -34 -18 -34 -12 0 -14 -3
-6 -11 8 -8 17 -8 31 0 11 6 32 11 46 11 35 0 34 27 -1 41 -15 6 -31 15 -35
22 -5 8 -9 7 -13 -4z"/>
<path d="M3222 3059 c-24 -11 -42 -22 -40 -24 2 -2 36 -1 76 2 51 4 72 10 72
19 0 8 -6 14 -12 14 -7 0 -22 2 -33 5 -11 2 -40 -5 -63 -16z"/>
<path d="M2600 3051 l-65 -17 -2 -40 c-1 -21 -2 -45 -2 -51 -1 -7 -6 -13 -12
-13 -6 0 -10 10 -9 23 3 36 1 38 -21 26 -16 -8 -20 -18 -17 -45 4 -33 4 -33
-19 -19 -21 14 -23 14 -23 -6 0 -12 8 -23 20 -26 22 -6 26 -18 10 -28 -10 -6
-14 -55 -5 -55 3 0 22 11 43 24 20 13 63 31 95 40 32 9 73 25 91 36 19 10 61
33 95 50 58 30 60 33 54 63 -3 18 -13 38 -21 45 -22 17 -132 13 -212 -7z m-68
-153 c-7 -7 -12 -8 -12 -2 0 14 12 26 19 19 2 -3 -1 -11 -7 -17z"/>
<path d="M2469 3014 c-12 -14 -11 -16 5 -13 11 2 21 10 24 17 5 17 -13 15 -29
-4z"/>
<path d="M509 2979 c-12 -8 -12 -10 1 -19 18 -12 60 -13 60 -2 0 15 -46 31
-61 21z"/>
<path d="M2250 2853 c-14 -3 -30 -9 -36 -14 -16 -13 -46 -19 -117 -24 -48 -3
-62 -9 -87 -34 -19 -18 -46 -33 -68 -36 -54 -9 -78 -23 -79 -48 -1 -12 -7 -23
-13 -25 -5 -2 -10 -9 -10 -16 0 -15 -47 -42 -56 -33 -3 3 8 19 25 36 43 42 39
46 -11 10 -24 -17 -55 -38 -70 -47 -15 -9 -32 -27 -37 -39 -14 -30 -35 -29
-59 2 -36 45 -65 49 -132 15 -33 -17 -60 -35 -60 -41 0 -5 13 -18 30 -27 16
-9 30 -23 30 -30 0 -8 12 -11 32 -10 28 3 34 -1 36 -19 3 -20 12 -27 32 -25
60 6 94 13 127 29 36 18 43 18 67 6 15 -8 24 -18 21 -22 -3 -5 2 -12 11 -15
10 -4 14 -14 11 -26 -3 -11 0 -20 5 -20 6 0 5 -6 -2 -15 -10 -13 -9 -15 9 -15
11 0 21 4 21 8 0 4 9 8 20 9 11 1 26 8 34 15 7 7 32 30 56 52 33 30 39 41 28
48 -10 7 -9 8 5 4 11 -3 20 0 23 9 3 8 14 17 25 20 11 4 37 33 59 65 27 40 45
57 55 54 14 -6 36 30 40 66 3 24 25 60 36 60 6 0 9 7 5 15 -3 8 0 18 7 22 7 5
18 16 26 26 15 19 13 19 -39 10z m-481 -269 c-17 -21 -31 -17 -19 6 6 11 15
18 21 14 6 -4 6 -11 -2 -20z m-39 -34 c0 -5 -4 -10 -10 -10 -5 0 -10 5 -10 10
0 6 5 10 10 10 6 0 10 -4 10 -10z m-40 -21 c0 -12 -37 -12 -44 0 -3 4 -3 11 0
14 8 7 44 -4 44 -14z m-20 -44 c0 -8 -4 -15 -10 -15 -5 0 -10 7 -10 15 0 8 5
15 10 15 6 0 10 -7 10 -15z"/>
<path d="M3460 2731 c0 -24 6 -44 17 -52 15 -13 16 -11 10 10 -3 13 0 32 6 42
10 16 9 21 -3 29 -25 16 -30 12 -30 -29z"/>
<path d="M2565 2748 c-35 -13 -46 -25 -44 -53 1 -11 0 -22 -1 -25 -1 -3 -3
-20 -5 -37 -3 -32 7 -43 20 -23 10 15 25 12 32 -7 4 -10 11 -22 17 -26 8 -6 7
-10 -1 -13 -7 -3 -9 -12 -6 -20 3 -9 7 -37 8 -62 3 -62 3 -64 16 -56 8 4 7 9
-2 15 -11 6 -10 9 4 15 9 3 17 10 17 16 0 5 -6 6 -12 2 -13 -8 2 14 34 50 13
15 15 23 7 33 -6 7 -8 13 -3 13 5 0 1 5 -9 11 -9 5 -22 7 -29 3 -7 -5 -8 -3
-3 5 5 9 19 11 41 6 19 -3 34 -2 34 4 0 5 -20 11 -45 13 -25 2 -45 0 -45 -5 0
-4 -6 -2 -14 5 -7 7 -12 18 -9 24 2 7 0 15 -6 19 -6 3 -11 -1 -11 -9 0 -17
-12 -21 -24 -9 -3 4 11 23 33 42 22 20 42 46 46 59 7 24 4 25 -40 10z"/>
<path d="M2480 2740 c-12 -8 -12 -12 -3 -18 10 -6 10 -15 1 -40 -7 -17 -9 -34
-5 -38 10 -10 18 0 20 25 1 11 5 21 9 21 4 0 5 6 2 14 -3 8 -1 17 5 21 15 9
14 25 -1 25 -7 0 -20 -5 -28 -10z"/>
<path d="M3555 2720 c-3 -5 -1 -10 4 -10 6 0 11 5 11 10 0 6 -2 10 -4 10 -3 0
-8 -4 -11 -10z"/>
<path d="M1695 2699 c-4 -6 -5 -13 -2 -16 7 -7 27 6 27 18 0 12 -17 12 -25 -2z"/>
<path d="M3090 2653 c0 -12 5 -25 10 -28 13 -8 13 15 0 35 -8 12 -10 11 -10
-7z"/>
<path d="M3560 2650 c0 -5 5 -10 11 -10 5 0 7 5 4 10 -3 6 -8 10 -11 10 -2 0
-4 -4 -4 -10z"/>
<path d="M92 2633 c-18 -7 -42 -57 -42 -88 0 -22 4 -25 35 -25 26 0 43 -7 60
-26 55 -59 39 -100 -34 -89 -54 8 -90 33 -91 62 0 12 -4 25 -10 28 -14 8 -13
-215 0 -251 8 -19 8 -30 0 -38 -5 -5 -10 -36 -10 -68 0 -55 1 -58 19 -48 11 5
29 25 40 44 14 22 32 37 51 41 16 4 41 16 55 27 25 19 25 21 9 39 -14 16 -15
24 -6 44 14 31 45 32 64 3 l15 -22 59 45 c32 25 68 62 79 83 20 38 20 38 0 50
-11 6 -44 35 -75 64 -30 28 -83 65 -116 81 -34 16 -65 34 -68 40 -8 12 -13 12
-34 4z"/>
<path d="M2705 2600 c-3 -5 -1 -10 4 -10 6 0 11 5 11 10 0 6 -2 10 -4 10 -3 0
-8 -4 -11 -10z"/>
<path d="M3416 2573 c-12 -13 -6 -53 9 -53 9 0 15 9 15 24 0 26 -12 40 -24 29z"/>
<path d="M2674 2542 c-1 -15 1 -22 3 -15 2 7 11 9 19 6 9 -3 14 2 14 16 0 33
-35 27 -36 -7z"/>
<path d="M2421 2529 c-6 -17 -9 -34 -7 -38 3 -4 0 -13 -5 -21 -7 -11 -11 -12
-17 -3 -4 7 -13 9 -21 4 -11 -7 -9 -11 7 -20 11 -6 28 -11 36 -11 10 0 13 -6
9 -17 -11 -27 59 17 74 47 10 21 9 29 -11 55 -32 41 -51 43 -65 4z"/>
<path d="M2094 2466 c-3 -8 -12 -12 -20 -9 -17 6 -18 -8 -1 -26 10 -11 8 -12
-9 -7 -15 4 -24 2 -28 -9 -9 -25 60 -20 74 6 9 16 14 18 26 8 27 -22 27 1 0
26 -31 29 -35 30 -42 11z"/>
<path d="M2517 2473 c-4 -3 -7 -11 -7 -17 0 -6 5 -5 12 2 6 6 9 14 7 17 -3 3
-9 2 -12 -2z"/>
<path d="M1620 2383 c-34 -7 -55 -24 -39 -33 8 -6 8 -9 0 -14 -6 -4 -11 -2
-11 3 0 17 -27 13 -34 -5 -9 -25 -7 -27 11 -13 15 12 16 12 10 -4 -4 -10 -7
-21 -7 -23 0 -3 -12 -10 -27 -16 l-28 -11 24 -6 c28 -7 41 -31 18 -31 -20 0
-32 -39 -18 -53 6 -6 23 -11 39 -12 16 0 28 -6 28 -15 1 -8 2 -21 3 -27 2 -29
38 -9 69 38 l32 49 -22 10 c-13 5 -17 9 -11 9 16 1 61 91 56 112 -2 9 -16 22
-31 30 -35 17 -33 17 -62 12z m-25 -95 c-1 -12 -8 -24 -15 -26 -9 -3 -11 1 -7
12 4 10 7 22 7 27 0 5 4 9 8 9 5 0 8 -10 7 -22z"/>
<path d="M2010 2266 c0 -8 7 -22 16 -30 17 -18 44 -21 44 -6 0 6 -4 10 -9 10
-5 0 -11 9 -14 20 -6 23 -37 28 -37 6z"/>
<path d="M5653 2206 c-6 -8 -10 -16 -7 -19 10 -9 44 5 44 19 0 18 -21 17 -37
0z"/>
<path d="M4297 2112 c3 -12 9 -25 14 -28 14 -8 11 10 -6 32 -13 18 -14 18 -8
-4z"/>
<path d="M1195 2074 c-11 -8 -25 -12 -32 -10 -8 3 -13 -2 -13 -14 0 -22 36
-36 54 -21 10 8 21 63 12 61 0 0 -10 -7 -21 -16z"/>
<path d="M1788 2008 c-6 -53 -2 -59 13 -24 7 14 18 26 26 26 7 0 13 6 13 14 0
8 6 17 13 19 6 3 -4 6 -24 6 -36 1 -37 0 -41 -41z"/>
<path d="M4396 2015 c8 -37 14 -45 14 -19 0 10 -5 26 -10 34 -8 11 -9 7 -4
-15z"/>
<path d="M4880 1984 c0 -12 -7 -27 -15 -34 -21 -18 -8 -31 23 -24 36 9 36 7
13 45 -17 28 -21 30 -21 13z"/>
<path d="M4410 1951 c0 -11 4 -22 9 -25 4 -3 6 6 3 19 -5 30 -12 33 -12 6z"/>
<path d="M1666 1951 c-4 -5 -2 -12 3 -15 5 -4 12 -2 15 3 4 5 2 12 -3 15 -5 4
-12 2 -15 -3z"/>
<path d="M85 1863 c-4 -21 -7 -45 -8 -53 -1 -8 -19 -23 -40 -33 l-37 -17 0
-243 0 -242 20 25 c11 14 20 19 20 12 0 -10 4 -10 23 0 12 6 28 13 36 14 8 2
18 9 23 18 4 8 22 17 38 21 17 4 30 10 30 15 0 5 22 22 49 39 70 43 239 211
253 252 16 45 16 43 -18 49 -26 5 -29 9 -30 45 -2 68 -3 73 -29 79 -13 3 -29
15 -35 26 -9 17 -17 20 -44 14 -20 -3 -36 -1 -40 5 -5 7 -46 11 -106 11 l-99
0 -6 -37z"/>
<path d="M4340 1881 c0 -6 5 -13 10 -16 6 -3 10 1 10 9 0 9 -4 16 -10 16 -5 0
-10 -4 -10 -9z"/>
<path d="M4371 1833 c-1 -17 3 -34 8 -38 17 -10 19 9 6 40 l-13 30 -1 -32z"/>
<path d="M500 1816 c0 -9 5 -16 10 -16 6 0 10 4 10 9 0 6 -4 13 -10 16 -5 3
-10 -1 -10 -9z"/>
<path d="M3885 1820 c3 -5 8 -10 11 -10 2 0 4 5 4 10 0 6 -5 10 -11 10 -5 0
-7 -4 -4 -10z"/>
<path d="M3361 1786 c-9 -11 -5 -16 19 -26 16 -7 35 -18 41 -26 28 -34 32 -9
6 44 -12 25 -48 30 -66 8z"/>
<path d="M4385 1771 c-3 -5 2 -29 11 -53 32 -82 45 -71 22 17 -12 44 -21 54
-33 36z"/>
<path d="M3337 1753 c-13 -12 -7 -36 11 -49 14 -10 18 -34 22 -131 5 -99 10
-127 30 -168 21 -43 30 -50 57 -53 l33 -3 -27 -24 c-24 -20 -26 -26 -16 -46 6
-13 14 -42 18 -64 9 -58 35 -126 62 -158 13 -16 23 -35 23 -43 0 -7 9 -19 19
-26 18 -11 18 -13 3 -24 -16 -12 -16 -15 0 -46 9 -18 19 -41 22 -50 7 -23 26
-23 26 0 0 9 9 23 20 30 27 16 26 50 -2 62 -22 8 -22 9 5 9 38 1 47 30 47 152
0 118 -20 191 -63 231 -28 27 -68 30 -83 7 -3 -5 -12 -9 -20 -9 -24 0 -16 48
15 79 36 37 46 76 28 105 -8 11 -19 37 -26 56 -18 50 -184 184 -204 163z"/>
<path d="M3129 1733 c-29 -34 2 -258 44 -328 7 -11 26 -63 41 -115 34 -112 29
-99 69 -175 20 -37 40 -61 52 -63 11 -2 27 -6 35 -9 8 -4 22 -7 30 -8 8 -1 25
-5 36 -9 42 -13 40 12 -19 234 -41 154 -67 231 -95 286 -11 22 -30 61 -43 87
-23 49 -94 117 -121 117 -9 0 -22 -7 -29 -17z m72 -218 l-9 -60 1 80 c0 44 2
89 6 100 10 34 12 -54 2 -120z"/>
<path d="M3460 1710 c0 -5 5 -10 11 -10 5 0 7 5 4 10 -3 6 -8 10 -11 10 -2 0
-4 -4 -4 -10z"/>
<path d="M3840 1692 c0 -4 -10 -12 -22 -17 -12 -6 -23 -19 -24 -30 -1 -11 -6
-40 -12 -65 -13 -53 -6 -64 28 -47 25 13 25 13 23 -30 -1 -24 1 -44 5 -44 37
-7 53 -5 48 7 -3 8 0 11 9 8 11 -5 13 3 9 36 -5 39 -4 41 16 30 17 -9 19 -14
9 -26 -9 -11 -8 -14 9 -14 12 0 24 5 27 11 4 6 13 8 20 5 8 -3 15 5 18 19 3
19 -1 26 -17 31 -31 9 -55 34 -49 50 4 12 -7 17 -33 13 -4 0 -11 5 -15 13 -7
11 -11 10 -19 -2 -5 -8 -10 -10 -10 -4 0 5 5 15 10 20 14 14 2 44 -16 44 -8 0
-14 -3 -14 -8z"/>
<path d="M5130 1612 c0 -23 18 -39 30 -26 4 5 -1 18 -11 28 -19 19 -19 19 -19
-2z"/>
<path d="M2475 1538 c4 -18 14 -40 22 -48 14 -13 15 -11 8 25 -8 46 -12 55
-26 55 -7 0 -8 -13 -4 -32z"/>
<path d="M5145 1530 c3 -5 10 -10 16 -10 5 0 9 5 9 10 0 6 -7 10 -16 10 -8 0
-12 -4 -9 -10z"/>
<path d="M4230 1400 c0 -5 5 -10 11 -10 5 0 7 5 4 10 -3 6 -8 10 -11 10 -2 0
-4 -4 -4 -10z"/>
<path d="M280 1342 c0 -16 6 -37 14 -47 9 -12 12 -37 10 -73 -5 -67 21 -112
65 -112 23 0 30 5 34 28 3 15 3 39 0 55 -3 15 0 34 7 42 18 22 50 88 50 103 0
9 -7 12 -17 9 -60 -19 -61 -19 -72 2 -9 16 -21 21 -51 21 -37 0 -40 -2 -40
-28z"/>
<path d="M2587 1286 c-6 -16 17 -76 28 -76 11 0 4 57 -8 74 -13 17 -14 18 -20
2z"/>
<path d="M3926 1285 c4 -8 8 -15 10 -15 2 0 4 7 4 15 0 8 -4 15 -10 15 -5 0
-7 -7 -4 -15z"/>
<path d="M4330 1236 c0 -15 18 -31 26 -23 7 7 -7 37 -17 37 -5 0 -9 -6 -9 -14z"/>
<path d="M4070 1199 c0 -19 7 -37 18 -45 15 -12 15 -13 1 -14 -9 0 -22 11 -29
25 -14 25 -30 29 -37 8 -2 -6 5 -14 16 -18 18 -5 19 -10 10 -27 -7 -13 -7 -18
-1 -14 6 3 14 1 18 -5 4 -8 9 -7 15 2 6 11 9 10 15 -4 3 -9 14 -17 23 -17 12
0 10 -5 -9 -21 -14 -11 -19 -17 -11 -13 9 5 12 3 7 -4 -4 -7 -2 -12 5 -12 7 0
9 -3 6 -7 -4 -3 -2 -12 4 -20 8 -9 8 -13 1 -13 -12 0 -27 19 -27 35 0 6 -10
11 -23 13 -13 2 -26 10 -29 19 -5 12 -7 12 -14 1 -7 -10 -11 -7 -15 10 -7 25
-24 30 -24 7 0 -8 -6 -14 -12 -13 -8 2 -13 -8 -13 -24 1 -25 -6 -33 -27 -29
-5 0 -8 -6 -8 -14 0 -8 4 -15 10 -15 5 0 7 -7 4 -15 -4 -9 0 -15 10 -15 9 0
16 -8 16 -20 0 -11 5 -20 11 -20 5 0 17 -16 25 -36 14 -33 16 -35 28 -19 11
16 12 14 8 -13 -5 -35 11 -43 27 -14 6 9 11 12 11 6 0 -6 -3 -14 -7 -17 -3 -4
-7 -17 -7 -30 -1 -19 4 -22 35 -22 38 -1 41 5 24 47 -4 11 0 18 13 22 14 5 19
15 18 44 -1 27 3 36 13 34 8 -2 18 3 22 10 6 9 9 5 9 -11 0 -20 14 -23 15 -3
1 4 7 18 14 30 l13 24 25 -24 25 -23 -3 40 c-1 22 -6 47 -10 56 -5 9 -3 21 2
26 6 6 11 31 11 57 0 42 1 45 19 36 22 -13 27 8 7 29 -10 11 -10 14 0 18 19 7
14 22 -12 35 -21 9 -29 7 -56 -16 -17 -14 -35 -26 -40 -26 -4 0 -2 -17 6 -37
7 -21 13 -46 14 -57 0 -15 -3 -16 -15 -6 -8 6 -18 9 -23 6 -10 -6 -59 41 -54
52 1 4 -3 7 -10 7 -6 0 -16 18 -22 39 -14 50 -36 60 -36 15z"/>
<path d="M4121 1194 c0 -11 3 -14 6 -6 3 7 2 16 -1 19 -3 4 -6 -2 -5 -13z"/>
<path d="M3714 1147 c3 -18 2 -47 -4 -63 -10 -30 0 -89 15 -89 5 0 13 15 18
34 6 24 11 31 17 21 4 -7 15 -10 24 -7 14 6 14 12 -5 58 -29 76 -77 109 -65
46z"/>
<path d="M3224 1137 c3 -10 13 -42 22 -72 8 -30 18 -55 21 -55 13 0 -6 78 -27
110 -12 19 -19 27 -16 17z"/>
<path d="M1255 1090 c3 -5 11 -10 16 -10 6 0 7 5 4 10 -3 6 -11 10 -16 10 -6
0 -7 -4 -4 -10z"/>
<path d="M2445 1060 c3 -5 8 -10 11 -10 2 0 4 5 4 10 0 6 -5 10 -11 10 -5 0
-7 -4 -4 -10z"/>
<path d="M3816 991 c-16 -25 -18 -116 -3 -135 22 -29 34 -12 32 46 -2 61 -18
108 -29 89z"/>
<path d="M2460 977 c0 -7 7 -22 15 -33 12 -16 14 -17 15 -2 0 23 -11 48 -21
48 -5 0 -9 -6 -9 -13z"/>
<path d="M1037 938 c-15 -12 -33 -69 -42 -133 -5 -44 -22 -115 -28 -121 -2 -3
-17 -7 -33 -10 -16 -3 -34 -10 -41 -15 -14 -12 -53 5 -53 23 0 6 -11 8 -30 5
-16 -4 -30 -3 -30 2 0 4 -11 6 -25 3 -21 -3 -25 0 -25 18 0 21 3 21 53 15 28
-4 62 -11 75 -16 13 -5 33 -9 45 -9 l21 0 -21 22 c-18 18 -32 21 -93 20 -83
-2 -146 -16 -153 -36 -6 -15 -57 -10 -57 5 0 5 4 9 8 9 4 0 6 15 4 34 -2 18 1
37 7 40 27 17 7 22 -31 9 -24 -9 -70 -21 -103 -28 -202 -42 -328 -106 -351
-178 -3 -11 -17 -29 -30 -41 -13 -12 -25 -27 -26 -35 -2 -8 -15 -26 -30 -41
-16 -15 -28 -34 -28 -43 0 -9 -5 -19 -10 -22 -6 -3 -10 -36 -10 -73 1 -60 4
-70 30 -99 31 -35 79 -63 107 -63 10 0 25 -5 33 -10 13 -9 13 -11 0 -19 -16
-11 -12 -14 45 -26 17 -3 46 -10 66 -14 36 -8 220 -7 306 2 23 2 53 12 67 20
16 11 35 15 54 11 35 -7 63 6 107 52 28 29 40 34 79 34 40 0 46 3 46 21 0 27
62 89 89 89 12 0 32 7 45 15 13 9 28 15 32 14 5 -2 29 3 52 10 24 7 58 9 75 5
27 -5 30 -4 20 8 -14 16 -4 36 27 51 26 14 67 64 58 72 -3 3 -13 -2 -22 -11
-9 -9 -20 -13 -24 -9 -4 3 1 13 11 20 15 11 16 17 8 33 -8 15 -8 21 2 25 15 5
18 59 3 69 -6 4 -6 11 2 20 9 11 9 18 -1 28 -10 10 -9 12 4 7 13 -4 15 -1 12
14 -3 10 -9 19 -14 19 -5 0 -9 7 -9 15 0 9 -6 18 -14 21 -8 3 -13 11 -10 17 5
13 -49 77 -64 77 -5 0 -14 -12 -21 -26 -6 -15 -14 -24 -17 -21 -3 3 -1 14 5
25 14 27 15 53 1 32 -8 -12 -10 -11 -10 8 0 37 -43 72 -88 72 -21 0 -46 -6
-55 -12z m41 -130 c-19 -18 -41 -21 -36 -6 3 7 10 13 16 13 5 0 14 3 18 8 4 4
9 5 12 2 2 -2 -2 -10 -10 -17z m-565 -135 c-7 -2 -13 -11 -13 -19 0 -7 -22
-25 -50 -39 -27 -14 -50 -32 -50 -40 0 -8 -4 -15 -10 -15 -12 0 -3 69 12 88
17 20 47 31 88 31 19 -1 29 -3 23 -6z m413 -99 c-3 -9 -6 -18 -6 -20 0 -2 -7
-4 -15 -4 -18 0 -19 6 -2 25 16 19 31 19 23 -1z m304 -64 c0 -5 -4 -10 -10
-10 -5 0 -10 5 -10 10 0 6 5 10 10 10 6 0 10 -4 10 -10z m-245 -20 c3 -5 1
-10 -4 -10 -6 0 -11 5 -11 10 0 6 2 10 4 10 3 0 8 -4 11 -10z m95 -44 c0 -2
-13 -6 -29 -8 -17 -2 -28 -1 -25 4 5 8 54 12 54 4z m-84 -21 c-11 -8 -24 -15
-29 -15 -11 0 -106 -78 -130 -107 -10 -13 -24 -23 -30 -23 -16 0 80 97 124
125 30 19 53 29 79 34 3 0 -4 -6 -14 -14z m-806 -87 c0 -9 3 -9 12 0 19 19
202 16 222 -3 9 -9 42 -18 81 -22 75 -7 88 -18 54 -44 -32 -25 -76 -34 -94
-19 -19 16 -134 39 -141 28 -3 -4 -15 -6 -27 -3 -12 3 -29 1 -37 -5 -13 -8
-12 -11 5 -24 11 -9 26 -16 33 -16 6 0 12 -4 12 -10 0 -5 18 -14 40 -20 44
-12 45 -13 30 -41 -15 -26 -35 -24 -59 7 -11 14 -28 25 -38 24 -10 -1 -29 -2
-42 -1 -21 1 -23 4 -18 36 3 19 1 37 -4 41 -5 3 -6 10 -3 16 4 7 2 8 -4 4 -7
-4 -23 5 -37 21 l-24 28 3 -30 4 -31 -64 -2 c-40 -2 -64 1 -64 7 0 16 47 43
98 57 60 16 62 16 62 2z m520 -73 c0 -3 -4 -11 -10 -18 -5 -7 -20 -25 -33 -41
l-24 -30 -12 22 c-6 12 -8 22 -3 22 5 0 14 11 20 25 8 17 20 25 37 25 14 0 25
-2 25 -5z m-620 -25 c0 -5 -2 -10 -4 -10 -3 0 -8 5 -11 10 -3 6 -1 10 4 10 6
0 11 -4 11 -10z m264 -6 c9 -3 14 -10 11 -15 -7 -10 -35 0 -35 12 0 11 3 11
24 3z m266 -44 c0 -13 -30 -13 -50 0 -11 7 -7 10 18 10 17 0 32 -4 32 -10z
m-192 -38 c2 -7 -6 -12 -17 -12 -21 0 -27 11 -14 24 9 9 26 2 31 -12z"/>
<path d="M945 900 c-11 -4 -36 -5 -55 -3 -36 5 -110 -20 -110 -37 0 -5 24 -7
53 -5 30 2 77 1 105 -4 56 -9 59 -6 39 31 -9 19 -17 23 -32 18z"/>
<path d="M2 794 l3 -88 70 1 c39 0 88 3 110 6 22 3 46 5 53 6 6 1 12 10 12 21
0 24 25 27 38 4 8 -14 10 -12 16 10 3 14 11 26 16 26 6 0 10 5 10 10 0 6 -6
10 -14 10 -7 0 -26 6 -42 14 -19 10 -33 12 -45 5 -23 -12 -29 -11 -29 1 0 6 8
10 18 10 13 0 14 2 3 9 -13 8 -90 4 -101 -6 -2 -2 2 -8 10 -13 8 -5 11 -12 8
-16 -9 -8 -42 24 -44 43 -3 21 -5 21 -52 29 l-43 7 3 -89z m168 -15 c0 -6 -4
-7 -10 -4 -5 3 -10 11 -10 16 0 6 5 7 10 4 6 -3 10 -11 10 -16z"/>
<path d="M2655 850 c-3 -5 -1 -10 4 -10 6 0 11 5 11 10 0 6 -2 10 -4 10 -3 0
-8 -4 -11 -10z"/>
<path d="M4525 820 c1 -11 4 -22 7 -26 4 -3 4 -12 1 -20 -6 -16 12 -19 22 -4
3 5 21 -8 40 -28 31 -33 34 -35 35 -15 0 12 -7 28 -15 37 -8 8 -15 19 -15 25
0 6 -6 11 -14 11 -8 0 -18 9 -21 20 -8 27 -42 27 -40 0z"/>
<path d="M2655 820 c-3 -5 -1 -10 4 -10 6 0 11 5 11 10 0 6 -2 10 -4 10 -3 0
-8 -4 -11 -10z"/>
<path d="M4370 820 c0 -5 5 -10 11 -10 5 0 7 5 4 10 -3 6 -8 10 -11 10 -2 0
-4 -4 -4 -10z"/>
<path d="M4461 766 c-10 -12 -8 -13 8 -9 12 3 21 9 21 14 0 14 -16 11 -29 -5z"/>
<path d="M950 710 c0 -5 5 -10 11 -10 5 0 7 5 4 10 -3 6 -8 10 -11 10 -2 0 -4
-4 -4 -10z"/>
<path d="M1352 298 c2 -18 -2 -23 -17 -21 -11 1 -31 -7 -45 -18 -23 -19 -23
-20 -3 -14 15 4 25 0 32 -12 9 -17 10 -17 24 1 9 13 21 17 35 14 27 -8 49 16
33 35 -6 8 -8 17 -4 21 4 4 0 4 -9 1 -9 -4 -19 -2 -23 4 -11 19 -26 12 -23
-11z"/>
<path d="M5374 228 c-3 -5 15 -8 40 -8 25 0 46 4 46 9 0 10 -80 9 -86 -1z"/>
<path d="M1794 182 c-19 -12 -35 -50 -24 -57 13 -8 13 -27 -1 -62 -28 -67 -45
-63 265 -63 174 0 275 4 267 9 -14 9 -167 15 -287 12 -31 -1 -57 3 -65 11 -8
8 -32 21 -54 29 -38 14 -40 17 -41 56 -1 58 -28 87 -60 65z"/>
<path d="M750 35 c0 -29 29 -35 50 -10 16 19 4 35 -26 35 -19 0 -24 -5 -24
-25z"/>
<path d="M582 18 c3 -7 15 -15 28 -16 21 -3 22 -2 11 12 -16 19 -44 21 -39 4z"/>
<path d="M1695 10 c-3 -5 3 -10 15 -10 12 0 18 5 15 10 -3 6 -10 10 -15 10 -5
0 -12 -4 -15 -10z"/>
</g>
</svg>
