<?xml version="1.0" standalone="no"?>
<!DOCTYPE svg PUBLIC "-//W3C//DTD SVG 20010904//EN"
 "http://www.w3.org/TR/2001/REC-SVG-20010904/DTD/svg10.dtd">
<svg version="1.0" xmlns="http://www.w3.org/2000/svg"
 width="596.000000pt" height="594.000000pt" viewBox="0 0 596.000000 594.000000"
 preserveAspectRatio="xMidYMid meet">

<g transform="translate(0.000000,594.000000) scale(0.100000,-0.100000)"
fill="#000000" stroke="none">
<path d="M0 2970 l0 -2970 2980 0 2980 0 0 2970 0 2970 -2980 0 -2980 0 0
-2970z m3245 1445 c794 -131 1368 -834 1332 -1634 -7 -145 -16 -211 -49 -333
-13 -50 -25 -78 -34 -78 -18 0 -18 -6 10 108 57 228 60 454 10 699 -24 118
-61 220 -128 358 -98 199 -221 359 -381 494 -370 314 -844 438 -1323 346 -125
-24 -254 -69 -387 -135 -648 -321 -988 -1049 -820 -1758 29 -122 28 -112 11
-112 -15 0 -45 102 -68 230 -19 110 -16 402 5 517 48 257 145 479 300 690 28
37 96 113 152 168 270 267 573 407 995 459 62 7 282 -4 375 -19z m-1273 -2032
l28 -27 -37 -38 -37 -38 37 0 c40 0 42 -2 27 -30 -8 -15 0 -51 35 -158 74
-226 95 -228 95 -6 0 108 -3 145 -15 160 -8 10 -15 22 -15 27 0 4 34 7 75 7
77 0 92 -9 63 -38 -9 -9 -14 -56 -17 -142 l-3 -130 41 0 c32 0 48 6 68 26 14
14 29 22 33 17 7 -7 -4 -123 -12 -126 -2 -1 -86 -1 -186 1 -179 3 -184 4 -179
24 10 38 -2 48 -60 48 l-56 0 6 -35 6 -35 -124 0 c-109 0 -124 2 -129 18 -4 9
-26 53 -51 97 l-45 80 3 -80 c1 -44 7 -88 11 -97 8 -17 -2 -18 -123 -18 l-131
0 0 35 c0 35 0 35 -45 35 -25 0 -48 0 -52 0 -5 0 -9 -15 -11 -35 l-3 -35 -60
0 c-63 0 -71 8 -43 45 8 11 33 78 55 149 30 94 39 138 34 162 l-6 34 77 0 76
0 -6 -25 c-7 -28 73 -296 99 -329 14 -18 15 -18 25 8 16 43 13 260 -5 303 -8
19 -15 37 -15 39 0 2 32 4 70 4 60 0 70 -3 70 -17 1 -10 22 -57 49 -106 l48
-87 -5 82 c-2 46 -8 87 -13 93 -24 26 -8 35 61 35 39 0 70 -4 70 -8 0 -5 -7
-23 -16 -41 -13 -26 -15 -58 -12 -166 1 -73 7 -137 12 -142 15 -14 40 38 82
171 31 98 40 137 33 154 -12 32 -13 32 24 33 29 0 30 1 11 11 -21 10 -21 11
15 64 20 29 38 53 40 54 3 0 18 -12 33 -27z m2563 -109 c11 -5 15 -22 15 -65
0 -32 -3 -59 -6 -59 -4 0 -17 11 -30 25 -23 25 -71 33 -109 19 -26 -10 -45
-60 -45 -119 0 -50 4 -60 30 -87 27 -26 36 -30 67 -25 20 4 48 18 63 32 35 33
40 32 40 -12 0 -65 -9 -82 -49 -93 -82 -23 -152 -8 -197 42 -44 47 -56 87 -52
163 5 101 46 157 136 186 26 8 108 4 137 -7z m294 -2 c19 -9 48 -34 65 -55 27
-34 31 -48 34 -116 3 -59 0 -86 -13 -112 -40 -79 -88 -109 -173 -109 -49 0
-66 5 -99 29 -68 49 -96 137 -73 231 14 59 58 116 105 136 43 19 114 17 154
-4z m-2329 -6 c0 -8 -4 -18 -10 -21 -12 -8 -13 -304 -1 -324 13 -20 36 30 83
178 26 83 37 134 33 153 l-7 28 77 0 76 0 -7 -34 c-4 -27 5 -68 41 -175 25
-77 53 -145 61 -151 27 -23 14 -30 -57 -30 -66 0 -70 1 -64 20 13 41 -1 55
-55 55 -54 0 -68 -14 -55 -55 6 -19 2 -20 -124 -20 -101 0 -131 3 -131 13 0 7
5 18 11 24 12 12 8 295 -5 331 -8 21 -7 22 63 22 55 0 71 -3 71 -14z m714 -2
c8 -22 8 -99 -1 -108 -4 -4 -15 3 -24 15 -12 17 -27 22 -60 23 -43 1 -44 0
-46 -31 l-1 -33 59 0 c56 0 59 -1 55 -22 -3 -13 -8 -40 -11 -60 -7 -43 -14
-46 -40 -18 -10 11 -29 20 -43 20 -24 0 -25 -1 -19 -61 3 -34 10 -66 16 -72
22 -22 10 -27 -64 -27 l-76 0 16 30 c21 41 22 296 0 326 -8 12 -11 24 -8 28 3
3 59 6 124 6 97 0 118 -3 123 -16z m236 1 c42 -21 70 -63 70 -102 0 -41 -23
-98 -44 -110 -13 -7 -11 -15 15 -61 32 -57 55 -74 70 -51 5 8 27 72 50 143 30
94 39 138 34 162 l-6 34 76 0 76 0 -6 -32 c-4 -24 7 -70 39 -165 73 -219 89
-221 94 -16 3 106 1 138 -12 164 -9 18 -16 36 -16 41 0 4 32 8 70 8 60 0 70
-3 70 -17 0 -10 21 -54 45 -98 l45 -80 0 77 c0 42 -4 80 -10 83 -5 3 -10 13
-10 21 0 11 16 14 70 14 39 0 70 -3 70 -7 -1 -5 -7 -19 -15 -33 -21 -36 -21
-274 0 -314 8 -15 15 -30 15 -32 0 -2 -28 -4 -62 -4 l-63 0 -44 83 c-73 135
-74 135 -69 39 3 -45 10 -88 16 -94 7 -7 12 -16 12 -20 0 -4 -60 -8 -134 -8
l-133 0 1 35 c0 19 -2 34 -6 35 -5 0 -28 0 -53 0 -45 0 -45 0 -45 -35 l0 -35
-72 0 c-40 0 -89 -4 -110 -9 -36 -8 -36 -8 -52 33 -9 22 -27 59 -41 81 l-26
40 4 -55 c2 -30 7 -63 11 -72 7 -16 1 -18 -63 -18 -71 0 -87 10 -60 37 12 12
8 295 -5 331 -8 22 -7 22 83 22 62 0 101 -5 121 -15z m-1826 -451 c9 -3 16
-12 16 -20 0 -10 -8 -12 -30 -8 -18 4 -36 1 -45 -6 -18 -15 -20 -71 -3 -88 16
-16 51 -15 67 1 10 10 12 8 9 -8 -4 -26 -60 -32 -94 -10 -19 12 -24 24 -24 59
0 62 50 101 104 80z m890 0 c29 -11 18 -31 -14 -26 -39 6 -39 -14 0 -36 35
-19 48 -55 29 -78 -18 -22 -83 -15 -87 9 -3 16 -1 17 16 6 20 -13 52 -7 52 10
0 5 -16 18 -35 30 -41 24 -46 53 -13 75 25 18 30 19 52 10z m144 0 c34 -10 28
-31 -8 -26 -39 6 -60 -13 -60 -52 0 -37 15 -56 45 -56 12 0 26 5 33 12 9 9 12
7 12 -10 0 -19 -5 -22 -40 -22 -43 0 -79 26 -81 58 -4 51 10 78 46 92 25 11
26 11 53 4z m-950 -31 c-3 -24 1 -28 25 -31 24 -3 27 0 27 27 0 23 5 31 18 31
15 0 17 -10 17 -75 0 -65 -2 -75 -17 -75 -14 0 -18 8 -18 35 0 31 -3 35 -25
35 -22 0 -25 -4 -25 -35 0 -28 -4 -35 -19 -35 -17 0 -19 7 -18 75 2 65 4 75
20 75 13 0 17 -7 15 -27z m164 -35 c3 -60 4 -63 28 -63 24 0 25 2 25 63 0 56
2 62 20 62 19 0 20 -5 15 -66 -6 -71 -16 -84 -67 -84 -40 0 -46 10 -53 88 -5
54 -3 62 12 62 14 0 18 -11 20 -62z m226 50 c15 -15 15 -43 0 -68 -10 -15 -9
-22 5 -38 22 -24 21 -32 -1 -32 -10 0 -26 15 -36 35 -19 34 -19 36 -1 49 21
15 14 46 -10 46 -12 0 -15 -13 -15 -65 0 -55 -3 -65 -17 -65 -16 0 -18 10 -18
75 l0 75 41 0 c22 0 45 -5 52 -12z m146 -4 c20 -19 20 -34 1 -61 -13 -19 -13
-23 6 -47 20 -26 20 -26 1 -26 -12 0 -29 14 -41 34 -25 40 -26 46 -7 46 8 0
18 5 21 10 9 14 -13 40 -32 40 -12 0 -14 -13 -11 -65 3 -59 1 -65 -17 -65 -19
0 -20 6 -17 75 l4 75 38 0 c22 0 45 -7 54 -16z m136 3 c0 -7 11 -41 24 -75 24
-59 24 -62 5 -62 -10 0 -19 7 -19 15 0 10 -11 15 -35 15 -24 0 -35 -5 -35 -15
0 -8 -8 -15 -19 -15 -18 0 -18 3 5 58 13 31 24 65 24 75 0 11 8 17 25 17 14 0
25 -6 25 -13z m427 -44 c11 -32 24 -66 28 -75 5 -14 2 -18 -14 -18 -12 0 -21
6 -21 15 0 10 -10 15 -29 15 -16 0 -31 -6 -35 -15 -3 -8 -15 -15 -26 -15 -16
0 -18 3 -10 18 18 32 40 94 40 113 0 13 7 19 23 19 19 0 27 -10 44 -57z m151
45 c15 -15 15 -43 0 -68 -10 -16 -9 -23 12 -45 l23 -25 -24 0 c-18 0 -30 10
-43 35 -19 34 -19 36 -1 49 21 15 14 46 -11 46 -13 0 -15 -10 -12 -65 3 -59 1
-65 -17 -65 -18 0 -20 7 -20 75 l0 75 41 0 c22 0 45 -5 52 -12z m87 -63 c0
-65 -2 -75 -17 -75 -16 0 -18 10 -18 75 0 65 2 75 18 75 15 0 17 -10 17 -75z
m122 69 c-6 -6 23 -92 43 -126 9 -15 6 -18 -15 -18 -16 0 -25 6 -25 15 0 10
-10 15 -30 15 -20 0 -30 -5 -30 -15 0 -9 -9 -15 -21 -15 -11 0 -19 4 -17 8 2
4 14 38 27 75 21 58 28 67 50 67 13 0 22 -3 18 -6z m223 -7 c0 -9 -10 -12 -30
-9 -25 4 -30 1 -30 -17 0 -16 6 -21 25 -21 17 0 23 -4 19 -14 -3 -8 -13 -12
-25 -9 -15 4 -19 0 -19 -22 0 -25 3 -27 30 -21 22 4 30 2 30 -9 0 -11 -12 -15
-47 -15 l-48 0 0 75 0 75 48 0 c32 0 47 -4 47 -13z m184 -3 c9 -8 16 -22 16
-30 0 -21 -37 -54 -61 -54 -18 0 -20 -4 -15 -25 5 -21 3 -25 -16 -25 -22 0
-23 3 -20 75 l4 75 38 0 c22 0 45 -7 54 -16z m78 -59 c-3 -62 -6 -75 -20 -75
-14 0 -17 12 -17 75 0 68 2 75 20 75 19 0 20 -6 17 -75z m138 70 c0 -2 -15
-30 -34 -62 -31 -52 -33 -58 -16 -61 11 -2 29 2 40 8 19 10 21 9 18 -7 -3 -14
-14 -19 -61 -21 -31 -2 -57 0 -57 3 0 4 16 34 35 67 l36 60 -31 -4 c-20 -3
-30 0 -30 9 0 9 15 13 50 13 28 0 50 -2 50 -5z m130 -2 c0 -5 -16 -33 -35 -63
l-34 -55 25 -3 c14 -2 32 2 41 9 13 11 15 10 12 -6 -4 -17 -14 -20 -62 -23
-31 -2 -57 0 -57 3 0 4 16 34 35 67 l36 60 -31 -4 c-20 -3 -30 0 -30 9 0 9 15
13 50 13 28 0 50 -3 50 -7z m128 -50 c11 -32 23 -66 27 -75 5 -14 2 -18 -14
-18 -12 0 -21 6 -21 15 0 10 -10 15 -29 15 -16 0 -31 -6 -35 -15 -3 -8 -13
-15 -22 -15 -11 0 -14 5 -9 18 24 59 43 121 38 126 -4 3 5 6 19 6 23 0 29 -8
46 -57z m156 36 c15 -22 11 -48 -8 -61 -7 -4 -2 -18 12 -37 l23 -31 -24 0
c-17 0 -28 10 -40 35 -21 44 -21 45 -1 45 22 0 14 44 -9 48 -17 3 -18 -3 -15
-62 3 -61 1 -66 -17 -66 -18 0 -20 7 -20 75 l0 75 42 0 c31 0 46 -5 57 -21z
m81 -54 c0 -65 -2 -75 -17 -75 -16 0 -18 10 -18 75 0 65 2 75 18 75 15 0 17
-10 17 -75z m125 58 c0 -10 11 -44 24 -75 22 -53 22 -58 6 -58 -10 0 -20 7
-24 15 -3 9 -18 15 -36 15 -20 0 -30 -5 -30 -15 0 -8 -8 -15 -18 -15 -18 0
-17 5 7 75 22 63 29 75 49 75 14 0 22 -6 22 -17z m-1655 -213 c4 -11 15 -20
27 -20 18 0 19 -2 7 -17 -8 -9 -13 -24 -11 -35 4 -21 -8 -24 -26 -6 -9 9 -15
9 -24 0 -18 -18 -27 -14 -21 8 4 13 -1 26 -13 35 -18 14 -18 14 4 15 15 0 26
7 29 20 3 11 9 20 13 20 5 0 12 -9 15 -20z m248 0 c3 -13 14 -20 28 -20 21 0
21 -1 5 -19 -9 -10 -14 -25 -10 -35 7 -19 -7 -21 -24 -4 -9 9 -17 7 -33 -8
-22 -19 -22 -19 -16 6 4 16 1 31 -10 42 -15 17 -15 18 6 18 14 0 25 7 28 20 3
11 9 20 13 20 4 0 10 -9 13 -20z m250 0 c3 -13 14 -20 29 -20 22 -1 22 -1 5
-15 -13 -9 -17 -20 -12 -34 7 -23 -4 -28 -23 -9 -9 9 -15 9 -24 0 -17 -17 -31
-15 -24 4 4 10 -1 25 -10 35 -16 18 -16 19 5 19 14 0 25 7 28 20 3 11 9 20 13
20 4 0 10 -9 13 -20z"/>
<path d="M1216 2097 c-3 -14 -8 -32 -12 -40 -4 -11 1 -15 20 -13 21 1 24 5 19
26 -11 45 -20 55 -27 27z"/>
<path d="M1904 2086 c-10 -32 -9 -35 13 -39 26 -5 28 5 10 46 l-12 28 -11 -35z"/>
<path d="M4715 2198 c-31 -18 -43 -39 -51 -86 -13 -84 26 -152 86 -152 56 0
98 86 80 164 -14 64 -70 100 -115 74z"/>
<path d="M2661 2097 c-15 -39 -14 -57 4 -57 21 0 27 19 16 55 l-8 30 -12 -28z"/>
<path d="M3360 2150 c0 -41 3 -50 18 -50 25 0 42 20 42 50 0 30 -17 50 -42 50
-15 0 -18 -9 -18 -50z"/>
<path d="M3707 2105 c-3 -11 -8 -29 -11 -40 -5 -17 -1 -21 19 -23 28 -2 28 -1
11 48 -11 30 -14 32 -19 15z"/>
<path d="M2347 1756 c-11 -27 -8 -36 8 -36 16 0 17 5 6 34 -7 18 -8 18 -14 2z"/>
<path d="M2757 1749 c-7 -27 -4 -32 17 -27 12 2 13 7 2 27 l-13 23 -6 -23z"/>
<path d="M3127 1740 c-4 -15 0 -20 13 -20 13 0 17 5 13 20 -3 11 -9 20 -13 20
-4 0 -10 -9 -13 -20z"/>
<path d="M3512 1763 c2 -17 9 -28 18 -28 9 0 16 11 18 28 3 22 -1 27 -18 27
-17 0 -21 -5 -18 -27z"/>
<path d="M3997 1749 c-7 -27 -4 -32 17 -27 12 2 13 7 2 27 l-13 23 -6 -23z"/>
<path d="M4372 1750 c-7 -19 -6 -26 5 -28 21 -5 25 2 14 29 l-9 24 -10 -25z"/>
</g>
</svg>
