<?xml version="1.0" standalone="no"?>
<!DOCTYPE svg PUBLIC "-//W3C//DTD SVG 20010904//EN"
 "http://www.w3.org/TR/2001/REC-SVG-20010904/DTD/svg10.dtd">
<svg version="1.0" xmlns="http://www.w3.org/2000/svg"
 width="596.000000pt" height="595.000000pt" viewBox="0 0 596.000000 595.000000"
 preserveAspectRatio="xMidYMid meet">

<g transform="translate(0.000000,595.000000) scale(0.100000,-0.100000)"
fill="#000000" stroke="none">
<path d="M0 2975 l0 -2975 2980 0 2980 0 0 2975 0 2975 -2980 0 -2980 0 0
-2975z m3300 1473 c0 -4 -13 -8 -30 -8 -16 0 -30 -4 -30 -10 0 -5 -13 -10 -30
-10 -21 0 -30 -5 -30 -16 0 -18 24 -44 41 -44 8 0 9 -10 5 -31 -5 -26 -2 -32
16 -37 21 -5 21 -6 2 -14 -11 -5 15 -5 61 -1 44 4 106 7 138 6 54 -1 57 0 57
24 0 23 -3 25 -29 20 -20 -4 -31 -2 -35 8 -7 18 -39 19 -67 3 -17 -11 -22 -10
-35 6 -8 11 -14 37 -14 58 0 39 10 45 60 38 20 -3 19 -2 23 -38 5 -39 31 -61
73 -62 38 0 44 -13 35 -66 -7 -39 -71 -167 -79 -159 -3 2 5 20 17 40 27 46 28
70 1 30 -25 -38 -26 -25 0 24 l19 39 -37 6 c-20 3 -84 6 -141 6 -88 0 -102 2
-92 14 9 11 8 17 -8 28 -12 8 -18 18 -15 21 4 4 2 12 -4 19 -9 12 -17 76 -13
108 2 11 5 9 11 -5 8 -18 9 -17 9 7 1 20 7 27 24 30 25 4 97 -21 97 -34z
m-194 -9 c12 -24 12 -30 2 -27 -7 3 -14 14 -16 25 -2 16 -9 20 -25 16 -18 -4
-19 -3 -7 6 23 16 28 14 46 -20z m-27 -39 c23 -29 28 -40 16 -40 -8 0 -15 -6
-15 -12 0 -7 -7 -2 -16 10 -20 29 -32 28 -37 -5 -3 -20 -4 -16 -6 14 0 23 -4
48 -7 57 -13 33 33 16 65 -24z m-78 -82 c-14 -39 -14 -51 0 -43 7 5 8 -5 3
-32 -9 -48 -14 -54 -15 -17 0 16 -10 -12 -23 -61 -12 -50 -25 -95 -28 -101 -4
-6 -1 -28 7 -50 7 -21 17 -75 21 -119 l9 -80 5 55 c4 45 7 30 13 -75 8 -122
-4 -310 -20 -324 -3 -4 -3 12 0 34 21 141 20 294 -2 281 -4 -3 -11 34 -15 82
-12 158 -32 198 -61 128 -17 -41 -30 -50 -15 -11 5 14 12 37 14 50 9 46 30 95
41 92 9 -3 61 201 66 263 2 19 3 18 6 -8 3 -19 0 -47 -6 -64z m158 -29 c38
-61 39 -69 5 -32 -14 15 -23 22 -19 16 3 -7 2 -13 -3 -13 -12 0 -26 30 -23 48
1 6 -3 12 -9 12 -5 0 -10 5 -10 10 0 26 30 5 59 -41z m174 4 c-13 -2 -33 -2
-45 0 -13 2 -3 4 22 4 25 0 35 -2 23 -4z m-148 -100 c22 -52 12 -50 -13 3 -12
25 -18 43 -12 39 6 -3 17 -23 25 -42z m23 2 c-3 -3 -9 2 -12 12 -6 14 -5 15 5
6 7 -7 10 -15 7 -18z m-232 -85 c-8 -36 -14 -55 -15 -43 -1 26 22 129 26 117
2 -6 -3 -39 -11 -74z m305 -82 c13 -35 27 -66 33 -70 5 -3 9 -38 8 -77 -2 -58
-9 -84 -41 -153 -22 -46 -39 -85 -39 -88 1 -3 -9 -24 -20 -47 -12 -23 -31 -67
-43 -97 -21 -57 -47 -90 -35 -45 4 13 -5 4 -18 -21 -14 -25 -25 -52 -25 -60 0
-8 8 1 16 20 9 19 18 30 20 23 6 -16 -27 -64 -39 -57 -5 3 -22 -9 -37 -26 -16
-19 -34 -30 -42 -27 -10 4 -9 6 4 6 30 2 19 37 -18 57 -19 10 -35 22 -35 27 0
4 11 0 25 -9 26 -17 34 -8 13 16 -8 8 -1 6 15 -4 50 -31 65 -20 113 84 24 52
44 86 45 75 0 -14 2 -16 6 -5 3 8 19 42 35 74 18 38 25 62 18 66 -6 4 1 30 21
70 33 69 33 66 5 195 -8 38 -12 74 -8 80 4 5 -2 30 -15 55 -25 51 -30 47 -8
-7 8 -20 13 -38 10 -41 -2 -3 -9 7 -15 22 -5 14 -14 37 -20 51 -6 16 -6 25 0
25 6 0 9 3 9 8 -8 48 23 -10 62 -120z m138 101 c-7 -13 -7 -24 -2 -28 5 -3
-10 -42 -35 -86 -24 -44 -42 -73 -39 -65 21 70 21 67 2 45 -18 -22 -17 -15 5
28 8 16 19 26 27 23 7 -3 13 -1 13 3 0 5 -4 11 -9 13 -5 2 2 22 16 46 26 43
43 59 22 21z m-441 -174 c0 -25 -2 -24 -9 10 -10 51 -10 92 1 50 4 -16 8 -43
8 -60z m-71 3 c-3 -7 -5 -2 -5 12 0 14 2 19 5 13 2 -7 2 -19 0 -25z m-52 -103
c-9 -31 -19 -54 -21 -52 -3 2 3 33 13 67 9 35 19 58 21 52 1 -5 -4 -36 -13
-67z m31 29 c-4 -9 -9 -15 -11 -12 -3 3 -3 13 1 22 4 9 9 15 11 12 3 -3 3 -13
-1 -22z m-19 -66 c-3 -8 -6 -5 -6 6 -1 11 2 17 5 13 3 -3 4 -12 1 -19z m-16
-49 c-9 -22 -10 -22 -10 -3 -1 11 2 24 6 27 12 12 14 0 4 -24z m-47 -111 c-2
-55 -22 -137 -23 -98 -1 23 -18 -2 -25 -38 -4 -25 -3 -31 7 -26 8 5 7 2 -2 -9
-7 -9 -10 -17 -5 -18 41 -3 122 -31 107 -36 -7 -2 -21 1 -32 6 -16 9 -22 8
-31 -9 -16 -31 7 -62 42 -55 18 4 29 1 35 -9 5 -9 20 -17 33 -18 14 -2 28 -7
31 -12 4 -5 18 -8 33 -8 14 0 26 -4 26 -9 0 -12 -47 -12 -54 0 -3 5 -18 12
-33 16 -15 3 -34 12 -42 18 -8 7 -26 12 -40 12 -19 0 -30 8 -41 30 -8 17 -23
41 -32 54 -10 13 -15 36 -13 55 4 28 56 216 60 216 1 0 1 -28 -1 -62z m22 26
c-4 -14 -9 -24 -12 -21 -3 2 -2 17 2 31 3 15 9 25 11 22 3 -3 2 -17 -1 -32z
m140 -129 c-5 -65 -4 -95 3 -95 6 0 11 -4 11 -10 0 -5 -9 -10 -20 -10 -11 0
-20 -5 -20 -12 0 -6 -2 -9 -4 -7 -2 2 2 33 10 69 7 36 14 86 14 113 0 26 3 47
6 47 4 0 4 -43 0 -95z m-341 20 c0 -20 -8 -20 -775 -25 l-775 -5 -47 -27 c-27
-15 -48 -24 -48 -22 0 12 30 34 47 35 16 1 16 2 1 6 -9 2 -30 -3 -47 -12 -44
-22 -38 -10 9 20 25 16 46 23 55 18 7 -4 116 -5 242 -1 125 5 477 5 781 2 405
-5 552 -3 552 5 0 17 -1416 21 -1517 4 -22 -3 -33 -1 -33 6 0 7 3 10 8 8 4 -3
16 -1 27 4 11 4 358 7 770 6 743 -2 750 -2 750 -22z m1995 -5 c0 -5 55 -11
128 -13 70 -1 -219 -3 -642 -2 -676 0 -769 2 -771 15 -2 13 74 15 641 12 401
-1 644 -6 644 -12z m285 10 c13 -5 14 -9 5 -9 -8 0 -24 4 -35 9 -13 5 -14 9
-5 9 8 0 24 -4 35 -9z m108 -69 l22 -24 -28 18 c-15 10 -30 15 -34 11 -3 -3
-2 -6 4 -6 12 0 73 -111 73 -132 0 -6 -12 11 -26 40 -25 50 -103 121 -135 123
-10 0 -10 2 -2 5 6 3 25 -2 42 -11 28 -14 31 -14 31 0 0 8 -5 14 -11 13 -6 -2
-14 3 -17 11 -6 19 52 -16 81 -48z m-4093 -41 c0 -5 -5 -10 -11 -10 -5 0 -7 5
-4 10 3 6 8 10 11 10 2 0 4 -4 4 -10z m4164 -79 c14 -49 16 -123 16 -502 0
-476 -3 -511 -51 -569 -17 -21 -19 -22 -10 -3 22 43 10 46 -30 8 -42 -41 -64
-73 -56 -81 3 -3 12 3 21 12 9 9 19 14 22 11 3 -3 -9 -15 -25 -27 -26 -18 -31
-19 -31 -6 0 20 -2 20 -47 1 -29 -12 -98 -15 -399 -15 -233 0 -364 -4 -364
-10 0 -6 134 -11 368 -13 l367 -2 -373 -3 c-351 -2 -373 -1 -370 16 3 16 31
17 378 22 333 4 379 7 411 23 42 21 101 80 123 122 10 19 16 24 16 13 0 -34
16 -18 28 27 8 32 12 171 12 473 0 407 -1 432 -21 493 -11 35 -25 68 -30 74
-17 18 -9 28 10 11 10 -9 26 -43 35 -75z m-2239 29 c13 -6 15 -9 5 -9 -8 0
-22 4 -30 9 -18 12 -2 12 25 0z m-1924 -23 c-10 -9 -11 -8 -5 6 3 10 9 15 12
12 3 -3 0 -11 -7 -18z m-44 -19 c-3 -7 -5 -2 -5 12 0 14 2 19 5 13 2 -7 2 -19
0 -25z m2061 15 c-10 -2 -26 -2 -35 0 -10 3 -2 5 17 5 19 0 27 -2 18 -5z
m1513 -45 c11 -21 11 -22 -4 -9 -10 7 -17 17 -17 22 0 15 9 10 21 -13z m-3584
-10 c-3 -8 -6 -5 -6 6 -1 11 2 17 5 13 3 -3 4 -12 1 -19z m36 -454 c-1 -262
-5 -479 -8 -482 -9 -9 -6 -18 16 -43 12 -13 25 -23 31 -21 5 1 4 -7 -2 -18
-14 -27 -28 -17 -53 38 -16 39 -17 48 -6 55 12 7 14 83 11 455 -2 387 0 492
11 492 1 0 1 -214 0 -476z m4166 -4 c0 -245 -3 -450 -7 -457 -4 -6 -7 202 -7
463 0 260 3 466 7 456 4 -9 7 -217 7 -462z m-4202 -227 c-1 -125 -2 -25 -2
222 0 248 1 350 2 228 2 -122 2 -324 0 -450z m3573 597 l-11 -25 6 25 c2 14 5
36 6 50 l2 25 4 -25 c2 -14 -1 -37 -7 -50z m17 -22 c-3 -8 -6 -5 -6 6 -1 11 2
17 5 13 3 -3 4 -12 1 -19z m-35 -30 c-7 -7 -12 -8 -12 -2 0 6 3 14 7 17 3 4 9
5 12 2 2 -3 -1 -11 -7 -17z m338 4 c49 -26 70 -72 70 -154 l0 -68 -55 0 -55 0
0 59 c0 68 -13 84 -62 79 l-33 -3 0 -65 0 -64 77 -46 c120 -70 122 -74 126
-184 5 -138 -22 -177 -134 -191 -70 -9 -133 12 -161 54 -19 28 -23 47 -23 112
l0 79 55 0 55 0 0 -63 c0 -69 10 -87 50 -87 39 0 50 18 50 80 0 65 -1 66 -107
129 -95 55 -106 76 -101 191 3 97 15 121 73 146 44 20 134 17 175 -4z m-3310
-37 l0 -45 -50 0 -50 0 0 -275 0 -276 -57 3 -58 3 -2 270 -2 270 -51 3 -50 3
0 45 0 44 160 0 160 0 0 -45z m160 -85 l0 -130 60 0 60 0 0 130 0 130 55 0 55
0 0 -320 0 -320 -55 0 -55 0 0 140 0 140 -60 0 -60 0 0 -140 0 -140 -55 0 -55
0 0 320 0 320 55 0 55 0 0 -130z m600 85 l0 -45 -85 0 -85 0 0 -85 0 -85 70 0
70 0 0 -50 0 -50 -70 0 -70 0 0 -90 0 -90 85 0 85 0 0 -50 0 -50 -140 0 -140
0 0 320 0 320 140 0 140 0 0 -45z m330 -87 l1 -133 56 133 56 132 59 0 58 0
-61 -121 -61 -122 66 -192 c36 -105 66 -194 66 -198 0 -4 -25 -7 -55 -7 l-54
0 -44 138 -44 137 -21 -42 c-18 -35 -22 -60 -22 -138 l0 -95 -55 0 -55 0 0
320 0 320 55 0 55 0 0 -132z m570 87 l0 -45 -90 0 -90 0 0 -85 0 -84 73 -3 72
-3 3 -47 3 -48 -75 0 -76 0 0 -90 0 -90 90 0 90 0 0 -50 0 -50 -145 0 -145 0
0 320 0 320 145 0 145 0 0 -45z m330 30 c45 -23 60 -62 60 -154 0 -71 -3 -83
-25 -110 -25 -29 -25 -30 -6 -40 30 -17 44 -74 39 -162 -4 -66 -9 -84 -29
-105 -39 -43 -79 -54 -194 -54 l-105 0 0 320 0 320 115 0 c84 0 124 -4 145
-15z m411 -290 c32 -165 58 -308 58 -317 1 -15 -8 -18 -53 -18 l-54 0 -13 70
-12 70 -57 0 -58 0 -8 -67 -9 -68 -54 -3 -54 -3 6 38 c3 21 30 165 59 321 l52
283 70 -3 70 -3 57 -300z m380 282 c19 -13 39 -38 46 -57 24 -71 10 -189 -26
-212 -17 -10 -17 -13 8 -34 24 -21 26 -29 29 -117 6 -163 -31 -196 -220 -197
l-108 0 0 320 0 320 119 0 c106 0 121 -2 152 -23z m196 -19 c-3 -7 -13 -32
-22 -56 -14 -34 -15 -50 -7 -83 12 -48 0 -40 -17 10 -6 18 -8 38 -4 45 4 6 6
18 5 27 -4 26 16 69 34 69 9 0 14 -6 11 -12z m-2437 -884 l5 -39 14 32 c15 37
36 57 50 49 5 -4 0 -23 -12 -46 l-22 -39 23 -67 c13 -36 21 -68 18 -71 -13
-14 -34 10 -46 52 -15 52 -27 49 -32 -10 -2 -28 -8 -41 -20 -43 -16 -3 -18 7
-18 106 0 60 3 112 7 116 14 14 28 -2 33 -40z m190 26 c0 -16 -7 -20 -30 -20
-27 0 -30 -3 -30 -30 0 -25 4 -30 25 -30 16 0 25 -6 25 -15 0 -9 -9 -15 -25
-15 -22 0 -25 -4 -25 -35 0 -32 2 -35 30 -35 20 0 30 -5 30 -16 0 -12 -10 -14
-47 -12 l-48 3 -3 99 c-1 55 0 106 2 113 3 8 22 13 51 13 38 0 45 -3 45 -20z
m118 4 c24 -16 31 -71 11 -91 -8 -8 -8 -13 0 -17 6 -4 11 -25 11 -46 0 -45
-18 -60 -74 -60 l-36 0 0 115 0 115 33 0 c18 0 43 -7 55 -16z m133 -69 c32
-148 32 -145 9 -145 -15 0 -20 6 -20 25 0 20 -5 25 -25 25 -18 0 -25 -5 -25
-20 0 -19 -25 -38 -36 -28 -4 5 30 187 41 216 3 8 13 12 22 10 12 -2 21 -25
34 -83z m137 69 c24 -16 31 -71 11 -91 -8 -8 -8 -13 0 -17 17 -11 13 -72 -5
-90 -9 -9 -32 -16 -55 -16 l-39 0 0 115 0 115 33 0 c18 0 43 -7 55 -16z m136
0 c21 -20 21 -74 1 -74 -8 0 -15 8 -15 18 0 27 -21 44 -37 31 -22 -19 -15 -38
27 -64 35 -22 40 -30 40 -63 0 -46 -14 -62 -55 -62 -40 0 -55 16 -55 57 0 41
27 46 32 6 4 -35 41 -40 46 -6 2 16 -7 28 -37 48 -35 21 -41 30 -41 59 0 40
22 66 55 66 13 0 31 -7 39 -16z m178 -79 c10 -50 20 -100 23 -112 4 -18 1 -23
-15 -23 -15 0 -20 7 -20 25 0 20 -5 25 -25 25 -18 0 -25 -5 -25 -20 0 -20 -25
-38 -36 -27 -6 6 32 202 42 218 3 6 13 9 22 7 12 -2 21 -28 34 -93z m143 75
c19 -16 19 -84 1 -99 -13 -11 -13 -18 0 -53 18 -51 18 -58 0 -58 -8 0 -21 19
-28 42 -20 59 -38 61 -38 3 0 -39 -3 -46 -17 -43 -16 3 -18 17 -21 102 -1 55
0 106 3 114 6 17 77 11 100 -8z m135 0 c0 -13 -7 -20 -20 -20 -19 0 -20 -7
-20 -95 0 -78 -3 -95 -15 -95 -12 0 -15 17 -15 95 0 88 -1 95 -20 95 -13 0
-20 7 -20 20 0 18 7 20 55 20 48 0 55 -2 55 -20z m115 0 c0 -10 -12 -16 -32
-18 -29 -3 -33 -7 -33 -33 0 -26 3 -29 30 -29 20 0 30 -5 30 -15 0 -10 -10
-15 -30 -15 -28 0 -30 -3 -30 -35 0 -33 2 -35 35 -35 24 0 35 -5 35 -15 0 -11
-12 -15 -50 -15 l-50 0 0 116 0 115 48 -3 c34 -2 47 -7 47 -18z m106 10 c13
-8 19 -21 19 -45 0 -43 -27 -49 -32 -7 -4 35 -32 37 -35 2 -2 -19 5 -30 30
-45 26 -16 33 -28 35 -58 4 -48 -11 -67 -54 -67 -23 0 -37 6 -44 21 -15 28 -9
63 13 67 13 3 17 -3 17 -27 0 -24 4 -31 20 -31 15 0 20 7 20 29 0 22 -6 31
-30 41 -52 21 -66 74 -30 110 22 22 42 25 71 10z m119 -12 c10 -24 40 -170 40
-194 0 -24 -29 -15 -36 12 -8 32 -47 30 -52 -3 -4 -28 -32 -31 -32 -4 0 17 19
119 35 189 3 12 12 22 20 22 9 0 20 -10 25 -22z m117 -43 l21 -60 4 60 c2 45
7 60 18 60 12 0 16 -20 18 -112 2 -104 1 -113 -16 -113 -14 0 -25 18 -45 73
l-26 72 0 -72 c-1 -58 -4 -73 -16 -73 -12 0 -15 20 -15 116 0 105 2 115 18
112 11 -2 25 -25 39 -63z m159 54 c6 -10 44 -192 44 -211 0 -20 -30 -5 -36 18
-8 32 -47 30 -52 -3 -4 -27 -32 -31 -32 -5 0 17 28 175 36 200 4 15 30 16 40
1z m102 -107 c3 -107 2 -112 -18 -112 -19 0 -20 6 -20 108 0 60 3 112 7 116
20 20 28 -9 31 -112z m113 108 c13 -8 19 -21 19 -45 0 -43 -27 -49 -32 -7 -4
35 -32 36 -36 1 -2 -21 4 -31 32 -47 31 -19 36 -26 36 -60 0 -47 -14 -62 -57
-62 -36 0 -57 25 -51 63 4 32 32 28 36 -6 3 -20 8 -27 20 -25 29 6 26 45 -5
64 -15 10 -34 24 -40 33 -21 24 -16 68 9 85 26 19 42 20 69 6z m-3037 -39 c3
-5 14 -7 25 -4 10 2 38 -5 62 -18 24 -12 58 -26 74 -30 l30 -7 -28 -1 c-15 -1
-50 10 -79 24 -57 28 -84 32 -54 10 11 -8 17 -17 14 -21 -3 -3 -21 8 -40 25
-18 17 -28 31 -21 31 6 0 14 -4 17 -9z m96 -66 c14 -8 21 -14 15 -14 -5 0 -21
6 -35 14 -14 8 -20 14 -15 14 6 0 21 -6 35 -14z m779 2 c6 -8 8 -17 4 -20 -3
-4 -175 -6 -382 -5 l-376 3 375 5 c206 3 368 8 360 12 -8 5 -159 9 -335 11
l-320 2 331 3 c267 2 334 -1 343 -11z"/>
<path d="M2930 4118 c0 -3 -7 -22 -15 -42 -8 -20 -13 -36 -10 -36 9 0 37 71
31 78 -3 3 -6 3 -6 0z"/>
<path d="M3266 3745 c-22 -52 -19 -58 5 -12 11 22 18 41 15 44 -3 3 -12 -12
-20 -32z"/>
<path d="M3155 3501 c-3 -5 -1 -12 5 -16 5 -3 10 1 10 9 0 18 -6 21 -15 7z"/>
<path d="M3401 4084 c0 -11 3 -14 6 -6 3 7 2 16 -1 19 -3 4 -6 -2 -5 -13z"/>
<path d="M3367 4033 c-4 -3 -7 -11 -7 -17 0 -6 5 -5 12 2 6 6 9 14 7 17 -3 3
-9 2 -12 -2z"/>
<path d="M3458 3563 c67 -2 177 -2 245 0 67 1 12 3 -123 3 -135 0 -190 -2
-122 -3z"/>
<path d="M4223 3563 c48 -2 126 -2 175 0 48 1 8 3 -88 3 -96 0 -136 -2 -87 -3z"/>
<path d="M910 2331 c0 -5 5 -13 10 -16 6 -3 10 -2 10 4 0 5 -4 13 -10 16 -5 3
-10 2 -10 -4z"/>
<path d="M3290 3035 l0 -85 38 0 c52 0 62 14 62 87 0 69 -11 83 -69 83 l-31 0
0 -85z"/>
<path d="M3290 2765 l0 -95 44 0 c25 0 47 3 49 8 3 4 8 37 11 74 7 59 5 69
-13 87 -13 13 -34 21 -56 21 l-35 0 0 -95z"/>
<path d="M3717 3030 c-3 -14 -11 -56 -17 -95 -6 -38 -13 -82 -16 -97 -5 -27
-4 -28 35 -28 48 0 47 -8 22 140 -13 72 -20 97 -24 80z"/>
<path d="M4070 3035 l0 -85 34 0 c62 0 66 5 66 79 0 78 -9 91 -62 91 l-38 0 0
-85z"/>
<path d="M4070 2765 l0 -95 43 0 c24 0 48 5 55 12 7 7 12 40 12 79 0 59 -3 70
-22 83 -12 9 -37 16 -55 16 l-33 0 0 -95z"/>
<path d="M4395 3139 c-4 -6 -5 -12 -2 -15 2 -3 7 2 10 11 7 17 1 20 -8 4z"/>
<path d="M2240 2260 c0 -23 4 -30 20 -30 16 0 20 7 20 30 0 23 -4 30 -20 30
-16 0 -20 -7 -20 -30z"/>
<path d="M2240 2165 c0 -32 3 -36 23 -33 17 2 22 10 22 33 0 23 -5 31 -22 33
-20 3 -23 -1 -23 -33z"/>
<path d="M2386 2229 c-9 -44 -8 -49 8 -49 11 0 13 9 9 38 -8 48 -9 49 -17 11z"/>
<path d="M2510 2260 c0 -23 4 -30 20 -30 16 0 20 7 20 30 0 23 -4 30 -20 30
-16 0 -20 -7 -20 -30z"/>
<path d="M2510 2165 c0 -28 4 -35 20 -35 16 0 20 7 20 35 0 28 -4 35 -20 35
-16 0 -20 -7 -20 -35z"/>
<path d="M2836 2229 c-9 -44 -8 -49 8 -49 11 0 13 9 9 38 -8 48 -9 49 -17 11z"/>
<path d="M2960 2255 c0 -28 4 -35 20 -35 16 0 20 7 20 35 0 28 -4 35 -20 35
-16 0 -20 -7 -20 -35z"/>
<path d="M3471 2238 c-1 -14 -4 -33 -7 -42 -4 -11 -1 -16 10 -16 18 0 20 31 6
65 -8 18 -9 17 -9 -7z"/>
<path d="M3751 2238 c-1 -14 -4 -33 -7 -42 -4 -11 -1 -16 10 -16 18 0 20 31 6
65 -8 18 -9 17 -9 -7z"/>
</g>
</svg>
