<?xml version="1.0" standalone="no"?>
<!DOCTYPE svg PUBLIC "-//W3C//DTD SVG 20010904//EN"
 "http://www.w3.org/TR/2001/REC-SVG-20010904/DTD/svg10.dtd">
<svg version="1.0" xmlns="http://www.w3.org/2000/svg"
 width="375.000000pt" height="667.000000pt" viewBox="0 0 375.000000 667.000000"
 preserveAspectRatio="xMidYMid meet">

<g transform="translate(0.000000,667.000000) scale(0.100000,-0.100000)"
fill="#000000" stroke="none">
<path d="M465 6639 c-13 -25 -14 -33 -3 -47 7 -9 13 -19 15 -21 1 -1 12 4 25
13 12 9 17 16 10 16 -6 0 -12 5 -12 10 0 6 7 10 15 10 9 0 15 9 15 25 0 39
-45 35 -65 -6z"/>
<path d="M717 6657 c-3 -7 6 -40 20 -72 66 -159 218 -536 235 -584 19 -53 19
-65 2 -151 -5 -21 -3 -20 12 8 16 32 34 43 34 21 0 -7 9 -30 20 -53 10 -23 30
-68 44 -101 13 -33 39 -95 57 -138 29 -66 31 -79 19 -87 -12 -8 -11 -10 5 -10
17 0 28 -19 60 -102 22 -57 39 -108 37 -115 -2 -7 3 -13 10 -14 7 0 4 -4 -7
-9 -17 -7 -17 -9 -3 -9 20 -1 39 -36 88 -159 27 -69 30 -85 19 -98 -11 -13
-11 -17 1 -25 29 -17 35 -24 52 -61 10 -21 13 -38 8 -38 -20 0 -79 62 -90 94
-6 19 -33 55 -61 80 -28 25 -47 51 -44 56 3 6 -1 10 -9 10 -9 0 -16 5 -16 10
0 6 -5 10 -12 10 -13 0 -87 75 -105 109 -16 28 -17 51 -3 51 6 0 5 8 -2 19 -7
11 -16 17 -22 14 -5 -4 -7 3 -4 15 5 16 -1 23 -26 32 -17 7 -53 23 -81 36 -65
31 -177 56 -189 44 -6 -6 -21 -10 -35 -10 -15 0 -40 -9 -57 -19 l-32 -19 -7
-129 c-4 -70 -9 -140 -10 -155 -3 -21 4 -33 31 -53 28 -22 48 -27 119 -32 47
-3 85 -9 85 -13 0 -3 -7 -15 -15 -26 -24 -31 -18 -37 33 -30 32 4 42 3 32 -4
-8 -5 -25 -10 -36 -10 -20 0 -57 -30 -38 -30 5 0 5 -4 -1 -8 -5 -4 -16 -18
-24 -31 l-13 -24 63 6 c35 4 69 13 74 21 7 9 15 10 26 3 9 -5 32 -7 52 -3 36
7 37 8 37 55 0 26 7 56 15 67 14 18 14 18 15 -9 0 -20 6 -30 19 -34 10 -2 24
-15 31 -28 7 -13 19 -26 26 -29 18 -7 56 44 50 67 -4 17 -3 18 13 3 10 -9 31
-16 47 -16 36 0 51 -11 93 -70 18 -25 49 -58 71 -75 21 -16 44 -40 51 -52 l12
-23 758 0 757 0 -5 43 c-3 23 -11 47 -18 52 -28 23 -86 174 -78 204 3 11 -5
28 -21 44 -14 14 -26 31 -26 38 0 6 -7 26 -16 45 -9 19 -14 37 -11 40 3 3 29
-7 58 -21 39 -20 49 -29 38 -36 -8 -5 -9 -9 -4 -10 6 -1 -6 -5 -25 -10 -26 -6
-18 -7 35 -5 45 2 89 -3 125 -14 30 -10 70 -15 89 -12 31 4 36 11 68 81 19 42
51 112 73 156 27 58 40 98 43 143 l5 63 -34 16 c-19 9 -34 23 -34 30 0 18 -81
53 -96 42 -14 -11 -144 50 -144 68 0 18 -89 56 -104 44 -7 -6 -40 5 -91 30
-66 32 -96 40 -169 46 l-90 8 -22 45 c-38 77 -39 90 -10 90 38 0 41 18 4 22
-29 3 -37 10 -61 57 -15 30 -27 63 -27 74 0 17 5 19 41 14 29 -4 49 -1 66 10
12 8 32 13 43 10 23 -6 23 -10 -8 88 -9 27 -17 44 -20 37 -4 -14 -41 -16 -62
-2 -21 13 -5 24 35 23 l34 -1 -2 62 c-1 52 2 65 21 84 13 13 22 26 19 28 -7 8
-60 -16 -94 -42 -30 -23 -32 -28 -27 -68 6 -38 3 -46 -22 -70 -42 -38 -56 -34
-48 12 7 34 6 36 -10 23 -15 -12 -20 -11 -46 14 -32 31 -35 36 -110 218 l-53
127 -747 0 c-603 0 -749 -3 -753 -13z m1263 -513 c0 -2 -12 -4 -27 -4 -21 0
-24 3 -14 9 13 8 41 5 41 -5z m-540 -344 c0 -5 -4 -10 -10 -10 -5 0 -10 -35
-12 -77 -2 -61 -6 -78 -18 -78 -12 0 -16 17 -18 78 -2 42 -7 77 -12 77 -6 0
-10 5 -10 10 0 6 18 10 40 10 22 0 40 -4 40 -10z m50 -25 c0 -24 5 -35 15 -35
10 0 15 11 15 35 0 24 5 35 15 35 12 0 15 -17 15 -91 0 -68 -3 -90 -12 -87 -7
3 -14 21 -16 41 -4 50 -32 51 -32 2 0 -24 -5 -35 -15 -35 -12 0 -15 16 -15 85
0 69 3 85 15 85 10 0 15 -11 15 -35z m170 26 c0 -5 -10 -11 -22 -13 -31 -4
-39 -48 -9 -48 12 0 21 -6 21 -15 0 -8 -9 -15 -20 -15 -15 0 -20 -7 -20 -25 0
-20 5 -25 26 -25 40 0 23 -25 -19 -28 l-37 -3 0 90 0 91 40 0 c22 0 40 -4 40
-9z m91 -23 l1 -33 14 33 c8 17 21 32 29 32 14 0 14 -3 0 -30 -14 -28 -14 -35
1 -85 10 -30 15 -58 11 -61 -11 -11 -25 6 -32 36 -9 40 -23 38 -27 -2 -6 -64
-23 -27 -26 57 -2 71 0 85 13 85 10 0 15 -10 16 -32z m159 22 c0 -5 -11 -10
-25 -10 -20 0 -25 -5 -25 -25 0 -18 5 -25 20 -25 11 0 20 -7 20 -15 0 -8 -9
-15 -20 -15 -15 0 -20 -7 -20 -25 0 -20 5 -25 26 -25 40 0 23 -25 -19 -28
l-37 -3 0 90 0 91 40 0 c22 0 40 -4 40 -10z m107 -73 c2 -75 1 -78 -23 -87
-60 -23 -64 -19 -64 81 l0 90 43 -3 42 -3 2 -78z m87 66 c7 -25 26 -134 26
-150 0 -21 -21 -15 -27 7 -7 27 -39 25 -47 -2 -3 -16 -9 -19 -16 -12 -7 7 -5
35 5 88 8 43 15 80 15 82 0 13 40 1 44 -13z m129 0 c8 -30 7 -142 -1 -147 -4
-2 -24 -7 -45 -11 l-37 -7 0 91 0 91 39 0 c29 0 41 -5 44 -17z m155 -15 c4
-34 -23 -39 -31 -7 -3 12 -10 18 -16 14 -19 -11 -12 -31 19 -53 57 -43 26
-122 -36 -93 -28 12 -34 61 -9 61 8 0 15 -9 15 -20 0 -11 7 -20 15 -20 26 0
17 35 -15 58 -21 16 -30 31 -30 51 0 37 7 43 50 39 30 -3 35 -7 38 -30z m355
-202 c-4 -21 -4 -21 11 -2 19 23 21 8 4 -29 -13 -28 -31 -35 -21 -7 6 15 5 15
-10 3 -19 -15 -22 -8 -6 20 19 36 3 43 -20 8 -13 -19 -20 -26 -17 -16 3 11 9
29 12 42 5 21 9 22 29 13 16 -7 21 -16 18 -32z m57 -16 c-7 -4 -9 -13 -6 -19
4 -6 0 -11 -9 -11 -11 0 -15 -5 -11 -15 3 -8 1 -15 -4 -15 -13 0 -13 23 1 54
7 15 17 22 26 19 11 -4 12 -8 3 -13z m-1040 -20 c0 -10 7 -20 15 -24 8 -3 15
-1 15 4 0 6 -4 10 -10 10 -5 0 -10 8 -10 17 0 14 3 13 16 -5 9 -13 13 -26 9
-30 -4 -4 -36 -7 -71 -7 l-64 0 1 30 c0 17 3 24 6 17 2 -6 10 -9 16 -6 8 5 8
2 0 -7 -18 -19 -16 -33 2 -15 8 8 15 19 15 25 0 22 20 10 21 -11 1 -22 2 -19
15 20 5 18 24 5 24 -18z m147 -17 c-3 -10 -5 -2 -5 17 0 19 2 27 5 18 2 -10 2
-26 0 -35z m249 35 c4 -7 3 -8 -4 -4 -15 9 -15 1 0 -24 15 -23 3 -39 -15 -20
-10 10 -9 11 2 5 9 -5 12 -3 9 5 -6 20 -28 24 -28 5 0 -13 -10 -16 -59 -14
-54 2 -58 4 -58 26 0 27 16 32 18 6 1 -17 2 -17 6 0 5 21 35 19 45 -3 5 -12 7
-12 7 3 1 25 21 21 22 -5 l2 -23 4 23 c2 12 8 20 13 17 5 -3 11 -1 15 5 8 13
12 13 21 -2z m-545 -20 c1 -22 1 -22 9 2 8 25 10 23 14 -16 2 -19 0 -20 -26
-10 -16 6 -28 18 -28 28 0 27 30 22 31 -4z m239 -14 c0 -6 -7 -11 -15 -11 -15
0 -21 28 -8 40 7 8 23 -12 23 -29z m31 27 c5 8 7 0 7 -21 -1 -19 -3 -29 -5
-22 -3 6 -9 10 -14 6 -5 -3 -9 7 -8 23 0 15 3 22 6 14 4 -11 7 -11 14 0z m63
-25 c2 -14 -1 -26 -5 -26 -5 0 -9 14 -9 32 0 36 10 32 14 -6z m38 -18 c-6 -6
-12 -6 -17 3 -5 8 -4 10 3 5 7 -4 12 -3 12 3 0 5 -4 13 -10 16 -5 3 -10 11
-10 18 0 6 7 1 16 -12 11 -15 13 -26 6 -33z m881 28 c8 5 8 2 0 -7 -7 -7 -14
-24 -14 -38 -1 -18 -3 -21 -6 -8 -4 14 -8 16 -19 6 -18 -15 -18 -5 3 34 9 18
18 26 20 19 3 -6 10 -9 16 -6z m42 -16 c4 -6 1 -9 -6 -8 -7 2 -13 -1 -14 -7 0
-5 -6 -19 -12 -30 -11 -18 -12 -18 -13 -2 0 39 30 71 45 47z m37 -41 c-3 -30
-17 -43 -37 -36 -14 6 -14 9 0 37 18 36 41 35 37 -1z m36 -31 c-6 -18 -13 -27
-16 -20 -2 7 -8 9 -14 6 -6 -4 -8 -1 -6 7 3 8 11 13 17 11 7 -1 10 2 6 8 -8
13 4 32 15 25 5 -3 4 -20 -2 -37z m55 16 c8 -8 -21 -64 -33 -64 -17 0 -20 18
-9 44 12 25 29 33 42 20z m-216 -30 c-6 -6 -47 9 -47 17 0 5 11 3 25 -3 14 -6
24 -13 22 -14z m283 -6 c0 -6 -6 -8 -14 -5 -11 4 -14 -1 -13 -21 2 -29 -22
-39 -31 -13 -3 10 0 12 11 8 11 -4 14 -2 10 9 -8 22 4 44 22 38 8 -3 15 -11
15 -16z m-165 -48 c8 -13 -5 -13 -25 0 -13 8 -13 10 2 10 9 0 20 -4 23 -10z
m-1894 -266 c17 -8 28 -21 26 -27 -3 -11 -74 -33 -142 -43 -29 -5 -30 -5 -7 9
13 7 32 28 42 45 22 36 37 39 81 16z m40 -71 c-8 -15 -10 -15 -11 -2 0 17 10
32 18 25 2 -3 -1 -13 -7 -23z m30 4 c-10 -9 -11 -8 -5 6 3 10 9 15 12 12 3 -3
0 -11 -7 -18z"/>
<path d="M1960 5765 c0 -17 5 -25 13 -22 6 2 12 12 12 22 0 10 -6 20 -12 23
-8 2 -13 -6 -13 -23z"/>
<path d="M1960 5685 c0 -16 6 -25 15 -25 9 0 15 9 15 25 0 16 -6 25 -15 25 -9
0 -15 -9 -15 -25z"/>
<path d="M2070 5720 c0 -11 5 -20 10 -20 6 0 10 9 10 20 0 11 -4 20 -10 20 -5
0 -10 -9 -10 -20z"/>
<path d="M2180 5765 c0 -17 5 -25 13 -22 6 2 12 12 12 22 0 10 -6 20 -12 23
-8 2 -13 -6 -13 -23z"/>
<path d="M2180 5685 c0 -16 6 -25 15 -25 9 0 15 9 15 25 0 16 -6 25 -15 25 -9
0 -15 -9 -15 -25z"/>
<path d="M2925 5490 c-3 -5 -1 -10 4 -10 6 0 11 5 11 10 0 6 -2 10 -4 10 -3 0
-8 -4 -11 -10z"/>
<path d="M375 6640 c-3 -5 1 -10 9 -10 9 0 16 5 16 10 0 6 -4 10 -9 10 -6 0
-13 -4 -16 -10z"/>
<path d="M2810 6620 c-13 -8 -12 -10 3 -10 9 0 17 5 17 10 0 12 -1 12 -20 0z"/>
<path d="M0 6500 c0 -105 1 -110 23 -115 48 -11 90 9 102 48 18 55 -3 126 -44
154 -19 13 -45 23 -57 23 -24 0 -24 -1 -24 -110z m65 14 c8 -4 22 -19 31 -35
13 -26 13 -30 -1 -35 -8 -3 -15 -12 -15 -19 0 -7 -6 -17 -13 -24 -11 -8 -17 1
-31 44 -21 68 -14 85 29 69z"/>
<path d="M3676 6515 c-22 -8 -52 -23 -67 -34 -15 -11 -39 -23 -53 -27 -14 -3
-29 -11 -33 -17 -4 -6 -1 -7 7 -2 9 6 11 4 6 -4 -5 -7 -14 -10 -22 -7 -18 7
-44 -3 -44 -16 0 -6 7 -4 17 3 12 10 17 11 20 2 2 -7 10 -10 18 -7 20 8 25 -9
9 -31 -8 -10 -14 -13 -14 -6 0 7 -8 11 -17 9 -12 -2 -17 -13 -18 -33 0 -41
-32 -48 -38 -8 -4 28 -4 28 -6 -3 0 -19 7 -42 19 -55 11 -14 19 -18 20 -11 0
10 8 12 28 8 17 -4 40 0 62 12 19 10 55 19 80 21 91 4 100 17 100 142 0 89 -1
90 -74 64z m3 -66 c-12 -24 -39 -25 -39 -1 0 27 21 44 37 31 9 -8 10 -16 2
-30z m-69 -4 c-7 -8 -17 -15 -22 -15 -6 0 -5 7 2 15 7 8 17 15 22 15 6 0 5 -7
-2 -15z"/>
<path d="M2689 6493 c-11 -2 -19 -19 -22 -46 -6 -41 -4 -43 60 -104 36 -35 70
-63 74 -63 5 0 7 11 3 25 -5 22 -3 25 22 25 l28 0 -27 28 c-15 15 -27 34 -27
42 0 7 -7 21 -16 31 -15 17 -15 19 0 35 14 14 19 14 39 2 12 -8 34 -19 50 -26
26 -11 27 -11 21 12 -5 20 -2 23 20 21 41 -5 30 12 -11 19 -42 6 -188 6 -214
-1z"/>
<path d="M3070 6491 c0 -7 -4 -9 -10 -6 -5 3 -10 1 -10 -4 0 -6 4 -11 9 -11
13 0 25 20 17 27 -3 4 -6 1 -6 -6z"/>
<path d="M310 6374 c0 -9 32 -33 44 -34 5 0 1 9 -9 20 -18 20 -35 26 -35 14z"/>
<path d="M100 6356 c0 -2 7 -7 16 -10 8 -3 12 -2 9 4 -6 10 -25 14 -25 6z"/>
<path d="M2660 6288 c0 -16 11 -33 30 -48 34 -26 39 -45 10 -37 -29 7 -25 -16
13 -92 30 -60 35 -65 67 -66 19 -1 45 -5 58 -9 34 -11 26 9 -20 49 -27 23 -38
39 -30 42 8 3 -5 27 -38 68 -27 34 -50 67 -50 72 0 6 -9 18 -20 28 -19 18 -20
17 -20 -7z"/>
<path d="M2900 6291 c0 -6 9 -15 20 -21 13 -7 20 -7 20 -1 0 6 -9 15 -20 21
-13 7 -20 7 -20 1z"/>
<path d="M350 6272 c0 -5 18 -17 40 -27 35 -16 38 -19 23 -30 -10 -8 -12 -14
-5 -19 6 -3 13 -2 17 4 3 5 11 10 18 10 6 0 4 -8 -6 -17 -14 -14 -21 -15 -35
-6 -14 8 -23 7 -43 -7 -13 -10 -20 -22 -16 -26 4 -4 13 -2 19 4 7 7 19 12 27
12 12 0 12 -3 3 -12 -23 -23 -12 -29 17 -9 19 14 41 20 67 18 29 -1 39 2 39
13 0 8 -8 14 -17 14 -10 -1 -16 1 -14 5 3 4 -10 16 -27 28 -41 28 -107 56
-107 45z"/>
<path d="M3410 6253 c0 -34 12 -63 26 -63 7 0 11 6 8 14 -3 7 3 17 13 20 16 7
16 9 -7 26 -31 24 -40 25 -40 3z"/>
<path d="M315 6241 c-16 -3 -29 -11 -28 -16 4 -18 29 -16 48 5 10 11 16 19 14
19 -2 -1 -17 -4 -34 -8z"/>
<path d="M589 6214 c12 -21 21 -44 21 -51 0 -7 7 -13 16 -13 13 0 15 -7 10
-31 -6 -29 -5 -31 20 -25 20 5 27 3 31 -14 3 -11 11 -20 17 -20 8 0 11 -11 8
-30 -3 -25 -1 -29 12 -24 9 3 16 10 16 15 0 5 4 9 10 9 5 0 7 -6 4 -13 -2 -7
3 -13 13 -13 10 -1 50 -4 88 -8 l70 -8 -62 31 c-94 45 -173 102 -237 171 -52
57 -56 59 -37 24z"/>
<path d="M354 6220 c-23 -9 -41 -30 -27 -30 4 0 22 9 38 20 31 21 26 25 -11
10z"/>
<path d="M2920 6210 c0 -13 11 -13 30 0 12 8 11 10 -7 10 -13 0 -23 -4 -23
-10z"/>
<path d="M3488 6213 c6 -2 18 -2 25 0 6 3 1 5 -13 5 -14 0 -19 -2 -12 -5z"/>
<path d="M3660 6212 c0 -4 -34 -7 -76 -8 -52 0 -78 -4 -84 -14 -10 -15 -2 -40
12 -40 13 0 70 -61 64 -68 -3 -2 -19 1 -37 7 -18 6 -39 11 -48 11 -13 0 -13
-2 -1 -13 13 -12 113 -39 226 -62 l31 -6 2 90 c1 89 0 91 -22 91 -13 0 -27 3
-31 7 -9 9 -36 13 -36 5z m-15 -142 c13 -6 15 -9 5 -9 -8 0 -22 4 -30 9 -18
12 -2 12 25 0z"/>
<path d="M286 6157 c3 -10 9 -15 12 -12 3 3 0 11 -7 18 -10 9 -11 8 -5 -6z"/>
<path d="M186 6153 c-4 -4 -36 -6 -72 -4 -38 2 -64 -1 -64 -7 0 -17 73 -58 78
-44 2 7 25 12 61 12 35 0 65 6 77 15 10 8 17 15 14 16 -3 0 -14 2 -25 3 -11 2
-29 6 -41 9 -11 4 -24 4 -28 0z"/>
<path d="M3276 6073 c-11 -11 -6 -23 9 -23 8 0 15 4 15 9 0 13 -16 22 -24 14z"/>
<path d="M2598 6053 c7 -3 16 -2 19 1 4 3 -2 6 -13 5 -11 0 -14 -3 -6 -6z"/>
<path d="M696 5937 c-3 -16 -6 -41 -6 -56 1 -24 2 -25 14 -8 13 17 15 16 22
-15 7 -33 7 -33 20 22 18 76 18 77 -15 82 -26 4 -30 1 -35 -25z"/>
<path d="M775 5928 c9 -50 15 -68 26 -68 5 0 10 -12 10 -27 1 -17 8 1 18 42
19 76 15 85 -32 85 -25 0 -27 -2 -22 -32z"/>
<path d="M2681 5951 c-18 -12 -2 -20 53 -27 36 -4 46 -2 46 9 0 21 -73 35 -99
18z"/>
<path d="M871 5873 l1 -78 13 70 c7 39 14 73 14 78 1 4 -6 7 -14 7 -12 0 -15
-15 -14 -77z"/>
<path d="M916 5928 c-3 -13 -5 -45 -5 -73 l1 -50 13 50 c16 61 18 95 6 95 -5
0 -11 -10 -15 -22z"/>
<path d="M950 5929 c0 -5 5 -7 10 -4 6 3 10 8 10 11 0 2 -4 4 -10 4 -5 0 -10
-5 -10 -11z"/>
<path d="M3295 5910 c3 -5 8 -10 11 -10 2 0 4 5 4 10 0 6 -5 10 -11 10 -5 0
-7 -4 -4 -10z"/>
<path d="M948 5855 c-10 -31 -31 -225 -25 -231 3 -3 8 16 12 43 3 26 11 71 17
98 11 54 8 127 -4 90z"/>
<path d="M57 5750 c-54 -16 -55 -20 -56 -174 l-2 -144 48 -7 c26 -3 57 -13 69
-20 54 -35 52 -125 -4 -125 -43 0 -112 -37 -112 -60 0 -12 5 -17 13 -14 8 3
19 -7 26 -23 12 -27 12 -27 -6 -10 -11 9 -23 17 -26 17 -4 0 -7 -84 -7 -186
l0 -187 133 6 c139 6 213 23 355 85 52 22 64 32 69 55 3 15 10 30 14 33 5 3 9
20 9 39 l0 33 -30 -29 c-25 -26 -35 -29 -64 -24 -27 6 -36 3 -49 -15 -13 -19
-17 -20 -36 -8 -22 14 -27 48 -12 77 6 10 37 26 69 35 55 17 63 17 91 3 17 -8
33 -12 35 -9 2 4 7 66 11 137 4 92 3 126 -4 115 -13 -18 -13 -18 -12 140 1 63
-2 120 -6 125 -5 6 -33 10 -63 11 -30 0 -74 2 -96 4 -31 2 -56 -4 -94 -24 -42
-22 -55 -25 -61 -14 -16 24 -28 82 -25 124 l3 41 -76 0 c-42 1 -89 -3 -104 -7z
m6 -55 c8 -19 -13 -31 -24 -14 -13 20 -11 29 5 29 8 0 16 -7 19 -15z m305
-146 c-6 -4 -18 -4 -28 -2 -17 5 -17 6 -2 22 15 15 18 15 29 1 7 -10 8 -17 1
-21z m-70 10 c-11 -17 -10 -22 7 -36 16 -13 17 -15 3 -10 -13 5 -18 1 -18 -13
0 -26 -17 -34 -23 -10 -3 11 -1 20 4 20 5 0 9 13 9 28 0 29 7 42 22 42 4 0 3
-9 -4 -21z m156 -174 c3 -8 1 -15 -5 -15 -6 0 -7 -4 -4 -10 3 -5 0 -10 -8 -10
-21 0 -60 -37 -52 -50 6 -9 2 -9 -14 0 -12 6 -19 15 -16 19 3 7 -49 8 -62 2
-2 -1 -6 -1 -9 0 -3 0 -12 -8 -21 -18 -8 -10 -11 -11 -7 -3 7 13 5 13 -9 1
-30 -24 -20 9 11 35 65 57 181 86 196 49z m52 -30 c10 -8 14 -15 7 -15 -6 0
-15 5 -18 10 -5 8 -11 7 -21 -1 -14 -11 -20 1 -7 14 10 10 17 9 39 -8z m-382
-103 c6 -10 -29 -42 -45 -42 -5 0 -7 6 -3 13 6 9 4 9 -8 -1 -13 -10 -17 -10
-22 3 -3 9 -2 13 4 10 6 -3 13 1 16 9 6 17 49 22 58 8z m65 -21 c11 -7 10 -11
-7 -20 -27 -14 -49 -14 -58 2 -4 6 -4 9 1 5 4 -4 14 -1 22 7 17 17 23 18 42 6z"/>
<path d="M346 5367 c3 -10 9 -15 12 -12 3 3 0 11 -7 18 -10 9 -11 8 -5 -6z"/>
<path d="M3030 5736 c0 -9 7 -16 16 -16 17 0 14 22 -4 28 -7 2 -12 -3 -12 -12z"/>
<path d="M975 5600 c-3 -5 -1 -10 4 -10 6 0 11 5 11 10 0 6 -2 10 -4 10 -3 0
-8 -4 -11 -10z"/>
<path d="M3709 5440 c-11 -6 -14 -19 -11 -40 5 -33 22 -41 22 -10 0 11 5 20
10 20 6 0 10 9 10 20 0 22 -7 24 -31 10z"/>
<path d="M3630 5390 c-13 -8 -13 -10 2 -10 9 0 20 5 23 10 8 13 -5 13 -25 0z"/>
<path d="M1045 5380 c-3 -5 1 -10 10 -10 9 0 13 5 10 10 -3 6 -8 10 -10 10 -2
0 -7 -4 -10 -10z"/>
<path d="M3693 5334 c-15 -14 -23 -23 -16 -19 7 3 20 -10 32 -34 30 -57 41
-60 41 -9 0 51 -9 88 -21 88 -4 0 -21 -12 -36 -26z"/>
<path d="M1240 5220 c0 -5 7 -10 15 -10 8 0 15 5 15 10 0 6 -7 10 -15 10 -8 0
-15 -4 -15 -10z"/>
<path d="M1229 5183 c0 -5 -3 -20 -5 -35 -3 -21 -1 -28 11 -28 8 0 15 6 15 13
0 6 3 22 6 35 5 16 2 22 -10 22 -9 0 -16 -3 -17 -7z"/>
<path d="M3528 5113 c7 -3 16 -2 19 1 4 3 -2 6 -13 5 -11 0 -14 -3 -6 -6z"/>
<path d="M3502 5084 c-11 -12 -9 -14 7 -14 23 0 36 16 18 23 -6 2 -18 -2 -25
-9z"/>
<path d="M3727 5040 c-18 -29 -18 -30 2 -30 17 0 21 6 21 30 0 17 -1 30 -3 30
-1 0 -11 -13 -20 -30z"/>
<path d="M3480 5050 c-12 -8 -11 -10 8 -10 12 0 22 5 22 10 0 13 -11 13 -30 0z"/>
<path d="M3460 5020 c12 -8 12 -10 1 -10 -8 0 -12 -2 -9 -5 3 -3 13 -3 22 1
19 7 11 24 -12 24 -15 0 -15 -2 -2 -10z"/>
<path d="M3360 4970 c0 -11 2 -20 4 -20 2 0 6 9 9 20 3 11 1 20 -4 20 -5 0 -9
-9 -9 -20z"/>
<path d="M3420 4965 c-10 -12 -10 -15 4 -15 9 0 16 7 16 15 0 8 -2 15 -4 15
-2 0 -9 -7 -16 -15z"/>
<path d="M3617 4923 c-13 -12 -7 -43 8 -43 8 0 15 6 15 13 0 18 -15 38 -23 30z"/>
<path d="M3657 4923 c-3 -5 -1 -17 4 -28 7 -17 8 -17 8 8 1 27 -4 34 -12 20z"/>
<path d="M3328 4881 c-5 -18 -8 -45 -8 -60 1 -23 2 -24 11 -8 6 9 9 36 7 60
l-3 42 -7 -34z"/>
<path d="M3730 4860 c0 -5 5 -10 10 -10 6 0 10 5 10 10 0 6 -4 10 -10 10 -5 0
-10 -4 -10 -10z"/>
<path d="M3088 4853 c29 -2 74 -2 100 0 26 2 2 3 -53 3 -55 0 -76 -1 -47 -3z"/>
<path d="M510 4836 c-74 -40 -259 -82 -422 -96 -74 -6 -49 -8 127 -7 173 1
223 4 234 15 12 12 12 13 0 12 -8 -1 -20 -2 -28 -1 -21 2 34 41 65 47 l26 5
-22 -36 c-12 -19 -18 -35 -15 -35 19 0 70 58 73 83 4 30 -2 32 -38 13z"/>
<path d="M3682 4825 c7 -16 17 -24 26 -20 7 3 20 5 28 5 25 0 15 16 -19 28
-46 16 -48 16 -35 -13z"/>
<path d="M787 4813 c-9 -2 -14 -9 -10 -15 4 -7 1 -9 -9 -6 -9 4 -15 0 -15 -8
0 -9 6 -13 14 -9 8 3 21 5 29 5 8 0 11 6 7 17 -5 12 -3 14 8 7 8 -5 28 -9 44
-10 l30 -1 -30 13 c-32 14 -39 15 -68 7z"/>
<path d="M532 4759 c-16 -25 -15 -29 4 -29 10 0 14 6 11 14 -3 8 -1 16 6 19 7
2 7 6 1 10 -5 3 -15 -3 -22 -14z"/>
<path d="M3187 4548 c-24 -19 -36 -59 -25 -88 12 -33 118 -140 138 -140 20 0
136 118 144 147 8 26 -16 78 -39 87 -30 11 -68 6 -87 -11 -17 -15 -19 -15 -36
0 -22 20 -71 22 -95 5z"/>
<path d="M330 4450 c0 -33 4 -60 10 -60 6 0 10 16 10 35 0 24 5 35 15 35 10 0
15 -11 15 -35 0 -19 5 -35 11 -35 6 0 9 16 7 38 -2 30 -7 38 -25 40 -15 2 -23
10 -23 23 0 10 -4 19 -10 19 -6 0 -10 -27 -10 -60z"/>
<path d="M730 4451 l0 -59 33 1 c30 2 32 5 32 37 0 29 -4 36 -22 38 -15 2 -23
10 -23 23 0 10 -4 19 -10 19 -6 0 -10 -26 -10 -59z m54 -6 c7 -20 -4 -47 -18
-42 -17 6 -20 57 -3 57 8 0 17 -7 21 -15z"/>
<path d="M907 4491 c-4 -17 -3 -21 5 -13 5 5 8 16 6 23 -3 8 -7 3 -11 -10z"/>
<path d="M243 4493 c13 -3 17 -15 17 -54 0 -27 5 -49 10 -49 6 0 10 22 10 49
0 39 4 51 18 54 9 3 -3 5 -28 5 -25 0 -37 -2 -27 -5z"/>
<path d="M550 4445 c0 -30 5 -55 10 -55 6 0 10 9 10 20 0 26 14 25 33 -2 22
-33 31 -16 10 20 -17 29 -17 31 1 51 12 13 15 21 7 21 -7 0 -21 -10 -32 -22
l-18 -23 -1 23 c0 12 -4 22 -10 22 -5 0 -10 -25 -10 -55z"/>
<path d="M1050 4445 c0 -53 1 -55 28 -55 49 0 55 14 43 103 -1 4 -17 7 -36 7
l-35 0 0 -55z m55 25 c0 -8 -8 -16 -17 -18 -13 -2 -18 3 -18 18 0 15 5 20 18
18 9 -2 17 -10 17 -18z m5 -45 c0 -8 -9 -15 -20 -15 -11 0 -20 7 -20 15 0 8 9
15 20 15 11 0 20 -7 20 -15z"/>
<path d="M427 4463 c-4 -3 -7 -19 -7 -34 0 -30 33 -50 52 -31 7 7 4 10 -7 9
-10 -1 -20 4 -22 11 -3 7 5 12 22 12 21 0 26 4 21 16 -3 9 -6 18 -6 20 0 7
-46 5 -53 -3z m43 -13 c0 -5 -7 -10 -15 -10 -8 0 -15 5 -15 10 0 6 7 10 15 10
8 0 15 -4 15 -10z"/>
<path d="M650 4455 c-10 -12 -10 -21 -2 -40 12 -26 45 -34 58 -13 4 6 3 8 -4
5 -12 -8 -42 2 -42 14 0 5 12 9 26 9 19 0 25 5 22 18 -4 22 -41 27 -58 7z m45
-5 c3 -5 -3 -10 -15 -10 -12 0 -18 5 -15 10 3 6 10 10 15 10 5 0 12 -4 15 -10z"/>
<path d="M825 4460 c-4 -7 2 -9 19 -4 16 4 26 2 26 -4 0 -6 -10 -12 -22 -14
-15 -2 -23 -10 -23 -23 0 -16 7 -20 33 -22 27 -1 32 2 32 22 0 13 -3 30 -6 39
-7 18 -49 22 -59 6z m43 -42 c-6 -18 -28 -21 -28 -4 0 9 7 16 16 16 9 0 14 -5
12 -12z"/>
<path d="M930 4451 c0 -10 9 -21 20 -24 11 -3 20 -10 20 -17 0 -7 -8 -9 -22
-5 -18 6 -20 5 -12 -5 15 -15 54 -4 54 15 0 8 -11 17 -25 21 -14 3 -25 11 -25
16 0 6 11 7 26 4 17 -5 23 -3 19 4 -3 5 -17 10 -31 10 -17 0 -24 -6 -24 -19z"/>
<path d="M1155 4460 c-4 -7 2 -9 19 -4 16 4 26 2 26 -4 0 -6 -10 -12 -22 -14
-15 -2 -23 -10 -23 -23 0 -15 7 -20 30 -22 29 -1 30 0 27 38 -4 33 -8 39 -27
39 -13 0 -27 -5 -30 -10z m43 -42 c-6 -18 -28 -21 -28 -4 0 9 7 16 16 16 9 0
14 -5 12 -12z"/>
<path d="M1241 4428 c2 -34 3 -37 6 -13 2 17 12 36 21 43 14 11 13 12 -6 12
-19 0 -22 -5 -21 -42z"/>
<path d="M242 4203 c12 -3 18 -18 21 -51 l3 -47 2 47 c2 35 6 48 20 51 9 3 -1
5 -23 5 -22 0 -32 -2 -23 -5z"/>
<path d="M608 4193 c-2 -10 -1 -34 3 -53 6 -31 6 -30 8 18 1 52 -3 67 -11 35z"/>
<path d="M1320 4201 c14 -4 25 -13 25 -21 0 -8 -11 -17 -25 -21 -22 -6 -23 -7
-4 -8 12 -1 27 6 34 14 16 20 -3 45 -34 44 -19 -1 -18 -2 4 -8z"/>
<path d="M1383 4194 c-3 -8 -1 -20 5 -26 8 -8 9 -4 5 12 -5 20 -3 22 15 18 12
-4 20 -2 16 3 -9 14 -34 10 -41 -7z"/>
<path d="M1610 4201 c0 -5 9 -7 20 -4 11 3 20 7 20 9 0 2 -9 4 -20 4 -11 0
-20 -4 -20 -9z"/>
<path d="M1685 4199 c-4 -6 -4 -13 -1 -16 3 -4 6 -1 6 6 0 8 8 11 20 8 11 -3
18 -1 14 4 -7 12 -31 11 -39 -2z"/>
<path d="M911 4158 c-1 -27 3 -48 7 -48 4 0 6 17 4 38 -5 58 -10 62 -11 10z"/>
<path d="M349 4142 c5 -34 6 -35 9 -8 2 16 0 32 -5 37 -5 5 -7 -7 -4 -29z"/>
<path d="M389 4168 c9 -13 10 -22 1 -40 -10 -21 -10 -22 4 -5 14 18 15 18 25
0 6 -10 11 -13 11 -6 0 6 -5 15 -10 18 -7 4 -6 14 2 28 10 19 9 20 -4 10 -11
-10 -17 -10 -28 0 -12 10 -12 9 -1 -5z"/>
<path d="M565 4169 c-11 -17 4 -59 22 -59 15 0 15 2 -2 14 -12 8 -16 20 -12
35 6 23 2 27 -8 10z"/>
<path d="M643 4164 c-8 -22 9 -48 33 -51 14 -2 12 0 -5 7 -18 8 -22 16 -19 35
6 28 1 33 -9 9z"/>
<path d="M754 4166 c-11 -28 1 -51 26 -53 24 -1 24 -1 1 4 -19 4 -22 10 -19
34 5 31 1 38 -8 15z"/>
<path d="M868 4145 c2 -19 6 -35 8 -35 2 0 4 16 4 35 0 19 -4 35 -8 35 -4 0
-6 -16 -4 -35z"/>
<path d="M950 4145 c0 -19 2 -35 4 -35 2 0 6 16 8 35 2 19 0 35 -4 35 -4 0 -8
-16 -8 -35z"/>
<path d="M1036 4167 c3 -10 9 -15 12 -12 3 3 0 11 -7 18 -10 9 -11 8 -5 -6z"/>
<path d="M1188 4145 c2 -19 6 -35 8 -35 2 0 4 16 4 35 0 19 -4 35 -8 35 -4 0
-6 -16 -4 -35z"/>
<path d="M1531 4165 c1 -19 18 -51 18 -35 0 8 -4 22 -9 30 -5 8 -9 11 -9 5z"/>
<path d="M1647 4149 c4 -13 8 -18 11 -10 2 7 -1 18 -6 23 -8 8 -9 4 -5 -13z"/>
<path d="M991 4149 c-1 -21 24 -43 41 -36 8 3 6 6 -5 6 -10 1 -22 11 -27 24
-6 15 -9 17 -9 6z"/>
<path d="M455 4140 c-10 -16 4 -30 30 -28 13 1 22 5 19 9 -2 4 -14 5 -26 1
-17 -4 -20 -2 -15 11 7 19 2 23 -8 7z"/>
<path d="M1070 4132 c0 -18 29 -27 43 -13 9 9 8 11 -7 5 -11 -4 -21 -2 -27 7
-6 10 -9 11 -9 1z"/>
<path d="M1424 4129 c-3 -6 -15 -9 -25 -6 -23 6 -24 3 -6 -12 11 -8 18 -6 32
9 10 11 15 20 12 20 -3 0 -9 -5 -13 -11z"/>
<path d="M1680 4132 c0 -18 29 -27 43 -13 9 9 8 11 -7 5 -11 -4 -21 -2 -27 7
-6 10 -9 11 -9 1z"/>
<path d="M310 4120 c0 -6 7 -10 15 -10 8 0 15 2 15 4 0 2 -7 6 -15 10 -8 3
-15 1 -15 -4z"/>
<path d="M1150 4120 c0 -6 7 -10 15 -10 8 0 15 2 15 4 0 2 -7 6 -15 10 -8 3
-15 1 -15 -4z"/>
<path d="M1498 4118 c5 -5 16 -8 23 -6 8 3 3 7 -10 11 -17 4 -21 3 -13 -5z"/>
<path d="M1608 4118 c5 -5 16 -8 23 -6 8 3 3 7 -10 11 -17 4 -21 3 -13 -5z"/>
<path d="M716 3814 c-4 -9 -4 -19 -1 -22 3 -3 5 0 5 7 0 7 4 9 10 6 6 -3 7 1
4 9 -8 20 -10 20 -18 0z"/>
<path d="M910 3780 c0 -46 2 -50 24 -50 31 0 53 25 37 43 -6 8 -7 18 -3 22 4
5 1 5 -6 1 -10 -6 -10 -11 -2 -21 15 -18 5 -35 -20 -35 -15 0 -19 7 -18 41 0
37 2 40 24 36 13 -2 21 0 18 4 -3 5 -16 9 -30 9 -22 0 -24 -4 -24 -50z"/>
<path d="M1815 3820 c-3 -6 1 -7 10 -4 8 4 23 0 33 -7 15 -13 16 -12 3 4 -15
19 -36 22 -46 7z"/>
<path d="M1923 3780 c0 -30 2 -43 4 -27 2 15 2 39 0 55 -2 15 -4 2 -4 -28z"/>
<path d="M2193 3780 c0 -30 2 -43 4 -27 2 15 2 39 0 55 -2 15 -4 2 -4 -28z"/>
<path d="M2298 3823 c6 -2 18 -2 25 0 6 3 1 5 -13 5 -14 0 -19 -2 -12 -5z"/>
<path d="M2366 3821 c-3 -5 2 -7 13 -4 13 3 21 -1 25 -14 4 -16 5 -15 3 2 -2
21 -31 33 -41 16z"/>
<path d="M2446 3821 c-3 -5 3 -7 14 -4 18 5 20 0 20 -37 0 -38 -2 -42 -21 -37
-16 4 -19 3 -11 -5 6 -6 18 -8 27 -4 23 8 17 89 -7 94 -9 2 -19 -1 -22 -7z"/>
<path d="M2621 3778 c1 -29 4 -43 6 -31 2 13 13 24 26 26 l22 4 -22 2 c-16 1
-23 7 -23 21 0 28 38 26 50 -2 9 -23 9 -23 9 -2 1 22 -16 34 -50 34 -16 0 -19
-7 -18 -52z"/>
<path d="M3220 3826 c0 -2 9 -6 20 -9 11 -3 18 -1 14 4 -5 9 -34 13 -34 5z"/>
<path d="M3203 3806 c1 -11 9 -21 17 -23 10 -3 11 -2 4 4 -6 4 -14 15 -17 23
-5 11 -6 9 -4 -4z"/>
<path d="M1080 3765 c0 -19 2 -35 4 -35 2 0 6 16 8 35 2 19 0 35 -4 35 -4 0
-8 -16 -8 -35z"/>
<path d="M1173 3755 c0 -27 2 -38 4 -22 2 15 2 37 0 50 -2 12 -4 0 -4 -28z"/>
<path d="M1203 3784 c-8 -22 9 -48 33 -51 14 -2 12 0 -5 7 -18 8 -22 16 -19
35 6 28 1 33 -9 9z"/>
<path d="M1246 3787 c3 -10 9 -15 12 -12 3 3 0 11 -7 18 -10 9 -11 8 -5 -6z"/>
<path d="M1281 3784 c0 -11 3 -14 6 -6 3 7 2 16 -1 19 -3 4 -6 -2 -5 -13z"/>
<path d="M1503 3765 c0 -22 2 -30 4 -17 2 12 2 30 0 40 -3 9 -5 -1 -4 -23z"/>
<path d="M1536 3785 c-9 -26 -7 -32 5 -12 6 10 9 21 6 23 -2 3 -7 -2 -11 -11z"/>
<path d="M1578 3763 c5 -59 10 -63 11 -10 1 26 -3 47 -7 47 -4 0 -6 -17 -4
-37z"/>
<path d="M1735 3772 c0 -18 -6 -28 -19 -30 -15 -3 -17 0 -12 14 6 15 4 16 -5
7 -16 -16 -2 -33 26 -31 20 2 25 8 25 30 0 15 -4 29 -8 32 -4 2 -8 -7 -7 -22z"/>
<path d="M1893 3765 c0 -22 2 -30 4 -17 2 12 2 30 0 40 -3 9 -5 -1 -4 -23z"/>
<path d="M2280 3790 c0 -5 5 -10 11 -10 5 0 7 5 4 10 -3 6 -8 10 -11 10 -2 0
-4 -4 -4 -10z"/>
<path d="M2432 3780 c0 -14 2 -19 5 -12 2 6 2 18 0 25 -3 6 -5 1 -5 -13z"/>
<path d="M2748 3765 c2 -19 6 -35 8 -35 2 0 4 16 4 35 0 19 -4 35 -8 35 -4 0
-6 -16 -4 -35z"/>
<path d="M2873 3765 c0 -22 2 -30 4 -17 2 12 2 30 0 40 -3 9 -5 -1 -4 -23z"/>
<path d="M2941 3784 c0 -11 3 -14 6 -6 3 7 2 16 -1 19 -3 4 -6 -2 -5 -13z"/>
<path d="M3014 3785 c-3 -8 -4 -20 -2 -27 3 -7 7 -1 10 15 6 29 1 36 -8 12z"/>
<path d="M3059 3768 c4 -28 6 -29 9 -9 2 13 0 27 -5 32 -6 6 -7 -3 -4 -23z"/>
<path d="M3408 3775 c5 -29 -24 -47 -39 -24 -6 10 -9 11 -9 1 0 -19 28 -26 45
-12 16 14 20 46 6 54 -4 3 -6 -6 -3 -19z"/>
<path d="M741 3780 c0 -8 4 -22 9 -30 12 -18 12 -2 0 25 -6 13 -9 15 -9 5z"/>
<path d="M696 3765 c-9 -26 -7 -32 5 -12 6 10 9 21 6 23 -2 3 -7 -2 -11 -11z"/>
<path d="M1047 3761 c-4 -18 -11 -22 -26 -18 -12 3 -19 1 -15 -4 14 -23 61 6
52 33 -3 7 -7 2 -11 -11z"/>
<path d="M1121 3769 c-1 -19 26 -45 36 -35 3 3 1 6 -6 6 -6 0 -16 10 -21 23
-6 15 -9 17 -9 6z"/>
<path d="M1613 3766 c3 -26 33 -44 48 -29 9 9 7 11 -9 6 -16 -4 -24 1 -32 18
-7 17 -9 19 -7 5z"/>
<path d="M1846 3773 c6 -4 14 -15 17 -23 5 -11 6 -9 4 4 -1 11 -9 21 -17 23
-10 3 -11 2 -4 -4z"/>
<path d="M1316 3756 c6 -16 4 -18 -14 -14 -12 4 -20 2 -16 -3 7 -12 31 -11 40
2 3 6 1 16 -5 22 -9 9 -10 7 -5 -7z"/>
<path d="M1463 3756 c1 -11 9 -21 17 -23 10 -3 11 -2 4 4 -6 4 -14 15 -17 23
-5 11 -6 9 -4 -4z"/>
<path d="M2025 3760 c-10 -16 4 -30 30 -28 13 1 22 5 19 9 -2 4 -14 5 -26 1
-17 -4 -20 -2 -15 11 7 19 2 23 -8 7z"/>
<path d="M2326 3754 c-4 -10 -13 -14 -26 -11 -11 3 -18 1 -14 -4 3 -5 11 -9
18 -9 15 0 41 28 34 36 -3 3 -8 -3 -12 -12z"/>
<path d="M2833 3756 c1 -11 9 -21 17 -23 10 -3 11 -2 4 4 -6 4 -14 15 -17 23
-5 11 -6 9 -4 -4z"/>
<path d="M2976 3756 c6 -16 4 -18 -14 -14 -12 4 -20 2 -16 -3 7 -12 31 -11 40
2 3 6 1 16 -5 22 -9 9 -10 7 -5 -7z"/>
<path d="M3285 3760 c-3 -5 -3 -14 0 -20 7 -11 55 -9 55 2 0 5 -12 5 -27 2
-22 -6 -25 -4 -20 10 7 18 2 22 -8 6z"/>
<path d="M790 3751 c0 -5 5 -13 10 -16 6 -3 10 -2 10 4 0 5 -4 13 -10 16 -5 3
-10 2 -10 -4z"/>
<path d="M1812 3744 c9 -9 21 -15 27 -13 6 2 -2 10 -17 17 -25 11 -25 11 -10
-4z"/>
<path d="M1975 3750 c-3 -5 -1 -10 4 -10 6 0 11 5 11 10 0 6 -2 10 -4 10 -3 0
-8 -4 -11 -10z"/>
<path d="M2400 3751 c0 -8 -8 -11 -20 -8 -11 3 -18 1 -14 -4 3 -5 11 -9 19 -9
16 0 30 18 21 27 -3 4 -6 1 -6 -6z"/>
<path d="M1390 3739 c0 -5 11 -9 25 -9 14 0 25 2 25 4 0 2 -11 6 -25 8 -14 3
-25 1 -25 -3z"/>
<path d="M1547 3739 c7 -7 15 -10 18 -7 3 3 -2 9 -12 12 -14 6 -15 5 -6 -5z"/>
<path d="M2710 3740 c0 -6 7 -10 15 -10 8 0 15 2 15 4 0 2 -7 6 -15 10 -8 3
-15 1 -15 -4z"/>
<path d="M3207 3738 c2 -5 13 -8 23 -8 10 0 21 3 23 8 3 4 -8 7 -23 7 -15 0
-26 -3 -23 -7z"/>
<path d="M691 3618 c1 -29 4 -43 6 -31 3 15 13 23 31 25 20 2 27 9 28 26 1 18
1 19 -3 2 -6 -27 -53 -28 -53 -1 0 12 8 21 23 24 19 4 18 4 -5 6 -27 1 -28 0
-27 -51z"/>
<path d="M933 3620 c0 -30 2 -43 4 -27 2 15 2 39 0 55 -2 15 -4 2 -4 -28z"/>
<path d="M1163 3659 c-13 -13 -6 -39 9 -39 6 0 5 6 -2 15 -17 21 14 32 38 14
15 -13 16 -12 3 4 -16 20 -32 22 -48 6z"/>
<path d="M1241 3618 c1 -29 4 -43 6 -30 3 13 12 22 22 22 10 0 24 7 31 15 17
20 -3 45 -36 45 -22 0 -24 -4 -23 -52z m54 22 c0 -8 -10 -16 -22 -18 -18 -3
-23 2 -23 18 0 16 5 21 23 18 12 -2 22 -10 22 -18z"/>
<path d="M818 3605 c2 -19 6 -35 8 -35 2 0 4 16 4 35 0 19 -4 35 -8 35 -4 0
-6 -16 -4 -35z"/>
<path d="M903 3605 c0 -22 2 -30 4 -17 2 12 2 30 0 40 -3 9 -5 -1 -4 -23z"/>
<path d="M966 3625 c-9 -26 -7 -32 5 -12 6 10 9 21 6 23 -2 3 -7 -2 -11 -11z"/>
<path d="M1012 3620 c7 -10 14 -18 15 -16 6 6 -9 36 -18 36 -5 0 -4 -9 3 -20z"/>
<path d="M1196 3613 c6 -4 14 -15 17 -23 5 -11 6 -9 4 4 -1 11 -9 21 -17 23
-10 3 -11 2 -4 -4z"/>
<path d="M1162 3584 c9 -9 21 -15 27 -13 6 2 -2 10 -17 17 -25 11 -25 11 -10
-4z"/>
<path d="M787 3579 c7 -7 15 -10 18 -7 3 3 -2 9 -12 12 -14 6 -15 5 -6 -5z"/>
<path d="M860 3580 c0 -6 7 -10 15 -10 8 0 15 2 15 4 0 2 -7 6 -15 10 -8 3
-15 1 -15 -4z"/>
<path d="M977 3578 c2 -5 10 -8 18 -8 8 0 16 3 18 8 3 4 -5 7 -18 7 -13 0 -21
-3 -18 -7z"/>
<path d="M384 3182 c-21 -14 -29 -42 -26 -86 5 -57 22 -61 22 -6 0 23 5 40 11
40 8 0 8 4 0 14 -10 11 -9 16 5 24 9 5 12 12 7 15 -5 3 -14 3 -19 -1z"/>
<path d="M247 3162 c-36 -39 -10 -112 39 -112 30 0 44 20 44 61 0 61 -48 90
-83 51z m58 -47 c0 -36 -3 -40 -25 -40 -27 0 -36 20 -26 61 5 19 12 25 29 22
18 -3 22 -9 22 -43z"/>
<path d="M582 3150 c-7 -11 -8 -20 -3 -20 6 0 11 -17 13 -37 5 -56 24 -52 21
4 -1 27 -2 54 -2 61 -1 18 -15 15 -29 -8z"/>
<path d="M442 3143 c-42 -15 -32 -93 12 -93 14 0 28 5 32 12 5 7 2 9 -8 5 -9
-3 -24 1 -35 8 -16 13 -15 14 20 15 40 0 42 2 27 29 -11 21 -29 30 -48 24z
m33 -23 c3 -5 -3 -10 -14 -10 -12 0 -21 5 -21 10 0 6 6 10 14 10 8 0 18 -4 21
-10z"/>
<path d="M533 3142 c-20 -3 -23 -9 -23 -48 0 -24 5 -44 10 -44 6 0 10 13 10
29 0 16 7 37 16 46 19 19 17 22 -13 17z"/>
<path d="M654 3135 c-18 -15 -18 -15 7 -9 15 3 30 1 33 -5 4 -7 -1 -11 -12
-11 -25 0 -46 -25 -39 -45 4 -9 19 -14 42 -13 33 1 35 3 35 34 0 30 -21 64
-39 64 -4 0 -16 -7 -27 -15z m35 -61 c-9 -11 -15 -12 -23 -4 -8 8 -7 13 4 20
20 12 33 1 19 -16z"/>
<path d="M752 3138 c-19 -19 -14 -37 13 -44 25 -6 31 -15 18 -27 -3 -4 -12 -2
-20 5 -16 13 -31 2 -16 -13 16 -16 57 -7 61 13 2 11 -6 22 -22 29 -34 16 -33
33 2 25 26 -6 26 -6 8 9 -24 18 -29 18 -44 3z"/>
<path d="M232 2698 c-7 -7 -12 -34 -12 -61 0 -44 2 -48 23 -45 28 3 39 -15 12
-20 -11 -2 -24 -9 -30 -14 -7 -8 -6 -9 3 -4 8 5 12 0 12 -13 0 -12 -4 -21 -10
-21 -5 0 -10 -7 -10 -16 0 -14 2 -14 22 0 13 9 31 13 45 10 22 -6 87 17 98 35
3 5 14 7 24 4 13 -3 28 6 48 27 42 47 193 118 193 90 0 -15 27 -12 44 6 10 9
16 11 16 4 0 -7 6 -5 16 4 17 18 24 20 24 9 0 -5 -16 -19 -35 -31 -27 -19 -44
-23 -84 -20 -30 2 -50 -1 -50 -7 0 -5 -10 -13 -23 -17 -13 -4 1 -5 30 -2 56 5
58 4 41 -28 -10 -18 -9 -20 5 -15 8 3 18 2 21 -3 15 -24 95 -3 95 25 0 7 5 17
12 21 7 5 9 0 6 -14 -3 -12 -2 -22 4 -24 5 -2 6 -12 2 -22 -7 -18 -8 -18 -20
-1 -12 17 -14 16 -24 -9 -8 -22 -14 -25 -35 -20 -15 4 -25 2 -25 -5 0 -6 -12
-18 -26 -28 -20 -13 -30 -14 -44 -5 -16 10 -19 7 -25 -18 -5 -21 -13 -30 -28
-32 -12 0 -29 -2 -37 -3 -8 -1 -21 4 -29 9 -11 8 -13 8 -7 -1 6 -12 -4 -17
-26 -14 -4 0 -27 -20 -52 -44 -49 -50 -61 -55 -53 -24 5 19 2 21 -26 16 -18
-2 -42 -1 -54 4 -18 7 -23 5 -24 -9 -3 -34 3 -53 19 -70 7 -8 11 -17 8 -20 -3
-2 -14 6 -25 19 l-20 24 -1 -37 c0 -36 0 -36 30 -28 21 6 28 5 24 -2 -5 -7 0
-9 14 -6 12 4 25 1 29 -4 3 -6 1 -8 -5 -4 -6 3 -13 2 -16 -3 -5 -8 45 -23 53
-16 1 2 -9 20 -24 39 l-27 36 31 0 c17 0 31 -4 31 -10 0 -5 6 -10 13 -10 7 0
17 -8 24 -19 8 -13 19 -17 37 -14 26 5 35 18 16 25 -6 2 -12 16 -13 33 -2 25
2 29 23 30 21 0 30 -11 58 -68 19 -38 31 -71 28 -74 -6 -6 -123 16 -145 27
-22 11 -72 -41 -69 -73 3 -29 16 -35 36 -15 9 9 12 9 12 -3 0 -25 129 -15 152
11 19 24 38 26 38 5 0 -8 -6 -14 -12 -13 -7 2 -14 -7 -16 -19 -2 -13 1 -23 7
-23 6 0 11 -7 11 -15 0 -12 19 -15 110 -15 l110 0 0 30 c0 36 -31 59 -90 67
l-40 6 0 -47 c0 -25 -4 -46 -10 -46 -5 0 -10 10 -10 23 0 44 -12 65 -43 76
l-32 11 37 -4 c21 -3 40 0 43 5 4 5 -1 9 -9 9 -9 0 -16 8 -16 17 0 21 -39 103
-58 122 -12 12 -10 16 14 29 34 18 65 21 82 9 8 -6 12 -5 12 3 0 8 9 11 25 8
16 -3 25 -1 25 7 0 11 29 30 35 23 2 -2 10 -21 19 -43 13 -30 19 -36 26 -25 5
9 5 17 -1 21 -13 8 -17 57 -5 61 5 2 15 -17 21 -42 27 -104 26 -100 10 -94
-26 10 -2 -39 26 -53 17 -9 19 -13 7 -13 -9 0 -18 -5 -20 -12 -5 -13 21 -48
34 -48 5 0 8 48 7 108 0 59 -4 98 -8 88 -7 -18 -8 -18 -14 -2 -10 26 -9 36 6
34 22 -5 20 50 -2 64 -27 16 -27 31 -1 23 18 -6 19 -1 19 86 -1 81 -4 95 -23
111 l-21 19 23 -11 c24 -12 30 -2 10 18 -17 17 -609 17 -626 0z"/>
<path d="M1070 2631 c0 -28 5 -51 10 -51 6 0 10 9 10 19 0 13 8 21 23 23 16 2
22 10 22 28 0 21 -5 26 -32 28 l-33 3 0 -50z m49 30 c16 -10 6 -31 -15 -31 -8
0 -14 9 -14 20 0 22 7 25 29 11z"/>
<path d="M1464 2672 c-35 -24 -20 -92 20 -92 25 0 43 16 31 28 -3 3 -10 0 -15
-7 -14 -23 -40 -4 -40 29 0 33 26 52 40 29 5 -7 12 -10 15 -7 19 19 -26 37
-51 20z"/>
<path d="M1610 2630 c0 -27 5 -50 10 -50 6 0 10 23 10 50 0 28 -4 50 -10 50
-5 0 -10 -22 -10 -50z"/>
<path d="M1720 2632 c0 -47 1 -49 30 -50 24 0 31 4 36 23 7 30 -2 45 -27 45
-10 0 -19 7 -19 15 0 8 -4 15 -10 15 -5 0 -10 -22 -10 -48z m50 -18 c0 -31
-23 -28 -28 4 -2 15 2 22 12 22 11 0 16 -9 16 -26z"/>
<path d="M3211 2666 c-10 -12 -9 -18 8 -33 27 -22 27 -37 0 -30 -16 4 -18 3
-9 -8 6 -8 18 -11 26 -8 21 8 17 41 -7 54 -16 8 -18 14 -10 22 9 9 14 8 22 -3
9 -12 10 -12 7 -1 -6 21 -23 24 -37 7z"/>
<path d="M3330 2665 c10 -12 10 -18 -1 -32 -13 -16 -12 -17 4 -4 21 17 22 37
1 45 -14 5 -15 4 -4 -9z"/>
<path d="M3488 2670 c17 -20 16 -70 -2 -70 -10 0 -16 14 -19 38 l-4 37 1 -40
c1 -33 5 -40 21 -40 28 0 34 56 8 75 -15 12 -16 12 -5 0z"/>
<path d="M3530 2661 c-5 -11 -10 -26 -9 -33 0 -7 5 0 11 15 7 19 15 26 25 23
8 -3 11 -1 8 4 -10 16 -23 12 -35 -9z"/>
<path d="M3133 2630 c0 -25 2 -35 4 -22 2 12 2 32 0 45 -2 12 -4 2 -4 -23z"/>
<path d="M3174 2662 c4 -7 3 -19 -3 -26 -8 -9 -6 -18 5 -32 15 -18 15 -18 5 2
-7 15 -7 24 1 32 9 9 9 15 -1 25 -11 10 -12 9 -7 -1z"/>
<path d="M3407 2650 c5 -20 3 -22 -18 -17 -23 6 -23 6 -4 -9 17 -13 18 -16 5
-25 -13 -9 -13 -10 0 -6 21 5 37 54 23 68 -9 9 -10 6 -6 -11z"/>
<path d="M1160 2615 c0 -19 5 -35 10 -35 6 0 10 16 10 35 0 19 -4 35 -10 35
-5 0 -10 -16 -10 -35z"/>
<path d="M1210 2641 c17 -5 21 -9 12 -14 -6 -5 -17 -17 -22 -28 -10 -17 -7
-19 22 -18 18 1 25 3 16 6 -22 6 -22 12 -2 41 15 21 14 22 -18 21 -30 -1 -31
-2 -8 -8z"/>
<path d="M1280 2641 c17 -5 21 -9 12 -14 -6 -5 -17 -17 -22 -28 -10 -17 -7
-19 22 -18 18 1 25 3 16 6 -22 6 -22 12 -2 41 15 21 14 22 -18 21 -30 -1 -31
-2 -8 -8z"/>
<path d="M1340 2641 c0 -5 8 -7 18 -4 15 3 18 -1 17 -18 -1 -13 -8 -25 -15
-27 -9 -3 -11 1 -7 12 5 12 3 16 -5 14 -24 -8 -13 -33 15 -36 25 -3 27 -1 27
32 0 32 -3 36 -25 36 -14 0 -25 -4 -25 -9z"/>
<path d="M1540 2641 c0 -5 9 -7 21 -4 17 5 20 2 17 -17 -1 -13 -9 -26 -17 -28
-10 -3 -12 0 -8 12 4 9 2 16 -3 16 -6 0 -10 -9 -10 -20 0 -15 7 -20 28 -20 26
0 28 2 24 35 -3 29 -8 35 -28 35 -13 0 -24 -4 -24 -9z"/>
<path d="M1650 2642 c0 -6 9 -8 20 -5 16 4 20 0 20 -21 0 -17 -5 -26 -16 -26
-10 0 -14 6 -10 15 3 8 1 15 -5 15 -24 0 -2 -35 24 -38 27 -3 28 -1 25 30 -2
28 -7 34 -30 36 -16 2 -28 -1 -28 -6z"/>
<path d="M1800 2615 c0 -19 5 -35 10 -35 6 0 10 13 10 29 0 16 6 32 13 34 6 3
2 6 -10 6 -20 1 -23 -4 -23 -34z"/>
<path d="M1854 2636 c-15 -38 22 -74 49 -47 7 7 4 8 -10 5 -12 -3 -24 -1 -27
5 -5 7 3 11 19 11 20 0 26 4 23 18 -4 22 -46 29 -54 8z m36 -6 c0 -5 -4 -10
-10 -10 -5 0 -10 5 -10 10 0 6 5 10 10 10 6 0 10 -4 10 -10z"/>
<path d="M1930 2634 c0 -9 9 -18 20 -21 11 -3 20 -10 20 -15 0 -6 -9 -8 -20
-5 -11 3 -20 1 -20 -5 0 -5 10 -8 22 -6 26 3 38 38 14 38 -8 0 -18 5 -22 12
-5 8 0 9 14 6 12 -4 22 -2 22 3 0 5 -11 9 -25 9 -16 0 -25 -6 -25 -16z"/>
<path d="M2000 2642 c0 -6 9 -8 20 -5 16 4 20 0 20 -21 0 -17 -5 -26 -16 -26
-10 0 -14 6 -10 15 3 8 1 15 -5 15 -24 0 -2 -35 24 -38 27 -3 28 -1 25 30 -2
28 -7 34 -30 36 -16 2 -28 -1 -28 -6z"/>
<path d="M3568 2628 c-2 -15 -9 -23 -20 -22 -10 1 -15 -2 -12 -7 11 -18 34 -8
40 16 4 14 4 28 1 31 -3 3 -7 -5 -9 -18z"/>
<path d="M3304 2599 c-3 -5 6 -9 20 -9 31 0 34 6 6 13 -11 3 -23 1 -26 -4z"/>
<path d="M486 2567 c-31 -23 -15 -35 23 -20 27 11 31 17 20 24 -19 12 -22 11
-43 -4z"/>
<path d="M379 2517 c-24 -13 -50 -22 -58 -19 -8 3 -12 -1 -9 -9 3 -8 14 -14
26 -14 11 0 24 -4 28 -8 8 -8 74 51 74 65 0 13 -14 9 -61 -15z"/>
<path d="M238 2483 c-12 -3 -18 -14 -18 -35 l0 -30 29 19 c16 10 30 21 30 26
3 28 -1 31 -41 20z"/>
<path d="M465 2480 c-3 -5 -1 -10 4 -10 6 0 11 5 11 10 0 6 -2 10 -4 10 -3 0
-8 -4 -11 -10z"/>
<path d="M1933 2435 c0 -27 2 -38 4 -22 2 15 2 37 0 50 -2 12 -4 0 -4 -28z"/>
<path d="M1070 2430 c0 -22 2 -40 4 -40 2 0 6 18 8 40 2 22 0 40 -4 40 -5 0
-8 -18 -8 -40z"/>
<path d="M1136 2453 c-6 -14 -5 -15 5 -6 7 7 10 15 7 18 -3 3 -9 -2 -12 -12z"/>
<path d="M1570 2436 c0 -19 3 -37 8 -40 4 -2 6 13 4 35 -5 48 -12 51 -12 5z"/>
<path d="M320 2440 c0 -11 4 -20 9 -20 5 0 11 9 14 20 3 13 0 20 -9 20 -8 0
-14 -9 -14 -20z"/>
<path d="M1240 2441 c0 -6 4 -13 10 -16 6 -3 7 1 4 9 -7 18 -14 21 -14 7z"/>
<path d="M1670 2441 c0 -6 4 -13 10 -16 6 -3 7 1 4 9 -7 18 -14 21 -14 7z"/>
<path d="M2012 2420 c0 -19 2 -27 5 -17 2 9 2 25 0 35 -3 9 -5 1 -5 -18z"/>
<path d="M2052 2420 c0 -19 2 -27 5 -17 2 9 2 25 0 35 -3 9 -5 1 -5 -18z"/>
<path d="M2089 2418 c4 -28 6 -29 9 -9 2 13 0 27 -5 32 -6 6 -7 -3 -4 -23z"/>
<path d="M2185 2441 c-3 -5 -2 -12 3 -15 5 -3 9 1 9 9 0 17 -3 19 -12 6z"/>
<path d="M2370 2420 c0 -16 2 -30 4 -30 2 0 6 14 8 30 3 17 1 30 -4 30 -4 0
-8 -13 -8 -30z"/>
<path d="M2417 2443 c-9 -9 -9 -41 1 -46 4 -3 7 8 7 24 0 16 0 29 -1 29 0 0
-4 -3 -7 -7z"/>
<path d="M2542 2420 c0 -19 2 -27 5 -17 2 9 2 25 0 35 -3 9 -5 1 -5 -18z"/>
<path d="M2633 2435 c0 -8 4 -15 9 -15 4 0 8 4 8 9 0 6 -4 12 -8 15 -5 3 -9
-1 -9 -9z"/>
<path d="M1212 2415 c0 -16 2 -22 5 -12 2 9 2 23 0 30 -3 6 -5 -1 -5 -18z"/>
<path d="M1402 2415 c0 -16 2 -22 5 -12 2 9 2 23 0 30 -3 6 -5 -1 -5 -18z"/>
<path d="M1772 2415 c0 -16 2 -22 5 -12 2 9 2 23 0 30 -3 6 -5 -1 -5 -18z"/>
<path d="M1902 2415 c0 -16 2 -22 5 -12 2 9 2 23 0 30 -3 6 -5 -1 -5 -18z"/>
<path d="M1106 2407 c3 -10 9 -15 12 -12 3 3 0 11 -7 18 -10 9 -11 8 -5 -6z"/>
<path d="M1360 2411 c0 -10 19 -25 25 -20 1 2 -3 10 -11 17 -8 7 -14 8 -14 3z"/>
<path d="M1730 2411 c0 -10 19 -25 25 -20 1 2 -3 10 -11 17 -8 7 -14 8 -14 3z"/>
<path d="M1860 2411 c0 -10 19 -25 25 -20 1 2 -3 10 -11 17 -8 7 -14 8 -14 3z"/>
<path d="M2276 2403 c-6 -14 -5 -15 5 -6 7 7 10 15 7 18 -3 3 -9 -2 -12 -12z"/>
<path d="M1177 2399 c7 -7 15 -10 18 -7 3 3 -2 9 -12 12 -14 6 -15 5 -6 -5z"/>
<path d="M1308 2398 c5 -5 16 -8 23 -6 8 3 3 7 -10 11 -17 4 -21 3 -13 -5z"/>
<path d="M1678 2398 c5 -5 16 -8 23 -6 8 3 3 7 -10 11 -17 4 -21 3 -13 -5z"/>
<path d="M2325 2400 c-16 -7 -17 -9 -3 -9 9 -1 20 4 23 9 7 11 7 11 -20 0z"/>
<path d="M2507 2399 c7 -7 15 -10 18 -7 3 3 -2 9 -12 12 -14 6 -15 5 -6 -5z"/>
<path d="M1258 2393 c7 -3 16 -2 19 1 4 3 -2 6 -13 5 -11 0 -14 -3 -6 -6z"/>
<path d="M1468 2393 c7 -3 16 -2 19 1 4 3 -2 6 -13 5 -11 0 -14 -3 -6 -6z"/>
<path d="M2128 2393 c6 -2 18 -2 25 0 6 3 1 5 -13 5 -14 0 -19 -2 -12 -5z"/>
<path d="M580 2343 c0 -29 37 -113 50 -113 5 0 10 6 10 13 1 6 6 2 14 -11 11
-21 14 -22 26 -7 10 12 10 21 2 40 -7 14 -16 25 -22 25 -6 0 -8 5 -4 11 7 12
-15 59 -28 59 -4 0 -8 -9 -8 -21 0 -21 0 -21 -20 2 -19 24 -19 24 -20 2z"/>
<path d="M696 2332 c-3 -6 -1 -14 5 -17 15 -10 25 3 12 16 -7 7 -13 7 -17 1z"/>
<path d="M1290 2295 c0 -27 2 -46 5 -43 8 8 9 77 2 85 -4 3 -7 -15 -7 -42z"/>
<path d="M1261 2294 c0 -11 3 -14 6 -6 3 7 2 16 -1 19 -3 4 -6 -2 -5 -13z"/>
<path d="M1362 2280 c0 -19 2 -27 5 -17 2 9 2 25 0 35 -3 9 -5 1 -5 -18z"/>
<path d="M1562 2280 c0 -19 2 -27 5 -17 2 9 2 25 0 35 -3 9 -5 1 -5 -18z"/>
<path d="M1172 2275 c0 -16 2 -22 5 -12 2 9 2 23 0 30 -3 6 -5 -1 -5 -18z"/>
<path d="M1130 2271 c0 -10 19 -25 25 -20 1 2 -3 10 -11 17 -8 7 -14 8 -14 3z"/>
<path d="M771 2256 c-1 -15 -4 -16 -16 -6 -13 11 -14 10 -9 -4 5 -12 2 -15
-10 -10 -19 7 -20 0 -5 -25 12 -17 13 -17 31 1 11 11 17 28 15 41 -3 18 -5 18
-6 3z"/>
<path d="M1077 2258 c2 -5 10 -8 18 -8 8 0 16 3 18 8 3 4 -5 7 -18 7 -13 0
-21 -3 -18 -7z"/>
<path d="M1245 2260 c-16 -7 -17 -9 -3 -9 9 -1 20 4 23 9 7 11 7 11 -20 0z"/>
<path d="M1320 2260 c-9 -6 -10 -10 -3 -10 6 0 15 5 18 10 8 12 4 12 -15 0z"/>
<path d="M1408 2258 c5 -5 16 -8 23 -6 8 3 3 7 -10 11 -17 4 -21 3 -13 -5z"/>
<path d="M1467 2258 c2 -5 10 -8 18 -8 8 0 16 3 18 8 3 4 -5 7 -18 7 -13 0
-21 -3 -18 -7z"/>
<path d="M1527 2259 c7 -7 15 -10 18 -7 3 3 -2 9 -12 12 -14 6 -15 5 -6 -5z"/>
<path d="M227 2213 c-2 -5 -5 -27 -6 -50 -2 -36 0 -43 16 -43 40 0 56 47 29
83 -14 18 -32 22 -39 10z"/>
<path d="M855 2100 c3 -5 8 -10 11 -10 2 0 4 5 4 10 0 6 -5 10 -11 10 -5 0 -7
-4 -4 -10z"/>
<path d="M357 2076 c-5 -13 0 -16 26 -15 21 1 25 3 12 6 -11 3 -23 10 -26 15
-3 5 -9 3 -12 -6z"/>
<path d="M478 1631 c-31 -3 -58 -8 -60 -11 -26 -34 -40 -160 -18 -160 6 0 10
-5 10 -11 0 -5 -4 -7 -10 -4 -5 3 -10 -3 -10 -14 0 -27 20 -38 32 -17 12 21
28 21 28 -1 0 -15 1 -15 18 0 19 18 52 23 52 9 0 -5 -7 -17 -15 -28 -20 -26
-19 -39 3 -23 14 12 14 10 -2 -8 -14 -17 -29 -22 -62 -21 -38 0 -43 3 -47 27
-2 14 -4 -50 -3 -144 l1 -170 48 -3 c26 -2 47 -7 47 -13 0 -13 97 -11 106 2 3
6 20 9 38 6 61 -9 66 0 66 133 0 111 -1 120 -19 120 -22 0 -36 41 -18 52 6 4
8 10 4 14 -4 4 -14 -1 -22 -12 -17 -22 -20 -38 -5 -29 6 3 10 2 10 -4 0 -6 -9
-15 -20 -21 -17 -9 -20 -8 -20 11 0 20 -1 21 -17 6 -18 -15 -36 -21 -60 -18
-18 2 -16 52 3 80 13 18 14 25 4 31 -9 5 -9 9 -1 14 6 4 11 2 11 -3 0 -6 19 2
42 19 43 31 68 38 68 18 0 -6 -3 -8 -6 -5 -20 20 -104 -77 -104 -120 0 -28 24
-30 43 -3 8 11 17 17 21 13 4 -4 4 1 0 10 -6 17 -8 16 -30 -4 -26 -24 -30 -20
-14 12 11 20 50 27 50 8 0 -8 5 -8 15 1 8 7 22 10 30 6 8 -3 15 0 15 6 0 6 3
9 6 5 4 -3 2 -20 -4 -36 -8 -24 -8 -31 1 -31 17 0 16 105 0 122 -17 16 -16 33
1 19 29 -25 27 128 -3 160 -9 10 -141 16 -203 10z m17 -41 c-26 -11 -78 -12
-71 -2 2 4 24 8 48 9 31 1 38 -1 23 -7z m161 -1 c3 -5 -27 -8 -65 -6 -39 1
-71 6 -71 10 0 11 129 6 136 -4z m-189 -25 c-3 -3 -12 -4 -19 -1 -8 3 -5 6 6
6 11 1 17 -2 13 -5z m166 -141 c-5 -12 -3 -14 8 -8 11 6 12 5 2 -5 -7 -8 -16
-11 -19 -7 -7 6 2 37 10 37 3 0 2 -7 -1 -17z m-148 -114 c10 -10 -27 -12 -63
-2 -18 4 -20 8 -10 14 14 10 58 3 73 -12z m55 -219 c0 -5 -7 -10 -15 -10 -8 0
-15 5 -15 10 0 6 7 10 15 10 8 0 15 -4 15 -10z"/>
<path d="M1082 1618 c-17 -17 -15 -63 3 -78 18 -15 47 -10 53 10 5 13 3 13
-11 1 -20 -16 -47 0 -47 29 0 29 27 45 47 29 14 -12 16 -12 11 1 -6 19 -40 24
-56 8z"/>
<path d="M1454 1623 c-35 -25 -20 -93 20 -93 25 0 43 16 31 28 -3 3 -10 0 -15
-7 -14 -23 -40 -4 -40 29 0 35 22 49 47 29 14 -12 16 -12 11 1 -5 17 -37 24
-54 13z"/>
<path d="M1613 1580 c0 -30 2 -43 4 -27 2 15 2 39 0 55 -2 15 -4 2 -4 -28z"/>
<path d="M1750 1580 l0 -50 38 1 c30 2 32 3 10 6 -26 4 -28 8 -28 49 0 24 -4
44 -10 44 -5 0 -10 -22 -10 -50z"/>
<path d="M3293 1613 c-4 -11 1 -22 15 -31 28 -18 29 -36 2 -29 -11 3 -20 1
-20 -4 0 -13 38 -11 46 3 4 6 -2 19 -14 29 -22 17 -29 39 -14 39 4 0 14 -6 22
-12 12 -11 12 -10 1 5 -17 22 -30 22 -38 0z"/>
<path d="M3482 1618 c-13 -13 -15 -37 -6 -62 7 -17 29 -21 38 -7 3 5 -2 8 -12
7 -21 -1 -29 39 -12 60 15 17 9 19 -8 2z"/>
<path d="M3551 1616 c-20 -23 -10 -71 14 -71 16 0 20 7 21 35 1 35 1 35 -3 3
-5 -42 -33 -45 -33 -5 0 15 5 33 12 40 7 7 9 12 6 12 -3 0 -11 -6 -17 -14z"/>
<path d="M1908 1609 c-8 -25 5 -79 19 -79 13 0 13 3 3 15 -7 8 -10 25 -6 39 6
24 -9 47 -16 25z"/>
<path d="M3210 1578 c0 -23 3 -39 6 -36 9 10 12 78 3 78 -5 0 -9 -19 -9 -42z"/>
<path d="M3254 1612 c4 -7 3 -18 -2 -25 -7 -8 -6 -18 2 -29 11 -15 13 -13 12
17 -1 19 -6 38 -10 42 -5 4 -6 2 -2 -5z"/>
<path d="M3392 1600 c0 -14 2 -19 5 -12 2 6 2 18 0 25 -3 6 -5 1 -5 -13z"/>
<path d="M1164 1586 c-11 -29 0 -51 26 -51 21 0 25 5 25 30 0 24 -5 31 -23 33
-13 2 -24 -3 -28 -12z m46 -15 c0 -11 -5 -23 -11 -27 -15 -9 -33 12 -26 30 9
23 37 20 37 -3z"/>
<path d="M1244 1586 c-15 -39 22 -74 49 -47 9 9 5 11 -13 9 -19 -2 -25 2 -25
17 0 15 6 19 23 18 13 -2 21 1 17 7 -9 15 -45 12 -51 -4z"/>
<path d="M1315 1590 c-5 -9 -1 -10 14 -5 18 5 21 2 21 -19 0 -14 -5 -26 -11
-26 -6 0 -8 7 -5 16 4 10 1 14 -6 12 -24 -8 -13 -33 15 -36 27 -3 28 -1 25 30
-2 25 -8 34 -25 36 -11 2 -24 -2 -28 -8z"/>
<path d="M1531 1582 c-13 -25 8 -56 35 -50 29 5 27 62 -3 66 -13 2 -26 -4 -32
-16z m46 -7 c5 -16 -14 -38 -26 -31 -18 12 -13 48 6 44 9 -2 18 -7 20 -13z"/>
<path d="M1645 1590 c-5 -9 -1 -10 14 -5 18 5 21 2 21 -19 0 -14 -5 -26 -11
-26 -6 0 -8 7 -5 16 4 10 1 14 -6 12 -24 -8 -13 -33 15 -36 27 -3 28 -1 25 30
-2 25 -8 34 -25 36 -11 2 -24 -2 -28 -8z"/>
<path d="M1830 1591 c0 -5 9 -7 20 -4 16 4 20 0 20 -21 0 -17 -5 -26 -16 -26
-10 0 -14 6 -10 15 3 8 1 15 -4 15 -6 0 -10 -9 -10 -20 0 -16 7 -20 30 -20 31
0 38 17 24 54 -6 17 -54 23 -54 7z"/>
<path d="M1956 1592 c-3 -6 3 -8 14 -5 16 4 20 0 20 -22 0 -17 -4 -25 -12 -22
-7 2 -12 10 -10 16 1 6 -3 11 -9 11 -24 0 -2 -35 24 -38 27 -3 28 -1 25 30 -2
25 -8 34 -25 36 -11 2 -24 -1 -27 -6z"/>
<path d="M1398 1573 c7 -3 16 -2 19 1 4 3 -2 6 -13 5 -11 0 -14 -3 -6 -6z"/>
<path d="M3410 1554 c-24 -13 -24 -14 -4 -14 12 0 24 7 28 15 3 8 4 15 3 14
-1 -1 -13 -7 -27 -15z"/>
<path d="M1074 1406 c-3 -8 -4 -23 -2 -33 3 -11 6 -6 9 15 6 34 2 42 -7 18z"/>
<path d="M425 1391 c-8 -27 -2 -36 13 -18 6 7 7 18 3 26 -7 10 -10 8 -16 -8z"/>
<path d="M470 1389 c-7 -11 -10 -23 -7 -25 2 -2 9 7 15 21 14 30 7 33 -8 4z"/>
<path d="M2372 1385 c0 -16 2 -22 5 -12 2 9 2 23 0 30 -3 6 -5 -1 -5 -18z"/>
<path d="M1188 1373 c4 -23 2 -25 -18 -20 -16 4 -20 3 -12 -5 6 -6 18 -8 26
-5 17 7 22 42 7 51 -4 3 -6 -6 -3 -21z"/>
<path d="M1712 1370 c0 -19 2 -27 5 -17 2 9 2 25 0 35 -3 9 -5 1 -5 -18z"/>
<path d="M1752 1370 c0 -19 2 -27 5 -17 2 9 2 25 0 35 -3 9 -5 1 -5 -18z"/>
<path d="M1789 1368 c4 -28 6 -29 9 -9 2 13 0 27 -5 32 -6 6 -7 -3 -4 -23z"/>
<path d="M1911 1384 c0 -11 3 -14 6 -6 3 7 2 16 -1 19 -3 4 -6 -2 -5 -13z"/>
<path d="M2143 1385 c-3 -9 -3 -18 -1 -21 3 -3 8 4 11 16 6 23 -1 27 -10 5z"/>
<path d="M2265 1391 c-3 -5 -2 -12 3 -15 5 -3 9 1 9 9 0 17 -3 19 -12 6z"/>
<path d="M2302 1380 c0 -14 2 -19 5 -12 2 6 2 18 0 25 -3 6 -5 1 -5 -13z"/>
<path d="M2442 1370 c0 -19 2 -27 5 -17 2 9 2 25 0 35 -3 9 -5 1 -5 -18z"/>
<path d="M1592 1365 c0 -16 2 -22 5 -12 2 9 2 23 0 30 -3 6 -5 -1 -5 -18z"/>
<path d="M1550 1361 c0 -10 19 -25 25 -20 1 2 -3 10 -11 17 -8 7 -14 8 -14 3z"/>
<path d="M1980 1361 c0 -10 19 -25 25 -20 1 2 -3 10 -11 17 -8 7 -14 8 -14 3z"/>
<path d="M2406 1353 c-6 -14 -5 -15 5 -6 7 7 10 15 7 18 -3 3 -9 -2 -12 -12z"/>
<path d="M1105 1350 c-16 -7 -17 -9 -3 -9 9 -1 20 4 23 9 7 11 7 11 -20 0z"/>
<path d="M1388 1348 c5 -5 16 -8 23 -6 8 3 3 7 -10 11 -17 4 -21 3 -13 -5z"/>
<path d="M1658 1348 c5 -5 16 -8 23 -6 8 3 3 7 -10 11 -17 4 -21 3 -13 -5z"/>
<path d="M1895 1350 c-19 -8 -19 -9 3 -9 12 -1 22 4 22 9 0 6 -1 10 -2 9 -2 0
-12 -4 -23 -9z"/>
<path d="M2325 1350 c-16 -7 -17 -9 -3 -9 9 -1 20 4 23 9 7 11 7 11 -20 0z"/>
<path d="M1288 1343 c7 -3 16 -2 19 1 4 3 -2 6 -13 5 -11 0 -14 -3 -6 -6z"/>
<path d="M2088 1343 c6 -2 18 -2 25 0 6 3 1 5 -13 5 -14 0 -19 -2 -12 -5z"/>
<path d="M2158 1343 c7 -3 16 -2 19 1 4 3 -2 6 -13 5 -11 0 -14 -3 -6 -6z"/>
<path d="M1478 1273 c-2 -10 -1 -31 3 -48 6 -26 7 -23 8 18 1 48 -3 61 -11 30z"/>
<path d="M2033 1245 c0 -27 2 -38 4 -22 2 15 2 37 0 50 -2 12 -4 0 -4 -28z"/>
<path d="M1112 1230 c0 -19 2 -27 5 -17 2 9 2 25 0 35 -3 9 -5 1 -5 -18z"/>
<path d="M1152 1230 c0 -19 2 -27 5 -17 2 9 2 25 0 35 -3 9 -5 1 -5 -18z"/>
<path d="M1182 1230 c0 -19 2 -27 5 -17 2 9 2 25 0 35 -3 9 -5 1 -5 -18z"/>
<path d="M1370 1230 c0 -16 2 -30 4 -30 2 0 6 14 8 30 3 17 1 30 -4 30 -4 0
-8 -13 -8 -30z"/>
<path d="M1412 1230 c0 -19 2 -27 5 -17 2 9 2 25 0 35 -3 9 -5 1 -5 -18z"/>
<path d="M1547 1239 c4 -13 8 -18 11 -10 2 7 -1 18 -6 23 -8 8 -9 4 -5 -13z"/>
<path d="M1673 1245 c-3 -9 -3 -18 -1 -21 3 -3 8 4 11 16 6 23 -1 27 -10 5z"/>
<path d="M1833 1245 c-3 -9 -3 -18 -1 -21 3 -3 8 4 11 16 6 23 -1 27 -10 5z"/>
<path d="M1961 1244 c0 -11 3 -14 6 -6 3 7 2 16 -1 19 -3 4 -6 -2 -5 -13z"/>
<path d="M1994 1245 c-8 -20 2 -45 18 -45 10 0 10 3 -1 9 -8 5 -12 18 -8 30 6
24 -1 29 -9 6z"/>
<path d="M2060 1221 c0 -10 19 -25 25 -20 1 2 -3 10 -11 17 -8 7 -14 8 -14 3z"/>
<path d="M1270 1210 c-9 -6 -10 -10 -3 -10 6 0 15 5 18 10 8 12 4 12 -15 0z"/>
<path d="M1325 1210 c-16 -7 -17 -9 -3 -9 9 -1 20 4 23 9 7 11 7 11 -20 0z"/>
<path d="M1447 1209 c7 -7 15 -10 18 -7 3 3 -2 9 -12 12 -14 6 -15 5 -6 -5z"/>
<path d="M1517 1209 c7 -7 15 -10 18 -7 3 3 -2 9 -12 12 -14 6 -15 5 -6 -5z"/>
<path d="M1625 1210 c-19 -8 -19 -9 3 -9 12 -1 22 4 22 9 0 6 -1 10 -2 9 -2 0
-12 -4 -23 -9z"/>
<path d="M1945 1210 c-16 -7 -17 -9 -3 -9 9 -1 20 4 23 9 7 11 7 11 -20 0z"/>
<path d="M1788 1203 c7 -3 16 -2 19 1 4 3 -2 6 -13 5 -11 0 -14 -3 -6 -6z"/>
<path d="M1848 1203 c7 -3 16 -2 19 1 4 3 -2 6 -13 5 -11 0 -14 -3 -6 -6z"/>
<path d="M196 624 c-24 -23 -24 -425 0 -448 14 -14 180 -16 1684 -16 1504 0
1670 2 1684 16 14 13 16 48 16 224 0 176 -2 211 -16 224 -14 14 -180 16 -1684
16 -1504 0 -1670 -2 -1684 -16z m1359 -177 c-20 -28 -19 -106 1 -135 13 -19
13 -22 1 -22 -22 0 -49 76 -42 114 9 40 33 78 46 71 5 -4 3 -15 -6 -28z m691
-13 c8 -18 14 -43 14 -55 0 -31 -30 -89 -47 -89 -12 0 -12 3 1 22 20 28 21
107 1 134 -15 22 -10 38 7 28 6 -4 16 -21 24 -40z m604 29 c11 -10 20 -26 20
-37 0 -19 -1 -19 -20 -1 -15 13 -24 15 -31 8 -8 -8 -3 -16 20 -27 37 -19 41
-53 11 -79 -19 -16 -21 -16 -40 0 -21 18 -27 43 -10 43 6 0 10 -4 10 -10 0 -5
9 -10 20 -10 28 0 25 18 -5 32 -34 15 -43 53 -19 78 24 23 20 23 44 3z m-2140
-13 c0 -13 7 -20 18 -20 28 0 42 -21 42 -62 0 -27 -4 -38 -15 -38 -11 0 -15
11 -15 41 0 52 -24 48 -28 -4 -2 -24 -8 -37 -18 -37 -11 0 -14 16 -14 70 0 56
3 70 15 70 8 0 15 -9 15 -20z m640 -50 c0 -40 -4 -70 -10 -70 -6 0 -10 30 -10
70 0 40 4 70 10 70 6 0 10 -30 10 -70z m-920 19 c8 -22 17 -42 20 -44 4 -3 15
16 25 40 25 68 45 59 45 -20 0 -68 -19 -93 -21 -27 l-1 37 -15 -37 c-9 -21
-21 -38 -28 -38 -7 0 -19 17 -28 38 l-15 37 -1 -37 c-2 -66 -21 -41 -21 27 0
77 19 88 40 24z m140 31 c0 -5 -7 -10 -15 -10 -8 0 -15 5 -15 10 0 6 7 10 15
10 8 0 15 -4 15 -10z m440 -5 c16 -19 5 -34 -12 -17 -14 14 -48 16 -48 3 0 -5
16 -18 35 -30 43 -25 47 -57 9 -72 -20 -7 -32 -6 -50 6 -27 17 -31 35 -9 35 8
0 15 -4 15 -10 0 -13 37 -13 45 0 3 6 -6 15 -22 20 -39 15 -55 38 -42 61 12
23 61 25 79 4z m644 -1 c3 -9 6 -35 6 -59 0 -34 -5 -47 -19 -55 -51 -27 -93
50 -61 111 13 24 65 26 74 3z m104 -15 c2 -15 -5 -32 -18 -44 -25 -23 -26 -35
-1 -35 11 0 23 -4 26 -10 4 -6 -13 -10 -44 -10 -28 0 -51 2 -51 4 0 2 16 23
35 46 19 23 32 46 29 51 -7 12 -34 11 -34 -1 0 -5 -7 -10 -15 -10 -8 0 -15 4
-15 8 0 18 27 33 55 30 24 -2 31 -8 33 -29z m92 21 c0 -5 -7 -10 -15 -10 -8 0
-15 5 -15 10 0 6 7 10 15 10 8 0 15 -4 15 -10z m918 -27 c2 -19 -1 -33 -8 -33
-6 0 -5 -11 5 -30 13 -24 13 -30 2 -30 -8 0 -20 11 -27 25 -7 14 -19 25 -27
25 -7 0 -13 -11 -13 -25 0 -14 -4 -25 -10 -25 -6 0 -10 29 -10 66 l0 65 43 -3
c39 -3 42 -5 45 -35z m240 25 c18 -18 15 -33 -14 -67 l-26 -31 26 0 c14 0 26
-4 26 -10 0 -5 -20 -10 -45 -10 -25 0 -45 4 -45 8 0 5 14 21 30 37 31 30 40
65 17 65 -7 0 -18 -5 -25 -12 -17 -17 -28 -2 -12 17 15 18 51 20 68 3z m102
-7 c23 -44 -1 -111 -41 -111 -26 0 -24 16 4 25 l22 7 -25 7 c-31 9 -49 53 -30
75 17 22 57 20 70 -3z m140 0 c16 -31 12 -79 -10 -101 -20 -20 -47 -18 -62 4
-9 13 -10 78 -2 100 9 23 61 21 74 -3z m100 0 c16 -31 12 -79 -10 -101 -20
-20 -47 -18 -62 4 -12 18 -9 91 4 104 18 18 56 14 68 -7z m-1449 2 c4 -47 4
-123 -1 -123 -16 0 -30 27 -30 57 0 18 -4 33 -10 33 -5 0 -10 -18 -10 -40 0
-29 -4 -40 -15 -40 -11 0 -15 12 -15 51 0 47 2 51 21 46 12 -3 22 0 26 9 5 14
32 20 34 7z m-1331 -63 c0 -38 -4 -50 -15 -50 -11 0 -15 12 -15 50 0 38 4 50
15 50 11 0 15 -12 15 -50z m94 34 c12 -32 7 -84 -9 -84 -11 0 -15 11 -15 41 0
52 -24 48 -28 -4 -5 -56 -32 -50 -32 6 0 24 3 47 7 50 13 14 71 7 77 -9z m196
-36 c6 -44 5 -47 -22 -50 -59 -9 -86 47 -28 59 17 3 30 9 30 14 0 12 -27 11
-35 -1 -4 -6 -11 -8 -16 -4 -18 11 13 35 40 32 23 -3 27 -9 31 -50z m248 1 c3
-42 1 -47 -22 -51 -32 -6 -56 8 -56 33 0 14 9 21 31 26 20 4 27 9 20 16 -7 7
-15 6 -24 -1 -18 -15 -30 -3 -15 15 6 8 23 13 37 11 23 -3 26 -8 29 -49z m99
36 c8 -22 -4 -30 -21 -16 -20 17 -36 5 -36 -26 0 -23 3 -25 30 -19 34 6 40 -8
10 -24 -32 -17 -60 4 -60 43 0 18 5 38 12 45 17 17 58 15 65 -3z m99 -13 c15
-30 7 -60 -18 -73 -27 -14 -68 13 -68 46 0 53 63 73 86 27z m142 -23 c3 -42 1
-47 -22 -51 -32 -6 -56 8 -56 33 0 14 9 21 31 26 20 4 27 9 20 16 -7 7 -15 6
-24 -1 -18 -15 -30 -3 -15 15 6 8 23 13 37 11 23 -3 26 -8 29 -49z m552 32
c16 -32 12 -41 -20 -41 -16 0 -30 -5 -30 -11 0 -7 10 -9 25 -7 33 7 42 -8 15
-22 -29 -15 -70 11 -70 45 0 48 59 75 80 36z m98 -33 c4 -56 -15 -66 -20 -10
-2 25 -8 37 -18 37 -10 0 -16 -12 -18 -37 -5 -55 -22 -46 -22 11 l0 49 38 -1
c37 -2 37 -2 40 -49z m91 38 c8 -9 8 -16 2 -20 -5 -4 -12 -2 -16 4 -7 12 -25
13 -25 2 0 -4 10 -12 22 -17 30 -13 34 -41 9 -55 -15 -8 -27 -8 -41 0 -28 15
-25 32 5 24 14 -3 25 -3 25 0 0 4 -11 11 -25 16 -26 10 -34 45 -12 53 23 10
45 7 56 -7z m971 -75 c0 -17 -12 -41 -21 -41 -5 0 -9 11 -9 25 0 16 6 25 15
25 8 0 15 -4 15 -9z"/>
<path d="M1600 395 c0 -39 3 -46 18 -43 13 2 17 13 17 43 0 30 -4 41 -17 43
-15 3 -18 -4 -18 -43z"/>
<path d="M2700 420 c0 -16 5 -21 23 -18 12 2 22 10 22 18 0 8 -10 16 -22 18
-18 3 -23 -2 -23 -18z"/>
<path d="M3060 415 c0 -16 6 -25 15 -25 9 0 15 9 15 25 0 16 -6 25 -15 25 -9
0 -15 -9 -15 -25z"/>
<path d="M3194 426 c-10 -27 1 -71 19 -74 14 -3 17 4 17 42 0 35 -4 46 -15 46
-9 0 -18 -6 -21 -14z"/>
<path d="M3294 416 c-8 -32 3 -66 22 -66 10 0 14 13 14 45 0 33 -4 45 -15 45
-8 0 -17 -11 -21 -24z"/>
<path d="M810 360 c0 -5 7 -10 15 -10 8 0 15 5 15 10 0 6 -7 10 -15 10 -8 0
-15 -4 -15 -10z"/>
<path d="M1055 360 c-3 -5 3 -10 14 -10 12 0 21 5 21 10 0 6 -6 10 -14 10 -8
0 -18 -4 -21 -10z"/>
<path d="M1257 404 c-4 -4 -7 -18 -7 -31 0 -18 5 -24 18 -21 10 2 17 12 17 27
0 24 -15 37 -28 25z"/>
<path d="M1395 360 c-3 -5 1 -10 9 -10 8 0 18 5 21 10 3 6 -1 10 -9 10 -8 0
-18 -4 -21 -10z"/>
<path d="M1950 400 c0 -5 7 -10 15 -10 8 0 15 5 15 10 0 6 -7 10 -15 10 -8 0
-15 -4 -15 -10z"/>
</g>
</svg>
