<?xml version="1.0" standalone="no"?>
<!DOCTYPE svg PUBLIC "-//W3C//DTD SVG 20010904//EN"
 "http://www.w3.org/TR/2001/REC-SVG-20010904/DTD/svg10.dtd">
<svg version="1.0" xmlns="http://www.w3.org/2000/svg"
 width="375.000000pt" height="667.000000pt" viewBox="0 0 375.000000 667.000000"
 preserveAspectRatio="xMidYMid meet">

<g transform="translate(0.000000,667.000000) scale(0.100000,-0.100000)"
fill="#000000" stroke="none">
<path d="M3190 6505 c0 -8 8 -15 18 -15 13 0 23 -15 36 -56 10 -31 16 -56 14
-57 -48 -24 -60 -53 -33 -81 23 -23 235 -24 235 -1 0 12 -19 15 -111 15 -100
0 -110 2 -107 18 3 15 19 18 112 22 l109 5 18 50 c28 79 33 75 -101 75 -109 0
-120 2 -130 20 -13 24 -60 28 -60 5z"/>
<path d="M250 6360 c0 -93 1 -100 20 -100 17 0 20 7 20 40 0 38 2 40 30 40 23
0 30 4 30 20 0 16 -7 20 -30 20 -23 0 -30 4 -30 20 0 17 7 20 50 20 43 0 50 3
50 20 0 18 -7 20 -70 20 l-70 0 0 -100z"/>
<path d="M468 6444 c-35 -18 -48 -43 -48 -89 0 -97 140 -132 185 -46 24 47 19
79 -19 117 -38 38 -73 43 -118 18z m75 -25 c53 -24 54 -97 2 -121 -32 -15 -71
2 -87 37 -18 40 5 78 59 94 1 1 13 -4 26 -10z"/>
<path d="M694 6426 c-37 -37 -43 -70 -20 -115 45 -87 186 -54 186 44 0 47 -13
71 -50 90 -46 24 -78 19 -116 -19z m119 -28 c25 -29 21 -63 -9 -87 -32 -25
-52 -26 -82 -5 -22 15 -30 66 -14 90 24 37 74 38 105 2z"/>
<path d="M920 6360 l0 -100 29 0 c91 0 144 69 110 144 -14 30 -65 56 -108 56
l-31 0 0 -100z m95 46 c21 -15 25 -67 5 -90 -7 -9 -25 -16 -41 -16 -29 0 -29
1 -29 60 0 56 2 60 23 60 13 0 32 -6 42 -14z"/>
<path d="M1131 6424 c0 -27 5 -46 14 -54 11 -9 15 -27 13 -59 -3 -38 0 -46 16
-49 17 -4 18 1 13 46 -4 38 -2 54 9 62 8 8 13 28 13 54 -2 34 -3 36 -6 11 -7
-46 -23 -55 -23 -12 0 20 -4 37 -10 37 -5 0 -10 -17 -10 -37 0 -43 -16 -34
-23 12 -3 25 -4 23 -6 -11z"/>
<path d="M1270 6360 l0 -100 65 0 c58 0 65 2 65 20 0 17 -7 20 -45 20 -38 0
-45 3 -45 20 0 16 7 20 30 20 23 0 30 4 30 20 0 16 -7 20 -30 20 -23 0 -30 4
-30 20 0 17 7 20 45 20 38 0 45 3 45 20 0 18 -7 20 -65 20 l-65 0 0 -100z"/>
<path d="M3243 6244 c-3 -8 2 -23 11 -32 15 -15 17 -15 32 0 21 21 11 48 -16
48 -11 0 -23 -7 -27 -16z"/>
<path d="M3403 6244 c-3 -8 2 -23 11 -32 15 -15 17 -15 32 0 21 21 11 48 -16
48 -11 0 -23 -7 -27 -16z"/>
<path d="M2975 5347 c-9 -15 -24 -27 -31 -27 -8 0 -19 -12 -24 -26 -13 -33 2
-62 38 -71 14 -3 34 -16 43 -27 14 -17 21 -19 45 -11 40 14 46 66 11 90 -13 8
-32 13 -41 9 -20 -8 -21 4 -1 26 14 15 14 19 -3 40 l-19 24 -18 -27z"/>
<path d="M1315 5336 c-55 -17 -80 -32 -127 -74 -44 -40 -73 -88 -58 -97 5 -3
14 4 20 15 9 17 14 19 25 10 8 -6 24 -10 37 -7 20 3 19 5 -9 12 -18 4 -33 11
-33 15 0 11 65 67 99 84 15 8 49 20 74 27 26 6 47 15 47 20 0 12 -27 10 -75
-5z"/>
<path d="M1250 5265 c-17 -21 -5 -45 24 -45 27 0 42 26 25 46 -15 18 -33 18
-49 -1z"/>
<path d="M1365 5240 c-10 -11 -15 -20 -11 -20 14 0 46 21 46 30 0 16 -16 11
-35 -10z"/>
<path d="M1407 5203 c-9 -9 22 -43 40 -43 7 0 13 11 13 25 0 20 -5 25 -23 25
-13 0 -27 -3 -30 -7z"/>
<path d="M1991 5194 c0 -11 3 -14 6 -6 3 7 2 16 -1 19 -3 4 -6 -2 -5 -13z"/>
<path d="M2150 5202 c0 -6 4 -12 10 -14 14 -4 0 -48 -15 -48 -29 0 -52 -54
-57 -132 -5 -83 -1 -91 40 -62 17 12 22 25 23 62 1 64 17 104 18 45 1 -49 26
-73 76 -73 52 0 62 16 74 115 15 122 15 118 -10 104 -22 -11 -112 -8 -141 5
-11 5 -18 4 -18 -2z"/>
<path d="M3733 5178 c-4 -18 -6 -37 -4 -43 2 -5 6 -50 11 -100 l7 -90 2 133
c1 132 -4 160 -16 100z"/>
<path d="M1940 5176 c0 -14 28 -42 35 -34 2 2 2 14 -2 26 -6 24 -33 31 -33 8z"/>
<path d="M1244 5145 c-7 -18 12 -45 32 -45 17 0 37 37 25 44 -5 4 -12 0 -14
-6 -3 -8 -6 -6 -6 5 -1 21 -29 23 -37 2z"/>
<path d="M2820 5127 c0 -32 5 -38 55 -67 54 -31 69 -50 40 -50 -24 0 -18 -19
10 -32 21 -9 27 -8 38 6 12 17 16 16 65 -13 l52 -30 0 37 c0 37 -1 37 -122
107 -68 39 -126 72 -130 73 -5 2 -8 -12 -8 -31z"/>
<path d="M349 5134 c-19 -23 1 -78 31 -82 20 -3 22 -1 12 10 -9 12 -3 16 31
25 23 7 51 19 62 28 19 15 19 15 -8 9 -15 -3 -33 -2 -40 3 -23 19 -75 23 -88
7z"/>
<path d="M630 5140 c0 -6 -10 -10 -22 -8 -13 2 -28 -3 -34 -12 -10 -12 -14
-12 -28 -1 -9 8 -19 11 -22 8 -11 -11 6 -25 36 -32 30 -7 42 -24 18 -26 -7 0
-2 -5 12 -10 17 -7 32 -7 48 1 19 8 23 17 20 47 -2 20 -9 38 -15 41 -7 2 -13
-2 -13 -8z"/>
<path d="M1393 5103 c-18 -7 -16 -38 3 -53 12 -11 18 -10 32 4 25 25 -2 63
-35 49z"/>
<path d="M1290 5070 c-12 -8 -12 -10 5 -10 11 0 27 5 35 10 12 8 12 10 -5 10
-11 0 -27 -5 -35 -10z"/>
<path d="M3576 5058 c-18 -25 -12 -39 7 -16 6 9 21 20 32 26 20 11 19 11 -2
12 -12 0 -29 -10 -37 -22z"/>
<path d="M320 5051 c0 -6 4 -13 10 -16 6 -3 7 1 4 9 -7 18 -14 21 -14 7z"/>
<path d="M520 5043 c-11 -8 -20 -18 -20 -22 0 -12 63 -21 75 -11 6 5 20 10 33
12 19 2 15 6 -22 19 -39 14 -48 14 -66 2z"/>
<path d="M660 5043 c-24 -12 -24 -13 -3 -13 12 0 25 5 28 11 11 16 2 17 -25 2z"/>
<path d="M380 5020 c0 -5 9 -10 20 -10 11 0 20 5 20 10 0 6 -9 10 -20 10 -11
0 -20 -4 -20 -10z"/>
<path d="M2845 5000 c3 -5 13 -10 21 -10 8 0 14 5 14 10 0 6 -9 10 -21 10 -11
0 -17 -4 -14 -10z"/>
<path d="M240 4776 c0 -55 1 -56 28 -55 23 2 24 2 5 6 -20 4 -23 11 -23 49 0
41 2 44 26 44 22 0 25 -4 21 -22 -2 -13 -1 -34 3 -48 6 -18 7 -12 6 25 -1 49
-2 50 -33 53 l-33 3 0 -55z"/>
<path d="M1140 4774 c0 -32 3 -55 6 -51 3 3 6 26 6 51 0 42 2 46 24 46 28 0
43 -27 23 -42 -12 -8 -11 -9 1 -5 8 2 15 15 15 28 0 21 -5 24 -37 27 l-38 3 0
-57z"/>
<path d="M1973 4823 c9 -2 25 -2 35 0 9 3 1 5 -18 5 -19 0 -27 -2 -17 -5z"/>
<path d="M2750 4775 c0 -51 2 -55 23 -54 16 1 18 2 5 6 -14 3 -18 15 -18 49 0
41 2 45 23 42 19 -3 22 -9 22 -45 0 -22 3 -39 8 -36 12 7 8 68 -5 81 -7 7 -22
12 -35 12 -21 0 -23 -4 -23 -55z"/>
<path d="M3553 4814 c-3 -8 -2 -19 3 -24 5 -5 9 1 9 16 0 28 -3 30 -12 8z"/>
<path d="M3602 4816 c7 -8 15 -12 17 -11 5 6 -10 25 -20 25 -5 0 -4 -6 3 -14z"/>
<path d="M2141 4810 c-4 -20 0 -84 5 -89 8 -9 9 5 3 54 -3 28 -7 43 -8 35z"/>
<path d="M344 4760 c1 -31 4 -35 29 -36 25 -1 27 1 26 40 l-2 41 -6 -35 c-8
-48 -38 -54 -44 -8 l-4 33 1 -35z"/>
<path d="M430 4760 c0 -22 2 -40 4 -40 2 0 6 18 8 40 2 22 0 40 -4 40 -5 0 -8
-18 -8 -40z"/>
<path d="M484 4786 c-10 -27 1 -61 21 -64 19 -4 20 -3 1 11 -13 10 -17 22 -14
40 6 29 1 36 -8 13z"/>
<path d="M528 4751 c3 -41 1 -50 -15 -54 -15 -3 -15 -4 2 -3 17 1 20 9 23 54
2 28 -1 52 -5 52 -4 0 -6 -22 -5 -49z"/>
<path d="M574 4760 c1 -26 6 -35 19 -36 11 -1 12 0 3 3 -8 2 -17 19 -19 36 -4
31 -4 31 -3 -3z"/>
<path d="M623 4760 c0 -25 2 -35 4 -22 2 12 2 32 0 45 -2 12 -4 2 -4 -23z"/>
<path d="M667 4793 c-17 -16 -5 -33 23 -33 30 0 42 21 20 35 -6 3 -7 -1 -4 -9
4 -12 0 -16 -16 -16 -16 0 -20 4 -16 15 6 16 3 19 -7 8z"/>
<path d="M741 4758 c2 -35 3 -37 6 -13 3 17 9 36 15 43 8 9 6 12 -6 12 -12 0
-16 -9 -15 -42z"/>
<path d="M1243 4760 c0 -25 2 -35 4 -22 2 12 2 32 0 45 -2 12 -4 2 -4 -23z"/>
<path d="M1303 4767 c-30 -43 -29 -47 10 -46 31 2 31 2 4 6 l-28 4 26 35 c14
19 22 34 18 34 -4 0 -18 -15 -30 -33z"/>
<path d="M1382 4766 c-29 -42 -28 -46 11 -45 30 2 30 2 4 6 l-27 4 21 30 c12
17 19 32 17 34 -2 2 -13 -11 -26 -29z"/>
<path d="M1440 4789 c0 -5 5 -7 10 -4 6 3 10 8 10 11 0 2 -4 4 -10 4 -5 0 -10
-5 -10 -11z"/>
<path d="M1486 4786 c4 -10 -2 -15 -18 -18 -35 -5 -32 -43 5 -44 24 -1 27 2
27 32 0 18 -4 36 -10 39 -5 3 -7 0 -4 -9z m2 -38 c-7 -19 -38 -22 -38 -4 0 10
9 16 21 16 12 0 19 -5 17 -12z"/>
<path d="M2042 4758 c1 -41 1 -41 5 -8 3 19 10 38 16 42 8 5 6 8 -5 8 -15 0
-18 -8 -16 -42z"/>
<path d="M2225 4790 c3 -5 8 -10 11 -10 2 0 4 5 4 10 0 6 -5 10 -11 10 -5 0
-7 -4 -4 -10z"/>
<path d="M2277 4793 c-13 -12 -7 -24 18 -33 33 -13 33 -34 -1 -27 -16 3 -22 1
-16 -5 15 -15 46 -5 50 14 2 12 -5 19 -23 24 -17 4 -24 11 -21 20 6 15 3 18
-7 7z"/>
<path d="M2855 4789 c-4 -6 -5 -12 -2 -15 2 -3 7 2 10 11 7 17 1 20 -8 4z"/>
<path d="M2898 4788 c17 -17 15 -48 -4 -55 -11 -4 -22 1 -30 12 -12 16 -14 16
-14 3 0 -24 39 -33 57 -15 18 17 10 67 -9 67 -9 0 -9 -3 0 -12z"/>
<path d="M2947 4793 c-4 -3 -7 -19 -7 -34 0 -29 33 -50 51 -32 6 6 1 9 -13 9
-19 -1 -23 4 -23 32 0 17 0 32 -1 32 0 0 -4 -3 -7 -7z"/>
<path d="M2985 4790 c3 -5 8 -10 11 -10 2 0 4 5 4 10 0 6 -5 10 -11 10 -5 0
-7 -4 -4 -10z"/>
<path d="M3024 4775 c-7 -29 10 -55 35 -54 11 0 9 3 -6 9 -33 13 -28 30 7 30
17 0 30 4 30 8 0 5 -15 6 -32 4 -30 -5 -32 -3 -19 12 8 10 9 16 2 16 -6 0 -13
-11 -17 -25z"/>
<path d="M3112 4783 c2 -9 10 -18 18 -20 12 -4 13 -3 1 5 -7 5 -10 15 -7 21 4
6 2 11 -4 11 -6 0 -10 -8 -8 -17z"/>
<path d="M3641 4778 c-2 -37 8 -58 27 -58 14 0 14 1 0 13 -9 6 -19 26 -21 42
-4 28 -4 29 -6 3z"/>
<path d="M3737 4793 c-9 -9 -9 -63 1 -63 4 0 7 16 7 35 0 19 0 35 -1 35 0 0
-4 -3 -7 -7z"/>
<path d="M1960 4779 c0 -5 11 -9 25 -9 14 0 25 2 25 4 0 2 -11 6 -25 8 -14 3
-25 1 -25 -3z"/>
<path d="M3595 4767 c20 -15 13 -37 -12 -37 -9 0 -14 -3 -10 -6 3 -3 15 -3 26
1 25 8 28 40 5 49 -25 10 -29 7 -9 -7z"/>
<path d="M2191 4761 c-18 -12 -7 -41 16 -41 15 0 15 2 -3 14 -16 12 -16 15 -4
19 44 15 45 15 25 16 -11 0 -26 -3 -34 -8z"/>
<path d="M3156 4746 c6 -16 4 -18 -19 -14 -15 3 -24 1 -21 -3 7 -13 42 -11 50
2 3 6 1 16 -5 22 -9 9 -10 7 -5 -7z"/>
<path d="M663 4740 c5 -18 35 -26 50 -11 7 7 3 8 -13 4 -13 -4 -26 0 -32 8 -8
12 -9 11 -5 -1z"/>
<path d="M784 4304 c-21 -14 -75 -29 -196 -54 -34 -7 -62 -18 -68 -28 -5 -9
-10 -12 -10 -6 0 6 -23 10 -57 10 -32 -1 -86 3 -121 7 l-62 9 -20 -44 c-16
-34 -20 -65 -20 -152 0 -108 0 -109 20 -91 11 10 17 21 15 25 -3 4 7 11 22 15
25 6 56 -15 33 -23 -6 -2 -10 -10 -10 -19 0 -10 -6 -12 -19 -8 -20 6 -65 -39
-58 -59 4 -11 7 -12 70 -14 44 -2 49 -18 7 -27 -27 -6 -30 -10 -30 -46 0 -28
-4 -38 -12 -33 -7 5 -9 2 -6 -7 3 -9 -3 -26 -13 -40 -20 -26 -26 -69 -9 -69 6
0 15 12 20 26 10 24 33 54 43 54 3 0 8 -12 12 -27 3 -16 13 -35 21 -44 13 -14
13 -18 -1 -29 -12 -10 -21 -10 -40 -2 -22 10 -25 9 -25 -6 0 -10 5 -23 11 -29
13 -13 4 -47 -10 -39 -5 3 -12 -1 -15 -10 -3 -8 -10 -12 -16 -9 -5 3 -10 -1
-10 -10 0 -10 5 -14 13 -11 6 3 20 9 30 12 9 4 17 10 17 15 0 16 25 9 40 -10
7 -11 17 -18 22 -15 4 3 8 0 8 -6 0 -7 12 -9 35 -6 l34 6 -20 -35 c-12 -19
-24 -35 -27 -35 -3 0 -15 11 -27 25 -20 24 -42 30 -97 27 -28 -2 -28 -2 -28
-77 0 -73 4 -82 35 -75 5 1 18 2 28 3 10 1 28 14 38 29 12 16 26 25 34 21 11
-3 13 -1 9 10 -3 8 -1 18 4 21 5 3 12 -3 15 -14 5 -20 44 -27 119 -21 22 2 26
-1 22 -13 -5 -13 -1 -15 24 -10 24 5 36 0 66 -27 20 -19 36 -39 36 -45 0 -6 7
-17 15 -24 9 -7 14 -18 12 -24 -2 -6 13 -19 32 -30 28 -16 57 -21 136 -22 55
-1 109 3 120 9 10 5 32 10 47 9 15 0 28 4 28 9 0 5 9 9 21 9 12 0 17 4 14 11
-4 6 2 19 14 30 21 20 25 31 21 59 -1 8 1 12 5 8 4 -4 17 4 29 17 19 21 37 28
150 56 71 18 88 -11 37 -61 l-29 -29 -15 22 c-12 18 -18 20 -28 9 -11 -10 -11
-16 -1 -33 8 -12 11 -23 8 -26 -3 -3 -1 -14 5 -25 12 -22 -7 -84 -28 -92 -19
-8 -16 15 4 29 15 11 15 15 4 29 -18 22 -41 20 -41 -4 0 -13 -5 -18 -15 -14
-41 16 -100 -37 -72 -65 23 -23 -6 -24 -48 -2 -24 13 -48 20 -54 16 -16 -9
-13 -35 4 -41 25 -10 8 -21 -42 -29 -27 -3 -59 -9 -73 -12 -20 -4 -22 -3 -13
7 8 9 7 16 -5 30 -15 18 -16 18 -33 -4 -23 -29 -129 -57 -129 -34 0 4 -7 8
-16 8 -14 0 -14 2 0 22 11 16 13 25 4 35 -27 33 -68 1 -48 -37 9 -16 -3 -30
-26 -30 -9 0 -3 69 6 75 5 3 10 12 10 18 0 8 -3 8 -9 -1 -7 -11 -9 -11 -14 1
-8 22 -41 10 -66 -24 -27 -36 -39 -36 -68 -1 -21 25 -24 26 -34 9 -8 -14 -14
-15 -24 -7 -18 15 -61 9 -58 -8 4 -18 -14 -15 -21 4 -5 13 -15 15 -45 10 -38
-6 -39 -5 -44 29 -3 19 -2 48 3 64 7 25 5 31 -9 36 -35 11 -51 -5 -51 -49 1
-79 55 -158 132 -190 33 -14 161 -16 1090 -16 997 0 1055 1 1093 19 50 22 101
79 115 128 14 47 10 440 -5 435 -5 -2 -13 7 -18 20 l-9 23 -9 -22 c-11 -30
-19 -29 -19 2 0 18 5 25 20 25 11 0 23 -7 26 -15 16 -40 22 11 24 180 1 173
-1 186 -20 205 -25 25 -25 35 0 60 24 24 25 48 4 98 -20 49 -60 90 -109 113
-38 18 -83 19 -890 18 -734 0 -853 -2 -871 -15z m136 -99 c0 -16 -43 -21 -75
-9 -24 10 1 24 43 24 22 0 32 -5 32 -15z m55 -5 c3 -5 -1 -10 -10 -10 -9 0
-13 5 -10 10 3 6 8 10 10 10 2 0 7 -4 10 -10z m-559 -29 c-17 -19 -93 -33
-102 -19 -3 4 11 10 31 14 19 3 38 10 41 15 3 5 15 9 26 9 20 0 20 -1 4 -19z
m689 -11 c-3 -5 -13 -10 -21 -10 -8 0 -14 5 -14 10 0 6 9 10 21 10 11 0 17 -4
14 -10z m85 -35 c21 -25 5 -28 -36 -6 l-39 21 31 0 c18 0 37 -7 44 -15z m-785
-5 c-4 -6 -11 -7 -17 -4 -8 5 -9 1 -5 -10 4 -10 7 -21 7 -25 0 -5 11 -6 25 -3
14 2 31 0 38 -6 6 -5 36 -8 65 -6 46 4 52 2 52 -14 0 -26 11 -34 27 -21 9 9
13 8 13 0 0 -6 -5 -11 -11 -11 -6 0 -9 -6 -6 -14 3 -7 0 -19 -6 -26 -9 -10 -9
-11 2 -5 9 5 12 3 9 -6 -2 -7 -17 -16 -32 -20 -16 -4 -37 -16 -47 -25 -25 -23
-25 -75 1 -91 10 -7 23 -21 28 -30 9 -16 4 -18 -53 -18 -56 -1 -64 2 -69 19
-3 11 0 24 7 29 9 6 8 7 -3 6 -8 0 -25 2 -38 6 -18 6 -20 10 -11 21 6 8 19 14
29 14 18 0 50 39 50 61 0 23 -33 49 -61 49 -33 0 -42 18 -21 43 14 16 13 20
-7 47 -25 35 -21 50 15 50 15 0 23 -4 19 -10z m1282 -7 c3 -8 -6 -10 -30 -6
-38 6 -53 -13 -41 -50 5 -16 12 -18 41 -14 24 4 33 2 30 -6 -6 -19 -62 -20
-81 -2 -38 38 -7 98 47 93 17 -2 32 -8 34 -15z m603 2 c0 -8 5 -15 12 -15 9 0
9 -3 0 -12 -15 -15 -16 -48 -2 -48 6 0 10 -4 10 -10 0 -5 -9 -10 -20 -10 -15
0 -20 7 -20 29 0 16 -6 32 -12 35 -10 5 -10 7 0 12 6 3 12 12 12 20 0 8 5 14
10 14 6 0 10 -7 10 -15z m200 -41 l0 -55 -36 3 c-65 5 -73 69 -10 76 14 2 26
10 26 18 0 8 5 14 10 14 6 0 10 -25 10 -56z m-705 -14 c0 -31 -3 -35 -28 -38
-32 -4 -57 13 -57 37 0 27 22 42 55 39 27 -3 30 -6 30 -38z m147 26 c14 -21 9
-66 -7 -66 -10 0 -15 10 -15 30 0 20 -5 30 -15 30 -10 0 -15 -10 -15 -30 0
-16 -4 -30 -10 -30 -5 0 -10 14 -10 30 0 20 -5 30 -15 30 -10 0 -15 -10 -15
-30 0 -16 -4 -30 -10 -30 -5 0 -10 18 -10 40 l0 39 58 0 c31 -1 60 -6 64 -13z
m73 -6 c3 -11 10 -20 15 -20 5 0 12 9 15 20 6 18 25 29 25 15 0 -18 -31 -75
-40 -75 -9 0 -40 57 -40 75 0 14 19 3 25 -15z m145 0 c16 -30 -4 -60 -40 -60
-19 0 -33 7 -40 20 -16 30 4 60 40 60 19 0 33 -7 40 -20z m94 -4 c7 -27 -1
-56 -15 -56 -5 0 -9 14 -9 30 0 20 -5 30 -15 30 -10 0 -15 -10 -15 -30 0 -16
-4 -30 -10 -30 -5 0 -10 18 -10 40 0 39 1 40 34 40 27 0 35 -5 40 -24z m147
-18 l6 -38 -38 0 c-57 0 -60 39 -4 53 15 4 13 5 -7 6 -16 0 -28 6 -28 12 0 6
14 9 32 7 29 -3 33 -7 39 -40z m197 15 c3 -20 -1 -23 -30 -24 -30 -2 -31 -2
-5 -6 38 -6 34 -25 -5 -21 -26 2 -34 8 -36 26 -6 40 5 54 40 50 25 -2 34 -8
36 -25z m-1588 -7 c0 -11 -19 -15 -25 -6 -3 5 1 10 9 10 9 0 16 -2 16 -4z
m-135 -17 c4 -5 26 -9 50 -9 47 0 70 -25 41 -46 -12 -8 -13 -13 -4 -22 9 -9 3
-12 -28 -11 -21 1 -31 3 -21 6 20 5 23 19 5 25 -6 2 -20 -4 -30 -14 -12 -12
-35 -18 -73 -19 -30 -1 -60 -2 -67 -3 -6 -1 -13 9 -14 22 -4 26 20 31 30 6 7
-19 19 -12 22 12 5 30 14 45 24 39 6 -3 12 0 15 7 6 16 42 21 50 7z m250 -28
c3 -5 1 -12 -5 -16 -13 -8 -50 3 -50 16 0 12 47 12 55 0z m-450 -31 c19 0 29
-38 15 -55 -8 -10 -21 -13 -39 -9 -39 10 -43 14 -27 30 9 8 12 22 9 31 -5 13
-2 15 11 10 10 -4 24 -7 31 -7z m435 -56 c0 -8 -9 -14 -19 -14 -11 0 -36 -9
-55 -21 -20 -11 -41 -19 -48 -17 -11 4 75 58 93 58 5 0 9 5 9 11 0 5 5 7 10 4
6 -3 10 -13 10 -21z m259 1 c12 -14 38 -54 56 -90 l33 -64 1 -155 c1 -103 -3
-157 -10 -162 -8 -5 -8 -9 1 -14 8 -5 9 -20 4 -45 l-7 -39 -28 32 c-16 18 -33
32 -38 32 -18 0 -23 41 -8 63 8 12 20 40 27 62 7 22 16 45 20 50 11 15 18 103
9 112 -5 5 -10 18 -12 29 -1 12 -11 29 -20 39 -12 12 -16 26 -12 44 5 22 1 30
-18 40 -14 7 -27 28 -34 52 -12 47 0 51 36 14z m871 -15 c0 -5 -4 -10 -10 -10
-5 0 -10 5 -10 10 0 6 5 10 10 10 6 0 10 -4 10 -10z m308 -13 c4 -18 -23 -57
-40 -57 -4 0 -8 7 -8 15 0 8 7 15 15 15 8 0 15 7 15 15 0 9 -10 15 -26 15 -15
0 -23 4 -19 11 11 17 59 6 63 -14z m-1838 3 c0 -5 7 -10 15 -10 18 0 20 -16 3
-22 -14 -5 -50 27 -40 36 9 9 22 7 22 -4z m440 -26 c0 -21 -17 -17 -23 5 -3
14 -1 18 9 14 8 -3 14 -11 14 -19z m519 1 c-1 -5 -10 -9 -21 -7 -20 4 -36 -24
-22 -38 16 -16 50 1 61 31 19 49 83 35 83 -18 0 -32 -35 -49 -63 -30 -19 12
-25 12 -44 0 -43 -28 -87 29 -51 65 15 15 60 12 57 -3z m236 5 c13 -21 12 -70
-1 -70 -9 0 -14 11 -14 30 0 20 -5 30 -15 30 -10 0 -15 -10 -15 -30 0 -16 -4
-30 -10 -30 -5 0 -10 14 -10 30 0 20 -5 30 -15 30 -10 0 -15 -10 -15 -30 0
-16 -4 -30 -10 -30 -5 0 -10 18 -10 40 l0 39 55 0 c30 -1 57 -5 60 -9z m93 -2
c22 -22 13 -38 -19 -38 -18 0 -28 -4 -24 -10 4 -6 15 -8 26 -5 23 8 26 -10 3
-19 -24 -9 -54 12 -54 37 0 27 17 47 40 47 9 0 21 -5 28 -12z m72 2 c0 -5 -4
-10 -10 -10 -5 0 -10 -13 -10 -30 0 -20 -5 -30 -15 -30 -11 0 -15 11 -15 40 0
36 3 40 25 40 14 0 25 -4 25 -10z m130 -10 c17 -32 -22 -82 -50 -65 -4 3 -10
-5 -13 -16 -10 -38 -27 -9 -27 47 l0 54 40 0 c29 0 42 -5 50 -20z m40 -20 c0
-22 -4 -40 -10 -40 -5 0 -10 18 -10 40 0 22 5 40 10 40 6 0 10 -18 10 -40z
m80 31 c0 -5 -7 -14 -15 -21 -20 -17 -19 -37 3 -43 9 -3 0 -5 -20 -6 -44 -1
-46 4 -16 36 l21 23 -21 0 c-12 0 -22 5 -22 10 0 6 16 10 35 10 19 0 35 -4 35
-9z m70 -10 c-5 -11 -15 -23 -20 -26 -17 -10 -11 -25 10 -25 11 0 20 4 20 10
0 5 12 16 28 24 25 14 26 15 5 16 -31 0 -29 20 1 20 28 0 41 -15 48 -52 4 -23
1 -27 -26 -31 -17 -2 -35 -2 -41 1 -5 3 -26 5 -47 3 -43 -3 -45 0 -22 34 15
23 15 25 0 25 -9 0 -16 5 -16 10 0 6 16 10 35 10 32 0 35 -2 25 -19z m-1594
-12 c10 -17 -13 -36 -27 -22 -12 12 -4 33 11 33 5 0 12 -5 16 -11z m214 -14
c0 -8 -7 -15 -16 -15 -14 0 -14 3 -4 15 7 8 14 15 16 15 2 0 4 -7 4 -15z m197
-9 c4 -5 1 -7 -9 -3 -13 5 -16 0 -14 -21 3 -22 8 -26 27 -24 20 3 22 1 11 -9
-6 -7 -33 -14 -60 -14 -116 -4 -127 -9 -141 -73 -8 -37 -7 -44 7 -50 22 -9 27
-32 7 -32 -8 0 -15 7 -15 16 0 8 -4 13 -8 10 -5 -3 -23 4 -41 15 l-33 20 22
24 c15 16 20 30 15 42 -5 12 -9 14 -12 6 -3 -7 -11 -13 -19 -13 -9 0 -14 -7
-12 -17 2 -12 -5 -18 -24 -19 -34 -3 -36 11 -5 27 29 16 36 27 30 50 -3 11
-14 19 -26 19 -17 0 -19 2 -8 13 10 10 16 7 32 -12 28 -35 55 -37 63 -6 4 17
14 26 29 27 36 2 41 3 55 11 6 5 17 5 22 2 6 -3 10 0 10 7 0 15 84 18 97 4z
m1313 -22 c0 -8 -5 -12 -10 -9 -6 4 -8 11 -5 16 9 14 15 11 15 -7z m-2140 -24
c0 -5 -2 -10 -4 -10 -3 0 -8 5 -11 10 -3 6 -1 10 4 10 6 0 11 -4 11 -10z m314
-17 c3 -10 9 -25 12 -33 4 -13 3 -12 -8 1 -7 8 -21 18 -31 22 -10 4 -15 11
-12 17 10 16 32 12 39 -7z m142 -10 c-10 -10 -19 5 -10 18 6 11 8 11 12 0 2
-7 1 -15 -2 -18z m519 7 c3 -5 2 -10 -4 -10 -5 0 -13 5 -16 10 -3 6 -2 10 4
10 5 0 13 -4 16 -10z m-105 -25 c0 -7 -6 -16 -12 -18 -10 -4 -9 -8 2 -16 8 -6
10 -11 4 -11 -6 0 -21 12 -35 27 -17 18 -19 24 -7 20 10 -3 19 0 22 9 7 18 26
9 26 -11z m65 -3 c-2 -3 -12 -1 -22 2 -15 6 -15 9 -3 16 13 8 35 -8 25 -18z
m-915 9 c0 -5 -7 -12 -16 -15 -22 -9 -24 -8 -24 9 0 8 9 15 20 15 11 0 20 -4
20 -9z m207 -7 c-3 -3 -12 -4 -19 -1 -8 3 -5 6 6 6 11 1 17 -2 13 -5z m237
-18 c-10 -8 -21 -12 -24 -10 -5 6 21 24 34 24 6 0 1 -6 -10 -14z m-444 -6 c0
-5 -2 -10 -4 -10 -3 0 -8 5 -11 10 -3 6 -1 10 4 10 6 0 11 -4 11 -10z m177
-16 c-7 -7 -37 7 -37 17 0 6 9 5 21 -1 11 -7 19 -14 16 -16z m563 2 c0 -2 -7
-6 -15 -10 -8 -3 -15 -1 -15 4 0 6 7 10 15 10 8 0 15 -2 15 -4z m-377 -25 c24
-15 26 -20 13 -30 -12 -10 -18 -9 -34 6 -10 10 -27 23 -38 30 -18 11 -17 12 6
12 14 1 38 -7 53 -18z m-254 -21 c14 0 20 -4 15 -12 -5 -7 -2 -9 8 -5 12 4 14
1 11 -14 -3 -11 -10 -22 -15 -25 -10 -6 -39 27 -32 37 7 12 -56 19 -82 9 -32
-13 -37 -13 -28 1 3 6 20 17 38 24 26 11 33 11 47 -1 8 -8 26 -14 38 -14z
m771 -5 c0 -7 7 -15 15 -19 8 -3 15 -13 15 -23 0 -14 2 -15 9 -4 12 18 19 4
22 -47 2 -27 -1 -46 -9 -51 -8 -4 -10 -15 -6 -26 5 -13 4 -16 -4 -11 -7 4 -12
16 -12 27 0 11 -4 18 -9 14 -5 -3 -13 -1 -16 5 -20 33 -84 58 -153 61 -39 2
-74 0 -78 -4 -10 -10 -24 -9 -24 2 0 5 10 21 22 34 21 24 24 24 58 11 32 -13
41 -13 73 1 20 8 36 19 36 23 -5 28 2 35 16 16 14 -18 14 -18 15 5 0 20 2 21
15 11 8 -7 15 -18 15 -25z m477 -37 c-2 -13 -4 -5 -4 17 -1 22 1 32 4 23 2
-10 2 -28 0 -40z m-1072 12 c8 0 15 -7 15 -15 0 -8 -5 -15 -10 -15 -6 0 -13 7
-16 15 -4 8 -15 15 -25 15 -10 0 -19 5 -19 11 0 5 5 7 10 4 6 -3 10 0 10 7 0
8 5 6 11 -4 5 -10 17 -18 24 -18z m1109 -3 c1 -15 -2 -27 -6 -27 -4 0 -8 6 -8
14 0 8 -3 22 -7 32 -4 11 -2 15 7 12 7 -2 14 -16 14 -31z m723 -4 c-3 -10 -5
-4 -5 12 0 17 2 24 5 18 2 -7 2 -21 0 -30z m-667 8 c0 -27 -19 -36 -37 -18
-18 18 -9 37 18 37 12 0 19 -7 19 -19z m49 -8 c-2 -24 -2 -25 -6 -5 -2 12 -8
22 -13 22 -5 0 -11 -10 -13 -22 -4 -20 -4 -19 -6 5 -1 21 4 27 19 27 15 0 20
-6 19 -27z m36 17 c-3 -5 -1 -10 5 -10 7 0 10 -6 8 -12 -7 -21 -31 -14 -34 10
-3 15 1 22 12 22 8 0 12 -4 9 -10z m137 -4 c6 -8 8 -7 8 2 0 18 69 16 76 -3 3
-8 4 -20 1 -27 -4 -8 -8 -4 -13 11 l-7 25 -10 -25 -10 -24 -7 25 -7 25 -11
-25 c-6 -14 -11 -19 -11 -12 -1 10 -5 10 -22 0 -18 -11 -23 -11 -26 0 -4 10
-8 10 -19 1 -12 -10 -18 -9 -31 3 -8 9 -12 21 -9 26 9 14 89 13 98 -2z m385
-18 c-3 -8 -6 -5 -6 6 -1 11 2 17 5 13 3 -3 4 -12 1 -19z m-2037 -8 c0 -5 -5
-10 -11 -10 -5 0 -7 5 -4 10 3 6 8 10 11 10 2 0 4 -4 4 -10z m175 -46 c48 -35
67 -36 120 -9 27 13 54 21 59 17 6 -5 18 -8 26 -7 8 1 23 -3 33 -7 11 -6 17
-5 17 3 0 7 8 5 19 -5 21 -19 18 -46 -6 -46 -8 0 -11 -4 -8 -10 3 -5 1 -10 -4
-10 -18 0 -12 -20 14 -45 25 -26 51 -34 39 -12 -4 6 -4 9 1 5 5 -5 10 -22 12
-39 2 -17 12 -44 23 -59 18 -25 18 -29 4 -41 -9 -7 -20 -23 -25 -36 -9 -25
-37 -30 -70 -13 -13 7 -19 7 -19 0 0 -5 -7 -10 -15 -10 -19 0 -19 17 0 27 17
10 26 64 16 102 -9 33 -58 51 -112 41 -24 -4 -39 -3 -39 2 0 6 -7 8 -15 4 -8
-3 -15 -1 -15 5 0 5 -12 7 -27 5 -19 -4 -23 -2 -15 6 8 8 8 17 0 31 -8 17 -8
19 5 14 10 -4 14 -1 11 7 -6 15 -57 46 -77 46 -19 0 -29 39 -14 55 13 14 17
13 62 -21z m345 26 c0 -5 -2 -10 -4 -10 -3 0 -8 5 -11 10 -3 6 -1 10 4 10 6 0
11 -4 11 -10z m40 0 c0 -5 -7 -7 -15 -4 -8 4 -15 8 -15 10 0 2 7 4 15 4 8 0
15 -4 15 -10z m-464 -31 c11 -18 -20 -39 -64 -45 l-41 -5 10 31 c10 26 16 30
49 30 22 0 42 -5 46 -11z m444 -9 c13 -8 13 -10 -2 -10 -9 0 -20 5 -23 10 -8
13 5 13 25 0z m1040 -16 c12 -31 6 -44 -21 -44 -15 0 -19 7 -19 35 0 43 25 48
40 9z m76 18 c-2 -4 1 -18 8 -31 10 -17 15 -20 21 -11 4 7 2 16 -6 21 -10 6
-8 9 9 9 23 0 30 -14 11 -26 -8 -4 -7 -9 2 -15 9 -6 -1 -9 -28 -9 -46 0 -63
13 -36 29 12 7 13 10 4 11 -11 0 -11 3 -1 15 13 16 25 21 16 7z m124 -2 c0 -5
-8 -10 -17 -11 -15 0 -15 -2 2 -9 17 -7 17 -9 3 -9 -10 -1 -18 -5 -18 -10 0
-5 8 -12 18 -14 13 -4 11 -5 -5 -6 -20 -1 -23 4 -23 34 0 28 4 35 20 35 11 0
20 -4 20 -10z m17 -42 c-2 -13 -4 -5 -4 17 -1 22 1 32 4 23 2 -10 2 -28 0 -40z
m158 30 c2 -2 -1 -13 -6 -25 -10 -28 -39 -30 -46 -3 -3 11 -10 20 -15 20 -6 0
-8 -9 -5 -20 3 -11 2 -20 -3 -20 -8 0 -20 47 -13 53 4 4 84 -1 88 -5z m-1363
-38 c3 -32 0 -40 -13 -40 -18 0 -69 37 -69 49 0 7 46 26 71 30 4 1 9 -17 11
-39z m1020 13 c-5 -24 -6 -25 -12 -8 -8 21 -4 35 9 35 5 0 6 -12 3 -27z m246
10 c2 -8 -6 -13 -20 -14 -22 0 -22 -1 -3 -9 16 -7 17 -9 3 -9 -21 -1 -32 15
-24 35 7 18 37 15 44 -3z m132 5 c0 6 10 11 23 11 16 -1 18 -2 5 -6 -20 -5
-25 -33 -5 -33 6 0 20 7 30 14 14 11 15 15 5 20 -7 3 -4 5 7 3 12 -1 21 -11
23 -24 3 -19 -1 -21 -42 -21 -28 0 -46 4 -46 11 0 7 -4 6 -10 -3 -7 -12 -10
-8 -10 15 0 23 3 27 10 15 6 -10 10 -11 10 -2z m-1514 -66 c-4 -3 -12 0 -19 7
-9 9 -9 14 3 21 11 7 16 5 18 -6 2 -9 1 -18 -2 -22z m-582 -33 c-3 -5 -10 -7
-15 -3 -5 3 -7 10 -3 15 3 5 10 7 15 3 5 -3 7 -10 3 -15z m26 -29 c0 -5 -4
-10 -10 -10 -5 0 -10 5 -10 10 0 6 5 10 10 10 6 0 10 -4 10 -10z m407 -30 c-1
-21 -12 -26 -21 -11 -8 13 4 42 14 36 5 -3 8 -14 7 -25z m350 -30 c0 -10 -9
-15 -26 -14 -32 1 -38 20 -15 45 16 18 18 18 29 2 7 -10 12 -25 12 -33z m1343
-60 l0 -90 -425 0 -425 0 0 90 0 90 425 0 425 0 0 -90z m-1667 49 c-4 -12 -11
-18 -20 -15 -8 3 -19 6 -24 6 -5 0 -9 5 -9 11 0 5 4 8 8 5 4 -2 14 -1 22 5 23
14 29 11 23 -12z m557 -43 c0 -3 -4 -8 -10 -11 -5 -3 -10 -1 -10 4 0 6 5 11
10 11 6 0 10 -2 10 -4z m-360 -46 c0 -5 -4 -10 -10 -10 -5 0 -10 5 -10 10 0 6
5 10 10 10 6 0 10 -4 10 -10z"/>
<path d="M495 4010 c3 -5 8 -10 11 -10 2 0 4 5 4 10 0 6 -5 10 -11 10 -5 0 -7
-4 -4 -10z"/>
<path d="M2425 4070 c-9 -15 4 -30 26 -30 12 0 19 7 19 20 0 21 -33 29 -45 10z"/>
<path d="M1725 4070 c-9 -15 4 -30 26 -30 12 0 19 7 19 20 0 21 -33 29 -45 10z"/>
<path d="M2090 4060 c0 -13 7 -20 20 -20 13 0 20 7 20 20 0 13 -7 20 -20 20
-13 0 -20 -7 -20 -20z"/>
<path d="M2340 4040 c0 -5 4 -10 9 -10 6 0 13 5 16 10 3 6 -1 10 -9 10 -9 0
-16 -4 -16 -10z"/>
<path d="M2535 4080 c-4 -6 3 -10 14 -10 25 0 27 6 6 13 -8 4 -17 2 -20 -3z"/>
<path d="M1694 3869 c-10 -17 23 -46 37 -32 7 7 9 19 6 27 -7 18 -33 21 -43 5z"/>
<path d="M1948 3873 c6 -2 18 -2 25 0 6 3 1 5 -13 5 -14 0 -19 -2 -12 -5z"/>
<path d="M2132 3858 c2 -13 10 -23 18 -23 8 0 16 10 18 23 3 17 -2 22 -18 22
-16 0 -21 -5 -18 -22z"/>
<path d="M2415 3840 c-3 -5 1 -10 9 -10 9 0 16 5 16 10 0 6 -4 10 -9 10 -6 0
-13 -4 -16 -10z"/>
<path d="M1125 3800 c4 -6 11 -8 16 -5 14 9 11 15 -7 15 -8 0 -12 -5 -9 -10z"/>
<path d="M1085 3620 c3 -5 8 -10 11 -10 2 0 4 5 4 10 0 6 -5 10 -11 10 -5 0
-7 -4 -4 -10z"/>
<path d="M1246 3603 c-6 -14 -5 -15 5 -6 7 7 10 15 7 18 -3 3 -9 -2 -12 -12z"/>
<path d="M1980 3634 c0 -17 22 -14 28 4 2 7 -3 12 -12 12 -9 0 -16 -7 -16 -16z"/>
<path d="M2030 3634 c0 -8 5 -12 10 -9 6 3 10 10 10 16 0 5 -4 9 -10 9 -5 0
-10 -7 -10 -16z"/>
<path d="M1960 3520 c0 -5 5 -10 10 -10 6 0 10 5 10 10 0 6 -4 10 -10 10 -5 0
-10 -4 -10 -10z"/>
<path d="M2331 3524 c0 -11 3 -14 6 -6 3 7 2 16 -1 19 -3 4 -6 -2 -5 -13z"/>
<path d="M1771 3297 c-6 -16 -11 -29 -11 -31 0 -1 16 -2 35 -3 19 -1 35 3 35
8 0 5 7 9 15 9 8 0 15 -5 15 -11 0 -6 6 -9 13 -6 6 2 24 0 39 -4 19 -5 32 -3
42 6 10 10 16 11 25 2 8 -8 15 -6 26 9 13 17 14 17 15 2 0 -27 50 -25 50 2 0
11 5 20 10 20 6 0 10 -9 10 -20 0 -27 18 -25 23 3 l4 22 2 -22 c1 -17 7 -23
24 -23 18 0 19 2 7 10 -13 9 -13 10 0 10 13 0 13 1 0 10 -10 6 -11 10 -2 10 6
0 12 4 12 10 0 5 -35 9 -79 8 -63 -1 -81 -4 -86 -17 -5 -13 -7 -13 -15 -1 -11
18 -49 23 -65 10 -8 -7 -15 -7 -19 -1 -10 15 -77 11 -83 -5 -4 -12 -8 -11 -18
3 -13 17 -14 16 -24 -10z m177 -8 c-2 -6 -8 -10 -13 -10 -5 0 -11 4 -13 10 -2
6 4 11 13 11 9 0 15 -5 13 -11z m109 -15 c-3 -3 -12 -4 -19 -1 -8 3 -5 6 6 6
11 1 17 -2 13 -5z"/>
<path d="M2198 3303 c-25 -6 -23 -23 3 -23 11 0 17 -4 14 -10 -8 -14 8 -13 22
1 6 6 9 18 6 25 -5 14 -14 15 -45 7z"/>
<path d="M2945 4301 c-75 -35 -125 -111 -125 -190 l0 -39 48 18 c91 35 202 51
342 52 202 0 380 -31 491 -87 l49 -25 0 145 0 145 -382 0 c-351 0 -386 -2
-423 -19z"/>
<path d="M2662 4060 c0 -14 2 -19 5 -12 2 6 2 18 0 25 -3 6 -5 1 -5 -13z"/>
<path d="M3437 4023 c-11 -10 13 -32 29 -26 8 3 14 1 15 -3 0 -5 2 -19 5 -31
4 -25 -22 -38 -58 -28 -18 5 -20 4 -8 -4 8 -6 23 -11 32 -11 11 0 15 -5 12
-15 -4 -8 -11 -12 -18 -8 -6 3 -3 -3 8 -15 15 -17 21 -19 38 -9 16 10 22 9 32
-5 7 -10 17 -14 22 -9 15 15 72 23 79 12 3 -6 1 -11 -6 -11 -7 0 -9 -3 -6 -6
9 -9 38 16 31 27 -3 5 -10 7 -15 4 -5 -4 -9 -1 -9 4 0 6 5 11 12 11 6 0 8 3 4
8 -9 9 -76 10 -70 0 2 -3 -5 -4 -16 -1 -11 3 -20 9 -20 13 0 5 -3 16 -7 26 -5
13 -3 15 8 9 8 -4 11 -5 7 0 -4 4 -2 15 4 22 10 13 7 14 -19 10 -25 -4 -32 -1
-37 16 -4 17 -7 18 -20 7 -15 -11 -20 -7 -17 13 1 9 -4 9 -12 0z"/>
<path d="M3234 4009 c-6 -10 15 -33 34 -36 6 -2 12 4 12 12 0 8 0 18 0 23 0
10 -39 11 -46 1z"/>
<path d="M3180 4000 c0 -5 5 -10 10 -10 6 0 10 5 10 10 0 6 -4 10 -10 10 -5 0
-10 -4 -10 -10z"/>
<path d="M3300 3975 c-7 -9 -9 -22 -4 -32 7 -17 8 -31 5 -52 0 -4 -13 -6 -28
-3 -25 4 -26 3 -11 -9 21 -17 27 -50 11 -56 -8 -3 -13 5 -13 20 0 13 -6 30
-14 37 -8 6 -12 18 -9 26 3 8 0 14 -6 14 -6 0 -11 -7 -11 -15 0 -8 -8 -15 -18
-15 -10 0 -33 -11 -52 -25 -19 -14 -39 -25 -46 -25 -6 0 -11 -8 -10 -17 0 -9
-8 -19 -19 -22 -35 -10 -135 -80 -141 -99 -10 -32 -24 -57 -23 -42 3 38 -2 44
-16 20 -7 -14 -17 -24 -21 -22 -5 2 -10 -1 -12 -7 -2 -6 3 -14 12 -17 9 -3 16
-13 16 -21 0 -8 -5 -11 -11 -7 -8 4 -7 0 1 -15 6 -12 16 -19 23 -16 7 4 2 -2
-9 -12 -29 -26 -14 -58 22 -49 16 4 23 2 22 -6 -2 -7 14 -15 37 -20 51 -10
274 -7 281 3 2 5 11 6 18 3 8 -3 18 7 26 26 9 22 15 28 21 18 5 -7 1 -20 -9
-32 -16 -18 -16 -19 18 -12 19 4 44 9 55 10 69 11 96 20 92 31 -3 6 -1 18 4
26 6 10 9 10 9 2 0 -7 5 -13 11 -13 6 0 9 6 6 14 -4 10 4 15 24 18 34 5 43 0
28 -18 -8 -10 -6 -12 13 -9 34 7 81 27 96 42 8 7 18 11 23 8 5 -4 9 -1 9 4 0
6 9 11 20 11 28 0 38 29 16 45 -14 11 -15 13 -1 18 19 8 8 37 -15 37 -9 0 -31
-13 -47 -29 -28 -27 -29 -30 -15 -45 15 -15 15 -16 -1 -16 -11 0 -16 5 -12 13
4 6 -2 2 -13 -11 -14 -15 -22 -18 -25 -10 -3 10 -10 10 -33 -2 -16 -8 -32 -19
-36 -25 -5 -6 -11 -5 -17 5 -11 17 4 40 25 40 8 0 14 4 14 9 0 5 9 7 20 4 16
-4 19 -2 14 11 -3 9 -11 16 -18 16 -6 0 -2 7 8 15 16 12 22 12 29 2 7 -9 10
-9 14 1 2 6 11 12 19 12 8 0 13 3 13 8 -3 20 2 32 16 32 18 0 20 17 3 22 -6 2
-23 2 -38 0 -21 -3 -26 -8 -23 -22 3 -12 -2 -20 -18 -25 -30 -10 -52 19 -45
62 3 23 0 33 -11 37 -16 7 -57 -27 -46 -37 3 -3 -5 -3 -17 0 -17 5 -20 11 -15
31 5 22 4 24 -20 18 -18 -5 -25 -2 -25 8 0 19 -60 65 -77 59 -19 -7 -38 47
-24 70 14 21 -2 23 -19 2z m74 -104 c10 -11 15 -25 10 -32 -4 -8 -3 -10 4 -5
7 4 12 2 12 -5 0 -8 -12 -10 -36 -6 -30 5 -34 4 -24 -8 6 -8 10 -24 8 -37 -3
-20 -8 -23 -40 -20 -26 3 -47 -3 -68 -18 -31 -22 -50 -20 -50 7 0 13 3 13 16
3 13 -11 16 -10 21 8 3 12 10 22 15 22 5 0 6 -4 3 -10 -3 -5 -1 -10 4 -10 6 0
11 8 12 18 0 10 3 12 6 5 2 -7 12 -13 21 -13 24 1 55 27 47 39 -10 18 -25 12
-25 -9 0 -24 -13 -26 -30 -5 -11 13 -8 17 18 26 27 9 30 13 22 35 -10 24 4 36
13 12 3 -8 6 -6 6 5 1 22 14 22 35 -2z m-174 -21 c0 -15 7 -20 26 -20 22 0 24
-2 14 -15 -17 -20 -84 -15 -88 7 -4 20 17 47 36 48 6 0 12 -9 12 -20z m47 -6
c-3 -3 -12 -4 -19 -1 -8 3 -5 6 6 6 11 1 17 -2 13 -5z m-117 -24 c0 -5 -5 -10
-11 -10 -5 0 -7 5 -4 10 3 6 8 10 11 10 2 0 4 -4 4 -10z m315 -10 c3 -5 1 -10
-4 -10 -6 0 -11 5 -11 10 0 6 2 10 4 10 3 0 8 -4 11 -10z m98 4 c8 -8 -3 -34
-14 -34 -5 0 -9 9 -9 20 0 19 11 26 23 14z m-375 -51 c4 -24 -31 -53 -62 -53
-11 0 -28 8 -39 18 -15 12 -18 13 -12 2 6 -12 5 -12 -5 -3 -18 17 -7 37 30 55
40 20 84 10 88 -19z m222 8 c-6 -12 -8 -26 -5 -31 3 -6 2 -10 -3 -10 -25 0
-29 57 -4 62 24 6 25 3 12 -21z m48 -30 c-2 -13 -7 -18 -15 -13 -7 4 -10 17
-6 31 7 28 26 13 21 -18z m-28 19 c0 -5 -5 -10 -11 -10 -5 0 -7 5 -4 10 3 6 8
10 11 10 2 0 4 -4 4 -10z m137 -35 c0 -8 -4 -15 -9 -15 -4 0 -8 2 -8 4 0 2 -3
12 -6 20 -4 11 -2 15 8 11 8 -3 15 -12 15 -20z m-246 -14 c-7 -5 -10 -14 -6
-20 7 -13 -11 -41 -27 -41 -6 0 -8 11 -6 25 3 14 1 28 -3 31 -16 10 -9 23 14
26 28 5 47 -10 28 -21z m230 -11 c6 0 9 -7 5 -15 -3 -8 0 -15 7 -15 6 0 -6 -9
-27 -21 -21 -11 -41 -18 -44 -15 -3 3 0 6 6 6 7 0 12 8 12 17 0 9 -3 13 -6 10
-10 -9 -45 13 -39 24 4 5 11 7 16 4 5 -4 9 1 9 9 0 8 8 19 18 25 13 7 19 5 24
-10 4 -10 12 -19 19 -19z m-511 17 c0 4 5 2 12 -5 9 -9 7 -16 -10 -32 -26 -24
-72 -29 -52 -5 6 8 9 19 5 25 -11 18 5 31 26 20 10 -6 19 -7 19 -3z m183 -39
c12 -18 -28 -78 -53 -78 -17 0 -60 43 -60 60 0 6 21 10 46 10 38 0 45 3 40 16
-8 20 14 14 27 -8z m187 -3 c0 -12 4 -13 19 -6 14 8 20 7 25 -4 4 -11 -2 -15
-19 -15 -19 0 -23 -4 -18 -17 4 -10 -5 -4 -20 13 -32 38 -33 44 -7 44 11 0 20
-7 20 -15z m-440 -14 c0 -5 11 -12 25 -15 14 -4 25 -11 25 -16 0 -13 -13 -13
-27 1 -14 14 -38 -24 -28 -44 4 -6 -3 -1 -14 13 -18 21 -20 22 -15 5 5 -18 4
-18 -6 -2 -15 23 -3 42 17 26 12 -11 13 -9 8 14 -5 17 -3 27 4 27 6 0 11 -4
11 -9z m790 -11 c0 -5 -2 -10 -4 -10 -3 0 -8 5 -11 10 -3 6 -1 10 4 10 6 0 11
-4 11 -10z m-717 -30 c3 -11 1 -18 -4 -14 -5 3 -9 12 -9 20 0 20 7 17 13 -6z
m407 0 c0 -5 -4 -10 -10 -10 -5 0 -10 5 -10 10 0 6 5 10 10 10 6 0 10 -4 10
-10z m-140 -31 c0 -11 4 -18 9 -15 5 4 7 -3 4 -14 -3 -11 -10 -20 -15 -20 -5
0 -7 -4 -3 -9 3 -5 1 -12 -5 -16 -5 -3 -10 -1 -10 5 0 7 -6 10 -14 7 -22 -9
-26 29 -5 44 11 7 19 19 19 26 0 7 5 13 10 13 6 0 10 -9 10 -21z m115 11 c3
-5 2 -10 -4 -10 -5 0 -13 5 -16 10 -3 6 -2 10 4 10 5 0 13 -4 16 -10z m-171
-15 c3 -8 1 -15 -4 -15 -6 0 -10 7 -10 15 0 8 2 15 4 15 2 0 6 -7 10 -15z
m-104 -15 c0 -5 -2 -10 -4 -10 -3 0 -8 5 -11 10 -3 6 -1 10 4 10 6 0 11 -4 11
-10z m252 -2 c-9 -9 -15 -9 -24 0 -9 9 -7 12 12 12 19 0 21 -3 12 -12z m-432
-8 c0 -5 -5 -10 -11 -10 -5 0 -7 5 -4 10 3 6 8 10 11 10 2 0 4 -4 4 -10z m265
0 c3 -5 1 -10 -4 -10 -6 0 -11 5 -11 10 0 6 2 10 4 10 3 0 8 -4 11 -10z m-75
-60 c0 -5 -5 -10 -11 -10 -5 0 -7 5 -4 10 3 6 8 10 11 10 2 0 4 -4 4 -10z"/>
<path d="M3074 3963 c3 -4 17 -8 29 -10 17 -2 19 -1 7 7 -17 11 -47 14 -36 3z"/>
<path d="M3420 3959 c0 -5 5 -7 10 -4 6 3 10 8 10 11 0 2 -4 4 -10 4 -5 0 -10
-5 -10 -11z"/>
<path d="M3009 3960 c0 -3 -2 -13 -4 -22 -4 -20 10 -24 21 -7 3 6 1 16 -5 22
-6 6 -11 9 -12 7z"/>
<path d="M3370 3946 c0 -23 16 -27 17 -5 1 10 -2 19 -8 19 -5 0 -9 -6 -9 -14z"/>
<path d="M3155 3928 c2 -24 19 -35 30 -19 3 6 1 11 -4 11 -6 0 -11 7 -11 15 0
8 -4 15 -8 15 -5 0 -8 -10 -7 -22z"/>
<path d="M2946 3915 c-10 -8 -22 -12 -26 -10 -4 2 -5 -6 -3 -19 3 -13 0 -33
-6 -45 -10 -17 -9 -21 5 -21 10 0 14 5 11 14 -3 8 5 26 19 41 13 14 24 33 24
41 0 17 0 17 -24 -1z"/>
<path d="M3033 3915 c-17 -13 -16 -14 9 -15 30 0 46 15 24 23 -8 3 -22 -1 -33
-8z"/>
<path d="M3650 3910 c0 -5 7 -10 15 -10 8 0 15 5 15 10 0 6 -7 10 -15 10 -8 0
-15 -4 -15 -10z"/>
<path d="M3080 3890 c-9 -6 -10 -10 -3 -10 6 0 15 5 18 10 8 12 4 12 -15 0z"/>
<path d="M3577 3853 c-3 -5 -2 -15 2 -22 5 -7 11 -9 14 -4 3 5 2 15 -2 22 -5
7 -11 9 -14 4z"/>
<path d="M2976 3825 c-3 -8 -1 -15 4 -15 6 0 10 7 10 15 0 8 -2 15 -4 15 -2 0
-6 -7 -10 -15z"/>
<path d="M3480 3824 c0 -8 5 -12 10 -9 6 4 8 11 5 16 -9 14 -15 11 -15 -7z"/>
<path d="M2863 3758 c-16 -21 -23 -62 -13 -78 7 -11 10 -11 10 -2 0 7 5 10 10
7 6 -3 10 1 10 10 0 8 7 18 15 21 8 4 13 10 10 14 -3 5 5 16 17 24 22 16 22
16 -14 16 -19 0 -40 -6 -45 -12z"/>
<path d="M3525 3550 c-3 -5 -1 -10 4 -10 6 0 11 5 11 10 0 6 -2 10 -4 10 -3 0
-8 -4 -11 -10z"/>
<path d="M3688 3427 c-46 -43 -68 -75 -122 -182 -36 -72 -81 -149 -101 -173
l-37 -42 161 0 161 0 0 225 c0 124 -1 225 -2 225 -2 -1 -28 -24 -60 -53z"/>
<path d="M2820 3316 c0 -96 4 -129 19 -161 39 -84 110 -125 219 -125 69 0 70
0 82 33 6 17 15 39 19 47 12 27 1 61 -18 55 -9 -3 -24 1 -32 7 -8 7 -12 12
-10 11 2 -1 12 2 23 8 11 6 68 19 126 29 59 11 121 23 137 28 32 10 135 60
135 66 0 2 -30 -5 -67 -15 -192 -54 -392 -22 -555 87 l-78 52 0 -122z"/>
<path d="M435 3320 c-3 -5 -1 -10 4 -10 6 0 11 5 11 10 0 6 -2 10 -4 10 -3 0
-8 -4 -11 -10z"/>
<path d="M395 3290 c-3 -5 3 -10 15 -10 12 0 18 5 15 10 -3 6 -10 10 -15 10
-5 0 -12 -4 -15 -10z"/>
<path d="M345 3240 c-7 -11 4 -60 14 -60 11 0 41 57 34 64 -10 9 -41 7 -48 -4z"/>
<path d="M825 3150 c3 -5 10 -10 16 -10 5 0 9 5 9 10 0 6 -7 10 -16 10 -8 0
-12 -4 -9 -10z"/>
<path d="M759 3111 l-24 -20 27 -1 c29 0 46 16 31 31 -6 6 -19 2 -34 -10z"/>
<path d="M250 2580 c0 -54 2 -60 21 -60 51 0 80 46 57 94 -9 20 -18 26 -45 26
l-33 0 0 -60z m58 38 c27 -27 7 -78 -30 -78 -15 0 -18 8 -18 45 0 37 3 45 18
45 10 0 23 -5 30 -12z"/>
<path d="M553 2621 c-8 -13 -9 -22 -3 -26 6 -3 10 -22 10 -41 0 -25 4 -34 17
-34 13 0 14 3 5 12 -16 16 -15 68 1 68 8 0 9 3 1 8 -6 4 -13 13 -15 20 -3 8
-8 6 -16 -7z"/>
<path d="M367 2603 c-11 -11 -8 -58 5 -71 15 -15 45 -16 53 -2 4 6 -3 9 -16 7
-12 -1 -24 4 -26 11 -3 8 6 12 26 12 34 0 36 2 21 31 -10 18 -50 26 -63 12z
m51 -20 c2 -8 -5 -13 -17 -13 -12 0 -21 6 -21 16 0 18 31 15 38 -3z"/>
<path d="M460 2592 c0 -11 12 -24 27 -31 20 -9 23 -15 15 -23 -9 -9 -15 -9
-24 0 -17 17 -33 15 -18 -3 15 -18 42 -19 58 -3 19 19 14 28 -18 39 -36 13
-40 33 -5 27 14 -3 25 -1 25 3 0 5 -13 9 -30 9 -22 0 -30 -5 -30 -18z"/>
<path d="M615 2600 c-5 -7 2 -9 20 -4 25 6 26 5 23 -26 -2 -19 -9 -36 -17 -38
-10 -3 -12 1 -8 17 3 14 1 21 -10 21 -9 0 -13 -8 -11 -22 2 -19 10 -23 36 -23
32 -1 33 0 30 40 -3 35 -6 40 -30 43 -14 2 -29 -2 -33 -8z"/>
<path d="M704 2586 c-7 -30 11 -66 33 -66 14 0 14 2 -1 19 -21 24 -17 54 7 59
15 3 18 -2 17 -30 -3 -56 0 -78 10 -78 6 0 10 27 10 60 l0 60 -35 0 c-28 0
-36 -4 -41 -24z"/>
<path d="M812 2568 c3 -41 4 -43 36 -43 32 -1 32 0 31 45 -2 34 -3 38 -6 15
-9 -62 -43 -69 -43 -9 0 19 -5 34 -11 34 -6 0 -9 -17 -7 -42z"/>
<path d="M917 2604 c-11 -12 -8 -59 5 -72 15 -15 45 -16 54 -1 4 7 0 9 -13 5
-12 -4 -25 -1 -33 9 -11 13 -8 15 19 15 28 0 32 3 29 23 -2 15 -11 23 -28 25
-14 2 -29 0 -33 -4z m46 -19 c1 -5 -6 -11 -15 -13 -11 -2 -18 3 -18 13 0 17
30 18 33 0z"/>
<path d="M1006 2595 c-3 -10 5 -20 25 -31 23 -11 28 -19 20 -27 -8 -8 -14 -8
-23 1 -17 17 -33 15 -18 -3 15 -18 44 -19 58 -2 14 16 4 32 -25 41 -32 10 -29
30 2 22 14 -4 25 -2 25 4 0 16 -57 12 -64 -5z"/>
<path d="M247 2282 c-15 -16 -17 -52 -17 -299 0 -258 1 -281 18 -296 16 -15
52 -17 299 -17 258 0 281 1 296 18 15 16 17 52 17 293 0 232 -2 278 -16 297
-15 22 -17 22 -298 22 -261 0 -284 -1 -299 -18z m204 -381 c7 11 9 11 9 -3 0
-10 5 -18 10 -18 6 0 10 8 11 18 0 15 1 15 8 -2 7 -19 8 -19 15 -1 6 16 9 17
16 5 6 -8 10 -18 10 -21 0 -4 -42 -6 -94 -6 -85 0 -93 2 -88 19 6 23 22 24 23
1 0 -15 2 -15 7 -3 10 21 32 23 33 3 0 -13 3 -11 11 7 10 22 12 23 16 6 3 -15
6 -16 13 -5z m149 -8 c1 -16 2 -16 11 1 9 15 13 16 20 5 5 -8 9 -9 9 -3 0 7
22 11 55 12 45 0 55 -3 55 -17 0 -15 -12 -17 -90 -18 -61 -1 -90 3 -90 11 0 6
-5 4 -10 -4 -8 -12 -10 -11 -10 8 0 17 6 22 25 22 17 0 25 -6 25 -17z"/>
<path d="M690 1890 c0 -5 5 -10 10 -10 6 0 10 5 10 10 0 6 -4 10 -10 10 -5 0
-10 -4 -10 -10z"/>
<path d="M720 1890 c0 -5 5 -10 10 -10 6 0 10 5 10 10 0 6 -4 10 -10 10 -5 0
-10 -4 -10 -10z"/>
<path d="M1110 2090 c0 -35 2 -61 5 -58 8 7 9 108 1 115 -3 3 -6 -22 -6 -57z"/>
<path d="M1009 2116 c-15 -31 -4 -73 20 -81 21 -6 51 3 51 16 0 5 -9 4 -19 -3
-40 -25 -71 41 -35 76 8 9 11 16 4 16 -6 0 -15 -11 -21 -24z"/>
<path d="M1062 2126 c7 -8 15 -12 17 -11 5 6 -10 25 -20 25 -5 0 -4 -6 3 -14z"/>
<path d="M2082 2083 l2 -58 3 53 c4 48 6 52 29 52 17 0 24 -5 24 -19 0 -11 -5
-22 -10 -24 -6 -3 -5 -4 2 -3 7 2 13 14 13 27 0 20 -6 25 -32 27 l-33 3 2 -58z"/>
<path d="M2680 2086 c0 -55 1 -56 28 -55 22 1 23 3 5 6 -18 4 -21 11 -21 49 0
40 2 44 25 44 21 0 24 -4 20 -22 -2 -13 -1 -34 3 -48 6 -18 7 -12 6 25 -1 49
-2 50 -33 53 l-33 3 0 -55z"/>
<path d="M1160 2067 c4 -41 5 -41 8 -8 2 18 0 37 -5 42 -5 5 -6 -11 -3 -34z"/>
<path d="M1250 2080 c0 -34 -26 -52 -42 -29 -8 12 -9 11 -5 -1 2 -8 16 -15 30
-16 25 -1 27 2 27 37 0 22 -2 39 -5 39 -3 0 -5 -14 -5 -30z"/>
<path d="M1281 2068 c2 -35 3 -37 6 -13 3 17 9 36 15 43 8 9 6 12 -6 12 -12 0
-16 -9 -15 -42z"/>
<path d="M1340 2070 c0 -22 2 -40 4 -40 2 0 6 18 8 40 2 22 0 40 -4 40 -5 0
-8 -18 -8 -40z"/>
<path d="M1390 2099 c0 -5 5 -7 10 -4 6 3 10 8 10 11 0 2 -4 4 -10 4 -5 0 -10
-5 -10 -11z"/>
<path d="M1436 2096 c4 -10 -2 -15 -18 -18 -35 -5 -32 -43 5 -44 24 -1 27 2
27 32 0 18 -4 36 -10 39 -5 3 -7 0 -4 -9z m2 -38 c-7 -19 -38 -22 -38 -4 0 10
9 16 21 16 12 0 19 -5 17 -12z"/>
<path d="M1483 2096 c1 -11 9 -21 17 -23 10 -3 11 -2 4 4 -6 4 -14 15 -17 23
-5 11 -6 9 -4 -4z"/>
<path d="M1515 2100 c3 -5 8 -10 11 -10 2 0 4 5 4 10 0 6 -5 10 -11 10 -5 0
-7 -4 -4 -10z"/>
<path d="M1565 2099 c-4 -6 -5 -12 -2 -15 2 -3 7 2 10 11 7 17 1 20 -8 4z"/>
<path d="M1686 2096 c3 -8 -2 -16 -13 -19 -15 -4 -15 -5 -1 -6 9 0 19 -11 21
-23 2 -13 5 -4 6 20 0 23 -3 42 -9 42 -5 0 -7 -6 -4 -14z"/>
<path d="M1732 2068 c1 -41 1 -41 5 -8 3 19 10 38 16 42 8 5 6 8 -5 8 -15 0
-18 -8 -16 -42z"/>
<path d="M1866 2096 c3 -8 -2 -16 -13 -19 -15 -4 -15 -5 -1 -6 9 0 19 -11 21
-23 2 -13 5 -4 6 20 0 23 -3 42 -9 42 -5 0 -7 -6 -4 -14z"/>
<path d="M1957 2103 c-4 -3 -7 -19 -7 -34 0 -29 33 -50 51 -32 6 6 1 9 -12 9
-12 -1 -24 5 -26 12 -3 7 5 12 21 12 26 0 36 22 16 35 -6 3 -7 -1 -4 -9 4 -12
0 -16 -16 -16 -16 0 -20 4 -16 15 6 16 3 19 -7 8z"/>
<path d="M2183 2070 c0 -25 2 -35 4 -22 2 12 2 32 0 45 -2 12 -4 2 -4 -23z"/>
<path d="M2235 2077 c-11 -17 -21 -35 -23 -39 -2 -5 11 -7 30 -7 23 1 26 3 11
6 -24 5 -30 18 -13 28 14 9 32 45 23 45 -4 0 -17 -15 -28 -33z"/>
<path d="M2315 2077 c-11 -17 -21 -35 -23 -39 -2 -5 11 -7 30 -7 23 1 26 3 11
6 -28 5 -28 8 -2 44 11 16 17 29 12 29 -4 0 -17 -15 -28 -33z"/>
<path d="M2416 2096 c3 -8 -2 -16 -13 -19 -15 -4 -15 -5 -1 -6 9 0 19 -11 21
-23 2 -13 5 -4 6 20 0 23 -3 42 -9 42 -5 0 -7 -6 -4 -14z"/>
<path d="M2462 2068 c1 -41 1 -41 5 -8 3 19 10 38 16 42 8 5 6 8 -5 8 -15 0
-18 -8 -16 -42z"/>
<path d="M2596 2096 c3 -8 -2 -16 -13 -19 -15 -4 -15 -5 -1 -6 9 0 19 -11 21
-23 2 -13 5 -4 6 20 0 23 -3 42 -9 42 -5 0 -7 -6 -4 -14z"/>
<path d="M2785 2099 c-4 -6 -5 -12 -2 -15 2 -3 7 2 10 11 7 17 1 20 -8 4z"/>
<path d="M2833 2086 c7 -14 13 -23 15 -21 7 6 -9 45 -18 45 -4 0 -3 -11 3 -24z"/>
<path d="M2873 2070 c0 -25 2 -35 4 -22 2 12 2 32 0 45 -2 12 -4 2 -4 -23z"/>
<path d="M2932 2076 c-29 -42 -28 -46 11 -45 30 2 30 2 4 6 l-27 4 21 30 c12
17 19 32 17 34 -2 2 -13 -11 -26 -29z"/>
<path d="M2990 2099 c0 -5 5 -7 10 -4 6 3 10 8 10 11 0 2 -4 4 -10 4 -5 0 -10
-5 -10 -11z"/>
<path d="M3036 2096 c4 -10 -2 -15 -18 -18 -35 -5 -32 -43 5 -44 24 -1 27 2
27 32 0 18 -4 36 -10 39 -5 3 -7 0 -4 -9z m2 -38 c-7 -19 -38 -22 -38 -4 0 10
9 16 21 16 12 0 19 -5 17 -12z"/>
<path d="M3075 2089 c-10 -30 -2 -32 12 -3 6 13 7 24 3 24 -5 0 -12 -9 -15
-21z"/>
<path d="M3125 2077 c0 -27 -4 -32 -23 -31 -14 0 -19 -3 -13 -9 18 -18 51 3
51 33 0 16 -3 31 -8 33 -4 3 -7 -9 -7 -26z"/>
<path d="M3366 2074 c-9 -8 -16 -24 -16 -35 0 -22 85 -119 104 -119 7 0 32 21
56 48 l45 47 -45 -42 c-25 -24 -51 -43 -57 -43 -18 0 -93 88 -93 109 0 11 10
27 22 35 12 9 17 16 11 16 -6 0 -19 -7 -27 -16z"/>
<path d="M3426 2075 c17 -12 27 -12 53 -2 38 14 62 2 72 -34 7 -23 7 -23 8 -2
1 12 -6 29 -15 37 -18 18 -69 21 -80 5 -4 -8 -9 -8 -17 0 -6 6 -18 11 -26 11
-11 0 -10 -4 5 -15z"/>
<path d="M1520 2054 c0 -12 -6 -15 -21 -11 -16 4 -19 3 -11 -5 14 -14 42 -3
42 17 0 8 -2 15 -5 15 -3 0 -5 -7 -5 -16z"/>
<path d="M1564 2050 c1 -18 34 -26 48 -12 6 6 1 8 -15 5 -16 -3 -27 0 -30 9
-3 9 -4 9 -3 -2z"/>
<path d="M1644 2050 c1 -8 10 -16 21 -17 15 -1 15 0 3 3 -9 3 -19 11 -21 17
-2 7 -3 5 -3 -3z"/>
<path d="M1824 2050 c1 -8 10 -16 21 -17 15 -1 15 0 3 3 -9 3 -19 11 -21 17
-2 7 -3 5 -3 -3z"/>
<path d="M2374 2050 c1 -8 10 -16 21 -17 15 -1 15 0 3 3 -9 3 -19 11 -21 17
-2 7 -3 5 -3 -3z"/>
<path d="M2554 2050 c1 -8 10 -16 21 -17 15 -1 15 0 3 3 -9 3 -19 11 -21 17
-2 7 -3 5 -3 -3z"/>
<path d="M2780 2058 c0 -21 38 -34 54 -18 8 8 6 9 -8 4 -13 -5 -23 -1 -32 11
-12 16 -14 16 -14 3z"/>
<path d="M247 1482 c-15 -16 -17 -52 -17 -299 0 -258 1 -281 18 -296 16 -15
52 -17 299 -17 258 0 281 1 296 18 15 16 17 52 17 299 0 258 -1 281 -18 296
-16 15 -52 17 -299 17 -258 0 -281 -1 -296 -18z m125 -307 c-2 -19 -5 -35 -7
-35 -2 0 -5 16 -7 35 -2 21 0 35 7 35 7 0 9 -14 7 -35z m39 20 c6 15 7 10 7
-20 0 -22 -3 -31 -6 -20 l-5 20 -8 -20 c-6 -15 -7 -10 -7 20 0 22 3 31 6 20
l5 -20 8 20z m44 -20 c0 -21 -5 -35 -12 -35 -8 0 -13 14 -13 35 0 21 5 35 13
35 7 0 12 -14 12 -35z m62 -3 c1 -21 -2 -30 -7 -22 -6 10 -9 9 -13 -1 -3 -8
-6 2 -6 22 -1 23 4 36 12 36 8 0 14 -14 14 -35z m37 30 c-6 -4 -11 -16 -11
-27 0 -11 5 -23 11 -27 7 -5 4 -8 -6 -8 -14 0 -18 8 -18 35 0 27 4 35 18 35
10 0 13 -3 6 -8z m47 -19 c0 -16 3 -21 6 -13 2 8 7 22 9 30 5 13 6 13 14 0 6
-8 9 -26 9 -40 0 -14 -3 -19 -6 -12 -2 6 -10 9 -16 5 -32 -20 -47 -13 -47 22
0 44 30 51 31 8z m79 -8 c0 -24 -5 -35 -15 -35 -10 0 -15 11 -15 35 0 24 5 35
15 35 10 0 15 -11 15 -35z m60 24 c0 -5 -4 -7 -10 -4 -5 3 -10 2 -10 -4 0 -5
5 -11 12 -13 6 -2 9 -12 5 -21 -11 -29 -25 -19 -25 18 0 23 5 35 14 35 8 0 14
-5 14 -11z m-120 -94 c0 -1 -9 -5 -20 -8 -12 -3 -20 0 -20 8 0 8 8 11 20 8 11
-3 20 -7 20 -8z"/>
<path d="M1100 1290 c0 -35 2 -61 5 -58 8 7 9 108 1 115 -3 3 -6 -22 -6 -57z"/>
<path d="M1666 1333 c-6 -14 -5 -15 5 -6 7 7 10 15 7 18 -3 3 -9 -2 -12 -12z"/>
<path d="M1012 1333 c13 -3 18 -18 21 -56 l3 -52 2 52 c2 45 5 52 25 56 12 2
2 4 -23 4 -25 1 -37 -1 -28 -4z"/>
<path d="M1313 1285 c-1 -33 1 -51 4 -40 9 38 23 41 49 10 14 -17 22 -23 18
-15 -4 8 -14 23 -22 33 -14 15 -13 19 3 37 10 11 16 23 13 26 -3 3 -15 -6 -26
-20 -25 -33 -30 -32 -35 2 -2 15 -4 0 -4 -33z"/>
<path d="M1810 1286 c0 -55 1 -56 29 -56 33 0 57 23 44 42 -4 7 -8 24 -8 38 0
21 -5 26 -32 28 l-33 3 0 -55z m57 22 c-4 -12 -1 -28 4 -35 15 -17 2 -33 -26
-33 -21 0 -23 4 -23 45 1 41 3 45 26 45 20 0 23 -4 19 -22z"/>
<path d="M1148 1270 c2 -22 6 -40 8 -40 2 0 4 18 4 40 0 22 -3 40 -8 40 -4 0
-6 -18 -4 -40z"/>
<path d="M1236 1296 c5 -12 -1 -16 -25 -16 -17 0 -31 -4 -31 -8 0 -4 16 -6 35
-4 34 4 47 23 25 37 -6 3 -7 -1 -4 -9z"/>
<path d="M1417 1303 c-4 -3 -7 -19 -7 -34 0 -29 33 -50 51 -32 6 6 1 9 -12 9
-12 -1 -24 5 -26 12 -3 7 5 12 21 12 26 0 36 22 16 35 -6 3 -7 -1 -4 -9 4 -12
0 -16 -16 -16 -16 0 -20 4 -16 15 6 16 3 19 -7 8z"/>
<path d="M1500 1299 c0 -5 5 -7 10 -4 6 3 10 8 10 11 0 2 -4 4 -10 4 -5 0 -10
-5 -10 -11z"/>
<path d="M1548 1283 c3 -18 -1 -31 -14 -41 -18 -14 -18 -14 -1 -8 10 3 21 6
23 6 8 0 4 59 -5 64 -4 3 -6 -6 -3 -21z"/>
<path d="M1625 1300 c3 -5 8 -10 11 -10 2 0 4 5 4 10 0 6 -5 10 -11 10 -5 0
-7 -4 -4 -10z"/>
<path d="M1692 1293 c2 -9 10 -18 18 -20 12 -4 13 -3 1 5 -7 5 -10 15 -7 21 4
6 2 11 -4 11 -6 0 -10 -8 -8 -17z"/>
<path d="M1956 1296 c3 -8 -2 -16 -13 -19 -17 -5 -17 -5 0 -6 10 0 17 -7 15
-13 -7 -19 -36 -21 -41 -3 -4 12 -5 11 -3 -2 1 -12 10 -18 29 -19 25 -1 27 2
27 37 0 22 -4 39 -10 39 -5 0 -7 -6 -4 -14z"/>
<path d="M2002 1268 c1 -41 1 -41 5 -8 3 19 10 38 16 42 8 5 6 8 -5 8 -15 0
-18 -8 -16 -42z"/>
<path d="M3366 1279 c-9 -13 -16 -29 -16 -37 0 -17 89 -112 105 -112 19 0 105
97 105 118 0 31 -35 56 -67 48 -33 -8 -39 -8 -79 0 -26 5 -35 2 -48 -17z"/>
<path d="M1590 1265 c-14 -17 -5 -35 18 -35 13 0 13 2 -4 14 -16 12 -16 15 -4
19 8 3 22 8 30 10 10 4 8 6 -6 6 -12 1 -27 -6 -34 -14z"/>
<path d="M1736 1256 c6 -16 4 -18 -19 -14 -15 3 -24 1 -21 -3 7 -13 42 -11 50
2 3 6 1 16 -5 22 -9 9 -10 7 -5 -7z"/>
<path d="M1197 1238 c2 -5 13 -8 23 -8 10 0 21 3 23 8 3 4 -8 7 -23 7 -15 0
-26 -3 -23 -7z"/>
<path d="M350 375 c-61 -62 -71 -75 -52 -75 21 0 22 -4 22 -80 l0 -80 34 0
c34 0 35 1 38 48 3 47 3 47 38 47 35 0 35 0 38 -47 3 -47 4 -48 38 -48 l34 0
0 80 c0 76 1 80 22 80 19 0 9 13 -52 75 -41 41 -77 75 -80 75 -3 0 -39 -34
-80 -75z"/>
</g>
</svg>
